<svg xmlns="http://www.w3.org/2000/svg" width="22.119" height="22.119"><path fill-rule="evenodd" d="m3.727 4.886.415-.414 3.59 3.59-.678.678a.568.568 0 0 0-.074.713 17.477 17.477 0 0 0 2.582 3.105 17.442 17.442 0 0 0 3.104 2.58.568.568 0 0 0 .714-.073l.678-.679 3.59 3.592-.415.413a2.114 2.114 0 0 1-2.109.558 16.262 16.262 0 0 1-7.46-4.474c-.006-.008-.013-.013-.02-.02a16.258 16.258 0 0 1-4.475-7.46 2.117 2.117 0 0 1 .558-2.109ZM5.81 3.084c-.179-.002-.35.069-.477.195l-.386.386 3.59 3.59.386-.386a.678.678 0 0 0 0-.956L6.288 3.279a.668.668 0 0 0-.477-.196Zm10.394 10.112a.672.672 0 0 0-.954 0l-.386.386 3.589 3.59.386-.387a.677.677 0 0 0 0-.954zM6.85 15.272a17.393 17.393 0 0 0 7.973 4.776 3.23 3.23 0 0 0 3.217-.85l1.607-1.607a1.818 1.818 0 0 0 0-2.566L17.01 12.39a1.816 1.816 0 0 0-2.565 0l-1.539 1.54a16.34 16.34 0 0 1-2.528-2.168c-.006-.008-.013-.013-.02-.02A16.308 16.308 0 0 1 8.19 9.213l1.538-1.539a1.813 1.813 0 0 0 0-2.564L7.094 2.472a1.82 1.82 0 0 0-2.566 0L2.921 4.08a3.23 3.23 0 0 0-.85 3.217c.84 3.043 2.491 5.8 4.778 7.975z"/></svg>