<svg xmlns="http://www.w3.org/2000/svg" width="130.454" height="181.063"><g data-name="Group 38"><g data-name="Group 23"><g data-name="Group 22"><path  d="M121.852 4.672c-2.435-1.203-5.726.494-7.352 3.793s-.973 6.941 1.465 8.145 5.727-.495 7.347-3.794a6.871 6.871 0 0 0-1.46-8.144Z" data-name="Path 8"/></g></g><g data-name="Group 25"><g data-name="Group 24" transform="rotate(11.97 52.271 494.865)"><ellipse cx="4.769" cy="6.591"  data-name="Ellipse 2" rx="4.769" ry="6.591"/></g></g><g data-name="Group 27"><g data-name="Group 26"><path  d="M125.39 17.696c-2.712-.534-5.408 1.586-6.194 5.59s1.068 6.294 3.784 6.833 5.262-.893 6.047-4.896c1.03-5.215-2.981-7.4-3.637-7.527Z" data-name="Path 9"/></g></g><g data-name="Group 29"><g data-name="Group 28" transform="rotate(11.97 12.301 441.13)"><ellipse cx="4.918" cy="6.656"  data-name="Ellipse 3" rx="4.918" ry="6.656" transform="matrix(.998 -.07 .07 .998 0 .686)"/></g></g><g data-name="Group 31"><g data-name="Group 30"><path  d="M119.74 32.15a41.01 41.01 0 0 1-5.67-9.533 5.663 5.663 0 0 0-4.608-3.468 6.235 6.235 0 0 0-5.85 1.667 33.476 33.476 0 0 1-7.933 5.59c-3.85 2.04-5.642 3.634-6.232 6.417s.017 7.743 4.535 8.701 6.912.428 10.482 1.185 5.663 2.648 10.18 3.606 7.31-2.917 7.9-5.7.14-4.523-2.804-8.465Z" data-name="Path 10"/></g></g><g data-name="baidu"><g data-name="Group 23"><g data-name="Group 22"><path  d="M107.337 107.17c-2.434-1.203-5.726.494-7.352 3.792s-.973 6.942 1.466 8.146 5.727-.495 7.346-3.794a6.871 6.871 0 0 0-1.46-8.144Z" data-name="Path 8"/></g></g><g data-name="Group 25"><g data-name="Group 24" transform="rotate(11.97 -443.72 476.922)"><ellipse cx="4.769" cy="6.591"  data-name="Ellipse 2" rx="4.769" ry="6.591"/></g></g><g data-name="Group 27"><g data-name="Group 26"><path  d="M110.875 120.193c-2.712-.533-5.407 1.587-6.194 5.59s1.069 6.294 3.784 6.833 5.263-.892 6.047-4.896c1.031-5.214-2.98-7.399-3.637-7.527Z" data-name="Path 9"/></g></g><g data-name="Group 29"><g data-name="Group 28" transform="rotate(11.97 -483.691 423.185)"><ellipse cx="4.918" cy="6.656"  data-name="Ellipse 3" rx="4.918" ry="6.656" transform="matrix(.998 -.07 .07 .998 0 .686)"/></g></g><g data-name="Group 31"><g data-name="Group 30"><path  d="M105.225 134.647a41.01 41.01 0 0 1-5.67-9.532 5.663 5.663 0 0 0-4.608-3.468 6.235 6.235 0 0 0-5.85 1.666 33.476 33.476 0 0 1-7.933 5.59c-3.85 2.04-5.641 3.635-6.231 6.417s.017 7.744 4.534 8.702 6.912.427 10.483 1.184 5.662 2.649 10.18 3.607 7.309-2.918 7.899-5.7.14-4.523-2.804-8.466Z" data-name="Path 10"/></g></g></g><g data-name="baidu"><g data-name="Group 23"><g data-name="Group 22"><path  d="M58.77 46.043c-2.435-1.203-5.727.494-7.352 3.793s-.973 6.94 1.465 8.145 5.727-.495 7.346-3.794a6.871 6.871 0 0 0-1.46-8.144Z" data-name="Path 8"/></g></g><g data-name="Group 25"><g data-name="Group 24" transform="rotate(11.97 -176.545 214.766)"><ellipse cx="4.769" cy="6.591"  data-name="Ellipse 2" rx="4.769" ry="6.591"/></g></g><g data-name="Group 27"><g data-name="Group 26"><path  d="M62.308 59.066c-2.713-.533-5.408 1.587-6.195 5.59s1.069 6.294 3.784 6.833 5.263-.892 6.047-4.896c1.031-5.214-2.98-7.399-3.636-7.527Z" data-name="Path 9"/></g></g><g data-name="Group 29"><g data-name="Group 28" transform="rotate(11.97 -216.516 161.03)"><ellipse cx="4.918" cy="6.656"  data-name="Ellipse 3" rx="4.918" ry="6.656" transform="matrix(.998 -.07 .07 .998 0 .686)"/></g></g><g data-name="Group 31"><g data-name="Group 30"><path  d="M56.657 73.52a41.01 41.01 0 0 1-5.67-9.532 5.663 5.663 0 0 0-4.607-3.468 6.235 6.235 0 0 0-5.851 1.666 33.476 33.476 0 0 1-7.932 5.59c-3.851 2.041-5.642 3.635-6.232 6.417s.017 7.744 4.534 8.702 6.912.427 10.483 1.184 5.662 2.649 10.18 3.607 7.31-2.918 7.9-5.7.14-4.523-2.805-8.465Z" data-name="Path 10"/></g></g></g><g data-name="baidu"><g data-name="Group 23"><g data-name="Group 22"><path  d="M34.084 138.019c-2.434-1.203-5.726.494-7.352 3.792s-.973 6.941 1.466 8.145 5.727-.494 7.346-3.793a6.871 6.871 0 0 0-1.46-8.144Z" data-name="Path 8"/></g></g><g data-name="Group 25"><g data-name="Group 24" transform="rotate(11.97 -627.454 143.063)"><ellipse cx="4.769" cy="6.591"  data-name="Ellipse 2" rx="4.769" ry="6.591"/></g></g><g data-name="Group 27"><g data-name="Group 26"><path  d="M37.622 151.042c-2.712-.533-5.408 1.587-6.194 5.59s1.069 6.294 3.784 6.833 5.262-.893 6.047-4.896c1.031-5.214-2.981-7.4-3.637-7.527Z" data-name="Path 9"/></g></g><g data-name="Group 29"><g data-name="Group 28" transform="rotate(11.97 -667.424 89.327)"><ellipse cx="4.918" cy="6.656"  data-name="Ellipse 3" rx="4.918" ry="6.656" transform="matrix(.998 -.07 .07 .998 0 .686)"/></g></g><g data-name="Group 31"><g data-name="Group 30"><path  d="M31.972 165.496a41.01 41.01 0 0 1-5.67-9.532 5.663 5.663 0 0 0-4.608-3.468 6.235 6.235 0 0 0-5.85 1.666 33.476 33.476 0 0 1-7.933 5.59c-3.85 2.04-5.641 3.635-6.231 6.417s.017 7.744 4.534 8.702 6.912.427 10.482 1.184 5.663 2.648 10.18 3.606 7.31-2.917 7.9-5.699.14-4.523-2.804-8.466Z" data-name="Path 10"/></g></g></g></g></svg>