<svg xmlns="http://www.w3.org/2000/svg" width="64" height="64"><g data-name="Group 83" transform="translate(-212.324 -31.48)"><circle cx="244.324" cy="63.481" r="32" fill="#fff" data-name="Ellipse 1"/><path fill="#ffb431" d="M221.317 50.835v24.22a.865.865 0 0 0 .865.866h48.441a.865.865 0 0 0 .865-.865v-8.582a2.6 2.6 0 0 0-1.684-2.43l-5.236-1.964-5.15-11.772a3.46 3.46 0 0 0-3.168-2.073h-32.333a2.6 2.6 0 0 0-2.6 2.6z" data-name="Path 28"/><path fill="#415e89" d="M270.623 75.916h-48.44a.865.865 0 0 1-.866-.865v-3.46h50.171v3.46a.865.865 0 0 1-.865.865Z" data-name="Path 29"/><path fill="#4db6e4" d="M252.458 52.56v8.65a.865.865 0 0 0 .865.865h11.245l-4.54-10.38h-6.7a.865.865 0 0 0-.87.865Z" data-name="Path 30"/><path fill="#dfdfdd" d="M271.488 71.59h-3.46a.865.865 0 0 1-.865-.864V68.99a.865.865 0 0 1 .865-.865h3.46Z" data-name="Path 31"/><path fill="#f9a40f" d="M223.912 50.83h25.951v1.73h-25.95Z" data-name="Path 32"/><path fill="#f9a40f" d="M223.912 61.21h25.951v1.73h-25.95Z" data-name="Path 33"/><path fill="#3ba5d3" d="M256.783 51.695h1.73v10.38h-1.73Z" data-name="Path 34"/><g data-name="Group 83" transform="translate(197.317 -63.765)"><circle cx="5" cy="5" r="5" fill="#34507b" data-name="Ellipse 5" transform="translate(57.007 133.246)"/><circle cx="2" cy="2" r="2" fill="#dfdfdd" data-name="Ellipse 7" transform="translate(60.007 136.246)"/></g><g data-name="Group 84" transform="translate(170.317 -63.765)"><circle cx="5" cy="5" r="5" fill="#34507b" data-name="Ellipse 5" transform="translate(57.007 133.246)"/><circle cx="2" cy="2" r="2" fill="#dfdfdd" data-name="Ellipse 7" transform="translate(60.007 136.246)"/></g><path fill="#ffc261" d="M252.458 64.67h3.46v1.73h-3.46Z" data-name="Path 35"/><path fill="#ffc261" d="M246.403 64.67h3.46v1.73h-3.46Z" data-name="Path 36"/><path fill="#d65246" d="M223.912 71.59h-2.6v-3.46h2.6a.865.865 0 0 1 .865.86v1.736a.865.865 0 0 1-.865.865Z" data-name="Path 37"/></g></svg>