<svg xmlns="http://www.w3.org/2000/svg" xml:space="preserve" id="svg343" width="64" height="64" version="1.1"><defs id="defs347"><style id="style466">.cls-3,.cls-4{fill:#f5aa4e}.cls-10,.cls-15,.cls-4,.cls-9{mix-blend-mode:multiply}.cls-15,.cls-4{opacity:.8}.cls-5{fill:#fff}.cls-7{fill:#ffdb9f}.cls-8{fill:#ffc929}.cls-9{opacity:.6}.cls-12{fill:#ffda86}.cls-14{fill:#79bddd}.cls-23{fill:#ff8d95}</style></defs><g id="g341" data-name="Group 83" transform="translate(-212.324 -31.48)"><circle id="circle307" cx="244.324" cy="63.48" r="32" fill="#fff" data-name="Ellipse 1"/></g><g id="Layer_1" data-name="Layer 1" style="isolation:isolate" transform="translate(79.856 -6.52) scale(.0406)"><path id="path472" d="M-888.448 782.995v3.327a217.446 217.446 0 0 1-1.864 25.522l-.154 1.05c-.153.92-.283 1.852-.436 2.737-.19 1.18-.39 2.43-.602 3.54-.213 1.109-.39 2.018-.602 2.973a22.9 22.9 0 0 1-.436 1.935 5.605 5.605 0 0 1-.166.744c-.153.66-.318 1.51-.578 2.36a86.094 86.094 0 0 1-1.723 6.052c-.247.767-.507 1.605-.802 2.36l-.082.19c-.354 1.073-.72 2.135-1.18 3.15-.46 1.014-.767 1.887-1.18 2.831l-.224.543c-.402.944-.85 1.9-1.416 2.962-.083.165-.213.448-.366.731a13.392 13.392 0 0 1-.861 1.676l-.13.247v.602l-.602.472-.437.767-.118.189-.519.932c-.189.283-.342.507-.495.755-.177.283-.342.543-.52.802-.176.26-.46.72-.696 1.098a7.634 7.634 0 0 1-.472.66 48.258 48.258 0 0 1-3.103 4.048 3.21 3.21 0 0 1-.4.495c-.473.578-.957 1.18-1.452 1.652l-.413.437c-8.437 9.05-22.914 17.038-38.76 21.391-.956.26-1.9.52-2.868.756a93.213 93.213 0 0 1-16.931 2.749l-2.207.094a82.098 82.098 0 0 1-8.578-.153c-16.011-1.18-27.975-7.351-35.61-18.3a26.607 26.607 0 0 1-2.784-5.145 39.152 39.152 0 0 1-.555-1.416 14.454 14.454 0 0 1-.519-1.463 47.586 47.586 0 0 1-1.829-8.106l-.094-.602c0-.354-.094-.731-.153-1.097-.082-.637-.13-1.18-.177-1.864-.106-1.11-.177-2.36-.26-3.6l-.059-1.934a141.4 141.4 0 0 1 1.357-21.71c.083-.602.177-1.24.272-1.865l.13-.956c.578-3.929 1.321-8.106 2.241-12.813.248-1.062.437-2.1.637-3.15.496-2.23.98-4.414 1.487-6.597.212-.79.378-1.522.566-2.277l.284-1.18c.224-1.073.53-2.23.837-3.374a43.84 43.84 0 0 1 .52-2.053l.153-.602.224-.944c.307-.98.59-2.053.873-3.115a397.812 397.812 0 0 1 4.142-14.159c.26-.932.578-1.959.908-2.95 1.452-4.566 2.95-9.12 4.484-13.533.448-1.334.92-2.714 1.404-4.083l.708-1.982c0-.153.106-.319.165-.472.484-1.38.98-2.714 1.487-4.106l.13-.366c.342-.932.684-1.864 1.038-2.784l1.758-4.65c.484-1.285.98-2.572 1.463-3.834l.177-.425c.956-2.43 1.912-4.85 2.88-7.197.353-.873.695-1.723 1.05-2.573.188-.424.365-.86.554-1.297 2.631-6.325 5.274-12.378 7.893-18.006 4.26-9.109 8.118-17.061 11.8-24.294a394.386 394.386 0 0 1 10.701-19.658c1.994-3.48 3.977-6.784 5.9-9.758a6.902 6.902 0 0 0-2.206-9.439 6.808 6.808 0 0 0-1.57-.72 6.961 6.961 0 0 0-7.917 2.903c-.732 1.18-1.487 2.43-2.254 3.67-3.115 5.168-5.9 9.97-8.424 14.666a237.044 237.044 0 0 0-3.54 6.572 422.644 422.644 0 0 0-7.08 13.876 1284.04 1284.04 0 0 0-7.881 16.448l-.248.542a600.647 600.647 0 0 0-7.21 16.448c-.212.472-.424.968-.625 1.452a690.92 690.92 0 0 0-7.693 19.41c-.519 1.415-1.073 2.843-1.616 4.318l-.79 2.147c-1.712 4.65-3.21 8.873-4.543 12.909a63.591 63.591 0 0 0-.826 2.36 530.504 530.504 0 0 0-7.375 23.928l-.377 1.428-.094.365c-.142.602-.319 1.18-.484 1.782-1.18 4.26-2.112 8.165-2.962 11.8-.354 1.569-.696 3.079-1.003 4.566-.306 1.486-.708 3.256-1.014 4.837-.307 1.581-.567 2.75-.79 4.106v.19c0 .27-.119.554-.154.837v.2c-.236 1.18-.425 2.278-.602 3.34-.496 2.973-.85 5.404-1.18 7.669a261.724 261.724 0 0 0-.53 4.72l-.072.66c-.177 1.7-.342 3.54-.436 5.345v.272a3.54 3.54 0 0 0 0 .708v.236c0 .731-.094 1.463-.107 2.183-.012.72-.083 1.368-.094 2.029 0 1.38-.083 2.549-.083 3.752v3.681c0 1.192 0 2.124.107 3.139.106 1.015.118 1.723.188 2.525 0 .531 0 .909.071 1.286 1.027 11.139 3.847 20.059 8.413 26.666a53.65 53.65 0 0 0 25.061 19.61 68.435 68.435 0 0 0 16.732 4.142c.601.094 1.18.153 1.746.236-.673.708-1.357 1.404-2.03 2.1a259.404 259.404 0 0 1-20.176 18.643 241.552 241.552 0 0 1-58.689 36.022c-1.428.602-2.855 1.18-4.271 1.782a238.343 238.343 0 0 1-34.961 11.221c-38.265 9.144-79.444 4.79-115.962-12.224-48.518-22.595-80.234-51.102-94.83-84.954a110.806 110.806 0 0 1-7.315-63.479c.07-.401.13-.779.212-1.18a105.083 105.083 0 0 1 3.859-14.713c.118-.354.224-.685.342-1.003.672-1.865 1.18-2.997 1.298-3.292 7.292-14.265 15.15-30.112 22.595-45.439l6.277-.979.838-.142 5.57-.85c-.367-2.359-.709-4.6-.992-6.843 0-.306-.094-.601-.106-.908a266.92 266.92 0 0 1-1.286-11.528c1.817-3.728 3.54-7.363 5.227-10.832.188-.377.377-.755.542-1.18 1.57-3.303 3.068-6.465 4.508-9.439a309.3 309.3 0 0 1 2.36-4.955c.165-.343.318-.697.495-1.05 7.198-15.61 13.652-31.363 19.138-45.002a133.779 133.779 0 0 1 61.155-69.096c.083 0 .177-.095.272-.154 1.876-1.014 3.752-2.017 5.699-2.961 1.946-.944 4.165-2.03 6.312-2.974l1.11-.507 1.828-.755.437-.189q7.22-3.044 15.055-5.545a216.455 216.455 0 0 1 21.416-5.629 234.413 234.413 0 0 1 24.601-3.823 262.248 262.248 0 0 1 56.541-.094q33.038 4.968 59.397 16.519 4.885 2.112 9.51 4.484c.803.389 1.593.802 2.36 1.18a5.227 5.227 0 0 0-.755.495l-.425.224a22.017 22.017 0 0 0-2.053 1.57l-.743.566a21.486 21.486 0 0 0-3.646 3.315 6.136 6.136 0 0 0-1.003 1.652 6.631 6.631 0 0 0-.354 3.752 5.144 5.144 0 0 0 .354 1.18 6.714 6.714 0 0 0 3.788 3.823 6.843 6.843 0 0 0 4.26.224 6.36 6.36 0 0 0 2.029-1.18c.365-.283.743-.601 1.18-.955l.696-.602a37.238 37.238 0 0 1 6.796-4.861c1.026-.59 1.982-1.18 2.903-1.593l1.286-.637a28.471 28.471 0 0 1 9.758-2.88h.837c.767 0 1.463.083 2.1.154a14.159 14.159 0 0 0 1.723.13l.567.059c.731.165 1.58.354 2.477.637a3.54 3.54 0 0 1 .46.153l.201.071.153.06.449.188a3.74 3.74 0 0 1 .436.189l.732.342a23.457 23.457 0 0 1 3.245 1.829 38.937 38.937 0 0 1 8.825 8.53 44.72 44.72 0 0 1 1.499 2.018c.484.696.967 1.393 1.44 2.112a98.074 98.074 0 0 1 8.754 17.557l.118.307.225.567c.07.165.153.354.212.53q2.466 6.49 4.897 13.145l.295.814q1.923 5.298 3.834 10.62c7.292 20.671 12.98 39.184 17.392 56.635a384.05 384.05 0 0 1 9.51 50.736c.319 2.702.59 5.357.814 8.012.472 5.557.791 11.02.944 16.342v1.829c.095 1.994.107 3.964.107 5.923z" class="cls-3" style="stroke-width:1.17991"/><path id="path474" d="M-888.448 782.995v3.327a217.446 217.446 0 0 1-1.864 25.522l-.154 1.05c-.153.92-.283 1.852-.436 2.737-.19 1.18-.39 2.43-.602 3.54-.213 1.109-.39 2.018-.602 2.973a22.9 22.9 0 0 1-.436 1.935 5.605 5.605 0 0 1-.166.744c-.153.66-.318 1.51-.578 2.36a86.094 86.094 0 0 1-1.723 6.052c-.247.767-.507 1.605-.802 2.36l-.082.19c-.354 1.073-.72 2.135-1.18 3.15-.46 1.014-.767 1.887-1.18 2.831l-.224.543c-.402.944-.85 1.9-1.416 2.962-.083.165-.213.448-.366.731a13.392 13.392 0 0 1-.861 1.676l-.13.247v.602l-.602.472-.437.767-.118.189-.519.932c-.189.283-.342.507-.495.755-.177.283-.342.543-.52.802-.176.26-.46.72-.696 1.098a7.634 7.634 0 0 1-.472.66 48.258 48.258 0 0 1-3.103 4.048 3.21 3.21 0 0 1-.4.495c-.473.578-.957 1.18-1.452 1.652l-.413.437c-8.437 9.05-22.914 17.038-38.76 21.391-.956.26-1.9.52-2.868.756a93.213 93.213 0 0 1-16.931 2.749l-2.207.094a82.098 82.098 0 0 1-8.578-.153c-16.011-1.18-27.975-7.351-35.61-18.3a26.607 26.607 0 0 1-2.784-5.145 39.152 39.152 0 0 1-.555-1.416 14.454 14.454 0 0 1-.519-1.463 47.586 47.586 0 0 1-1.829-8.106l-.094-.602c0-.354-.094-.731-.153-1.097-.082-.637-.13-1.18-.177-1.864-.106-1.11-.177-2.36-.26-3.6l-.059-1.934a141.4 141.4 0 0 1 1.357-21.71c.083-.602.177-1.24.272-1.865l.13-.956c.578-3.929 1.321-8.106 2.241-12.813.248-1.062.437-2.1.637-3.15.496-2.23.98-4.414 1.487-6.597.212-.79.378-1.522.566-2.277l.284-1.18c.224-1.073.53-2.23.837-3.374a43.84 43.84 0 0 1 .52-2.053l.153-.602.224-.944c.307-.98.59-2.053.873-3.115a397.812 397.812 0 0 1 4.142-14.159c.26-.932.578-1.959.908-2.95 1.452-4.566 2.95-9.12 4.484-13.533.448-1.334.92-2.714 1.404-4.083l.708-1.982c0-.153.106-.319.165-.472.484-1.38.98-2.714 1.487-4.106l.13-.366c.342-.932.684-1.864 1.038-2.784l1.758-4.65c.484-1.285.98-2.572 1.463-3.834l.177-.425c.956-2.43 1.912-4.85 2.88-7.197.353-.873.695-1.723 1.05-2.573.188-.424.365-.86.554-1.297 2.631-6.325 5.274-12.378 7.893-18.006 4.26-9.109 8.118-17.061 11.8-24.294a394.386 394.386 0 0 1 10.701-19.658c1.994-3.48 3.977-6.784 5.9-9.758a6.902 6.902 0 0 0-2.206-9.439 6.808 6.808 0 0 0-1.57-.72 6.961 6.961 0 0 0-7.917 2.903c-.732 1.18-1.487 2.43-2.254 3.67-3.115 5.168-5.9 9.97-8.424 14.666a237.044 237.044 0 0 0-3.54 6.572 422.644 422.644 0 0 0-7.08 13.876 1284.04 1284.04 0 0 0-7.881 16.448l-.248.542a600.647 600.647 0 0 0-7.21 16.448c-.212.472-.424.968-.625 1.452a690.92 690.92 0 0 0-7.693 19.41c-.519 1.415-1.073 2.843-1.616 4.318l-.79 2.147c-1.712 4.65-3.21 8.873-4.543 12.909a63.591 63.591 0 0 0-.826 2.36 530.504 530.504 0 0 0-7.375 23.928l-.377 1.428-.094.365c-.142.602-.319 1.18-.484 1.782-1.18 4.26-2.112 8.165-2.962 11.8-.354 1.569-.696 3.079-1.003 4.566-.306 1.486-.708 3.256-1.014 4.837-.307 1.581-.567 2.75-.79 4.106v.19c0 .27-.119.554-.154.837v.2c-.236 1.18-.425 2.278-.602 3.34-.496 2.973-.85 5.404-1.18 7.669a261.724 261.724 0 0 0-.53 4.72l-.072.66c-.177 1.7-.342 3.54-.436 5.345v.272a3.54 3.54 0 0 0 0 .708v.236c0 .731-.094 1.463-.107 2.183-.012.72-.083 1.368-.094 2.029 0 1.38-.083 2.549-.083 3.752v3.681c0 1.192 0 2.124.107 3.139.106 1.015.118 1.723.188 2.525 0 .531 0 .909.071 1.286 1.027 11.139 3.847 20.059 8.413 26.666a53.65 53.65 0 0 0 25.061 19.61 68.435 68.435 0 0 0 16.732 4.142c.601.094 1.18.153 1.746.236-.673.708-1.357 1.404-2.03 2.1a259.404 259.404 0 0 1-20.176 18.643 241.552 241.552 0 0 1-58.689 36.022c-1.428.602-2.855 1.18-4.271 1.782a238.343 238.343 0 0 1-34.961 11.221c-38.265 9.144-79.444 4.79-115.962-12.224-48.518-22.595-80.234-51.102-94.83-84.954a110.806 110.806 0 0 1-7.315-63.479c.07-.401.13-.779.212-1.18a105.083 105.083 0 0 1 3.859-14.713c.118-.354.224-.685.342-1.003.672-1.865 1.18-2.997 1.298-3.292 7.292-14.265 15.15-30.112 22.595-45.439l6.277-.979.838-.142 5.57-.85c-.367-2.359-.709-4.6-.992-6.843 0-.306-.094-.601-.106-.908a266.92 266.92 0 0 1-1.286-11.528c1.817-3.728 3.54-7.363 5.227-10.832.188-.377.377-.755.542-1.18 1.57-3.303 3.068-6.465 4.508-9.439a309.3 309.3 0 0 1 2.36-4.955c.165-.343.318-.697.495-1.05 7.198-15.61 13.652-31.363 19.138-45.002a133.779 133.779 0 0 1 61.155-69.096c.083 0 .177-.095.272-.154 1.876-1.014 3.752-2.017 5.699-2.961 1.946-.944 4.165-2.03 6.312-2.974l1.11-.507 1.828-.755.437-.189q7.22-3.044 15.055-5.545a216.455 216.455 0 0 1 21.416-5.629 234.413 234.413 0 0 1 24.601-3.823 262.248 262.248 0 0 1 56.541-.094q33.038 4.968 59.397 16.519 4.885 2.112 9.51 4.484c.803.389 1.593.802 2.36 1.18a5.227 5.227 0 0 0-.755.495l-.425.224a22.017 22.017 0 0 0-2.053 1.57l-.743.566a21.486 21.486 0 0 0-3.646 3.315 6.136 6.136 0 0 0-1.003 1.652 6.631 6.631 0 0 0-.354 3.752 5.144 5.144 0 0 0 .354 1.18 6.714 6.714 0 0 0 3.788 3.823 6.843 6.843 0 0 0 4.26.224 6.36 6.36 0 0 0 2.029-1.18c.365-.283.743-.601 1.18-.955l.696-.602a37.238 37.238 0 0 1 6.796-4.861c1.026-.59 1.982-1.18 2.903-1.593l1.286-.637a28.471 28.471 0 0 1 9.758-2.88h.837c.767 0 1.463.083 2.1.154a14.159 14.159 0 0 0 1.723.13l.567.059c.731.165 1.58.354 2.477.637a3.54 3.54 0 0 1 .46.153l.201.071.153.06.449.188a3.74 3.74 0 0 1 .436.189l.732.342a23.457 23.457 0 0 1 3.245 1.829 38.937 38.937 0 0 1 8.825 8.53 44.72 44.72 0 0 1 1.499 2.018c.484.696.967 1.393 1.44 2.112a98.074 98.074 0 0 1 8.754 17.557l.118.307.225.567c.07.165.153.354.212.53q2.466 6.49 4.897 13.145l.295.814q1.923 5.298 3.834 10.62c7.292 20.671 12.98 39.184 17.392 56.635a384.05 384.05 0 0 1 9.51 50.736c.319 2.702.59 5.357.814 8.012.472 5.557.791 11.02.944 16.342v1.829c.095 1.994.107 3.964.107 5.923z" class="cls-3" style="stroke-width:1.17991"/><path id="path476" d="M-984.883 579.424a5.227 5.227 0 0 0-.755.496l-.306.212a22.017 22.017 0 0 0-2.053 1.57l-.744.566a27.787 27.787 0 0 0-3.056 2.643 239.086 239.086 0 0 0-55.35-14.773 262.342 262.342 0 0 0-56.553.095 237.835 237.835 0 0 0-24.59 3.823 213.234 213.234 0 0 0-21.415 5.64q-7.846 2.477-15.055 5.533l-.437.19-1.829.754-1.109.508a147.662 147.662 0 0 0-6.312 2.973 167.464 167.464 0 0 0-5.7 2.962l-.283.153a133.814 133.814 0 0 0-61.143 69.096c-5.486 13.64-11.94 29.391-19.138 45.002-.177.354-.33.72-.496 1.05a190.345 190.345 0 0 1-2.36 4.955c-1.439 2.997-2.95 6.16-4.507 9.44-.177.377-.354.755-.542 1.18-1.664 3.469-3.422 7.08-5.227 10.831.342 3.752.755 7.599 1.286 11.528 0 .307.07.614.106.909.283 2.241.625 4.519.98 6.843l-5.558.85-.85.141-6.265.991a2774.929 2774.929 0 0 1-22.595 45.427 51.88 51.88 0 0 0-1.298 3.292c-.118.33-.236.649-.342 1.003a106.475 106.475 0 0 0-3.87 14.713c-.072.378-.13.756-.201 1.18a110.806 110.806 0 0 0 7.315 63.48 117.65 117.65 0 0 0 7.752 14.961 123.089 123.089 0 0 1-16.802-27.858 110.806 110.806 0 0 1-7.315-63.48c.07-.4.13-.778.212-1.179a105.083 105.083 0 0 1 3.859-14.714c.118-.354.224-.684.342-1.002.672-1.865 1.18-2.997 1.298-3.292 7.292-14.266 15.15-30.112 22.595-45.439l6.277-.98.838-.14 5.57-.85c-.367-2.36-.709-4.602-.992-6.844 0-.307-.094-.602-.106-.908a266.92 266.92 0 0 1-1.286-11.528c1.817-3.729 3.54-7.363 5.227-10.832.189-.377.377-.755.543-1.18 1.569-3.303 3.067-6.466 4.507-9.439a309.3 309.3 0 0 1 2.36-4.956c.165-.342.318-.696.495-1.05 7.198-15.61 13.652-31.362 19.138-45.002a133.779 133.779 0 0 1 61.155-69.095c.083 0 .177-.095.272-.154 1.876-1.014 3.752-2.017 5.699-2.961s4.165-2.03 6.312-2.974l1.11-.507 1.828-.755.437-.189q7.22-3.044 15.055-5.546a216.455 216.455 0 0 1 21.416-5.628 234.413 234.413 0 0 1 24.601-3.823 262.248 262.248 0 0 1 56.542-.094q33.037 4.967 59.396 16.519 4.885 2.112 9.51 4.483c.826.33 1.617.708 2.407 1.18z" class="cls-4" style="stroke-width:1.17991"/><path id="path478" d="M-983.195 899.145c-.673.708-1.357 1.405-2.03 2.1a259.404 259.404 0 0 1-20.176 18.643 241.552 241.552 0 0 1-58.69 36.023c-1.427.602-2.855 1.18-4.27 1.782a238.343 238.343 0 0 1-34.961 11.22c-38.265 9.145-79.444 4.791-115.962-12.223-48.518-22.596-80.234-51.102-94.83-84.954a110.806 110.806 0 0 1-7.315-63.48c.07-.4.13-.778.212-1.18a105.555 105.555 0 0 1 2.938-11.798 110.841 110.841 0 0 0 7.93 59.526c14.547 33.852 46.322 62.37 94.84 84.954a177.896 177.896 0 0 0 115.962 12.224 238.343 238.343 0 0 0 34.95-11.233c1.415-.566 2.843-1.18 4.283-1.77a241.717 241.717 0 0 0 58.677-36.022c2.3-1.912 4.601-3.882 6.879-5.9a68.435 68.435 0 0 0 9.816 1.9c.602.047 1.192.106 1.747.188z" class="cls-4" style="stroke-width:1.17991"/><path id="path480" d="M-983.195 899.145c-.673.708-1.357 1.405-2.03 2.1a259.404 259.404 0 0 1-20.176 18.643 241.552 241.552 0 0 1-58.69 36.023c-1.427.602-2.855 1.18-4.27 1.782a238.343 238.343 0 0 1-34.961 11.22c-38.265 9.145-79.444 4.791-115.962-12.223q-33.805-15.752-56.754-35.28a267.286 267.286 0 0 0 47.338 27.74 177.978 177.978 0 0 0 115.962 12.236 239.794 239.794 0 0 0 34.95-11.233c1.415-.566 2.854-1.18 4.282-1.77a241.788 241.788 0 0 0 58.677-36.034q8.897-7.375 17.616-16.035a70.335 70.335 0 0 0 12.271 2.595c.602.095 1.192.154 1.747.236z" class="cls-4" style="stroke-width:1.17991"/><path id="path482" d="M-1005.401 919.947a241.552 241.552 0 0 1-58.69 36.023c-1.427.602-2.855 1.18-4.27 1.782a238.343 238.343 0 0 1-34.961 11.22c-38.265 9.145-79.444 4.791-115.962-12.223-48.518-22.596-80.234-51.102-94.83-84.954 2.75-.507 5.274-1.18 6.136-1.38 16.778-4.083 30.677-19.858 40.683-35.398a184.77 184.77 0 0 0 7.858-13.486c.661-1.263 1.298-2.525 1.924-3.811.283-.567.542-1.18.814-1.7 2.773-5.899 5.144-11.881 7.516-17.934a689.336 689.336 0 0 1 4.07-10.289 165.471 165.471 0 0 1 7.08-15.575c1.015-1.888 2.053-3.776 3.174-5.604 9.262-15.446 26.973-23.681 39.043-36.72a132.15 132.15 0 0 0 17.239-25.179c5.498-10.17 10.076-21.026 12.26-30.088 2.855-11.799 4.247-37.52 21.52-35.763 8.071.79 12.284 8.885 13.357 16.52 1.18 7.81-.33 16.022-.554 23.88a108.894 108.894 0 0 0 1.239 18.242c2.183 15.339 7.08 31.987 12.684 42.843a113.272 113.272 0 0 0 10.064 15.339 184.491 184.491 0 0 1 12.378 17.698 54.724 54.724 0 0 1 4.92 10.62c.224.672.425 1.333.614 2.017a124.139 124.139 0 0 1 3.091 13.57c1.18 6.607 1.876 13.096 2.549 19.444.495 4.72.967 9.345 1.58 13.923a124.776 124.776 0 0 0 3.717 18.43 79.88 79.88 0 0 0 11.398 23.964c11.87 17.015 40.625 36.766 62.359 44.59z" class="cls-5" style="stroke-width:1.17991"/><path id="path484" d="M-1005.401 919.947a241.552 241.552 0 0 1-58.69 36.023c-1.427.602-2.855 1.18-4.27 1.782a238.343 238.343 0 0 1-34.961 11.22c-38.265 9.145-79.444 4.791-115.962-12.223-48.518-22.596-80.234-51.102-94.83-84.954 2.75-.507 5.274-1.18 6.136-1.38a35.622 35.622 0 0 0 4.85-1.546c16.648 27.775 46.016 51.538 87.62 70.936a177.896 177.896 0 0 0 115.961 12.224 238.343 238.343 0 0 0 34.95-11.233c1.415-.566 2.843-1.18 4.283-1.77a239.251 239.251 0 0 0 43.09-24.117 112.021 112.021 0 0 0 11.823 5.038z" style="stroke-width:1.17991;fill:#e6e6e6"/><path id="path486" d="M-924.506 1051.862c-.65-4.295-1.31-8.72-2.006-13.239-.755-4.72-1.546-9.58-2.43-14.454-5.086-27.964-13.133-57.698-30.679-80.553a77.874 77.874 0 0 0-20.424-18.748 63.361 63.361 0 0 0-6.714-3.682 253.28 253.28 0 0 1-88.977 53.403 251.322 251.322 0 0 1-24.518 7.162q-9.192 2.183-18.572 3.434h-.118a186.65 186.65 0 0 1-24.365 1.58 193.506 193.506 0 0 1-81.533-18.123c-54.476-25.38-89.508-58.606-104.115-98.723a123.03 123.03 0 0 1-6.761-29.32 123.701 123.701 0 0 1-.637-11.564c-9.746 8.519-22.088 22.702-26.572 42.477-5.463 24.105 1.794 50.937 21.522 79.821q4.118-2.608 8.436-4.838a101.7 101.7 0 0 1 7.422-3.54 102.299 102.299 0 0 1 11.303-4.07 67.338 67.338 0 0 1 11.8-2.537c-1.18.98-2.242 1.923-3.375 2.844a292.086 292.086 0 0 1-5.829 4.72c-3.044 2.477-6.076 4.86-9.097 7.232-6.006 4.72-12.023 9.345-17.592 14.265a171.126 171.126 0 0 0-8.13 7.516c-2.608 2.56-5.11 5.168-7.35 7.93a77.048 77.048 0 0 0-7.434 10.276 66.64 66.64 0 0 1 4.955 3.186 66.158 66.158 0 0 1 15.917 15.905 61.66 61.66 0 0 1 1.581 2.29l1.38 2.206 2.774 4.39c1.71 3.032 3.54 6.017 5.085 9.144a162.734 162.734 0 0 1 8.52 19.22 148.008 148.008 0 0 1 5.686 20.413 120.056 120.056 0 0 1 .767 42.583 117.991 117.991 0 0 1-5.44 20.79 106.452 106.452 0 0 1-4.247 9.958c-.2.437-.425.874-.649 1.31 2.36 2.36 4.496 4.578 6.348 6.702 12.507 14.548 12.779 24.33 12.779 24.33a121.295 121.295 0 0 0-19.056-17.77 66.252 66.252 0 0 0-5.734-3.787 61.485 61.485 0 0 1-13.11 14.265 50.665 50.665 0 0 1-10.972 6.501 49.486 49.486 0 0 1-8.26 2.868 67.361 67.361 0 0 1-20.46 1.876 100.458 100.458 0 0 1-19.48-3.092 164.905 164.905 0 0 1-35.256-14.076 228.313 228.313 0 0 1-27.362-16.979l-1.51-1.086c-55.81 19.67-55.928 93.485-55.928 94.24v27.138a96.505 96.505 0 0 1 12.802.118c1.864.13 3.74.319 5.593.543a105.909 105.909 0 0 1 19.28 3.976 151.725 151.725 0 0 0-24.838.083 106.711 106.711 0 0 0-15.645 2.443c-2.278.507-4.52 1.18-6.702 1.828-.46.13-.909.284-1.345.437a52.801 52.801 0 0 0-19.634 11.457l-.189.189a39.386 39.386 0 0 0-6.56 8.389 31.339 31.339 0 0 0-3.705 9.758 30.347 30.347 0 0 0 2.726 19.834 32.176 32.176 0 0 0 2.147 3.434 37.073 37.073 0 0 1 .743-4.578 31.574 31.574 0 0 1 4.65-10.549c.306-.46.625-.885.979-1.345a27.693 27.693 0 0 1 2.206-2.596 36.577 36.577 0 0 1 8.39-6.56 30.926 30.926 0 0 0-4.036 6.56 37.38 37.38 0 0 0-3.292 11.198 35.724 35.724 0 0 0-.33 3.292 41.887 41.887 0 0 0 1.781 14.159l1.617.896a69.131 69.131 0 0 0 21.427 7.08c1.333.248 2.69.472 4.047.649a53.096 53.096 0 0 1-1.015-8.106 34.383 34.383 0 0 1 2.36-14.737 25.675 25.675 0 0 1 12.98-13.829 45.06 45.06 0 0 0-6.785 13.829 32.14 32.14 0 0 0-.307 16.518 34.36 34.36 0 0 0 2.702 7.15c3.186.142 6.407.19 9.604.13a210.025 210.025 0 0 0 48.129-7.079c3.94-1.074 7.976-2.171 11.8-3.28a49.556 49.556 0 0 0 10.028-4.448c.756-.46 1.51-.909 2.242-1.416a49.91 49.91 0 0 0 9.133-7.67 45.875 45.875 0 0 0 4.53-5.58 44.837 44.837 0 0 0 4.933-8.909l.283-.684a83.408 83.408 0 0 0 3.764-11.092 134.652 134.652 0 0 0 4.165-23.598c1.605-16.188.873-32.79-.236-49.556a188.786 188.786 0 0 1 6.548 25.498l.343-.79c1.852.79 3.657 1.557 5.486 2.359a425.713 425.713 0 0 0 47.338 16.767q41.875 12.011 75.066 10.182a143.088 143.088 0 0 0 16.673-1.9 115.632 115.632 0 0 0 14.159-3.362 102.027 102.027 0 0 0 15.846-6.195 95.608 95.608 0 0 0 6.43-3.433v-66.854c-1.616-1.735-3.185-3.54-4.72-5.298l-.483-.578a135.243 135.243 0 0 1-2.584-3.245c-1.11-1.51-2.207-3.009-3.221-4.543-.626-.885-1.18-1.77-1.794-2.678a3.422 3.422 0 0 0-.236-.39c-.4-.637-.778-1.286-1.18-1.923-.165-.283-.342-.542-.507-.85-13.073-22.418-15.504-47.337-6.95-73.295a110.605 110.605 0 0 1 27.94-44.72 91.937 91.937 0 0 1 2.679-2.548 115.006 115.006 0 0 1 37.757-22.914c3.54-1.298 7.198-2.43 10.938-3.41 1.286-.295 2.56-.637 3.87-.896 1.263-.26 2.525-.543 3.811-.767 3.387-.65 6.832-1.18 10.325-1.475 3.787-.354 7.634-.543 11.492-.543h71.326a22.218 22.218 0 0 1 14.831 5.57 50.3 50.3 0 0 1 7.67 8.896c11.457 16.66 16.518 41.179 18.654 51.75 2.36 11.647 3.835 23.481 5.31 34.938 1.18 9.262 2.36 18.879 4.047 28.165 0 .153.059.283.083.436.413 2.36.79 4.649 1.18 7.009 1.321 7.893 2.678 15.881 4.601 23.598a101.473 101.473 0 0 0 4.72 14.49c4.012 9.604 9.84 18.064 18.879 24.27 8.578 5.9 16.943 7.328 24.872 4.366a27.457 27.457 0 0 0 5.487-2.82 37.415 37.415 0 0 0 10.253-10.62 50.901 50.901 0 0 0 6.608-14.996.46.46 0 0 0 0-.165q1.9-7.15 3.398-14.49a290.389 290.389 0 0 0 4.554-29.698c3.292-31.386 2.089-65.414-3.504-103.03z" class="cls-3" style="stroke-width:1.17991"/><path id="path488" d="M-1214.623 1245.427v15.787c-2.089 1.18-4.236 2.36-6.431 3.433a102.027 102.027 0 0 1-15.846 6.195 115.632 115.632 0 0 1-14.16 3.363 143.088 143.088 0 0 1-16.671 1.9q-33.156 1.84-75.066-10.183a425.713 425.713 0 0 1-47.315-16.779 178.555 178.555 0 0 1-5.487-2.36l-.342.79a170.946 170.946 0 0 0-3.08-13.851c1.723.755 3.422 1.475 5.145 2.183a428.155 428.155 0 0 0 47.326 16.778q41.887 12 75.078 10.17a143.289 143.289 0 0 0 16.684-1.899 113.98 113.98 0 0 0 14.16-3.363 102.5 102.5 0 0 0 15.81-6.088c1.71-.897 7.044-4.153 10.195-6.076z" class="cls-4" style="stroke-width:1.17991"/><path id="path490" d="M-1332.98 946.495q-4.32 2.23-8.437 4.838c-19.74-28.884-26.985-55.715-21.522-79.762 4.484-19.764 16.826-33.946 26.572-42.477 0 3.705.224 7.575.637 11.563a74.712 74.712 0 0 0-15.988 31.185c-5.191 22.631 1.18 47.728 18.737 74.653z" class="cls-4" style="stroke-width:1.17991"/><path id="path492" d="M-1317.359 1161.83c-8.259 9.699-19.763 19.327-29.993 23.905-16.318 7.292-35.397 5.616-52.188 1.982-12.058-2.62-25.533-5.994-36.66-11.445a146.45 146.45 0 0 1-14.63-8.673c-2.679-1.687-5.298-3.469-7.894-5.274-.826-.602-6.088-5.239-6.808-4.98-54.064 19.682-44.754 91.61-44.754 92.353v14.1a94.393 94.393 0 0 0-12.66-.118v-27.138c0-.755.082-74.57 55.986-94.24a228.644 228.644 0 0 0 28.873 18.064 164.905 164.905 0 0 0 35.255 14.077 100.458 100.458 0 0 0 19.48 3.091 67.361 67.361 0 0 0 20.46-1.876 52.6 52.6 0 0 0 19.186-9.368 61.485 61.485 0 0 0 13.109-14.266 83.101 83.101 0 0 1 13.238 9.806z" class="cls-4" style="stroke-width:1.17991"/><path id="path494" d="M-919.598 1136.945a80.034 80.034 0 0 0-23.362-9.085 458.054 458.054 0 0 0-5.333-68.435q-.956-6.442-1.994-13.25c-.756-4.72-1.546-9.57-2.431-14.443-5.086-27.964-13.133-57.697-30.678-80.564a79.361 79.361 0 0 0-18.194-17.298q7.445-5.9 14.843-12.66a75.609 75.609 0 0 1 27.138 22.418c17.557 22.855 25.604 52.589 30.678 80.553.885 4.873 1.675 9.722 2.43 14.454.697 4.519 1.357 8.944 2.006 13.239 4.52 30.571 6.183 58.783 4.897 85.071z" class="cls-4" style="stroke-width:1.17991"/><path id="path496" d="M-1178.105 1005.173c-6.938-2.702-14.16-3.54-21.522-4.307a120.61 120.61 0 0 1-14.159-2.112 88.01 88.01 0 0 1-31.645-14.16c-9.192-6.453-17.156-14.819-27.586-19.397-20.932-9.192-36.153-6.631-47.197 1.534a39.916 39.916 0 0 0-12.979 16.932c-8.861 21.238-29.828 86.322 14.454 146.51l-15.162 6.241a41.887 41.887 0 0 0 14.454 8.66c11.622 4.46 23.598 8.26 36.093 9.063a100.458 100.458 0 0 0 31.032-3.233c3.457-.862 6.891-1.841 10.277-2.986 61.143-18.63 91.432-70.523 95.384-88.823.437-1.9.815-3.764 1.074-5.676 2.608-18.407-3.917-37.014-32.518-48.247z" class="cls-7" style="stroke-width:1.17991"/><path id="path498" d="M-1331.494 1107.695a100.293 100.293 0 0 1-4.59 17.699 98.227 98.227 0 0 1-3.54 8.342 59.093 59.093 0 0 1-2.053 3.94l-1.085 1.889-.555.861-.424.684-.366.531c-5.499 8.814-13.203 15.433-23.02 17.959-9.817 2.525-20.944 1.911-31.858-.567a133.861 133.861 0 0 1-16.448-5.05c-5.404-2.006-10.76-4.306-16.035-6.831a242.26 242.26 0 0 1-30.43-17.534l-1.912-1.321a32.247 32.247 0 0 0-20.46-5.145s7.01 3.894 9.44 8.047a83.36 83.36 0 0 0-18.312 10.065 26.079 26.079 0 0 1-1.003-1.263c-5.015-6.584-9.84-17.486-13.864-31.468a99.113 99.113 0 0 1-4.035-32.13c0-1.061.106-2.111.2-3.126 1.416-17.699 7.658-31.008 18.607-39.787a50.052 50.052 0 0 1 8.26-5.333c13.427-6.95 28.955-7.764 38.618-7.398a62.046 62.046 0 0 0-1.545 4.366 64.022 64.022 0 0 0-2.254 10.725 84.694 84.694 0 0 0-.495 10.62 80.588 80.588 0 0 0 2.749 20.636 53.096 53.096 0 0 0 8.873 18.395c-3.87-12.98-3.634-25.875-1.758-38.418a70.795 70.795 0 0 1 4.72-17.699 55.456 55.456 0 0 1 9.273-14.867 47.798 47.798 0 0 1 6.254-6.005 51.173 51.173 0 0 1 7.08-5.003 41.108 41.108 0 0 1 15.87-5.31 42.996 42.996 0 0 1 16.695 1.57 47.197 47.197 0 0 1 15.221 7.586 52.376 52.376 0 0 1 11.87 12.33c.401.614.79 1.18 1.18 1.83l1.18 2.005 2.49 4.059c1.51 2.773 3.138 5.487 4.518 8.26a148.67 148.67 0 0 1 7.446 17.238 131.796 131.796 0 0 1 4.79 17.958 107.242 107.242 0 0 1 .708 36.66z" class="cls-3" style="stroke-width:1.17991"/><path id="path500" d="M-1446.441 1020.76a62.097 62.097 0 0 0-1.546 4.365 58.689 58.689 0 0 0-1.593 6.655 74.96 74.96 0 0 0-23.976 6.159 51.078 51.078 0 0 0-8.259 4.79c-10.938 7.87-17.18 19.882-18.595 35.704-.094.92-.154 1.865-.201 2.832a80.706 80.706 0 0 0 4.024 28.849c3.54 10.902 7.622 19.728 11.917 25.722a73.214 73.214 0 0 0-8.555 5.428 26.14 26.14 0 0 1-1.003-1.263c-5.014-6.584-9.84-17.486-13.864-31.468a99.113 99.113 0 0 1-4.035-32.13c0-1.061.106-2.111.2-3.126 1.417-17.699 7.658-31.008 18.608-39.787a50.052 50.052 0 0 1 8.26-5.333c13.427-6.95 28.954-7.764 38.618-7.398z" class="cls-4" style="stroke-width:1.17991"/><path id="path502" d="M-1208.087 576.05a146.805 146.805 0 0 0-54.736 67.986c-5.9 14.631-12.896 31.693-20.707 48.282-.142.284-.272.567-.402.85a277.032 277.032 0 0 1 7.41-59.668c5.805-25.286 19.268-41.415 43.657-52.318a56.506 56.506 0 0 1 24.778-5.132z" class="cls-3" style="stroke-width:1.17991"/><path id="path504" d="M-1208.087 576.05a146.805 146.805 0 0 0-54.736 67.986c-5.9 14.631-12.896 31.693-20.707 48.282-.142.284-.272.567-.402.85a277.032 277.032 0 0 1 7.41-59.668c5.805-25.286 19.268-41.415 43.657-52.318a56.506 56.506 0 0 1 24.778-5.132z" class="cls-4" style="stroke-width:1.17991"/><path id="path506" d="M-888.448 782.995v3.327a217.446 217.446 0 0 1-1.864 25.522l-.154 1.05c-.153.92-.283 1.852-.436 2.737-.19 1.18-.39 2.43-.602 3.54-.213 1.109-.39 2.018-.602 2.973a22.9 22.9 0 0 1-.436 1.935 5.605 5.605 0 0 1-.166.744c-.153.66-.318 1.51-.578 2.36a86.094 86.094 0 0 1-1.723 6.052c-.247.767-.507 1.605-.802 2.36l-.082.19c-.354 1.073-.72 2.135-1.18 3.15-.46 1.014-.767 1.887-1.18 2.831l-.224.543c-.402.944-.85 1.9-1.416 2.962-.083.165-.213.448-.366.731a13.392 13.392 0 0 1-.861 1.676l-.13.247v.602l-.602.472-.437.767-.118.189-.519.932c-.189.283-.342.507-.495.755-.177.283-.342.543-.52.802-.176.26-.46.72-.696 1.098a7.634 7.634 0 0 1-.472.66 48.258 48.258 0 0 1-3.103 4.048 3.21 3.21 0 0 1-.4.495c-.473.578-.957 1.18-1.452 1.652l-.413.437c-8.437 9.05-22.914 17.038-38.76 21.391-.956.26-1.9.52-2.868.756a93.213 93.213 0 0 1-16.931 2.749l-2.207.094a82.098 82.098 0 0 1-8.578-.153c-13.038-.968-23.397-5.239-30.913-12.696a39.256 39.256 0 0 1-4.72-5.605 26.607 26.607 0 0 1-2.785-5.144l-.141-.319a30.14 30.14 0 0 1-.413-1.097 14.454 14.454 0 0 1-.52-1.463 47.586 47.586 0 0 1-1.828-8.106l-.094-.602c0-.354-.094-.731-.154-1.097-.083-.637-.13-1.18-.177-1.864v-.661a56.636 56.636 0 0 0 22.926 5.9 85.638 85.638 0 0 0 8.578.13c.732 0 1.463 0 2.206-.072a103.832 103.832 0 0 0 16.932-2.36 77.93 77.93 0 0 0 2.867-.684c15.847-3.917 30.324-11.115 38.76-19.256l.414-.39c.495-.471.979-.979 1.45-1.486a4.72 4.72 0 0 0 .402-.46 42.276 42.276 0 0 0 3.103-3.658 5.333 5.333 0 0 0 .472-.578l.696-.98c.177-.247.343-.495.52-.73.153-.225.306-.414.495-.673l.52-.826.117-.177.437-.697.602-.413v-.542a1.428 1.428 0 0 1 .13-.224 13.18 13.18 0 0 0 .86-1.51l.366-.662a33.609 33.609 0 0 0 1.416-2.678l.225-.484c.412-.85.825-1.699 1.18-2.548.353-.85.778-1.865 1.18-2.832l.082-.165c.295-.673.555-1.428.802-2.124a72.804 72.804 0 0 0 1.723-5.451c.26-.732.425-1.487.578-2.089a4.507 4.507 0 0 0 .165-.66c.177-.602.342-1.251.437-1.759.212-.86.401-1.746.602-2.666.2-.92.413-2.171.601-3.245.154-.814.284-1.64.437-2.466l.153-.944a176.81 176.81 0 0 0 1.865-22.996v-2.986c0-1.781 0-3.54-.071-5.333v-1.64a236.959 236.959 0 0 0-.944-14.713c-.224-2.36-.496-4.79-.814-7.221a314.305 314.305 0 0 0-9.51-45.651 538.312 538.312 0 0 0-17.392-51.032 897.931 897.931 0 0 0-3.835-9.569l-.295-.743q-2.442-5.982-4.897-11.8c0-.153-.141-.318-.212-.471a21.5 21.5 0 0 1-.224-.508l-.118-.27a85.91 85.91 0 0 0-8.755-15.824c-.472-.637-.944-1.286-1.44-1.9-.495-.613-.99-1.18-1.498-1.816a37.875 37.875 0 0 0-8.26-7.351 22.56 22.56 0 0 1 4.932-.991h.838c.767 0 1.463.082 2.1.153a14.159 14.159 0 0 0 1.723.13l.567.059c.731.165 1.58.354 2.477.637a3.54 3.54 0 0 1 .46.153l.201.071.153.06.449.188a3.74 3.74 0 0 1 .436.189l.732.342a23.457 23.457 0 0 1 3.245 1.829 38.937 38.937 0 0 1 8.825 8.53 44.712 44.712 0 0 1 1.499 2.018 94.51 94.51 0 0 1 1.44 2.112 98.074 98.074 0 0 1 8.754 17.557l.118.307.225.567c.07.165.153.354.212.53q2.466 6.49 4.897 13.145l.295.814q1.923 5.298 3.834 10.62c7.292 20.671 12.98 39.184 17.392 56.635a384.05 384.05 0 0 1 9.51 50.736c.319 2.702.59 5.357.814 8.012a293.4 293.4 0 0 1 .944 16.342v1.829c0 1.758.012 3.728.012 5.687z" class="cls-4" style="stroke-width:1.17991"/><path id="path508" d="m-977.437 489.763-15.457 14.772-8.543-22.418 10.537-17.192a5.357 5.357 0 0 0-.743-6.607 8.944 8.944 0 1 1 10.43 1.699 5.369 5.369 0 0 0-2.773 6.3z" class="cls-8" style="stroke-width:1.17991"/><path id="path510" d="M-911.61 463.238a17.699 17.699 0 0 1-19.799 15.339 6.501 6.501 0 0 0-7.256 5.64l-10.62 84.435-.295 2.36-1.758 14.158a3.74 3.74 0 0 0-.436-.188l-.449-.19-.153-.058-.2-.07a3.54 3.54 0 0 0-.46-.154c-.897-.284-1.747-.472-2.478-.637l-.567-.06a14.159 14.159 0 0 1-1.723-.13c-.637-.07-1.333-.13-2.1-.153h-.837a28.471 28.471 0 0 0-9.758 2.88l-1.286.636a69.748 69.748 0 0 0-2.903 1.593 37.238 37.238 0 0 0-6.796 4.862l-.697.601c-.412.354-.79.673-1.18.956a396.722 396.722 0 0 0-10.076-2.914 5.144 5.144 0 0 1-.354-1.18 6.631 6.631 0 0 1 .354-3.752 6.136 6.136 0 0 1 1.003-1.652 21.486 21.486 0 0 1 3.646-3.316l.743-.566a22.017 22.017 0 0 1 2.1-1.546l.284-.2a5.227 5.227 0 0 1 .755-.496c-.79-.437-1.581-.85-2.36-1.18q-4.625-2.36-9.51-4.484-26.312-11.492-59.397-16.518a262.248 262.248 0 0 0-56.541.094 234.413 234.413 0 0 0-24.602 3.823 216.455 216.455 0 0 0-21.415 5.628q-8.07 2.584-15.492 5.735l-1.83.755-1.108.507.318-2.62 1.558-12.377.153-1.286 12.708-101.272a6.537 6.537 0 0 0-5.64-7.256 17.699 17.699 0 1 1 15.08-5.38 6.513 6.513 0 0 0-.791 7.893l33.037 52.93a.673.673 0 0 0 .13.19 6.49 6.49 0 0 0 4.578 2.832c.224 0 .413.059.625.059a6.537 6.537 0 0 0 5.57-2.773l.79-1.18 51.468-73.001a6.501 6.501 0 0 0-1.18-8.708 28.106 28.106 0 0 1 20.507-49.557 28.637 28.637 0 0 1 7.256 2.219h.071a28.106 28.106 0 0 1 .295 50.807 6.454 6.454 0 0 0-3.197 8.141l32.341 84.718a6.501 6.501 0 0 0 4.65 4.035 2.572 2.572 0 0 0 .625.095 6.419 6.419 0 0 0 5.274-1.747l45.108-43.078a6.395 6.395 0 0 0 1.947-3.894 6.608 6.608 0 0 0-.755-3.965 17.699 17.699 0 1 1 33.037-6.418z" class="cls-8" style="stroke-width:1.17991"/><path id="path512" d="M-911.61 463.238a17.699 17.699 0 0 1-19.799 15.339 6.501 6.501 0 0 0-7.256 5.64l-10.62 84.435-.295 2.36-1.758 14.158a3.74 3.74 0 0 0-.436-.188l-.449-.19-.153-.058-.2-.07a3.54 3.54 0 0 0-.46-.154c-.897-.284-1.747-.472-2.478-.637l-.567-.06a14.159 14.159 0 0 1-1.723-.13c-.637-.07-1.333-.13-2.1-.153h-.837a28.471 28.471 0 0 0-9.758 2.88l-1.286.636a69.748 69.748 0 0 0-2.903 1.593 37.238 37.238 0 0 0-6.796 4.862l-.697.601c-.412.354-.79.673-1.18.956a396.722 396.722 0 0 0-10.076-2.914 5.144 5.144 0 0 1-.354-1.18 6.631 6.631 0 0 1 .354-3.752 6.136 6.136 0 0 1 1.003-1.652 21.486 21.486 0 0 1 3.646-3.316l.743-.566a22.017 22.017 0 0 1 2.1-1.546l.284-.2a5.227 5.227 0 0 1 .755-.496c-.79-.437-1.581-.85-2.36-1.18q-4.625-2.36-9.51-4.484-26.312-11.492-59.397-16.518a262.248 262.248 0 0 0-56.541.094 234.413 234.413 0 0 0-24.602 3.823 216.455 216.455 0 0 0-21.415 5.628q-8.07 2.584-15.492 5.735l-1.83.755-1.108.507.318-2.62 1.558-12.377.153-1.286 12.708-101.272a6.537 6.537 0 0 0-5.64-7.256 17.699 17.699 0 1 1 15.08-5.38 6.513 6.513 0 0 0-.791 7.893l33.037 52.93a.673.673 0 0 0 .13.19 6.49 6.49 0 0 0 4.578 2.832c.224 0 .413.059.625.059a6.537 6.537 0 0 0 5.57-2.773l.79-1.18 51.468-73.001a6.501 6.501 0 0 0-1.18-8.708 28.106 28.106 0 0 1 20.507-49.557 28.637 28.637 0 0 1 7.256 2.219h.071a28.106 28.106 0 0 1 .295 50.807 6.454 6.454 0 0 0-3.197 8.141l32.341 84.718a6.501 6.501 0 0 0 4.65 4.035 2.572 2.572 0 0 0 .625.095 6.419 6.419 0 0 0 5.274-1.747l45.108-43.078a6.395 6.395 0 0 0 1.947-3.894 6.608 6.608 0 0 0-.755-3.965 17.699 17.699 0 1 1 33.037-6.418z" class="cls-8" style="stroke-width:1.17991"/><path id="path514" d="m-1101.069 469.657-13.805 19.622-11.339-18.135 12.153-21.074a5.392 5.392 0 0 0-1.18-6.796 8.814 8.814 0 0 1-2.961-7.811 8.92 8.92 0 1 1 17.699 2.218 8.826 8.826 0 0 1-4.236 6.513 5.428 5.428 0 0 0-2.36 6.23z" class="cls-8" style="stroke-width:1.17991"/><g id="g518" class="cls-9" transform="matrix(1.17991 0 0 1.17991 -1724.063 358.179)"><path id="path516" d="m989.21 351.41-13.1 12.52-7.24-19 8.93-14.57a4.54 4.54 0 0 0-.63-5.6 7.58 7.58 0 1 1 8.84 1.44 4.55 4.55 0 0 0-2.35 5.34z" class="cls-8" transform="translate(-356.43 -239.89)"/></g><g id="g522" class="cls-9" transform="matrix(1.17991 0 0 1.17991 -1724.063 358.179)"><path id="path520" d="M884.43 334.37 872.73 351l-9.61-15.37 10.3-17.86a4.57 4.57 0 0 0-1-5.76 7.47 7.47 0 0 1-2.51-6.62 7.56 7.56 0 1 1 15 1.88 7.48 7.48 0 0 1-3.59 5.52 4.6 4.6 0 0 0-2 5.28z" class="cls-8" transform="translate(-356.43 -239.89)"/></g><g id="g526" class="cls-10" transform="matrix(1.17991 0 0 1.17991 -1724.063 358.179)"><path id="path524" d="m989.21 351.41-13.1 12.52-7.24-19 8.93-14.57a4.54 4.54 0 0 0-.63-5.6 7.58 7.58 0 1 1 8.84 1.44 4.55 4.55 0 0 0-2.35 5.34z" class="cls-8" transform="translate(-356.43 -239.89)"/></g><g id="g530" class="cls-10" transform="matrix(1.17991 0 0 1.17991 -1724.063 358.179)"><path id="path528" d="M884.43 334.37 872.73 351l-9.61-15.37 10.3-17.86a4.57 4.57 0 0 0-1-5.76 7.47 7.47 0 0 1-2.51-6.62 7.56 7.56 0 1 1 15 1.88 7.48 7.48 0 0 1-3.59 5.52 4.6 4.6 0 0 0-2 5.28z" class="cls-8" transform="translate(-356.43 -239.89)"/></g><g id="g536" class="cls-9" transform="matrix(1.17991 0 0 1.17991 -1724.063 358.179)"><path id="path532" d="M874.56 408.67a198.67 198.67 0 0 0-20.85 3.24 183.45 183.45 0 0 0-18.15 4.77q-6.84 2.19-13.13 4.86l-1.55.64-.94.43q-2.73 1.2-5.35 2.52l1.15-6.64 1.16-6.66.8-4.52L832.43 323l.08 6.45 1 76.21.06 5.42s13.87-3.08 40.99-2.41z" class="cls-8" transform="translate(-356.43 -239.89)"/><path id="path534" d="M1004.11 430.88h-.71a24.13 24.13 0 0 0-8.27 2.44l-1.09.54c-.78.4-1.59.85-2.46 1.35a31.56 31.56 0 0 0-5.76 4.12l-.59.51c-.35.3-.67.57-1 .81a5.39 5.39 0 0 1-1.72 1 5.8 5.8 0 0 1-3.61-.19 5.69 5.69 0 0 1-3.21-3.24 4.36 4.36 0 0 1-.3-1 5.62 5.62 0 0 1 .3-3.18 5.2 5.2 0 0 1 .85-1.4 18.21 18.21 0 0 1 3.09-2.81l.63-.48A18.66 18.66 0 0 1 982 428l.24-.17a4.43 4.43 0 0 1 .64-.42c-.67-.37-1.34-.72-2-1q-3.92-2-8.06-3.8 4.9 1.17 10 2.49l3 .76q8.88 2.27 18.29 5.02z" class="cls-8" transform="translate(-356.43 -239.89)"/></g><g id="g542" style="opacity:.1;mix-blend-mode:multiply" transform="matrix(1.17991 0 0 1.17991 -1724.063 358.179)"><path id="path538" d="M874.56 408.67a198.67 198.67 0 0 0-20.85 3.24 183.45 183.45 0 0 0-18.15 4.77q-6.84 2.19-13.13 4.86l-1.55.64-.94.43q-2.73 1.2-5.35 2.52l1.15-6.64 1.16-6.66.8-4.52L832.43 323l.08 6.45 1 76.21.06 5.42s13.87-3.08 40.99-2.41z" class="cls-8" transform="translate(-356.43 -239.89)"/><path id="path540" d="M1004.11 430.88h-.71a24.13 24.13 0 0 0-8.27 2.44l-1.09.54c-.78.4-1.59.85-2.46 1.35a31.56 31.56 0 0 0-5.76 4.12l-.59.51c-.35.3-.67.57-1 .81a5.39 5.39 0 0 1-1.72 1 5.8 5.8 0 0 1-3.61-.19 5.69 5.69 0 0 1-3.21-3.24 4.36 4.36 0 0 1-.3-1 5.62 5.62 0 0 1 .3-3.18 5.2 5.2 0 0 1 .85-1.4 18.21 18.21 0 0 1 3.09-2.81l.63-.48A18.66 18.66 0 0 1 982 428l.24-.17a4.43 4.43 0 0 1 .64-.42c-.67-.37-1.34-.72-2-1q-3.92-2-8.06-3.8 4.9 1.17 10 2.49l3 .76q8.88 2.27 18.29 5.02z" class="cls-8" transform="translate(-356.43 -239.89)"/></g><path id="path544" d="M-1046.014 421.67a28.023 28.023 0 0 1-9.817-25.05c1.546-12.4 13.25-19.787 24.896-22.005l-14.89-10.147-22.879 11.728-4.07 31.386 7.339 17.557-17.44 24.943-28.6 45.498-9.84-2.042-10.325-15.48-14.56-20.908-7.587-5.628 31.857 68.8a6.466 6.466 0 0 0 4.72 3.021 7.67 7.67 0 0 0 6.124-2.702l66.146-90.275a6.501 6.501 0 0 0-1.074-8.696z" class="cls-12" style="stroke-width:1.17991"/><path id="path546" d="M-1115.605 526.6Z" class="cls-12" style="stroke-width:1.17991"/><path id="path548" d="m-1033.872 433.575 27.657 98.735a7.386 7.386 0 0 0 13.085 2.785l47.303-57.615-11.977 6.088-8.73 8.72-11.8 5.073-10.808 12.826-10.206 3.445z" class="cls-12" style="stroke-width:1.17991"/><path id="path550" d="M-897.923 455.545a31.751 31.751 0 0 0-62.783 1.534 31.02 31.02 0 0 0 1.369 13.923l-8.72 8.26-3.34-11.8a20.802 20.802 0 1 0-31.857-5.014l-2.82 4.542-12.4-32.542a41.108 41.108 0 1 0-54.277-6.808l-20.058 28.471-1.546-5.085a20.53 20.53 0 0 0 5.758-11.929 20.825 20.825 0 1 0-37.993 8.956l-6.147 10.619-6.348-10.195a31.728 31.728 0 1 0-38.076 12.59l-11.61 92.281-1.523 12.224-.118.932-1.321 10.49 2.289 2.867c1.959-1.074 3.929-2.136 5.97-3.115 2.041-.98 4.165-2.03 6.313-2.974l1.109-.507.212-1.605 1.652-13.32v-.437l11.8-94.087.931-7.492a7.622 7.622 0 0 0-1.522-5.546 7.48 7.48 0 0 0-5.026-2.855 16.601 16.601 0 1 1 14.159-5.05 7.575 7.575 0 0 0-1.735 7.339h-.377l5.71 9.144v.095l17.994 28.447 10.49 16.838.177.26a7.646 7.646 0 0 0 6.218 3.54 7.516 7.516 0 0 0 6.324-3.21l1.322-1.841 13.061-18.513 37.923-53.792.566-.897a7.469 7.469 0 0 0-1.864-9.168 27.067 27.067 0 0 1 19.657-47.727c.543.118 1.074.248 1.83.4l1.486.39c.731.213 1.486.472 2.147.72l.26.13h.118c.354.118.696.307 1.014.413l.567-.803-.342.98.507.248a7.245 7.245 0 0 1 1.038.566 3.54 3.54 0 0 1 .885.53 11.363 11.363 0 0 1 2.112 1.358 6.077 6.077 0 0 0 .567.448 5.215 5.215 0 0 1 .684.578 8.92 8.92 0 0 1 .92.79 25.286 25.286 0 0 1 3.387 3.718c.283.318.507.684.79 1.073.283.39.342.472.472.732l.401.696c.154.224.284.437.413.637l.118.307c.166.319.319.602.52.956.2.354.247.59.365.837l.19.425a11.339 11.339 0 0 1 .424 1.074 6.702 6.702 0 0 0 .307.743c.07.26.13.449.212.755l.26.885c.094.39.2.803.318 1.298a5.699 5.699 0 0 1 .189 1.074 26.194 26.194 0 0 1 .448 4.236v2.608l-.153 1.238a26.902 26.902 0 0 1-15.127 21.026 7.587 7.587 0 0 0-4 8.685l-.07.059 4.424 11.61.06.153 19.161 50.217 8.047 21.05.909 2.443a7.693 7.693 0 0 0 5.368 4.66l.779.095a7.504 7.504 0 0 0 6.124-2.053l.483-.449 14.336-13.71 23.953-22.903 6.289-6.029a7.469 7.469 0 0 0 1.345-9.12 16.778 16.778 0 0 1 16.719-24.72 16.708 16.708 0 1 1-4.165 33.144 7.528 7.528 0 0 0-8.425 6.513l-10.619 84.446-.307 2.36-1.734 13.84.153.06.449.188a3.74 3.74 0 0 1 .436.19l.732.341a23.457 23.457 0 0 1 3.245 1.83 38.937 38.937 0 0 1 8.825 8.53l2.195-17.427.342-2.75 10.407-83.1a31.858 31.858 0 0 0 27.669-37.062zm-215.216-5.015a6.43 6.43 0 0 0-1.369-8.058 7.964 7.964 0 0 1-2.607-6.95 7.882 7.882 0 1 1 11.893 7.74 6.454 6.454 0 0 0-2.808 7.445l5.805 18.761-11.563 16.436-1.038 1.475-.838-1.345-9.322-14.938zm123.89 13.617h-.188a6.537 6.537 0 0 0-1.51-6.537 7.752 7.752 0 0 1-2.219-6.525 7.905 7.905 0 0 1 15.682 1.959 8.023 8.023 0 0 1-4.225 6.112 6.289 6.289 0 0 0-3.35 7.457l6.395 22.843-12.472 11.964-1.369 1.322-.79-2.053-6.962-18.49zm-119.855 39.456c-3.858.236-7.681.578-11.492.991l-1.18.142.177.26a7.646 7.646 0 0 0 6.218 3.539 7.516 7.516 0 0 0 6.324-3.21l1.322-1.84c-.46.035-.92.07-1.369.118z" style="stroke-width:1.17991"/><path id="path556" d="M-1214.623 1321.59v161.849h-338.978v-161.85h3.917a41.887 41.887 0 0 0 1.782 14.16l1.617.897a69.131 69.131 0 0 0 21.427 7.08c1.333.247 2.69.471 4.047.648-1.994-9.911-.92-17.357 1.357-22.843h6.218a32.105 32.105 0 0 0 2.36 23.728c3.186.142 6.407.189 9.604.13a210.025 210.025 0 0 0 48.129-7.08c3.94-1.073 7.976-2.17 11.8-3.28a49.556 49.556 0 0 0 10.028-4.448 51.031 51.031 0 0 0 11.375-9.085z" class="cls-14" style="stroke-width:1.17991"/><path id="path558" d="M-1550.415 1307.1a36.577 36.577 0 0 1 8.39-6.56 30.926 30.926 0 0 0-4.036 6.56z" class="cls-14" style="stroke-width:1.17991"/><path id="path560" d="M-1507.277 1174.88c-12.72 22.666-18.88 52.458-18.584 89.036 0 1.451 0 2.914.07 4.4v2.526a81.78 81.78 0 0 0-8.046 2.265 52.801 52.801 0 0 0-19.634 11.457l-.189.189v-93.107c7.316-1.664 14.997-3.634 23.138-5.9 1.605-.472 3.245-.932 4.885-1.427 3.764-1.11 7.61-2.36 11.575-3.54l1.77-.566z" class="cls-14" style="stroke-width:1.17991"/><path id="path562" d="M-1214.623 1261.214v45.887h-195.866l.283-.685a83.408 83.408 0 0 0 3.764-11.091 134.652 134.652 0 0 0 4.165-23.598c1.605-16.189.873-32.79-.236-49.557a188.786 188.786 0 0 1 6.549 25.498l.342-.79a438.491 438.491 0 0 0 52.825 19.079c0 4.495 0 7.186.26 11.893.247 5.806 6.784-7.858 7.374-1.71h6.407l55.656 8.696v2.536l3.127-1.085c2.56-9.77 5.215 6.371 5.534 6.371l-.248 1.994c-.189-1.663-1.982-3.54-2.16-5.38a220.64 220.64 0 0 1-.86-13.132 143.088 143.088 0 0 0 16.671-1.9 115.632 115.632 0 0 0 14.16-3.363 103.644 103.644 0 0 0 22.252-9.663z" class="cls-14" style="stroke-width:1.17991"/><g id="g566" class="cls-15" transform="matrix(1.17991 0 0 1.17991 -1724.063 358.179)"><path id="path564" d="M771.64 1044.12h-11.33c-.66-3.45-1.65-9.33-2.3-16.67-.32-3.45-.56-7.22-.66-11.21a98 98 0 0 0 12-2.85c-.08 4 0 7.94.23 11.57a176.14 176.14 0 0 0 2.06 19.16z" class="cls-14" transform="translate(-356.43 -239.89)"/></g><path id="path568" d="M-1568.078 1194.631v288.5a81.898 81.898 0 0 1-74.524-81.413v-206.485a124.351 124.351 0 0 0 32.141 3.764 234.177 234.177 0 0 0 42.383-4.366z" class="cls-14" style="stroke-width:1.17991"/><g id="g572" class="cls-15" transform="matrix(1.17991 0 0 1.17991 -1724.063 358.179)"><path id="path570" d="M488.63 1171v22.36a69.41 69.41 0 0 1-63.16-69v-175a105 105 0 0 0 27.19 3.19v157.78a69.38 69.38 0 0 0 35.97 60.67z" class="cls-14" transform="translate(-356.43 -239.89)"/></g><path id="path574" d="m-1494.204 1140.001-9.156 9.664-16.826 17.793c-.778.248-1.545.472-2.289.72-2.914.896-5.758 1.781-8.566 2.595-1.18.354-2.36.697-3.54 1.015l-5.51 1.546c-.897.248-1.781.495-2.666.72l-2.655.696c-1.758.472-3.54.908-5.204 1.321-.873.2-1.699.413-2.548.626l-2.502.578-2.985.684-2.914.637-3.221.673-2.62.519-1.852.354c-.803.165-1.617.295-2.36.448-2.266.413-4.484.79-6.631 1.18l-4.543.66-1.298.19h-.46l-1.357.165c-1.12.153-2.242.283-3.35.401-1.936.224-3.812.413-5.653.555h-.188l-3.28.247c-1.18.071-2.266.154-3.375.201l-2.36.118h-11.516c-1.038 0-2.03-.083-3.032-.153l-2.773-.19c-.897-.082-1.794-.153-2.678-.247h-.225l-1.298-.142c-.601-.059-1.18-.13-1.793-.212a2.242 2.242 0 0 0-.295 0l-1.853-.283h-.354c-.495-.071-.979-.153-1.474-.248h-.201l-.366-.059c-.33 0-.649-.13-.98-.189-.33-.059-.648-.13-.978-.177l-.803-.177c-.118 0-.224-.059-.342-.07l-.448-.095H-1635.805l-.59-.153h-.248l-.354-.071-.377-.094c-.354-.094-.72-.189-1.074-.26a6.195 6.195 0 0 0-.696-.188 1.18 1.18 0 0 0-.248-.083l-1.463-.413-1.64-.508a24.753 24.753 0 0 1-1.581-.53h-.094a4.377 4.377 0 0 1-.78-.284l-.341-.106-.319-.118-.165-.06a63.163 63.163 0 0 1-5.239-2.3h-.059a.165.165 0 0 0-.118 0c-.826-.413-1.616-.85-2.36-1.18-.354-.212-.696-.425-1.038-.602-.342-.177-.72-.46-1.05-.66a44.069 44.069 0 0 1-1.97-1.322l-.886-.66c-.283-.225-.566-.425-.825-.638l-.52-.436h-.059l-.153-.106a3.068 3.068 0 0 0-.342-.284l-.46-.92c-.236-.2-.484-.413-.708-.637a28.212 28.212 0 0 1-8.732-20.708c0-31.621 9.994-57.284 29.758-76.293.566-.554 1.18-1.097 1.758-1.64 10.135-9.18 23.457-16.79 37.816-23.032l.448-.189c38.784-16.707 85.084-23.35 97.65-23.456v.189l-3.127 9.439-2.69 8.165-7.044 21.061.72 1.9 3.162 8.39c-.094 1.014-.142 2.064-.2 3.126a99.113 99.113 0 0 0 4.035 32.129c3.964 13.982 8.802 24.884 13.805 31.468z" class="cls-14" style="stroke-width:1.17991"/><g id="g578" class="cls-15" transform="matrix(1.17991 0 0 1.17991 -1724.063 358.179)"><path id="path576" d="M476.07 867.06c-16.77 16.11-25.26 37.86-25.22 64.66a25 25 0 0 0 1.46 8.45c-24.24-.08-36.71-6.87-42.94-12.68a24 24 0 0 1-7.37-17.55c0-26.8 8.45-48.55 25.22-64.67 31.13-29.9 104.24-38.54 119.12-38.7L533 837.22l.61 1.62c-19.32 4.29-41.21 12.54-57.54 28.22z" class="cls-14" transform="translate(-356.43 -239.89)"/></g><path id="path580" d="M-1117.222 1198.961v194.332a90.287 90.287 0 0 1-82.924 89.862v-284.571h61.615v.377z" class="cls-14" style="stroke-width:1.17991"/><g id="g584" class="cls-15" transform="matrix(1.17991 0 0 1.17991 -1724.063 358.179)"><path id="path582" d="M870.74 952.47v164.7a76.52 76.52 0 0 1-70.28 76.16V1169a76.54 76.54 0 0 0 45.88-70V952.15h6.34v.32z" class="cls-14" transform="translate(-356.43 -239.89)"/></g><path id="path586" d="M-953.638 645.358c-1.888 2.973-3.87 6.277-5.9 9.758-3.469 5.958-6.973 12.4-10.702 19.657-3.728 7.257-7.575 15.186-11.799 24.294-2.62 5.629-5.262 11.682-7.894 18.006-.188.437-.365.873-.554 1.298-.354.85-.696 1.699-1.05 2.572-.968 2.36-1.923 4.72-2.88 7.198l-.176.424c-.484 1.263-.98 2.549-1.463 3.835l-1.758 4.66c-.354.921-.697 1.853-1.039 2.785l-.13.366c-.507 1.392-1.002 2.726-1.486 4.106a7.485 7.485 0 0 0-.165.472l-.708 1.982a282.83 282.83 0 0 0-1.404 4.083 534.978 534.978 0 0 0-4.484 13.533c-.33.992-.649 2.018-.909 2.95a412.851 412.851 0 0 0-4.141 14.16c-.283 1.061-.566 2.135-.873 3.114l-.224.944c-3.292-1.923-6.632-3.87-9.947-5.829l-.755-.424-1.758-1.027c-.696-.39-1.404-.802-2.1-1.18-2.526-1.51-5.074-2.997-7.6-4.495l13.346-69.544.318-1.7.283.083a67.81 67.81 0 0 1 12.378 4.72c1.77.885 3.54 1.84 5.18 2.879.684.4 1.38.85 2.04 1.262 3.316-7.87 5.9-13.604 7.21-16.448l.248-.542c2.737-5.806 5.31-11.292 7.882-16.448 2.572-5.157 4.837-9.629 7.08-13.876a237.1 237.1 0 0 1 3.539-6.572c2.537-4.72 5.31-9.499 8.424-14.667.767-1.18 1.522-2.466 2.254-3.67a6.914 6.914 0 0 1 7.917-2.902 6.808 6.808 0 0 1 1.57.72 6.902 6.902 0 0 1 2.23 9.463z" class="cls-14" style="stroke-width:1.17991"/><path id="path588" d="M-785.029 644.095c-11.799 3.351-27.55 10.478-43.904 25.404q-24.861 22.725-42.56 60.317a1.664 1.664 0 0 0-.153.283c-1.357 2.88-2.679 5.9-3.977 8.897-.601 1.404-1.18 2.82-1.793 4.271-2.171 5.274-4.224 10.76-6.183 16.413a.826.826 0 0 0-.07.224 349.784 349.784 0 0 0-4.897 15.339 293.381 293.381 0 0 0-.944-16.342c-.224-2.655-.496-5.31-.814-8.012a384.05 384.05 0 0 0-9.51-50.736c-4.413-17.45-10.1-35.964-17.392-56.636q-1.9-5.345-3.835-10.62h88.564a104.517 104.517 0 0 1 47.468 11.198z" class="cls-14" style="stroke-width:1.17991"/><g id="g592" style="opacity:.5" transform="matrix(1.17991 0 0 1.17991 -1724.063 358.179)"><path id="path590" d="m987.42 498.21-8.8 45.85c-.16.37-.31.74-.47 1.1-.3.72-.59 1.44-.89 2.18-.82 2-1.63 4-2.44 6.1l-.15.36c-.41 1.07-.83 2.16-1.24 3.25l-1.49 3.95c-.3.78-.59 1.57-.88 2.36l-.11.31c-.43 1.18-.85 2.31-1.26 3.48-.05.13-.1.27-.14.4l-.6 1.68c-.41 1.16-.81 2.33-1.19 3.46-1.3 3.74-2.57 7.6-3.8 11.47-.28.84-.55 1.71-.77 2.5-1.18 3.77-2.33 7.7-3.51 12-.24.9-.48 1.81-.74 2.64l-.19.8c-2.79-1.63-5.62-3.28-8.43-4.94l-.64-.36-1.49-.87c-.59-.33-1.19-.68-1.78-1-2.14-1.28-4.3-2.54-6.44-3.81l11.31-58.94.27-1.44.24.07a57.47 57.47 0 0 1 10.49 4c1.5.75 3 1.56 4.39 2.44.58.34 1.17.72 1.73 1.07 2.81-6.67 5-11.53 6.11-13.94l.21-.46c2.32-4.92 4.5-9.57 6.68-13.94 2.18-4.37 4.1-8.17 6.02-11.77z" style="fill:#f76a31" transform="translate(-356.43 -239.89)"/></g><path id="path594" d="M-886.832 1198.961v198.073a86.5 86.5 0 0 1-86.393 86.405h-181.105c1.18-.697 2.36-1.393 3.457-2.136a45.867 45.867 0 0 0 2.36-1.593c.767-.554 1.44-.98 2.136-1.498a14.159 14.159 0 0 0 1.321-.98c.484-.33.98-.708 1.463-1.085 1.865-1.44 3.693-2.926 5.452-4.507a80.675 80.675 0 0 0 2.36-2.148.496.496 0 0 0 .153-.13 49.45 49.45 0 0 0 2.36-2.36c.778-.825 1.427-1.45 2.112-2.182a8.79 8.79 0 0 0 .731-.79 31.19 31.19 0 0 0 1.711-1.912 54.791 54.791 0 0 0 2.171-2.537c.472-.555.92-1.18 1.357-1.7.436-.518.696-.86 1.015-1.285.318-.425.92-1.18 1.357-1.841.26-.342.507-.66.72-.98.436-.601.86-1.18 1.274-1.852a12.696 12.696 0 0 0 .814-1.18 89.982 89.982 0 0 0 3.315-5.345c.638-1.12 1.18-2.17 1.806-3.268.495-.897.944-1.805 1.38-2.714.342-.66.66-1.333.968-1.994.2-.413.389-.814.554-1.18a103.832 103.832 0 0 0 9.239-42.937v-194.344h107.667c4.012 9.605 9.84 18.065 18.879 24.271 8.578 5.9 16.943 7.328 24.872 4.366 6.053-2.242 11.54-7.08 15.74-13.475a50.901 50.901 0 0 0 6.608-14.996.46.46 0 0 0 0-.165z" class="cls-14" style="stroke-width:1.17991"/><g id="g598" class="cls-15" transform="matrix(1.17991 0 0 1.17991 -1724.063 358.179)"><path id="path596" d="M1066 952.47v167.87a73.31 73.31 0 0 1-73.22 73.23H839.29c1-.59 2-1.18 2.93-1.81.68-.43 1.35-.88 2-1.35.65-.47 1.22-.83 1.81-1.27a12 12 0 0 0 1.12-.83c.41-.28.83-.6 1.24-.92 1.58-1.22 3.13-2.48 4.62-3.82.67-.57 1.34-1.18 2-1.82a.42.42 0 0 0 .13-.11c.69-.62 1.36-1.28 2-2 .64-.72 1.23-1.23 1.79-1.85a7.45 7.45 0 0 0 .62-.67c.53-.55 1-1.07 1.45-1.62.64-.7 1.25-1.42 1.84-2.15.41-.48.8-1 1.15-1.44.35-.44.59-.73.86-1.09.27-.36.8-1 1.15-1.56.22-.29.43-.56.61-.83.38-.51.75-1 1.08-1.57a10.76 10.76 0 0 0 .69-1c.38-.56.75-1.12 1.1-1.69.59-.94 1.17-1.89 1.71-2.84s1.06-1.84 1.53-2.77c.42-.76.8-1.53 1.17-2.3a18.77 18.77 0 0 0 .82-1.69c.17-.33.33-.69.47-1 .14-.31.45-1 .66-1.43h75.63a73.32 73.32 0 0 0 73.23-73.23V965.32a43.14 43.14 0 0 0 5.6-12.71.39.39 0 0 0 0-.14z" class="cls-14" transform="translate(-356.43 -239.89)"/></g><path id="path600" d="m-732.027 769.249-69.532 224.03-22.95 73.945c-.684-.98-1.357-1.947-2.04-2.879-.685-.932-1.299-1.782-1.96-2.62 0 0-.07-.093-.094-.14-.637-.803-1.262-1.594-1.876-2.36a100.572 100.572 0 0 0-6.584-7.328c-.448-.472-.92-.932-1.369-1.38a82.702 82.702 0 0 0-3.54-3.316c-.448-.413-.92-.814-1.38-1.18-.46-.366-.897-.779-1.369-1.18a76.725 76.725 0 0 0-2.749-2.183c-2.36-1.84-4.72-3.54-7.08-4.979-.896-.555-1.805-1.109-2.713-1.64l-1.558-.897-1.18-.602-1.356-.743-1.7-.861-1.026-.496-.779-.366-1.864-.849a78.124 78.124 0 0 0-3.717-1.546l-1.357-.507-.86-.33c-.603-.201-1.18-.425-1.794-.614-.248-.083-.484-.177-.732-.248l-1.18-.377-.649-.213c-.318-.094-.602-.189-.92-.26-.319-.07-.932-.282-1.38-.389-.449-.106-1.004-.283-1.487-.4a59.798 59.798 0 0 0-2.56-.603 73.812 73.812 0 0 0-6.148-1.109 56.67 56.67 0 0 0-2.844-.318l-.778-.06h-30.277c.448-5.356.92-10.618 1.38-15.798.85.212 1.676.424 2.525.59 2.36.507 4.72.955 6.891 1.38l2.962.484.637.094c.153-1.581.283-3.162.436-4.72.225-2.62.472-5.238.72-7.823q1.015-10.867 2.053-21.238c.224-2.36.449-4.613.696-6.89.13-1.417.284-2.844.437-4.26.13-1.18.236-2.36.378-3.54q1.38-13.357 2.82-25.746c.188-1.722.4-3.457.59-5.156.932-8.141 1.9-15.964 2.855-23.457.224-1.852.472-3.68.696-5.474.366-2.785.743-5.51 1.097-8.26.26-2.076.543-4.106.826-6.123.177-1.18.343-2.443.508-3.658l.814.082c.342-3.433.684-6.772 1.062-10.088.425-3.917.896-7.764 1.392-11.551l.425-3.54v-.189l.283-1.829s0-.377.094-.542h-.059c2.584-18.714 5.711-35.657 9.275-50.996v-.071a2.466 2.466 0 0 0 .094-.401c0-.106 0-.224.094-.342.319-1.345.637-2.702.944-4.024.307-1.321.72-2.867 1.074-4.283.354-1.416.72-2.808 1.097-4.2.142-.602.319-1.18.472-1.794.413-1.498.803-2.997 1.18-4.46.378-1.463.885-3.091 1.345-4.602.165-.578.33-1.18.508-1.71.72-2.431 1.45-4.72 2.206-7.08 15.48-48.282 35.397-75.94 52.282-91.715a112.292 112.292 0 0 1 16.153-12.648c1.18-.803 2.49-1.558 3.717-2.254 1.227-.696 2.088-1.18 3.127-1.758l.448-.224c1.77-.92 3.54-1.77 5.18-2.49.837-.354 1.64-.708 2.454-1.038 1.605-.661 3.15-1.25 4.637-1.723.755-.26 1.475-.484 2.195-.708a64.534 64.534 0 0 1 5.44-1.416c.471-.118.908-.189 1.344-.283.437-.094 1.11-.212 1.617-.307l1.545-.236.79-.118 1.334-.153c.437 0 .838-.094 1.18-.106a4.153 4.153 0 0 1 .531 0h1.416c.826.66 1.664 1.357 2.466 2.053a102.652 102.652 0 0 1 8.082 7.634c.496.507.98 1.038 1.475 1.58.154.154.295.308.437.473.578.637 1.18 1.298 1.734 1.982.555.685 1.18 1.416 1.782 2.124a97.425 97.425 0 0 1 3.02 3.882c.107.13.201.271.296.401a104.092 104.092 0 0 1 15.893 93.26z" class="cls-14" style="stroke-width:1.17991"/><path id="path602" d="M-1553.6 1191.327v93.414a39.386 39.386 0 0 0-6.561 8.39 31.339 31.339 0 0 0-3.705 9.757 30.347 30.347 0 0 0 2.726 19.835 32.176 32.176 0 0 0 2.147 3.433 37.073 37.073 0 0 1 .743-4.578 31.574 31.574 0 0 1 4.65-10.548v186.886h-7.234a96.364 96.364 0 0 1-96.257-96.257v-214.461l14.501 4.13v210.33a81.91 81.91 0 0 0 74.5 81.415v-291.746z" style="stroke-width:1.17991"/><path id="path604" d="M-1474.606 1131.07a82.854 82.854 0 0 0-18.595 10.194 26.079 26.079 0 0 1-1.003-1.263l-1.003 1.027-8.153 8.637-16.826 17.793c-.778.248-1.545.472-2.289.72-2.914.896-5.758 1.781-8.566 2.595-1.18.354-2.36.697-3.54 1.015l-5.51 1.546c-.897.248-1.781.495-2.666.72l-2.655.696c-1.758.472-3.54.908-5.204 1.321-.873.2-1.699.413-2.548.626l-2.502.578-2.985.684-2.914.637-3.221.673-2.62.519-1.852.354c-.803.165-1.617.295-2.36.448-2.266.413-4.484.79-6.631 1.18l-4.543.66-1.298.19h-.46l-1.357.165c-1.12.153-2.242.283-3.35.401-1.924.224-3.812.413-5.653.555h-.188l-3.28.247c-1.18.071-2.266.154-3.375.201l-2.36.118h-11.516a4.613 4.613 0 0 0-.543 0c-.85 0-1.675 0-2.49-.106l-2.772-.189c-.897-.083-1.794-.153-2.678-.248h-.225l-1.298-.141c-.601-.06-1.18-.13-1.793-.213a2.242 2.242 0 0 0-.295 0l-1.853-.283h-.354c-.495-.071-.979-.153-1.474-.248h-.201l-.366-.059c-.33 0-.649-.13-.98-.188-.33-.06-.648-.13-.978-.177l-.803-.177c-.118 0-.224-.06-.342-.071l-.448-.094H-1635.805l-.59-.154h-.248l-.354-.07-.377-.095c-.354-.094-.72-.189-1.074-.26a6.195 6.195 0 0 0-.696-.188 1.18 1.18 0 0 0-.248-.083l-1.463-.413-1.64-.508a24.753 24.753 0 0 1-1.581-.53h-.094a4.377 4.377 0 0 1-.78-.284l-.341-.106-.319-.118-.165-.059a63.163 63.163 0 0 1-5.239-2.3h-.059a.165.165 0 0 0-.118 0c-.826-.414-1.616-.85-2.36-1.18-.354-.213-.696-.425-1.038-.602h-.071c-.342-.201-.66-.413-.98-.614a44.069 44.069 0 0 1-1.97-1.321l-.885-.661c-.283-.224-.566-.425-.826-.637l-.519-.437h-.059l-.153-.106a3.068 3.068 0 0 0-.342-.283l-.46-1.015c-.236-.2-.484-.413-.708-.637a28.212 28.212 0 0 1-8.732-20.708c0-31.621 9.994-57.284 29.758-76.293.59-.554 1.18-1.097 1.758-1.64 11.15-10.242 24.353-17.699 37.816-23.032l.448-.189a183.288 183.288 0 0 1 24.047-7.551h.224a233.552 233.552 0 0 1 44.6-6.147c1.299 0 11.116-.094 19.906-.107H-1497.614l-7.905 5.817-3.221 2.36-7.256 5.333-2.584 7.34 2.843 8.412.72 1.9 3.162 8.39c1.416-17.7 7.658-31.009 18.607-39.788a50.052 50.052 0 0 1 8.26-5.333l5.026-8.885h-1.605l-2.902-.13h-11.174c-12.59 0-32.412.095-37.439.284-25.061 1.003-80.67 7.41-117.39 42.642-22.772 21.864-34.3 51.043-34.217 86.806a42.748 42.748 0 0 0 13.215 31.162 58.064 58.064 0 0 0 14.372 9.722 57.329 57.329 0 0 0 3.315 1.522 78.924 78.924 0 0 0 11.186 3.811 123.761 123.761 0 0 0 32.07 3.764 234.803 234.803 0 0 0 42.382-4.271q6.95-1.274 14.49-2.997c7.315-1.664 14.996-3.634 23.138-5.9 1.604-.471 3.244-.932 4.885-1.427 3.763-1.11 7.61-2.36 11.574-3.54l1.77-.566 4.956-5.24a98.818 98.818 0 0 1 17.616-23.031l1.18-1.18a87.774 87.774 0 0 1 13.156-10.17c.496-.308.98-.626 1.451-.91l1.83-1.923z" style="stroke-width:1.17991"/><path id="path606" d="M-1546.061 1307.1a38.241 38.241 0 0 0-3.623 14.49h-8.519a31.574 31.574 0 0 1 4.65-10.548 30.088 30.088 0 0 1 3.185-3.941z" style="stroke-width:1.17991"/><path id="path608" d="M-1506.428 1307.738a44.742 44.742 0 0 0-6.808 13.852h-6.218a25.781 25.781 0 0 1 13.026-13.852z" style="stroke-width:1.17991"/><path id="path610" d="M-1207.39 1307.1v14.49h-212.538a45.875 45.875 0 0 0 4.53-5.581 44.837 44.837 0 0 0 4.932-8.908z" style="stroke-width:1.17991"/><path id="line612" d="M-1267.684 1276.104h-.012" style="stroke-width:1.17991;fill:none"/><path id="path614" d="M-1247.52 1307.1c.46 2.467.803 3.906.826 3.989l-.53.141-13.888 3.387-1.074.26-.578.153c-.118-.508-.566-2.36-1.18-5.428a32.97 32.97 0 0 1-.472-2.501c-.13-.685-.283-1.416-.39-2.183a204.738 204.738 0 0 1-1.498-10.419c-.177-1.664-.365-3.398-.542-5.203a220.64 220.64 0 0 1-.862-13.133 143.088 143.088 0 0 0 16.672-1.9c.118 4.72.402 9.157.78 13.227.79 8.602 1.958 15.54 2.737 19.61z" style="stroke-width:1.17991"/><path id="path616" d="M-1208.464 1181.145c-1.18.59-2.36 1.18-3.41 1.888l-1.794 1.073-.956.626a59.125 59.125 0 0 0-5.144 3.657 135.243 135.243 0 0 1-2.584-3.244c-1.11-1.51-2.206-3.01-3.221-4.543-.625-.885-1.18-1.77-1.794-2.678a3.422 3.422 0 0 0-.236-.39c-.4-.637-.778-1.286-1.18-1.923-.165-.283-.342-.543-.507-.85a86.452 86.452 0 0 1 8.861-5.9 89.882 89.882 0 0 1 3.328-1.863l1.026-.531 4.873 9.439 2.36 4.484z" style="stroke-width:1.17991"/><path id="path618" d="M-1214.623 1184.106v299.333h-346.21v14.489h360.699v-.248c1.18-.094 2.36-.189 3.634-.342a103.278 103.278 0 0 0 42.17-13.9c.779-.46 1.546-.92 2.36-1.415l.85-.543.283-.177c.26-.165.542-.354.802-.543.26-.189.814-.53 1.18-.814.13-.07.248-.165.354-.236.672-.448 1.38-.92 2.03-1.416h.082a14.159 14.159 0 0 0 1.322-.98c.236-.164.484-.33.731-.518l.284-.213.094-.094.318-.247a99.473 99.473 0 0 0 5.451-4.508 21.38 21.38 0 0 0 1.086-.979c.153-.118.283-.248.425-.378l.837-.79a.885.885 0 0 0 .154-.13l.118-.118a78.319 78.319 0 0 0 2.242-2.183l1.073-1.097c.248-.236.484-.507.732-.767s.212-.212.307-.319c.094-.106.507-.53.731-.79l.06-.06a2.572 2.572 0 0 1 .247-.259l.578-.66c.283-.307.543-.626.826-.933a63.13 63.13 0 0 0 2.171-2.536c.224-.248.437-.531.637-.791h.06l.66-.85c.165-.224.354-.436.507-.637l.225-.271c.083-.13.188-.236.283-.378.094-.141 0 0 0 0 .2-.283.413-.542.613-.826.2-.283.319-.436.472-.66a1.805 1.805 0 0 0 .189-.26c.248-.318.496-.66.72-.98.224-.318.26-.353.377-.542.319-.437.614-.873.897-1.31.283-.436.555-.802.814-1.18l.66-.99c.213-.331.438-.662.638-1.004.2-.342.307-.472.437-.72.377-.578.731-1.18 1.097-1.793a3.752 3.752 0 0 1 .2-.354l.284-.484c.436-.755.873-1.534 1.298-2.3l.271-.508a4.248 4.248 0 0 0 .236-.46l.708-1.357c.142-.26.283-.543.413-.802.13-.26.165-.366.26-.555.342-.66.66-1.333.967-1.994.2-.39.39-.814.555-1.18l.083-.165c.342-.731.66-1.475.955-2.206.295-.732.72-1.676 1.039-2.549l.625-1.628c.153-.39.295-.79.437-1.18.141-.39.33-.968.507-1.451.177-.484.413-1.18.602-1.853s.318-.956.448-1.451c0-.106.071-.236.118-.354.26-.79.484-1.605.696-2.36.213-.755.508-1.9.732-2.855.094-.33.165-.661.248-.992.2-.826.377-1.651.566-2.5 0-.225.094-.438.13-.662.153-.755.295-1.51.436-2.277 0-.153 0-.307.071-.448.071-.437.154-.873.213-1.31.059-.437.188-1.18.283-1.84.094-.661.13-.921.189-1.381v-.602c.094-.755.188-1.51.247-2.254q.154-1.557.284-3.115v-.342c.059-.85.118-1.687.13-2.56a2.03 2.03 0 0 0 0-.378 6.678 6.678 0 0 0 0-1.085 1.062 1.062 0 0 0 0-.272V1184.107zm97.401 209.187v2.478c0 .649 0 1.286-.083 1.923s-.07 1.44-.13 2.136c0 .448 0 .897-.093 1.333v.283l-.142 1.18c0 .508-.106 1.015-.165 1.522a61.074 61.074 0 0 1-.248 1.888 1.959 1.959 0 0 1 0 .26c-.13.932-.283 1.852-.448 2.76l-.083.461-.39 2.018a.944.944 0 0 0 0 .177 31.96 31.96 0 0 1-.413 1.84c-.153.602-.318 1.393-.507 2.077-.189.684-.401 1.557-.625 2.36-.166.602-.354 1.18-.543 1.829a40.505 40.505 0 0 1-.625 1.923 89.702 89.702 0 0 1-1.298 3.67c-.177.412-.343.849-.508 1.262a77.479 77.479 0 0 1-1.64 3.823c-.46.98-.908 1.959-1.392 2.926a.755.755 0 0 0-.094.165 36.35 36.35 0 0 1-.873 1.676c-.283.495-.39.755-.602 1.18a2.62 2.62 0 0 1-.248.436.413.413 0 0 1 0 .094c-.271.508-.554 1.039-.861 1.522-.378.685-.79 1.357-1.18 2.018-.555.908-1.18 1.793-1.734 2.69-.378.567-.756 1.18-1.18 1.7-.425.518-.78 1.18-1.18 1.675-.402.495-.661.92-1.027 1.357-.366.436-.696.885-1.026 1.345l-.46.554c-.567.708-1.18 1.404-1.735 2.077a40.67 40.67 0 0 1-2.03 2.277c-.72.743-1.18 1.18-1.699 1.817-.283.283-.542.567-.826.826a69.53 69.53 0 0 1-2.112 2.053c-.377.378-.778.732-1.18 1.074-.825.755-1.663 1.487-2.5 2.206a71.398 71.398 0 0 1-2.585 2.089c-.472.377-.944.731-1.416 1.097s-1.18.92-1.888 1.369c-.708.448-1.616 1.18-2.442 1.687l-2.23 1.428c-.755.472-1.522.92-2.277 1.38a10.336 10.336 0 0 1-1.003.555 73.22 73.22 0 0 1-4.46 2.36l-.354.165c-.803.401-1.593.755-2.36 1.109a4.035 4.035 0 0 1-.508.248 51.17 51.17 0 0 1-2.619 1.109l-1.18.472-1.18.448-.248.094-1.109.401a87.906 87.906 0 0 1-4 1.31l-.79.236c-.909.283-1.829.543-2.773.767-.142 0-.319.094-.507.13-.803.212-1.64.401-2.466.602a91.496 91.496 0 0 1-3.127.625l-2.773.472a1.392 1.392 0 0 1-.318 0l-.449.083-1.18.141c-.26 0-.507.083-.767.094-.472.083-.944.13-1.416.177a50.51 50.51 0 0 1-2.36.225v-284.454h82.913z" style="stroke-width:1.17991"/><path id="path620" d="M-872.33 1191.327v205.707a101 101 0 0 1-100.883 100.882H-1196.5v-14.49h223.287a86.5 86.5 0 0 0 86.393-86.392v-205.707z" style="stroke-width:1.17991"/><path id="path622" d="M-1004.375 1160.933c1.322 7.894 2.679 15.882 4.602 23.598h-102.983v-.366h-101.472c-1.346-1.45-2.643-2.902-3.835-4.354-1.027-1.18-2.006-2.466-2.938-3.704a.52.52 0 0 1-.106-.13c-.579-.779-1.18-1.546-1.676-2.36-.495-.814-1.05-1.522-1.58-2.36-.532-.838-1.18-1.793-1.7-2.678l-.944-1.617c-.13-.248-.26-.472-.413-.72-.283-.483-.543-.99-.826-1.486-.625-1.18-1.18-2.36-1.758-3.54-8.047-17.12-8.85-35.61-2.36-55.22a96.27 96.27 0 0 1 20.66-35.126 2.218 2.218 0 0 1 .236-.248 86.071 86.071 0 0 1 5.593-5.58 96.423 96.423 0 0 1 16.885-12.484 99.939 99.939 0 0 1 9.687-4.991c.248-.106.484-.224.755-.33.956-.437 1.959-.85 2.962-1.251 1.392-.543 2.76-1.098 4.2-1.558a49.773 49.773 0 0 1 4.07-1.345 5.982 5.982 0 0 1 .898-.26 102.157 102.157 0 0 1 29.06-4.188h93.733c11.457 16.66 16.519 41.179 18.655 51.75 2.36 11.647 3.834 23.481 5.31 34.938 1.18 9.262 2.36 18.879 4.046 28.165 0 .153.06.283.083.436.39 2.301.767 4.649 1.157 7.009z" class="cls-14" style="stroke-width:1.17991"/><path id="path624" d="M-813.677 1151.848c0 .601-.106 1.18-.189 1.793a6.277 6.277 0 0 1-.07.66 55.586 55.586 0 0 1-.496 3.128q-.142.767-.319 1.522c-.2.92-.448 1.852-.72 2.737l-.106.378c-.13.448-.283.92-.448 1.357-.165.436-.342.955-.531 1.427l-.118.283a10.879 10.879 0 0 1-.52 1.18 12.542 12.542 0 0 1-.73 1.499l-.402.767a.153.153 0 0 0 0 .059c-.283.507-.59 1.014-.908 1.522-5.688 8.92-15.634 13.569-30.43 14.253h-75.786a290.389 290.389 0 0 0 4.554-29.698c3.245-31.268 2.041-65.297-3.54-102.912-.649-4.295-1.31-8.72-2.005-13.239h31.303c2.017 0 49.686 1.782 72.682 64.364l.095.248c.07.413 10.584 26.265 8.684 48.672z" class="cls-14" style="stroke-width:1.17991"/><g id="g630" class="cls-15" transform="matrix(1.17991 0 0 1.17991 -1724.063 358.179)"><path id="path626" d="M966.38 920.24c1.12 6.69 2.27 13.46 3.9 20H883v-.31h-86a82.619 82.619 0 0 1-3.25-3.69c-.87-1-1.7-2.09-2.49-3.14a.44.44 0 0 1-.09-.11c-.49-.66-1-1.31-1.42-2-.42-.69-.89-1.29-1.34-2-.45-.71-1-1.52-1.44-2.27l-.8-1.37c-.11-.21-.22-.4-.35-.61-.24-.41-.46-.84-.7-1.26-.53-1-1-2-1.49-3-6.82-14.51-7.5-30.18-2-46.8a81.59 81.59 0 0 1 17.51-29.77 1.88 1.88 0 0 1 .2-.21 72.93 72.93 0 0 1 4.74-4.73 81.72 81.72 0 0 1 14.31-10.58 84.7 84.7 0 0 1 8.21-4.23c.21-.09.41-.19.64-.28a81.82 81.82 0 0 0-12.35 23.55c-5.47 16.63-4.79 32.29 2 46.81.46 1 1 2 1.48 3 .23.41.45.83.71 1.26 11.08 19 35.1 19.85 54.49 18.44 26.81-1.95 53.64-2.57 80.47-2.63h11.34c.35 1.94.67 3.93 1 5.93z" class="cls-14" transform="translate(-356.43 -239.89)"/><path id="path628" d="M1127.86 914.06c0 .19 0 .38-.08.56-.1.89-.24 1.79-.42 2.65q-.12.65-.27 1.29a22.58 22.58 0 0 1-.61 2.32l-.09.32c-.11.38-.24.78-.38 1.15-.14.37-.29.81-.45 1.21l-.1.24a9.22 9.22 0 0 1-.44 1 10.63 10.63 0 0 1-.62 1.27l-.34.65a.13.13 0 0 0 0 .05c-.24.43-.5.86-.77 1.29-4.82 7.56-13.25 11.5-25.79 12.08h-64.23a246.11 246.11 0 0 0 3.86-25.17l11.25.11c26.49.19 53 .08 79.51-1.07z" class="cls-14" transform="translate(-356.43 -239.89)"/></g><path id="path632" d="M-1191.391 887.83a125.26 125.26 0 0 1-18.879.555 79.538 79.538 0 0 1-19.197-3.174 64.754 64.754 0 0 1-17.852-8.437 49.91 49.91 0 0 1-14.159-14.336 39.303 39.303 0 0 1-4.448-9.439 35.468 35.468 0 0 1-1.57-10.43l.437-18.065.13-4.543c0-1.616.212-3.256.413-4.896v-.224a38.182 38.182 0 0 1 2.466-9.546 32.33 32.33 0 0 1 5.333-8.778 35.055 35.055 0 0 1 7.61-6.596l.449-.283.283-.095c8.26-2.938 16.519-5.781 24.873-8.46q3.54-1.18 7.138-2.218a28.695 28.695 0 0 0-.932 2.879c-.271.732-.53 1.475-.814 2.206l-3.54 1.711c-7.752 3.682-15.575 7.186-23.433 10.62a24.53 24.53 0 0 0-8.908 12.058 27.433 27.433 0 0 0-1.357 6.726 8.66 8.66 0 0 0-.094.967 35.81 35.81 0 0 0-.094 4.071l.094 4.425.495 17.84a26.324 26.324 0 0 0 4.92 13.864 38.253 38.253 0 0 0 11.34 10.548 54.56 54.56 0 0 0 14.76 6.337 66.075 66.075 0 0 0 16.189 2.36 114.357 114.357 0 0 0 17.026-.673z" style="stroke-width:1.17991"/><path id="path634" d="M-1197.149 874.945v-20.294c-9.522-5.357-24.519-20.814-24.519-20.814-10.914-14.1-6.725-22.265-1.746-26.512a19.575 19.575 0 0 1 9.888-4.319c4.72-.696 9.557-1.298 14.36-1.77 11.22-1.109 23.008-1.911 34.217.26a29.781 29.781 0 0 1 9.38 3.162 11.504 11.504 0 0 1 5.18 7.953 20.365 20.365 0 0 1-2.36 15.22 63.29 63.29 0 0 1-9.44 11.41 124.009 124.009 0 0 1-17.568 14.82v18.997c38.536 16.518 71.432-16.602 79.644-25.557a2.43 2.43 0 0 0-.271-3.54c-3.776-3.233-2.596-8.578-2.596-8.578 6.749-11.905 25.002 0 25.002 0 14.655 9.876 3.67 14.572-1.18 16.035a4.307 4.307 0 0 0-2.808 2.702 233.623 233.623 0 0 1-27.138 51.81 100.293 100.293 0 0 1-29.498 28.518c-65.839 40.696-89.756-50.736-89.756-50.736l23.67 2.974 7.94-10.915z" style="stroke-width:1.17991"/><path id="path636" d="M-1195.155 909.493c3.292 10.218 18.879 44.743 69.096-7.752a3.752 3.752 0 0 0-1.18-6.03c-10.407-4.6-37.191-12.53-66.665 9.629a3.74 3.74 0 0 0-1.25 4.153z" style="stroke-width:1.17991;fill:#fb666c"/><path id="path638" d="M-1126.06 901.741q-2.548 2.667-4.978 5.027c-12.673-4.071-35.398-6.903-60.176 11.374a41.391 41.391 0 0 1-3.93-8.649 3.74 3.74 0 0 1 1.287-4.153c29.498-22.159 56.258-14.23 66.665-9.628a3.752 3.752 0 0 1 1.133 6.03z" style="stroke-width:1.17991;fill:#fb666c;opacity:.5;mix-blend-mode:multiply"/><path id="path640" d="M-1142.566 853.872a5.758 5.758 0 1 0 7.823 2.136 5.699 5.699 0 0 0-7.823-2.136z" style="stroke-width:1.17991"/><path id="path642" d="M-1116.56 853.117a5.77 5.77 0 1 0-7.824-2.183 5.77 5.77 0 0 0 7.823 2.183z" style="stroke-width:1.17991"/><path id="path644" d="M-1134.909 831.902a5.758 5.758 0 0 0-3.952-3.776 5.475 5.475 0 0 0-3.28.06 5.817 5.817 0 0 0-3.764 7.268 7.08 7.08 0 0 0 .53 1.18 5.782 5.782 0 0 0 6.738 2.548 5.723 5.723 0 0 0 3.729-7.28z" style="stroke-width:1.17991"/><path id="path646" d="M-990.487 718.37c-.354.85-.696 1.7-1.05 2.573-.968 2.36-1.923 4.72-2.88 7.198l-.176.424c-.484 1.263-.98 2.549-1.463 3.835l-1.758 4.66c-.354.921-.697 1.853-1.039 2.785l-.13.366c-.507 1.392-1.002 2.726-1.486 4.106a12.554 12.554 0 0 0-14.796 4.271 12.13 12.13 0 0 0-2.242 5.428 190.71 190.71 0 0 1-4.555 21.71c-.188.661-.377 1.322-.59 1.983-.212.66-.424 1.357-.672 2.03a58.996 58.996 0 0 1-6.053 12.53 46.292 46.292 0 0 1-1.71 2.572 56.895 56.895 0 0 1-4.85 5.9 59.232 59.232 0 0 1-43.657 18.288l-4.897-.07-31.244-.484c-21.238-.378-33.132-16.613-38.713-35.08a41.297 41.297 0 0 0-3.292-8.955 29.793 29.793 0 0 0-3.823-6.088 32 32 0 0 0-49.297-.861 26.973 26.973 0 0 0-4.035 5.97 45.179 45.179 0 0 0-2.69 5.9c-.625 1.734-.885 2.855-.909 2.902-.26.744-.507 1.475-.79 2.207-6.254 16.73-17.982 30.902-37.061 31.503h-2.018l-7.162-.13h-1.074l-27.964-.471a57.946 57.946 0 0 1-25.958-6.643l-.885-.472a57.91 57.91 0 0 1-11.044-7.729l-.79-.72a63.172 63.172 0 0 1-4.2-4.294 59.916 59.916 0 0 1-13.098-25.416c-2.89-11.799-5.262-24.377-5.085-36.577.13-8.46 1.546-17.203 5.805-24.648a30.737 30.737 0 0 1 8.082-9.31c6.266-4.72 13.994-5.652 21.628-5.534 7.634.118 15.221.295 22.855.472H-1294.48l9.793.189h1.062c4.46.083 8.932.153 13.392.248h.13l22.418.413c11.221.189 22.631-.413 33.781 1.852a71.821 71.821 0 0 1 12.826 4.46 46.253 46.253 0 0 0 16 3.47 42.24 42.24 0 0 0 6.56-.496 44.66 44.66 0 0 0 9.534-2.36 67.054 67.054 0 0 1 13.061-3.917c8.26-1.416 16.767-1.18 25.227-.944 2.843.094 5.687.188 8.53.224 15.587.248 31.233.484 46.772.814 11.516.142 23.091.33 34.595.507h2.207a68.435 68.435 0 0 1 16.72 2.36l.282.083a67.81 67.81 0 0 1 12.378 4.72c1.77.884 3.54 1.84 5.18 2.878.684.402 1.38.85 2.04 1.263z" style="stroke-width:1.17991"/><path id="path648" d="M-1075.618 714.052h-1.899l-56.494 77.108c4.46 7.233 10.312 11.103 17.498 11.575l62.854-88.305z" class="cls-5" style="stroke-width:1.17991"/><path id="path650" d="m-1089.612 803.218 61.804-87.207a58.911 58.911 0 0 0-3.197-.637l-1.074-.153a42.928 42.928 0 0 0-2.36-.295l-1.026-.107a55.793 55.793 0 0 0-3.375-.177h-1.935l-63.538 88.352 11.964.213h.507z" class="cls-5" style="stroke-width:1.17991"/><path id="path652" d="M-747.79 675.705a106.346 106.346 0 0 0-19.304-20.058c-4.378.141-15.551 1.286-29.687 8.707a105.531 105.531 0 0 1 26.725 106.193l-43.81 141.14-28.448 91.645-10.926 35.244a102.924 102.924 0 0 1 28.743 28.66l92.482-297.975a104.127 104.127 0 0 0-15.776-93.556z" style="stroke-width:1.17991;fill:#79bddd;opacity:.8;mix-blend-mode:multiply"/><path id="path654" d="M-1009.909 1149.57s41.45-45.768 96.753-8.648l-6.005 36.718-7.34 29.215-9.793 21.073-19.728 8.65-33.19-18.88-15.882-36.176z" class="cls-7" style="stroke-width:1.17991"/><path id="path656" d="M-919.598 1136.945q-.436 9.086-1.357 17.829a290.389 290.389 0 0 1-4.554 29.698q-1.51 7.34-3.398 14.49a.46.46 0 0 1 0 .165 50.901 50.901 0 0 1-6.608 14.996c-4.2 6.43-9.687 11.233-15.74 13.475a23.138 23.138 0 0 1-13.569.85 39.893 39.893 0 0 0 5.522-6.785 50.925 50.925 0 0 0 6.62-14.997.944.944 0 0 0 0-.177c1.262-4.72 2.36-9.58 3.386-14.489a289.386 289.386 0 0 0 4.566-29.698q1.723-16.673 1.77-34.442a80.034 80.034 0 0 1 23.362 9.085z" style="stroke-width:1.17991;fill:#ffdb9f;mix-blend-mode:multiply"/><path id="path658" d="m-913.167 1140.921-6.018 36.72-7.327 29.214-9.793 21.062-19.729 8.648-10.937-6.218-22.254-12.672-15.881-36.188-4.802-31.858s1.073-1.18 3.126-3.056c8.2-7.386 32-25.344 63.822-18.654q0 17.781-1.77 34.442a289.386 289.386 0 0 1-4.566 29.698 248.977 248.977 0 0 1-3.387 14.49.944.944 0 0 1 0 .176 50.925 50.925 0 0 1-6.619 14.997 39.893 39.893 0 0 1-5.522 6.785 23.138 23.138 0 0 0 13.569-.85c6.053-2.242 11.54-7.08 15.74-13.475a50.901 50.901 0 0 0 6.608-14.996.46.46 0 0 0 0-.165q1.9-7.15 3.398-14.49a290.389 290.389 0 0 0 4.554-29.698q.897-8.755 1.357-17.829a86.277 86.277 0 0 1 6.43 3.918z" class="cls-7" style="stroke-width:1.17991"/><path id="path660" d="M-908.495 883.276h.378c-4.39 31.716-8.767 69.556-12.98 114.593-5.557-22.017-13.946-43.917-28.093-62.323a90.405 90.405 0 0 0-27.563-24.082q4.649-4.72 9.262-9.853c.756-.85 1.534-1.699 2.29-2.56 19.798-1.911 40.883-9.746 55.585-20.707l.508-.402 1.18-.944c-.13 1.074-.225 2.148-.33 3.222-.107 1.073-.143 2.04-.237 3.056z" class="cls-14" style="stroke-width:1.17991"/><path id="path662" d="M-1439.385 1024.17s-6.395 14.37-4.484 40.328c6.183 33.605 17.262 82.217 62.653 104.246l26.832-2.36 35.916-60.8-9.935-61.498-36.294-49.344h-48.376z" class="cls-7" style="stroke-width:1.17991"/><path id="path664" d="M-1521.495 1268.329s88.493-9.522 115.466 35.491l-10.902 21.605-32.72 17.144-33.037 5.687-78.157-10.914-7.245-22.62 7.245-33.509z" class="cls-7" style="stroke-width:1.17991"/><path id="path666" d="M-736.121 667.127a118.546 118.546 0 0 0-96.364-48.695h-79.29c-.531-1.451-1.097-2.926-1.64-4.377-6.195-16.295-13.9-28.318-22.879-35.61a15.444 15.444 0 0 0-1.085-.885 40.447 40.447 0 0 0-6.997-4.33h-.637l-.543-.673a44.822 44.822 0 0 0-3.304-1.31 5.25 5.25 0 0 0-.566-.188h-.106l-.79-.095h-.272l-.295-.059a32.117 32.117 0 0 0-14.667-.472l-4.92 2.219c-.826-.484-1.652-.98-2.501-1.464-21.239-12.188-47.881-21.899-81.273-26.925h-.07a274.696 274.696 0 0 0-85.332 3.976q-11.186 2.36-21.533 5.593a193.726 193.726 0 0 0-12.46 4.39 3.445 3.445 0 0 0-.543.212 11.8 11.8 0 0 0-1.097.436 123.76 123.76 0 0 0-5.463 2.277 150.656 150.656 0 0 0-9.44 4.46c-1.18-.318-2.289-.637-3.469-.896a68.046 68.046 0 0 0-9.156-1.487 69.096 69.096 0 0 0-35.397 6.006c-28.176 12.59-44.412 32.105-51.138 61.426a285.822 285.822 0 0 0-7.28 82.24c0 .448 0 .897.071 1.369.094 1.545.213 3.127.33 4.72a3424.007 3424.007 0 0 1-17.533 35.951c-.885 1.77-1.746 3.54-2.631 5.334a2595.884 2595.884 0 0 1-10.926 21.663l-.165.342-.094.212a.578.578 0 0 0-.083.19 90.7 90.7 0 0 0-5.31 16.164c-.083.342-.153.673-.248 1.015-.79 3.445-1.51 7.386-2.076 11.669-10.714 7.35-33.333 26.04-40.412 56.954-6.407 27.929 1.545 58.359 23.598 90.535a90.853 90.853 0 0 0-12.98 12.319 62.948 62.948 0 0 0-9.309 14.159 42.696 42.696 0 0 0-2.36-.685 58.606 58.606 0 0 0-22.725-1.557 56.14 56.14 0 0 0-21.462 7.705 67.963 67.963 0 0 0-9.027 6.572 59.208 59.208 0 0 0-7.74 8.106c-.625.79-1.25 1.604-1.829 2.43-10.312-1.038-35.539-1.864-56.175 11.08a57.25 57.25 0 0 0-5.782 4.094q-.743.578-1.451 1.18a55.845 55.845 0 0 0-8.814 9.44c-8.189 10.949-12.708 25.013-13.51 42.016a112.564 112.564 0 0 0 4.519 36.4c4.897 16.944 10.737 29.498 17.392 37.486a.637.637 0 0 0 .106.142 101.638 101.638 0 0 0-22.324 34.347 133.27 133.27 0 0 0-2.525 6.75 150.628 150.628 0 0 0-8.012 45.555v28.897a65.816 65.816 0 0 0-12.507 3.988 52.105 52.105 0 0 0-4.979 2.548 52.636 52.636 0 0 0-6.76 4.614 50.382 50.382 0 0 0-7.73 7.728c-.66.803-1.274 1.64-1.864 2.502a43.999 43.999 0 0 0-6.029 13.132 41.722 41.722 0 0 0 2.525 28.873 38.937 38.937 0 0 0 5.369 8.33 41.474 41.474 0 0 0 3.54 3.705 53.367 53.367 0 0 0 10.984 7.858l.65.342c2.029 1.18 4.176 1.994 6.288 2.997 2.148.767 4.295 1.617 6.478 2.242a92.965 92.965 0 0 0 13.18 2.867 130.463 130.463 0 0 0 26.206.991 241.882 241.882 0 0 0 25.604-2.714l12.578-2.289c4.118-.932 8.26-1.722 12.448-2.643l12.424-2.997a59.255 59.255 0 0 0 12.98-5.156 56.235 56.235 0 0 0 20.494-18.878 36.72 36.72 0 0 0 1.18-1.865 56.282 56.282 0 0 0 4.885-10.82c.39-1.18.767-2.442 1.086-3.669.85-3.056 1.533-6.147 2.088-9.215a124.139 124.139 0 0 0 1.794-25.958c-.107-3.387-.343-6.761-.673-10.112a435.152 435.152 0 0 0 51.42 17.864q35.882 9.77 65.97 9.793c3.303 0 6.536-.094 9.722-.26a155.111 155.111 0 0 0 16.59-1.805 130.38 130.38 0 0 0 13.604-2.938 120.127 120.127 0 0 0 22.005-8.318 106.689 106.689 0 0 0 8.46-4.637q3.127-1.9 6.03-3.93v-16.672a98.558 98.558 0 0 1-12.873 9.322c-.52.33-1.074.649-1.617.944a103.644 103.644 0 0 1-22.276 9.628 115.632 115.632 0 0 1-14.16 3.363 143.088 143.088 0 0 1-16.671 1.9q-33.156 1.84-75.067-10.183a438.491 438.491 0 0 1-52.824-19.08l-.342.79a188.786 188.786 0 0 0-6.549-25.497c1.11 16.755 1.84 33.356.236 49.556a134.652 134.652 0 0 1-4.165 23.599 83.408 83.408 0 0 1-3.764 11.09l-.283.685a44.837 44.837 0 0 1-4.932 8.908 45.875 45.875 0 0 1-4.531 5.581 51.031 51.031 0 0 1-11.374 9.086 49.556 49.556 0 0 1-10.03 4.448c-3.799 1.11-7.834 2.207-11.799 3.28a210.025 210.025 0 0 1-48.129 7.08c-3.197.059-6.418 0-9.604-.13a32.105 32.105 0 0 1-2.36-23.728 45.06 45.06 0 0 1 6.785-13.829 25.675 25.675 0 0 0-12.98 13.829c-2.277 5.486-3.35 12.979-1.356 22.843a76.056 76.056 0 0 1-4.047-.649 69.131 69.131 0 0 1-21.428-7.08l-1.616-.896a41.887 41.887 0 0 1-1.782-14.16 38.241 38.241 0 0 1 3.623-14.488 30.926 30.926 0 0 1 4.035-6.56 36.577 36.577 0 0 0-8.39 6.56 30.088 30.088 0 0 0-3.185 3.94 31.574 31.574 0 0 0-4.649 10.549 37.073 37.073 0 0 0-.743 4.578 32.176 32.176 0 0 1-2.148-3.434 30.347 30.347 0 0 1-2.725-19.834 31.339 31.339 0 0 1 3.705-9.758 39.386 39.386 0 0 1 6.56-8.389l.189-.189a52.801 52.801 0 0 1 19.633-11.457 81.78 81.78 0 0 1 8.047-2.265 106.711 106.711 0 0 1 15.646-2.443 151.725 151.725 0 0 1 24.837-.083 111.514 111.514 0 0 0-24.872-4.519 96.505 96.505 0 0 0-12.802-.118V1236.6c0-.755.083-74.57 55.987-94.24a228.644 228.644 0 0 0 28.872 18.065 164.905 164.905 0 0 0 35.256 14.076 100.458 100.458 0 0 0 19.48 3.092 67.361 67.361 0 0 0 20.46-1.876 52.6 52.6 0 0 0 19.185-9.369 61.485 61.485 0 0 0 13.11-14.265c5.415 3.15 14.028 9.44 24.777 21.557 0 0-.365-12.85-19.126-31.032.224-.436.448-.873.649-1.31a106.452 106.452 0 0 0 4.248-9.958 117.991 117.991 0 0 0 5.439-20.79 120.056 120.056 0 0 0-.767-42.583 148.008 148.008 0 0 0-5.687-20.412 162.734 162.734 0 0 0-8.52-19.198c-1.568-3.126-3.374-6.112-5.085-9.144l-2.772-4.39-1.393-2.288a61.66 61.66 0 0 0-1.58-2.29 66.158 66.158 0 0 0-15.918-15.905c-1.604-1.18-3.268-2.206-4.955-3.185a77.048 77.048 0 0 1 7.433-10.277c2.242-2.761 4.79-5.334 7.351-7.93 2.56-2.595 5.298-5.073 8.13-7.515 5.569-4.92 11.586-9.44 17.592-14.266 3.02-2.36 6.053-4.72 9.097-7.232 3.044-2.514 6.136-4.92 9.203-7.576a67.338 67.338 0 0 0-11.799 2.537 102.299 102.299 0 0 0-11.303 4.071 112.434 112.434 0 0 0-15.858 8.366c-19.811-28.885-27.056-55.716-21.593-79.763 4.484-19.763 16.826-33.946 26.572-42.476a122.711 122.711 0 0 0 7.398 40.884c14.607 40.117 49.639 73.343 104.116 98.723a193.506 193.506 0 0 0 81.532 18.123 184.94 184.94 0 0 0 43.055-5.026 251.322 251.322 0 0 0 24.518-7.162 253.28 253.28 0 0 0 88.978-53.403 75.609 75.609 0 0 1 27.138 22.418c17.557 22.855 25.604 52.59 30.677 80.553.885 4.873 1.676 9.723 2.431 14.454.696 4.52 1.357 8.944 2.006 13.239 5.593 37.615 6.796 71.644 3.54 102.912a290.389 290.389 0 0 1-4.555 29.698q-1.51 7.34-3.398 14.49a.46.46 0 0 1 0 .165 50.901 50.901 0 0 1-6.608 14.996c-4.2 6.43-9.687 11.233-15.74 13.475-7.929 2.962-16.294 1.487-24.872-4.366-9.062-6.206-14.89-14.666-18.879-24.27a101.473 101.473 0 0 1-4.72-14.49c-1.923-7.658-3.28-15.646-4.601-23.598-.39-2.36-.767-4.72-1.18-7.009 0-.153 0-.283-.083-.436-1.64-9.31-2.855-18.879-4.047-28.165-1.475-11.457-2.997-23.291-5.31-34.937-2.1-10.62-7.197-35.09-18.654-51.751a50.3 50.3 0 0 0-7.67-8.897 22.218 22.218 0 0 0-14.831-5.569h-71.255a116.977 116.977 0 0 0-21.817 1.994c-1.286.224-2.548.507-3.81.767-1.31.26-2.585.602-3.87.897a122.67 122.67 0 0 0-10.939 3.41 115.006 115.006 0 0 0-37.757 22.914 91.937 91.937 0 0 0-2.678 2.548 110.605 110.605 0 0 0-27.94 44.719c-8.555 25.958-6.125 50.89 6.949 73.296.165.307.342.567.507.85.378.637.755 1.286 1.18 1.923a3.422 3.422 0 0 1 .236.39c.59.908 1.18 1.793 1.794 2.678 1.014 1.534 2.112 3.032 3.22 4.542.85 1.098 1.7 2.171 2.585 3.245l.484.578c1.474 1.77 3.044 3.54 4.72 5.298a87.67 87.67 0 0 0 2.076 2.148l10.336-10.136a114.781 114.781 0 0 1-2.065-2.17c-1.345-1.452-2.643-2.903-3.835-4.355-1.026-1.18-2.005-2.466-2.938-3.705a.52.52 0 0 1-.106-.13c-.578-.778-1.18-1.545-1.675-2.36-.496-.813-1.05-1.521-1.581-2.36-.531-.837-1.18-1.793-1.7-2.678l-.943-1.616c-.13-.248-.26-.472-.413-.72-.284-.484-.543-.99-.826-1.486-.626-1.18-1.18-2.36-1.758-3.54-8.047-17.12-8.85-35.61-2.36-55.22a96.27 96.27 0 0 1 20.66-35.126 8.543 8.543 0 0 0 1.345-1.7 10.62 10.62 0 0 1 4.26-4.01l.07.046a96.423 96.423 0 0 1 16.885-12.483 99.939 99.939 0 0 1 9.687-4.991c.248-.107.484-.225.755-.33.956-.437 1.96-.85 2.962-1.252 1.392-.542 2.761-1.097 4.2-1.557a49.773 49.773 0 0 1 4.071-1.345 5.982 5.982 0 0 1 .897-.26 102.157 102.157 0 0 1 29.061-4.188h71.975c11.8 3.622 21.05 21.828 27.492 54.276 2.206 11.209 3.717 22.82 5.144 34.052 1.18 8.814 2.36 17.935 3.847 26.926.106.625.2 1.18.319 1.84.412 2.36.825 4.885 1.238 7.351 1.18 6.973 2.36 14.16 4.06 21.356h-125.154v14.49h129.354c4.72 13.569 12.306 26.076 25.569 35.161 8.967 6.124 17.203 8.153 24.2 8.153a36.318 36.318 0 0 0 12.72-2.36 41.568 41.568 0 0 0 11.137-6.312c8.968-7.08 15.906-18.04 19.363-31.15a97.4 97.4 0 0 0 .908-3.54h66.028c19.67-.849 33.876-7.893 42.194-20.955 18.407-28.92-.472-76.576-1.923-80.14a147.323 147.323 0 0 0-5.687-13.474l96.47-310.825a118.487 118.487 0 0 0-17.924-106.392zm-617.685 352.558c.401.614.79 1.18 1.18 1.83l1.18 2.005 2.49 4.059c1.51 2.773 3.138 5.487 4.518 8.26a148.67 148.67 0 0 1 7.446 17.238 131.796 131.796 0 0 1 4.79 17.958 107.242 107.242 0 0 1 .614 36.578 100.293 100.293 0 0 1-4.59 17.698 98.227 98.227 0 0 1-3.54 8.342 59.093 59.093 0 0 1-2.053 3.941l-1.085 1.888-.555.861-.425.685-.366.53c-5.498 8.815-13.203 15.434-23.02 17.959-9.817 2.525-20.943 1.911-31.857-.566a133.861 133.861 0 0 1-16.354-4.968c-5.404-2.006-10.76-4.307-16.035-6.832a242.26 242.26 0 0 1-30.43-17.533l-1.911-1.321a32.247 32.247 0 0 0-20.46-5.145s7.009 3.894 9.44 8.047a83.36 83.36 0 0 0-18.313 10.065 26.079 26.079 0 0 1-1.003-1.263c-5.015-6.584-9.84-17.486-13.864-31.468a99.113 99.113 0 0 1-4.035-32.13c0-1.061.106-2.111.2-3.126 1.416-17.699 7.658-31.008 18.608-39.787a50.052 50.052 0 0 1 8.259-5.333c13.427-6.95 28.955-7.764 38.619-7.398a62.046 62.046 0 0 0-1.546 4.366 64.022 64.022 0 0 0-2.254 10.725 84.694 84.694 0 0 0-.495 10.62 80.588 80.588 0 0 0 2.749 20.636 53.096 53.096 0 0 0 8.873 18.395c-3.87-12.98-3.634-25.876-1.758-38.418a70.795 70.795 0 0 1 4.72-17.699 55.456 55.456 0 0 1 9.273-14.867 47.798 47.798 0 0 1 6.254-6.005 51.173 51.173 0 0 1 7.08-5.003 41.108 41.108 0 0 1 15.87-5.31 42.996 42.996 0 0 1 16.695 1.57 47.197 47.197 0 0 1 15.221 7.586 52.376 52.376 0 0 1 11.87 12.33zm521.321-386.763a104.517 104.517 0 0 1 47.456 11.173c-11.799 3.351-27.55 10.478-43.904 25.404q-24.861 22.725-42.56 60.317a1.664 1.664 0 0 0-.153.283 106.83 106.83 0 0 0-5.9 12.342q-.2-1.522-.425-3.115l-.118-.708c-4.519-30.925-13.439-64.258-28.07-104.906l-.283-.79zm-444.037.578c5.805-25.286 19.268-41.415 43.657-52.318a56.506 56.506 0 0 1 24.778-5.132 146.805 146.805 0 0 0-54.736 67.986c-5.9 14.631-12.896 31.693-20.707 48.282-.142.284-.272.567-.402.85a277.032 277.032 0 0 1 7.41-59.668zm320.677 2.36a6.808 6.808 0 0 0-1.57-.72 6.961 6.961 0 0 0-7.916 2.902c-.732 1.18-1.487 2.431-2.254 3.67-3.115 5.168-5.9 9.97-8.425 14.666a237.073 237.073 0 0 0-3.54 6.572 422.645 422.645 0 0 0-7.079 13.876 1284.1 1284.1 0 0 0-7.882 16.448l-.247.543a600.638 600.638 0 0 0-7.21 16.448c-.212.472-.424.967-.625 1.451a690.92 690.92 0 0 0-7.693 19.41c-.52 1.416-1.074 2.843-1.617 4.318l-.79 2.148c-1.711 4.649-3.21 8.873-4.543 12.908a63.591 63.591 0 0 0-.826 2.36 530.5 530.5 0 0 0-7.374 23.928l-.378 1.428-.094.366c-.141.602-.318 1.18-.484 1.782-1.18 4.259-2.112 8.165-2.961 11.799-.354 1.569-.696 3.08-1.003 4.566-.307 1.487-.708 3.257-1.015 4.838-.307 1.58-.566 2.749-.79 4.106v.188c0 .272-.118.555-.154.838v.2c-.236 1.18-.424 2.278-.601 3.34-.496 2.973-.85 5.404-1.18 7.67a261.714 261.714 0 0 0-.531 4.719l-.071.66c-.177 1.7-.342 3.54-.437 5.346v.271a3.54 3.54 0 0 0 0 .708v.236c0 .732-.094 1.463-.106 2.183-.012.72-.083 1.369-.094 2.03 0 1.38-.083 2.548-.083 3.752v3.68c0 1.193 0 2.125.106 3.14.106 1.014.118 1.722.189 2.524 0 .531 0 .909.071 1.287 1.026 11.138 3.846 20.058 8.413 26.666a53.65 53.65 0 0 0 25.061 19.61 68.435 68.435 0 0 0 16.731 4.141c.602.095 1.18.154 1.747.236-.673.708-1.357 1.404-2.03 2.1a259.404 259.404 0 0 1-20.176 18.643 241.552 241.552 0 0 1-58.69 36.023c-1.427.602-2.855 1.18-4.27 1.782a238.343 238.343 0 0 1-34.962 11.22c-38.264 9.145-79.443 4.791-115.961-12.223-48.518-22.596-80.235-51.102-94.83-84.954a110.806 110.806 0 0 1-7.316-63.48c.071-.4.13-.778.213-1.18a105.083 105.083 0 0 1 3.858-14.713c.118-.354.224-.684.342-1.003.673-1.864 1.18-2.997 1.298-3.292 7.292-14.265 15.15-30.111 22.596-45.438l6.277-.98.837-.141 5.57-.85c-.366-2.36-.708-4.601-.991-6.843 0-.307-.094-.602-.107-.909a266.92 266.92 0 0 1-1.286-11.528c1.817-3.728 3.54-7.362 5.227-10.831.19-.378.378-.755.543-1.18 1.57-3.304 3.068-6.466 4.507-9.44a309.3 309.3 0 0 1 2.36-4.955c.165-.342.319-.696.496-1.05 7.197-15.61 13.651-31.362 19.138-45.002a133.779 133.779 0 0 1 61.155-69.096c.083 0 .177-.094.271-.153 1.876-1.015 3.752-2.018 5.7-2.962 1.946-.944 4.164-2.03 6.312-2.973l1.109-.507 1.829-.756.436-.188q7.221-3.045 15.056-5.546a216.455 216.455 0 0 1 21.415-5.628 234.413 234.413 0 0 1 24.602-3.823 262.248 262.248 0 0 1 56.541-.095q33.038 4.968 59.397 16.52 4.885 2.111 9.51 4.483c.802.39 1.593.802 2.36 1.18a5.227 5.227 0 0 0-.755.495l-.425.307a22.017 22.017 0 0 0-2.053 1.57l-.743.566a21.486 21.486 0 0 0-3.646 3.315 6.136 6.136 0 0 0-1.003 1.652 6.631 6.631 0 0 0-.354 3.752 5.144 5.144 0 0 0 .354 1.18 6.714 6.714 0 0 0 3.787 3.823 6.843 6.843 0 0 0 4.26.224 6.36 6.36 0 0 0 2.03-1.18c.365-.283.743-.601 1.18-.955l.695-.602a37.238 37.238 0 0 1 6.797-4.861c1.026-.59 1.982-1.18 2.902-1.593l1.286-.637a28.471 28.471 0 0 1 9.758-2.88h.838c.767 0 1.463.083 2.1.154a14.159 14.159 0 0 0 1.723.13l.566.059c.732.165 1.581.354 2.478.637a3.54 3.54 0 0 1 .46.153l.2.071.154.06.448.188a3.74 3.74 0 0 1 .437.189l.732.342a23.457 23.457 0 0 1 3.244 1.829 38.937 38.937 0 0 1 8.826 8.53 44.72 44.72 0 0 1 1.499 2.018c.483.696.967 1.393 1.44 2.112a98.074 98.074 0 0 1 8.754 17.557l.118.307.224.567c.071.165.154.354.213.53q2.466 6.49 4.896 13.145l.295.814q1.923 5.298 3.835 10.62c7.292 20.671 12.979 39.184 17.392 56.635a384.05 384.05 0 0 1 9.51 50.736c.319 2.702.59 5.357.814 8.012.472 5.557.79 11.02.944 16.342v1.829c0 1.994.07 3.964.07 5.9v3.327a217.446 217.446 0 0 1-1.863 25.521l-.154 1.05c-.153.92-.283 1.853-.436 2.738-.19 1.18-.39 2.43-.602 3.54-.213 1.108-.39 2.017-.602 2.973-.094.566-.26 1.262-.436 1.935a5.605 5.605 0 0 1-.166.743c-.153.66-.318 1.51-.578 2.36a86.089 86.089 0 0 1-1.723 6.053c-.247.767-.507 1.605-.802 2.36l-.082.188c-.354 1.074-.72 2.136-1.18 3.15-.46 1.016-.767 1.889-1.18 2.833l-.224.542c-.402.944-.85 1.9-1.416 2.962-.083.165-.213.448-.366.732a13.392 13.392 0 0 1-.861 1.675l-.13.248v.602l-.602.472-.437.766-.118.19-.519.931c-.189.284-.342.508-.495.756-.177.283-.342.542-.52.802-.176.26-.46.72-.696 1.097a7.634 7.634 0 0 1-.472.66 48.258 48.258 0 0 1-3.103 4.048 3.21 3.21 0 0 1-.4.496c-.473.578-.957 1.18-1.452 1.651l-.413.437c-8.437 9.05-22.914 17.038-38.76 21.392-.956.26-1.9.52-2.868.755a93.213 93.213 0 0 1-16.896 2.773l-2.206.094a82.098 82.098 0 0 1-8.578-.153c-16.012-1.18-27.976-7.351-35.61-18.3a26.607 26.607 0 0 1-2.785-5.145 39.152 39.152 0 0 1-.554-1.416 14.454 14.454 0 0 1-.52-1.463 47.586 47.586 0 0 1-1.828-8.106l-.094-.602c0-.354-.094-.731-.154-1.097-.082-.637-.13-1.18-.177-1.864-.106-1.11-.177-2.36-.26-3.6l-.058-1.934a141.4 141.4 0 0 1 1.357-21.71c.083-.602.177-1.24.271-1.865l.13-.956c.578-3.929 1.321-8.106 2.242-12.813.247-1.062.436-2.1.637-3.15.495-2.23.98-4.414 1.486-6.597.213-.79.378-1.522.567-2.277l.283-1.18c.224-1.073.531-2.23.838-3.374a43.84 43.84 0 0 1 .519-2.053l.153-.602.225-.944c.306-.98.59-2.053.873-3.115a397.812 397.812 0 0 1 4.141-14.159c.26-.932.578-1.959.909-2.95 1.451-4.566 2.95-9.12 4.483-13.533.449-1.334.92-2.714 1.405-4.083l.707-1.982c0-.153.107-.319.166-.472.483-1.38.979-2.714 1.486-4.106l.13-.366c.342-.932.684-1.864 1.038-2.784l1.758-4.65c.484-1.285.98-2.572 1.464-3.834l.177-.425c.955-2.43 1.911-4.85 2.879-7.197.354-.873.696-1.723 1.05-2.573.188-.424.365-.86.554-1.297 2.631-6.325 5.274-12.378 7.894-18.006 4.26-9.109 8.118-17.061 11.799-24.294a394.386 394.386 0 0 1 10.702-19.658c1.994-3.48 3.976-6.784 5.9-9.758a6.902 6.902 0 0 0-2.207-9.498zm34.796 362.044c-5.558-22.017-13.947-43.916-28.094-62.323a90.405 90.405 0 0 0-27.563-24.082q4.65-4.72 9.263-9.852c.755-.85 1.533-1.7 2.289-2.56 19.799-1.912 40.884-9.747 55.585-20.708l.508-.401 1.18-.944c-.13 1.074-.225 2.147-.33 3.221-.107 1.074-.213 2.006-.308 3.02h.378c-4.366 31.752-8.743 69.592-12.908 114.63zm107.372 153.944c0 .601-.106 1.18-.189 1.793a6.277 6.277 0 0 1-.07.66 33.84 33.84 0 0 1-.496 3.128q-.142.767-.319 1.522a26.642 26.642 0 0 1-.72 2.737l-.106.378c-.13.448-.283.92-.448 1.357-.165.436-.342.955-.531 1.427l-.118.283a10.879 10.879 0 0 1-.52 1.18 12.542 12.542 0 0 1-.73 1.499l-.402.767a.153.153 0 0 0 0 .059c-.283.507-.59 1.014-.908 1.522-5.688 8.92-15.634 13.569-30.43 14.253h-62.312q2.844-14.395 4.354-29.568c3.186-32.011 1.923-66.748-3.776-105.013-.542-3.681-1.109-7.469-1.71-11.303h17.958c2.018 0 49.686 1.781 72.683 64.364l.094.248c.083.448 10.596 26.3 8.696 48.707zm81.65-382.6-69.532 224.03-22.95 73.946c-.684-.98-1.357-1.947-2.04-2.879-.685-.932-1.299-1.781-1.96-2.62 0 0-.07-.093-.094-.14-.637-.803-1.262-1.594-1.876-2.36-.614-.768-1.074-1.299-1.628-1.947a65.78 65.78 0 0 0-1.64-1.865c-1.086-1.18-2.207-2.36-3.316-3.54-.448-.471-.92-.932-1.369-1.38a82.702 82.702 0 0 0-3.54-3.316c-.448-.413-.92-.814-1.38-1.18-.46-.365-.897-.778-1.369-1.18a76.725 76.725 0 0 0-2.749-2.182 85.277 85.277 0 0 0-3.54-2.62l-1.77-1.18-.424-.283c-.449-.283-.897-.59-1.357-.873-.897-.555-1.805-1.109-2.714-1.64l-1.557-.897a64.146 64.146 0 0 0-2.49-1.345l-1.699-.861c-.602-.307-1.18-.602-1.805-.861l-1.865-.85a16.68 16.68 0 0 0-.955-.413l-1.499-.625-1.262-.508a14.478 14.478 0 0 0-1.357-.507l-.862-.33a32.188 32.188 0 0 0-1.793-.614c-.248-.083-.484-.177-.732-.248l-1.18-.377a5.192 5.192 0 0 0-.648-.213c-.791-.236-1.546-.46-2.36-.649a28.198 28.198 0 0 0-1.487-.4l-1.003-.249c-.342-.094-.66-.153-.98-.224a5.085 5.085 0 0 0-.577-.13 73.813 73.813 0 0 0-6.148-1.109 56.67 56.67 0 0 0-2.843-.318l-.779-.06h-17.038c.401-4.483.779-8.92 1.18-13.25.153-1.58.283-3.162.436-4.72.225-2.63.472-5.238.72-7.822q1.015-10.867 2.053-21.239c.224-2.36.449-4.613.696-6.89.13-1.428.284-2.844.437-4.26.106-1.18.236-2.36.378-3.54q1.38-13.356 2.82-25.745c.188-1.723.4-3.457.59-5.157.932-8.141 1.9-15.964 2.855-23.456.224-1.853.472-3.682.696-5.475.366-2.785.743-5.51 1.097-8.26.26-2.076.543-4.106.826-6.123.177-1.18.342-2.443.508-3.658l.814.083c.342-3.434.684-6.773 1.062-10.089.425-3.917.896-7.763 1.392-11.55l.425-3.54v-.19l.283-1.828.236-.413a79.884 79.884 0 0 0 2.879-5.274l.378-.78.637-1.32a86.853 86.853 0 0 0 2.938-6.95l.082-.284a131.466 131.466 0 0 0 6.985-28.742 233.21 233.21 0 0 0 2.018-31.067v-2.584c.72-2.431 1.451-4.72 2.206-7.08 15.48-48.282 35.398-75.94 52.282-91.715a112.292 112.292 0 0 1 16.153-12.648c1.18-.803 2.49-1.558 3.717-2.254 1.227-.696 2.089-1.18 3.127-1.758l.448-.224c.567-.307 1.18-.578 1.735-.85a2.289 2.289 0 0 1 .354-.165 38.748 38.748 0 0 1 46.606 12.035c.107.13.2.272.295.401a104.092 104.092 0 0 1 15.823 93.379z" style="stroke-width:1.17991"/><path id="path668" d="M-1325.665 785.142a42.477 42.477 0 0 0 10.796 8.779l58.795-82.96-23.846-.437-50.252 68.353a39.728 39.728 0 0 0 4.507 6.265z" class="cls-5" style="stroke-width:1.17991"/><path id="path670" d="m-1292.002 799.714 62.63-88.387c-3.54-.142-7.28-.154-11.08-.165h-3.15l-62.158 86.7a39.055 39.055 0 0 0 10.62 1.817h.837z" class="cls-5" style="stroke-width:1.17991"/><path id="path672" d="M-1378.1 1075.543a21.014 21.014 0 0 0-14.337 5.274c-6.076 5.557-12.448 16.943-6.678 39.256 0 0 4.72 27.515 40.377 11.386 0 0 17.356-3.753 8.837-36.578a23.244 23.244 0 0 0-6.619-11.327 31.256 31.256 0 0 0-21.58-8.012z" class="cls-23" style="stroke-width:1.17991"/><ellipse id="ellipse674" cx="-1715.901" cy="458.675" class="cls-23" rx="11.02" ry="14.572" style="stroke-width:1.17991" transform="rotate(-22.01)"/><ellipse id="ellipse676" cx="-1663.606" cy="521.013" class="cls-23" rx="11.02" ry="14.572" style="stroke-width:1.17991" transform="rotate(-19.46)"/><ellipse id="ellipse678" cx="-1592.923" cy="641.71" class="cls-23" rx="11.02" ry="14.572" style="stroke-width:1.17991" transform="rotate(-15.51)"/></g></svg>