<svg xmlns="http://www.w3.org/2000/svg" width="64" height="64"><circle cx="32" cy="32" r="32" fill="#fff" data-name="Ellipse 1"/><g data-name="Group 93"><path fill="#dcf1ff" d="M39.736 45.571a8.868 8.868 0 0 1-8.995 8.867q-.43-.007-.849-.053a8.869 8.869 0 0 1-3.8-16.289V14.774a4.777 4.777 0 0 1 3.8-4.674 4.826 4.826 0 0 1 .976-.1 4.773 4.773 0 0 1 4.776 4.774V38.1a8.861 8.861 0 0 1 4.092 7.471z" data-name="Path 53"/><path fill="#b6e5ff" d="M39.736 45.571a8.868 8.868 0 0 1-8.995 8.867q-.43-.007-.849-.053a8.868 8.868 0 0 0 7.891-8.814l-2.146-1.581a4.791 4.791 0 0 1-1.949-3.856v-25.36a4.775 4.775 0 0 0-3.796-4.674 4.827 4.827 0 0 1 .976-.1 4.773 4.773 0 0 1 4.774 4.774V38.1a8.861 8.861 0 0 1 4.094 7.475z" data-name="Path 54"/><path fill="#ff485e" d="M37.783 45.572a6.915 6.915 0 0 1-6.918 6.915h-.1a6.726 6.726 0 0 1-.851-.066 6.97 6.97 0 0 1-5.964-6.736 6.882 6.882 0 0 1 3.193-5.942 1.944 1.944 0 0 0 .9-1.645v-4.011a.651.651 0 0 1 .651-.652h4.34a.651.651 0 0 1 .651.651v4.011a1.944 1.944 0 0 0 .9 1.645 6.9 6.9 0 0 1 3.198 5.83z" data-name="Path 55"/><path fill="#d82356" d="M37.783 45.571a6.915 6.915 0 0 1-6.918 6.915h-.1a6.739 6.739 0 0 1-.851-.066 6.916 6.916 0 0 0 2.762-12.678 1.944 1.944 0 0 1-.9-1.645v-4.011a.651.651 0 0 0-.651-.651h1.914a.651.651 0 0 1 .651.651v4.011a1.944 1.944 0 0 0 .9 1.645 6.894 6.894 0 0 1 3.193 5.829z" data-name="Path 56"/><g fill="#87c8f4" data-name="Group 92"><path d="M29.142 16.775h3.9a.651.651 0 0 0 0-1.3h-3.9a.651.651 0 0 0 0 1.3z" data-name="Path 57"/><path d="M33.039 18.023h-1.727a.651.651 0 0 0 0 1.3h1.727a.651.651 0 1 0 0-1.3z" data-name="Path 58"/><path d="M33.038 20.573h-3.9a.651.651 0 0 0 0 1.3h3.9a.651.651 0 0 0 0-1.3z" data-name="Path 59"/><path d="M33.039 23.122h-1.727a.651.651 0 1 0 0 1.3h1.727a.651.651 0 1 0 0-1.3z" data-name="Path 60"/><path d="M33.038 25.674h-3.9a.651.651 0 0 0 0 1.3h3.9a.651.651 0 0 0 0-1.3z" data-name="Path 61"/><path d="M33.039 28.224h-1.727a.651.651 0 0 0 0 1.3h1.727a.651.651 0 1 0 0-1.3z" data-name="Path 62"/><path d="M33.038 30.774h-3.9a.651.651 0 1 0 0 1.3h3.9a.651.651 0 1 0 0-1.3z" data-name="Path 63"/></g></g><g fill="#87c8f4" data-name="Group 94"><path d="M44.86 25.313a.651.651 0 0 0 .651-.651v-1.168a1.651 1.651 0 0 0-1.649-1.649h-3.076a1.651 1.651 0 0 0-1.652 1.649v11.26a1.651 1.651 0 0 0 1.649 1.649h3.076a1.651 1.651 0 0 0 1.649-1.649v-1.17a.651.651 0 1 0-1.3 0v1.17a.347.347 0 0 1-.347.347h-3.076a.347.347 0 0 1-.347-.347v-11.26a.347.347 0 0 1 .347-.347h3.076a.347.347 0 0 1 .347.347v1.17a.651.651 0 0 0 .652.649z" data-name="Path 64"/><path d="M39.789 20.802a.639.639 0 1 0-.639-.639.639.639 0 0 0 .639.639z" data-name="Path 65"/></g></svg>