<svg xmlns="http://www.w3.org/2000/svg" xml:space="preserve" id="svg168" width="64" height="64" version="1.1"><style id="style395" type="text/css">.st0{fill:#fff}.st2{fill:#c6c6c6}.st6{fill:#54afd3}.st7{fill:#2b2b2b}.st8{fill:#7f7f7f}.st10{opacity:.5;fill:#2b2b2b}.st11{fill:#c6c6c5}.st14{fill:#676767}.st17{opacity:.5;fill:#fff}.st19{fill:#010101}.st20{fill:#f4a94e}.st21{fill:#2b1911}.st26,.st27{fill:#7abcdc}.st27,.st28{opacity:.8}.st28{fill:#f4a94e}.st30,.st31{fill:#fdc72a}.st31{opacity:.6}.st33{fill:#ffd985}</style><g id="g588" transform="translate(-1.731 -1.9) scale(.08424)"><circle id="circle307" cx="400.415" cy="402.422" r="379.867" fill="#fff" data-name="Ellipse 1" style="stroke-width:11.8708"/><g id="g584"><path id="path397" d="M519.6 267.6h-75.3v185.1H317.1c-.4-.8-.9-1.7-1.4-2.5-39.7-130.7 49.7-189.9 68.4-214.1h83.7c14.3 0 28.2 6 37.9 16.5z" class="st0"/><path id="path399" d="m453.3 236.2-.2.2c-23.5 24.3-90.8 73.8-75.3 219.2v.3c-.1-.1-.3-.2-.5-.3-2.1-.8-9.8-.1-16.2.2-4 .2-7.4.3-8.6-.2-.2-.1-.3-.1-.4-.2-.1-.2-16.5.2-27 .3-4.9.1-8.4.1-8.5 0-14.5-14.8-9.8-26.9-13.1-39.5-.2-.7-.5-1.4-.8-2.2-4.3-.6-8.8-1-13.3-1.1-19.7-74.9 6.4-143.5 23-176.8h140.9z" style="fill:#95c43b"/><path id="path401" d="M451 238.5v8.7c-2.1 2-4.3 4.2-6.6 6.5-28.6 29.3-69.7 83.5-58.2 198.9.1 1.1.2 2.2.3 3.4-.6-.8-4.3-.7-8.8-.5-.1-1-.2-1.9-.3-2.8-12.8-128.1 39.1-180.8 66.9-207.8 2.5-2.3 4.7-4.4 6.7-6.4z" class="st2"/><path id="path403" d="M341.7 452.7h-28.3c-17.3 0-30.4-36.1-44.6-29.5-75.7-93.5-38.6-171.2-37.5-187h112.1c-16.6 33.2-40.6 129.2-1.7 216.5z" style="fill:#f29530"/><path id="path405" d="M353.1 452.7h-11.4c-39-87.3-14.9-183.2 1.7-216.5h11.4c-16.6 33.3-40.6 129.2-1.7 216.5z" style="opacity:.5;fill:#95c43b"/><path id="path407" d="M329.1 454.1c-19.6 9-89.7-39.9-120.8 10.6h-13.1c31.2-50.5 85.4-19.3 105-28.3-74.4-76.3-65-184.5-63.9-200.2h13.1c-1.1 15.7-18.3 124 79.7 217.9z" style="opacity:.5;fill:#f29530"/><path id="path409" d="M525.7 267.6H451v185h71.5c1.7-4.2 3.9-8.2 6.5-11.8 2.9-4.2 6.3-8 10.1-11.3-5.8-13.7-9.1-28.9-9.1-44.8v-2l-40.6-1.4c-14.3 0-26.3-.5-26.3-15.3l.4-41.3c0-5.3-3.6-13.2.7-15.5 1.8-5.5 3.5-9.5 9.4-9.5H526c6.9 0 13.6 2.9 18.5 8l8.2 8.6c2.5-3.3 5.2-6.5 8.1-9.5z" class="st0"/><path id="path411" d="M690.9 452.7h-74.4c-12.2-28.5-35.5-25.5-66.7-25.5-18.8 0-16.9 37.7-42 27.7-29.6-24.6-25.4-67.1-25.4-87.1v-2.5l75.5 2.5c4.2 0 13.9-.4 15.5-4.3.4-1 .1 3.2 0 4.1 0 .2 0 .2 0 0 3.4-.6 6.3-2.9 7.7-6.2 1.6-3.9.8-8.3-2.2-11.3l-2.5-2.5-1-1-63.6-64.4c3.2-4.2 6.7-8.2 10.5-11.9l61.7 66.4c4.5 4.9 31.3 30 37.8 31.6l20.1 4.5c9.4 2.4 21.8-.1 24.8 9.1-5.3-2-9.9-7-11.3-7l14.5 7c-2.4 0 4.5 9.7 4.5 12 0 1.9.1 3.8.4 5.7 2.8 21.4-46.3 23.1-24.2 23.1h31z" class="st6"/><path id="path413" d="M681.4 422.8h-30.9c-22.1 0 27-1.8 24.2-23.1-.2-1.9-.4-3.8-.4-5.7 0-2.3-6.8-12-4.5-12l-4.1-2c-4-6.9-15.2-4.9-23.9-7.2l-20.1-4.5c-6.4-1.6-33.2-26.8-37.8-31.6l-61.7-66.4c-5.3 4.3-8.4 9.1-11.7 13.3l64.8 63c.3.4.6.7 1 1l2.5 2.5c2.9 3 3.8 7.4 2.2 11.3-1.4 3.3-4.2 5.6-7.7 6.2 0 .2 0 .2 0 0 .1-.8.4-5.1 0-4.1-1.6 3.9-11.3 4.3-15.5 4.3l-75.5-2.5v2.5c0 4.4-.2 10-.2 16.2 2.2.6 4.6 1 7 1H602c.3 0 .6 0 1-.1h.3c2.5-.4 1.3-1.9 2.5-4.1 1.1 2.1 1.3 4.6.4 6.9-1.2 3-4.1 4.9-7.4 4.9H482.5c.8 20.6 5.3 45.6 25.5 62.3 25 10 23.2-27.7 42-27.7 31.2 0 54.5-3 66.7 25.5h74.4zm-24.6-47.1-1.4-.7c.3 0 .8.2 1.4.7z" class="st6"/><path id="path415" d="M600 379.4c-.1.5-.5 1.2-1.4 1.2H483.2c-10.9 0-19.8-11.7-19.8-26.1v-57.8c0-5 3.1-9.2 6.9-9.2h45.4c5.3 0 10.4 2.9 14.2 7.8l69.8 82c.6.8.5 1.6.3 2.1z" class="st7"/><path id="path417" d="m540.9 301.8-3.4 6.1-40 72.7-2 3.6-17.9-4.3-6.5.1-4.5-9.4-.7-3.3 1.1-2 41.7-75.4.8-1.5L526 287c1.9 1.1 3.7 2.5 5.3 4.1z" class="st8"/><path id="polygon419" d="m547.1 308.8 12.4 14.1-3.2 6.2-27 51.5-.7 1.4h-20.7l.7-1.4 35.2-65.6z" class="st8"/><path id="path421" d="M115.7 393.6H101v60.5h14.7c3.5 0 6.4-2.9 6.4-6.4V400c0-3.5-2.9-6.4-6.4-6.4z" style="fill:#be3236"/><path id="path423" d="M626.8 519.7c0 26.7-21.7 48.4-48.4 48.4S530 546.4 530 519.7s21.7-48.4 48.4-48.4 48.4 21.7 48.4 48.4z" class="st7"/><path id="path425" d="M594.7 565.3c-5.1 1.8-10.6 2.8-16.3 2.8-26.7 0-48.4-21.7-48.4-48.4 0-26.2 20.8-47.5 46.8-48.4-18.7 6.7-32.1 24.6-32.1 45.6 0 26.7 21.7 48.4 48.4 48.4.4.1 1 .1 1.6 0z" class="st10"/><path id="path427" d="M301.3 519.7c0 26.7-21.7 48.4-48.4 48.4s-48.4-21.7-48.4-48.4 21.7-48.4 48.4-48.4 48.4 21.7 48.4 48.4z" class="st7"/><path id="path429" d="M273.2 563.7c-6.2 2.9-13.1 4.5-20.3 4.5-26.7 0-48.4-21.7-48.4-48.4 0-24.4 18.2-44.7 41.7-48-16.6 7.7-28.1 24.5-28.1 44 0 26.7 21.7 48.4 48.4 48.4 2.2 0 4.5-.2 6.7-.5z" class="st10"/><g id="g437"><g id="g433"><circle id="circle431" cx="578.3" cy="519.7" r="23.2" class="st0"/></g><path id="path435" d="M593 537.8c-4 3.2-9.1 5.2-14.6 5.2-12.8 0-23.2-10.4-23.2-23.2 0-11.7 8.6-21.4 19.9-23-5.2 4.2-8.6 10.7-8.6 18 0 12.8 10.4 23.2 23.2 23.2 1.1 0 2.2-.1 3.3-.2z" class="st11"/></g><path id="path439" d="M681.5 423h-15c-.7-9.4-4-16.4-9.7-20.9-1.6-1.2-3.2-2.1-4.9-2.9h11.6c.1 0 7.5-.1 12 4.8z" style="fill:#c8c7c7"/><path id="path441" d="M659.9 423h-.2c-12.1 0-22.3-8-25.8-18.9 1.6-.3 11.8-2.2 18.9 3.2 4.1 3.3 6.5 8.5 7.1 15.7z" style="fill:#ca9062"/><path id="path443" d="M515.4 516.1v8.2H314.9v-8.2c0-3.6 2.9-6.5 6.5-6.5h187.5c3.6 0 6.5 2.9 6.5 6.5z" class="st14"/><path id="path445" d="M515.4 516.1v5.8c0-3.6-2.9-6.5-6.5-6.5H321.4c-3.6 0-6.5 2.9-6.5 6.5v-5.8c0-3.6 2.9-6.5 6.5-6.5h187.5c3.6 0 6.5 2.9 6.5 6.5z" class="st2"/><path id="path447" d="M444.4 459.3v7.7H308.2c-.1 0-.2 0-.3-.1-.1 0-.2-.1-.3-.1-.1 0-.2-.1-.3-.1-.1 0-.2-.1-.3-.1-.1-.1-.2-.1-.3-.2-.1-.1-.2-.1-.2-.2l-.2-.2-.2-.2c-.1-.1-.1-.2-.2-.3 0-.1-.1-.1-.1-.1-12.2-23.4-29.8-38-56.2-38-31.1 0-52.3 19.9-61.6 49.5 0 .1 0 .1-.1.2 0 .1-.1.1-.1.2-.1.1-.1.2-.2.4 0 .1-.1.1-.1.2-.2.3-.5.6-.8.8 0 0-.1.1-.2.1-.1.1-.2.1-.4.2-.1 0-.1.1-.2.1-.1.1-.3.1-.4.1h-.2c-.2 0-.4.1-.6.1H101v-7.7h78c.2 0 .4 0 .6-.1h.2c.1 0 .3-.1.4-.1.1 0 .1 0 .2-.1s.2-.1.4-.2c.1 0 .1-.1.2-.1.3-.2.6-.5.8-.8 0 0 .1-.1.1-.2.1-.1.1-.2.2-.4 0-.1.1-.1.1-.2s.1-.1.1-.2c9.3-29.6 36.4-49.5 67.4-49.5 26.4 0 50.4 14.6 62.7 38l.1.1c.1.1.1.2.2.3l.2.2.2.2c.1.1.2.1.2.2.1.1.2.1.3.2.1.1.2.1.3.1.1 0 .2.1.3.1.1 0 .2.1.3.1.1 0 .2.1.3.1h.5z" class="st2"/><path id="path449" d="M444.4 466.9V503h-123c-7.2 0-13.1 5.9-13.1 13.1v8.2h-.7c0-.3 0-.5.1-.8.1-1.2.1-2.5.1-3.8 0-30.3-24.7-55-55-55s-55 24.7-55 55c0 1.2.1 2.5.1 3.7 0 .3 0 .5.1.8h-75.6c-11.8 0-21.5-9.6-21.5-21.5V479h83.9c.2 0 .4 0 .6-.1h.2c.1 0 .3-.1.4-.1.1 0 .1 0 .2-.1s.2-.1.4-.2c.1 0 .1-.1.2-.1.3-.2.6-.5.8-.8 0 0 .1-.1.1-.2.1-.1.1-.2.2-.4 0-.1.1-.1.1-.2s.1-.1.1-.2c9.3-29.6 30.5-49.5 61.6-49.5 26.4 0 44 14.6 56.2 38l.1.1c.1.1.1.2.2.3l.2.2.2.2c.1.1.2.1.2.2.1.1.2.1.3.2.1.1.2.1.3.1.1 0 .2.1.3.1.1 0 .2.1.3.1.1 0 .2.1.3.1h136.1z" class="st14"/><path id="path451" d="M711.1 467.3v7.7c0-4.4-3.6-8-8-8h-77.2c-.2 0-.4 0-.6-.1h-.2c-.1 0-.3-.1-.4-.1-.1 0-.1 0-.2-.1-.2-.1-.3-.2-.5-.3-.2-.1-.3-.2-.4-.4l-.1-.1-.3-.3c0-.1-.1-.1-.1-.2-.1-.1-.1-.2-.2-.4 0-.1-.1-.1-.1-.2v-.1c-7.9-20.7-22.8-34.5-44.9-34.5-22.1 0-37.1 13.9-45 34.5v.1c0 .1-.1.2-.2.3 0 .1-.1.2-.1.3-.1.1-.1.2-.2.2-.1.1-.1.2-.2.3l-.2.2c-.1.1-.2.2-.3.2-.1.1-.2.1-.3.1-.1.1-.2.1-.3.2-.1 0-.2.1-.3.1-.1 0-.2.1-.3.1H451v-7.7h74.4c.1 0 .2-.1.3-.1.1 0 .2-.1.3-.1.1 0 .2-.1.3-.2.1 0 .2-.1.3-.1.1-.1.2-.2.3-.2l.2-.2c.1-.1.1-.2.2-.3.1-.1.1-.2.2-.2.1-.1.1-.2.1-.3.1-.1.1-.2.2-.3v-.1c7.9-20.7 28.1-34.5 50.2-34.5s42.3 13.9 50.2 34.5v.1c0 .1.1.1.1.2.1.1.1.2.2.4 0 .1.1.1.1.2l.3.3.1.1.4.4c.2.1.3.2.5.3.1 0 .1.1.2.1s.3.1.4.1h.2c.2 0 .4.1.6.1h71.8c4.4 0 8 3.6 8 8z" class="st2"/><path id="path453" d="M711.1 475v41.3c0 4.4-3.6 8-8 8h-69.9c0-.3 0-.5.1-.8.1-1.2.1-2.5.1-3.7 0-30.3-24.7-55-55-55s-55 24.7-55 55c0 1.2.1 2.5.1 3.7 0 .3 0 .5.1.8H522v-8.2c0-7.2-5.9-13.1-13.1-13.1H451v-36.1h79.6c.1 0 .2-.1.3-.1.1 0 .2-.1.3-.1.1 0 .2-.1.3-.2.1 0 .2-.1.3-.1.1-.1.2-.2.3-.2l.2-.2c.1-.1.1-.2.2-.3.1-.1.1-.2.2-.2.1-.1.1-.2.1-.3.1-.1.1-.2.2-.3v-.1c7.9-20.7 22.9-34.5 45-34.5s37 13.9 44.9 34.5v.1c0 .1.1.1.1.2.1.1.1.2.2.4 0 .1.1.1.1.2l.3.3.1.1.4.4c.2.1.3.2.5.3.1 0 .1.1.2.1s.3.1.4.1h.2c.2 0 .4.1.6.1h77.2c4.3-.2 7.9 3.4 7.9 7.9z" class="st14"/><path id="path455" d="M606.1 387.7c-1.2 3-4.1 4.9-7.4 4.9H482.4c-.1-3-.2-5.9-.2-8.6 2.2.6 4.6 1 7 1H602c.3 0 .6 0 1-.1h.3c2.5-.4 1.3-1.9 2.5-4.1 1.1 2.1 1.3 4.6.3 6.9z" style="fill:#caf3ff"/><path id="path457" d="M482.4 392.6c-14.2-.2-26.7-11.7-26.7-25.9v-63.9c0-7.5 2.9-12.4 9.3-14.7-.4 1.3-1.6 5.6-1.6 7.1V359c0 11.9 8 21.9 18.9 25-.1 2.7 0 5.6.1 8.6z" style="opacity:.7;fill:#b1b1b1"/><path id="path459" d="M668.3 400c-2.7-.7-4.8-.7-4.9-.7h-11.6l-12.6 14.4c3 3.5 6.9 6.2 11.3 7.8l13.3-16z" class="st17"/><path id="path461" d="m676 405.6-.5-1.6c-1.3-1.4-2.8-2.3-4.3-3l-5 6.1-12.6 15.3c3 .8 6.3.7 8.4.7l9.1-11.5z" class="st17"/><path id="path463" d="M109.2 400.5v46.7h12.9v.5c0 3.5-2.9 6.4-6.4 6.4H101v-60.5h14.7c3.5 0 6.4 2.9 6.4 6.4v.5h-.7z" style="opacity:.6;fill:#be3236"/><g id="g467"><path id="rect465" d="M97.7 414.2h27.7v22.7H97.7z" class="st0"/></g><path id="path469" d="m604.4 373.5-44.9-50.7-12.4-14-6.2-7-9.5-10.8c-1.6-1.6-3.3-3-5.3-4.1-4-2.4-8.6-3.6-13.2-3.6h-39.4c-7.4 0-13.3 6-13.3 13.3v64.6c0 14.3 11.6 25.9 25.9 25.9h112.7c3.2 0 6.1-1.9 7.4-4.9 1.2-3 .5-6.4-1.8-8.7zm-4.4 6.2c-.1.3-.5.9-1.3.9H486c-3.9 0-7.5-1.1-10.5-3.1-2.6-1.7-4.8-4-6.4-6.8-.9-1.7-1.6-3.5-2-5.4-.3-1.3-.4-2.6-.4-4v-64.6c0-3.7 3-6.8 6.8-6.8h39.4c5.2 0 10.2 2.1 13.8 5.8l10.9 12.3 6.3 7.1 12.5 14.1 43.4 49.1c.5.4.4 1.1.2 1.4z" class="st19"/><path id="path471" d="M600.1 387c.1.2 0 .2 0 0z" class="st20"/><path id="path473" d="M703.1 452.7h-5.3l-16.3-51.3-2.8-9c-2.9-9.3-10.4-16.3-19.8-18.7l-35.9-9.2c-3.7-1-7.1-2.9-9.7-5.8L510.6 248.3c-11-11.8-26.6-18.6-42.7-18.6H130.3c-19.8 0-35.9 16.1-35.9 35.8v237.4c0 15.5 12.6 28 28 28H199c5.2 25 27.4 43.9 53.9 43.9s48.7-18.9 53.9-43.9h217.7c5.2 25 27.4 43.9 53.9 43.9s48.7-18.9 53.9-43.9h70.9c8.1 0 14.6-6.5 14.6-14.6v-48.9c-.1-8.1-6.7-14.7-14.7-14.7zM681.5 423h-15c-.7-9.4-4-16.4-9.7-20.9-1.6-1.2-3.2-2.1-4.9-2.9h11.6c.1 0 7.5-.1 12 4.8zm-21.6 0h-.2c-12.1 0-22.3-8-25.8-18.9 1.6-.3 11.8-2.2 18.9 3.2 4.1 3.3 6.5 8.5 7.1 15.7zM451 236.2h16.9c14.3 0 28.2 6 37.9 16.5l11.2 12.1 2.6 2.8h-.1l16.1 17.1h-.1l72.8 78.4c3.5 3.8 8 6.4 12.9 7.7l35.9 9.2c7.2 1.9 12.9 7.2 15.2 14.3-4.1-1.6-7.8-1.7-8.9-1.7h-34.2c-1.8 0-3.3 1.5-3.3 3.3 0 18.5 15.1 33.6 33.6 33.6h23.9l7.3 23.1h-57.4c-9.4-22-31.4-36.7-55.5-36.7s-46.1 14.6-55.5 36.7H451ZM101 393.6h14.7c.5 0 1.1.1 1.6.2 2.8.7 4.8 3.2 4.8 6.2v47.7c0 1.5-.5 2.9-1.4 4-1.2 1.4-3 2.4-5 2.4H101Zm0 67.1h14.7c1.8 0 3.4-.4 5-1 4.7-2 8-6.6 8-12V400c0-7.2-5.8-13-13-13H101V265.5c0-1 .1-2 .2-2.9.4-4.4 1.8-8.5 4-12.1 0-.1.1-.1.1-.2.1-.2.3-.4.4-.6.2-.3.3-.5.5-.8.2-.3.4-.5.5-.8.2-.2.3-.4.5-.7.4-.5.9-1.1 1.3-1.6l.6-.6c.5-.6 1.1-1.1 1.6-1.6.3-.3.6-.5.8-.7.3-.3.6-.5 1-.8l.1-.1c.4-.3.7-.5 1.1-.8l.9-.6c.4-.2.7-.5 1.1-.7.2-.1.4-.2.6-.4.9-.5 1.9-1 2.8-1.3.3-.1.5-.2.8-.3.6-.3 1.3-.5 2-.7.2-.1.4-.1.6-.2.3-.1.7-.2 1.1-.3l1.2-.3c.4-.1.8-.1 1.2-.2.5-.1.9-.1 1.4-.2.2 0 .4 0 .6-.1h316.6v216.5H317.1c-1.6-2.9-3.3-5.6-5.2-8.2-.2-.2-.3-.5-.5-.7-5.6-7.5-12.4-13.8-20.2-18.8-.9-.6-1.8-1.1-2.7-1.7-7.8-4.5-16.3-7.7-25.3-9.3-4.4-.8-9-1.2-13.6-1.2-33.1 0-62.1 20.7-72.9 51.8H101Zm151.8 107.5c-26.7 0-48.4-21.7-48.4-48.4s21.7-48.4 48.4-48.4 48.4 21.7 48.4 48.4c.1 26.6-21.6 48.4-48.4 48.4zm55.5-52.1v8.2h-.7c.1-1.5.2-3 .2-4.5 0-30.3-24.7-55-55-55s-55 24.7-55 55c0 1.5.1 3 .2 4.5h-75.6c-11.8 0-21.5-9.6-21.5-21.5v-31.5h78c.2 0 .4 0 .6-.1h.2c.1 0 .3-.1.4-.1.1 0 .1 0 .2-.1s.2-.1.4-.2c.1 0 .1-.1.2-.1.3-.2.6-.5.8-.8 0 0 .1-.1.1-.2.1-.1.1-.2.2-.4 0-.1.1-.1.1-.2s.1-.1.1-.2c.4-1.4 1-2.9 1.5-4.3 10.4-27.2 36.4-45.2 65.9-45.2 1.5 0 3.1.1 4.6.2 16 1 30.9 7.4 42.6 17.9 6.2 5.6 11.5 12.3 15.5 20l.1.1c.1.1.1.2.2.3l.2.2.2.2c.1.1.2.1.2.2.1.1.2.1.3.2.1.1.2.1.3.1.1 0 .2.1.3.1.1 0 .2.1.3.1.1 0 .2.1.3.1h129.8V503h-123c-7.3 0-13.2 5.9-13.2 13.1zm207.1 8.2H314.9v-8.2c0-3.6 2.9-6.5 6.5-6.5h187.5c3.6 0 6.5 2.9 6.5 6.5zm62.9 43.9c-26.7 0-48.4-21.7-48.4-48.4s21.7-48.4 48.4-48.4 48.4 21.7 48.4 48.4c.1 26.6-21.7 48.4-48.4 48.4zm132.8-52c0 4.4-3.6 8-8 8h-69.9c.1-1.5.2-3 .2-4.5 0-30.3-24.7-55-55-55s-55 24.7-55 55c0 1.5.1 3 .2 4.5H522V516c0-7.2-5.9-13.1-13.1-13.1H451v-43.8h74.4c.1 0 .2-.1.3-.1.1 0 .2-.1.3-.1.1 0 .2-.1.3-.2.1 0 .2-.1.3-.1.1-.1.2-.2.3-.2l.2-.2c.1-.1.1-.2.2-.3.1-.1.1-.2.2-.2.1-.1.1-.2.1-.3.1-.1.1-.2.2-.3v-.1c7.9-20.7 28.1-34.5 50.2-34.5s42.3 13.9 50.2 34.5v.1c0 .1.1.1.1.2.1.1.1.2.2.4 0 .1.1.1.1.2l.3.3.1.1.4.4c.2.1.3.2.5.3.1 0 .1.1.2.1s.3.1.4.1h.2c.2 0 .4.1.6.1h71.8c4.4 0 8 3.6 8 8z" class="st19"/><path id="path475" d="M288.4 423.4c-7.8-4.5-16.3-7.7-25.3-9.3-4.4-.8-9-1.2-13.6-1.2-33.1 0-62.1 20.7-72.9 51.8H101v-4.1h14.7c1.8 0 3.4-.4 5-1 4.7-2 8-6.6 8-12V400c0-7.2-5.8-13-13-13H101V265.5c0-1 .1-2 .2-2.9.4-4.4 1.8-8.5 4-12.1 0-.1.1-.1.1-.2.1-.2.3-.4.4-.6.2-.3.3-.5.5-.8.2-.3.4-.5.5-.8.2-.2.3-.4.5-.7.4-.5.9-1.1 1.3-1.6l.6-.6c.5-.6 1.1-1.1 1.6-1.6.3-.3.6-.5.8-.7.3-.3.6-.5 1-.8l.1-.1c.4-.3.7-.5 1.1-.8l.9-.6c.4-.2.7-.5 1.1-.7.2-.1.4-.2.6-.4.9-.5 1.9-1 2.8-1.3.3-.1.5-.2.8-.3.6-.3 1.3-.5 2-.7.2-.1.4-.1.6-.2.3-.1.7-.2 1.1-.3l1.2-.3c.4-.1.8-.1 1.2-.2.5-.1.9-.1 1.4-.2.2 0 .4 0 .6-.1h108.3c-1.1 15.1-9.6 112.5 52.1 187.5z" class="st21"/><path id="path477" d="M130.3 236.2h-2.4c-.2 0-.4 0-.6.1-.5 0-1 .1-1.4.2-.4.1-.8.1-1.2.2l-1.2.3c-.4.1-.7.2-1.1.3-.2.1-.4.1-.6.2-.7.2-1.3.4-2 .7-.3.1-.5.2-.8.3-1 .4-1.9.8-2.8 1.3-.2.1-.4.2-.6.4-.4.2-.8.4-1.1.7l-.9.6c-.4.3-.7.5-1.1.8 0 0-.1 0-.1.1-.3.3-.6.5-1 .8-.3.2-.6.5-.8.7-.6.5-1.1 1-1.6 1.6l-.6.6c-.5.5-.9 1-1.3 1.6-.2.2-.3.4-.5.7-.2.3-.4.5-.5.8-.2.3-.4.5-.5.8-.1.2-.3.4-.4.6 0 .1-.1.1-.1.2-2.2 3.6-3.6 7.7-4 12.1-.1 1-.2 1.9-.2 2.9V387h14.7c7.2 0 13 5.8 13 13v47.7c0 5.4-3.3 10-8 12-1.5.6-3.2 1-5 1H101v4.1h29.2c3.7-2.8 6.1-7.7 6.1-13.3v-57.6c0-8.6-5.8-15.7-13-15.7h-12V275c0-1 .1-2 .2-2.9.4-4.4 1.8-8.5 4-12.1 0-.1.1-.1.1-.2.1-.2.3-.4.4-.6.2-.3.3-.5.5-.8.2-.3.4-.5.5-.8.2-.2.3-.4.5-.7.4-.5.9-1.1 1.3-1.6l.6-.6c.5-.6 1.1-1.1 1.6-1.6.3-.3.6-.5.8-.7.3-.3.6-.5 1-.8l.1-.1c.4-.3.7-.5 1.1-.8l.9-.6c.4-.2.7-.5 1.1-.7.2-.1.4-.2.6-.4.9-.5 1.9-1 2.8-1.3.3-.1.5-.2.8-.3.6-.3 1.3-.5 2-.7.2-.1.4-.1.6-.2.3-.1.7-.2 1.1-.3l1.2-.3c.4-.1.8-.1 1.2-.2.5-.1.9-.1 1.4-.2.2 0 .4 0 .6-.1h97.4c.2-4.4.5-7.7.6-9.6h-106z" style="opacity:.5;fill:#5b453c"/><path id="path479" d="m517 264.8-3.2-3.3C503.6 251 489.3 245 474.3 245H451v-8.8h16.9c14.3 0 28.2 6 37.9 16.5z" class="st2"/><g id="g574"><path id="path481" d="M336.4 394c1.5-.4 2.6-1.8 2.6-3.4v-9.5c0-2-.7-3.8-2-5-.7-.6-.8-1.6-.2-2.3l.6-.7c1.1-1.4 1-3.3-.2-4.6l-.7-.8c-.6-.7-4.2-4-10.8-4-4.2 0-8.1 1.6-10.9 4.6-.3.3-.8.5-1.2.5-.5 0-.9-.2-1.3-.5-2.9-3-6.8-4.6-11.1-4.6-4.2 0-8.2 1.6-11 4.6-.3.3-.8.5-1.2.5-.5 0-.9-.2-1.2-.5-2.4-2.4-5.5-3.8-9.2-4.2-.8-.1-1.4-.6-1.5-1.4-.1-.7.2-1.5.9-1.9 2.4-1.3 4.7-2.8 6.9-4.4.9-.7 1.9-1.4 2.8-2.2 3.5-3 6.6-6.4 9.2-10.2 3.3-4.8 5.8-10 7.4-15.5 1.4-4.7 2-9.6 2-14.6 0-11.9-4.1-23.6-11.5-33l1.2-1.2-1.3 1.1c-4.5-5.6-10.1-10.3-16.4-13.7-.5-.3-.8-.8-.9-1.3-.1-.6.2-1.1.6-1.5.8-.7 1.5-1.5 2-2.4 1.2-2.1 1.5-4.5.8-6.8-1-3.3-3.8-5.7-7.2-6.1-2.2-.3-4.4.3-6.2 1.6-.5.4-1.1.4-1.6.2-.4-.1-.7-.2-1.1-.3-.7-.1-1.3-.8-1.4-1.5-.5-5.2-4.9-9.2-10-9.3h-.2c-2.7.1-5.2 1.2-7.1 3.1-1.7 1.7-2.6 3.8-2.9 6.2-.1.7-.6 1.4-1.4 1.5-.4.1-.7.2-1.1.3-.6.2-1.2.1-1.6-.2-1.1-.8-2.4-1.4-3.8-1.6-.5-.1-.9-.1-1.4-.1-4.8 0-8.7 3.9-8.7 8.7 0 2.6 1.2 5.1 3.2 6.7.4.4.7.9.6 1.5-.1.6-.4 1.1-.9 1.4-17.2 9.3-27.9 27.2-27.9 46.7 0 5.9 1 11.8 2.9 17.4 3.1 8.8 8.5 16.8 15.6 22.9.9.8 1.8 1.5 2.8 2.2 2.1 1.6 4.4 3.1 6.9 4.4.6.3.9.9.9 1.5l-.6 1.2c-.4.3-.9.5-1.4.4h-5.4c-.4 0-.9.1-1.3.3-.4.2-.9.2-1.3 0s-.9-.3-1.3-.3h-4.2c-2.5 0-4.5 1.1-5.7 3-.3.5-.9.8-1.5.8s-1.2-.3-1.5-.8c-1.1-1.9-3.2-3-5.7-3H195c-1.1 0-2.1.5-2.8 1.4-.5.7-1.5.9-2.3.4-2.4-1.4-5.2-2.2-8-2.2-8.6 0-15.3 6.7-15.3 15.2 0 4 1.5 7.8 4.1 10.6.4.5.6 1.2.3 1.8-.2.6-.7 1-1.4 1.1-1.7.2-3 1.7-3 3.5v1.5c0 .6.2 1.3.5 1.8.2.3.2.6.2.9v3.4c0 2.6 1.9 4.5 4.5 4.5h162.5c2.6 0 4.5-1.9 4.5-4.5V402c0-1.6-1-2.9-2.5-3.4-.7-.2-1.2-.9-1.2-1.7v-.3c0-.3 0-.6-.1-.9 0-.6.5-1.5 1.4-1.7z" class="st0"/><g id="g544"><path id="XMLID_00000057140784519675993270000009030915995684381326_" d="M273.3 272.1c-.8-.4-1.6-.8-2.5-1.1-2.4-1-4.8-1.8-7.3-2.4-.8-.2-1.5-.3-2.3-.5-2.7-.5-5.5-.8-8.4-.8-3 0-5.9.3-8.7.8-.8.1-1.5.3-2.2.5-2.5.6-5 1.4-7.4 2.4-.8.4-1.6.7-2.5 1.1-15.4 7.6-26 23.5-26 41.8v2.1c.2 4 .9 7.9 2 11.7 2.3 7.4 6.4 14.1 11.8 19.4.3.3.6.5.8.8.5.5 1.1 1 1.6 1.5.3.2.5.4.8.7 2.4 2 5 3.7 7.7 5.1 6.5 3.5 14 5.4 21.8 5.4 8 0 15.5-2 22.1-5.6 2.6-1.4 5.1-3.1 7.4-4.9.3-.2.5-.4.8-.6.6-.5 1.1-1 1.6-1.4.3-.3.6-.5.8-.8 2.7-2.6 5-5.6 7-8.8 4.1-6.6 6.5-14.2 6.9-22.4V314c.4-18.4-10.3-34.3-25.8-41.9zm-.2 57.1c-3 2.3-7.7 4.9-14.6 6.2-.9.2-1.8.3-2.7.4-1 .1-1.9.2-3 .3l-3-.3c-.9-.1-1.8-.3-2.7-.4-6.9-1.3-11.6-4-14.6-6.3-3-2.2-4.7-4.4-5.4-5.5 3.6-.3 6.9-2.3 9.4-4.9 3.6-3.8 3.2-8.1 5.2-12.6 1.1-2.4 3.6-4 5.2-6.1 1.5-2.1 3.1-6 3.4-8.7.2-1.8-.1-5.6 2.6-5.6 1.2 0 2.1 1.1 2.4 2.1.3 1.1.3 2.3.4 3.5.3 2.7 1.8 6.5 3.4 8.7 1.6 2.1 4.1 3.7 5.2 6.1 2 4.6 1.6 8.9 5.2 12.6 2.4 2.5 5.6 4.4 9.1 4.8-.8 1.3-2.5 3.5-5.5 5.7z" style="fill:#9ec65c"/><path id="XMLID_00000181079473022581678230000000336448648339602315_" d="M299.5 314v2.1c-.4 8.2-2.8 15.8-6.9 22.4-2 3.2-4.3 6.2-7 8.8-.3.3-.6.5-.8.8-.5.5-1.1 1-1.6 1.4-.3.2-.5.4-.8.6-2.3 1.9-4.8 3.5-7.4 4.9-6.6 3.5-14.1 5.6-22.1 5.6-.9 0-1.9 0-2.8-.1 6.9-.4 13.5-2.3 19.3-5.5 2.6-1.4 5.1-3.1 7.4-4.9.3-.2.5-.4.8-.6.6-.5 1.1-1 1.6-1.4.3-.3.6-.5.8-.8 2.7-2.6 5-5.6 7-8.8 4.1-6.6 6.5-14.2 6.9-22.4V314c0-18.4-10.7-34.3-26.2-41.9-.8-.4-1.6-.8-2.5-1.1-2.4-1-4.8-1.8-7.3-2.4-.8-.2-1.5-.3-2.3-.5-1.8-.3-3.7-.6-5.6-.7.9-.1 1.8-.1 2.8-.1 2.9 0 5.7.3 8.4.8.8.1 1.5.3 2.3.5 2.5.6 5 1.4 7.3 2.4.8.4 1.6.7 2.5 1.1 15.5 7.6 26.2 23.5 26.2 41.9z" style="opacity:.7;fill:#9ec65c"/><path id="XMLID_00000086685375403268153660000001169091939631455932_" d="M236.9 355.2c5.7 3 12.1 4.9 18.9 5.3-1 .1-1.9.1-2.9.1-7.9 0-15.3-2-21.8-5.4-2.7-1.5-5.3-3.2-7.7-5.1-.3-.2-.5-.4-.8-.7-.6-.5-1.1-1-1.6-1.5-.3-.3-.6-.5-.8-.8-5.4-5.3-9.5-12-11.8-19.4-1.2-3.7-1.9-7.6-2-11.7v-2.1c0-18.3 10.6-34.2 26-41.8.8-.4 1.6-.8 2.5-1.1 2.4-1 4.8-1.8 7.4-2.4.7-.2 1.5-.3 2.2-.5 2.8-.5 5.7-.8 8.7-.8 1 0 2 0 2.9.1-2 .1-3.9.4-5.8.7-.8.1-1.5.3-2.2.5-2.5.6-5 1.4-7.4 2.4-.8.4-1.6.7-2.5 1.1-15.4 7.6-26 23.5-26 41.8v2.1c.2 4 .9 7.9 2 11.7 2.3 7.4 6.4 14.1 11.8 19.4.3.3.6.5.8.8.5.5 1.1 1 1.6 1.5.3.2.5.4.8.7 2.3 1.9 4.9 3.7 7.7 5.1z" style="fill:#f0efaf"/><path id="XMLID_00000025421133430652886450000004352784820054352019_" d="M278.5 323.7c-.7 1-2.4 3.2-5.4 5.5-3 2.3-7.7 4.9-14.6 6.2-.9.2-1.8.3-2.7.4-1 .1-1.9.2-3 .3l-3-.3c-.9-.1-1.8-.3-2.7-.4-6.9-1.3-11.6-4-14.6-6.3-3-2.2-4.7-4.4-5.4-5.5 3.6-.3 6.9-2.3 9.4-4.9 3.6-3.8 3.2-8.1 5.2-12.6 1.1-2.4 3.6-4 5.2-6.1 1.5-2.1 3.1-6 3.4-8.7.2-1.8-.1-5.6 2.6-5.6 1.2 0 2.1 1.1 2.4 2.1.3 1.1.3 2.3.4 3.5.3 2.7 1.8 6.5 3.4 8.7 1.6 2.1 4.1 3.7 5.2 6.1 2 4.6 1.6 8.9 5.2 12.6 2.3 2.7 5.6 4.6 9 5z" class="st0"/><path id="XMLID_00000119099472545757144480000009008503237162102714_" d="M283.1 349.5c-.3.2-.5.4-.8.6-2.3 1.9-4.8 3.5-7.4 4.9-6.6 3.5-14.1 5.6-22.1 5.6-7.9 0-15.3-2-21.8-5.4-2.7-1.5-5.3-3.2-7.7-5.1-.3-.2-.5-.4-.8-.7v-.4c.3-3.1 1-6.4 2.3-10.3l.2-.5c.3-.9.6-1.7.8-2.6 2 1.6 4.2 3.1 6.5 4.4 3.9 2.2 8 3.8 12.4 4.8 1.4.3 2.7.5 4.1.7 1.3.2 2.7.4 4.1.4 1.4 0 2.8-.2 4.2-.4 2.5-.3 4.9-.9 7.3-1.6 4-1.2 7.7-3 11.2-5.2 1.4-.9 2.8-1.9 4.2-3 .3.9.5 1.7.8 2.6l.2.5c1.3 4 2 7.3 2.3 10.4v.3z" class="st20"/><path id="XMLID_00000106105204807999301970000014210065502552455826_" d="M279 332.8c-2.4 2-4.9 3.8-7.7 5.3-4 2.2-8.4 3.7-13 4.5-.4.1-.7.2-1.1.3-1.1.4-2.1.9-3.2.9-1.4.1-2.7-.6-4.1-.8-.6-.1-1.1-.1-1.7-.2-.2 0-.5-.1-.7-.1-.7-.1-1.5-.3-2.2-.4-1-.2-2-.5-2.9-.8-4-1.2-7.9-3-11.4-5.3-1.6-1-3-2.2-4.5-3.4.4-1.5.6-3.1.6-4.7 3.4 3.6 10.1 8.8 21.6 10.4.9.1 1.9.2 2.9.3.3 0 .5 0 .7.1-1.1.2-1.9 1.1-1.9 2.2 0 .9.6 1.7 1.4 2.1.3.1.6.2.9.2.3 0 .5 0 .8-.1.9-.3 1.5-1.2 1.5-2.1 0-1.1-.8-2.1-1.9-2.2h.8c1-.1 1.9-.2 2.8-.3 11.4-1.6 18.1-6.7 21.5-10.3.2 1.3.5 2.9.8 4.4z" class="st26"/><path id="XMLID_00000139987994688989965550000005561826871610554775_" d="M279 332.8c-2.4 2-4.9 3.8-7.7 5.3-4 2.2-8.4 3.7-13 4.5-.4.1-.7.2-1.1.3-1.1.4-2.1.9-3.2.9-1.4.1-2.7-.6-4.1-.8-.6-.1-1.1-.1-1.7-.2-2-.3-4-.7-5.9-1.3-4-1.2-7.9-3-11.4-5.3-1.6-1-3-2.2-4.5-3.4.4-1.5.6-3.1.6-4.7l1.3 1.3c-.1.9-.3 1.8-.5 2.8 1.4 1.1 2.8 2.2 4.2 3.2 3.3 2.2 6.9 3.9 10.8 5 1.8.5 3.7 1 5.6 1.2.5.1 1.1.2 1.6.2.2 0 .3 0 .5.1.2.6.7 1.1 1.3 1.4.3.1.6.2.9.2.3 0 .5 0 .8-.1.4-.2.8-.5 1.1-.8.8-.2 1.6-.5 2.4-.8.3-.1.7-.2 1-.3 4.3-.8 8.5-2.2 12.3-4.3 2.6-1.4 5-3.1 7.3-5-.2-.9-.4-1.8-.5-2.7.5-.4.9-.8 1.3-1.2 0 1.4.3 3 .6 4.5z" class="st27"/><path id="XMLID_00000112597062973695466550000015920638340501269932_" d="M277.6 332.1c-2.3 1.9-4.7 3.6-7.3 5-3.8 2.1-8 3.5-12.3 4.3-.3.1-.7.2-1 .3-.8.3-1.6.6-2.4.8.3-.4.4-.8.4-1.3 0-.3-.1-.6-.1-.8-.3-.7-.9-1.3-1.8-1.4h.8c.2 0 .4 0 .6-.1.8-.1 1.5-.2 2.2-.3 10.1-1.4 16.6-5.7 20.3-9.1.3.8.4 1.7.6 2.6z" class="st26"/><path id="XMLID_00000142855574684595911380000010421524554033440415_" d="M296.8 314.9v1.4c0 .1 0 .3-.1.4 0 .1-.1.3-.1.4-.1.3-.1.5-.2.8v.1c0 .1-.1.3-.1.4-1 2.5-4.2 5.7-7.9 6.9-2.1.7-4 .5-5.5-.5-.2-.1-.4-.3-.6-.5 0 0-.1-.1-.1-.2 0 0-.1-.1-.1-.2-.2-.3-.4-.6-.7-1 0-.1-.1-.1-.1-.2s-.1-.1-.1-.2c-.1-.2-.2-.3-.2-.5 0-.1-.1-.2-.1-.2-.4-.9-.7-1.9-1-3 0-.1-.1-.3-.1-.4-.1-.6-.3-1.2-.4-1.8 0-.2-.1-.3-.1-.5-.1-.3-.1-.6-.1-1 0-.2 0-.3-.1-.5s0-.3-.1-.5c0-.2 0-.3-.1-.5v-.1l-.1-.5c-.1-.7-.1-1.4-.2-2.1v-.4c0-.7-.1-1.4-.1-2.1v-2.6c0-2 0-3.9.1-5.5.1-1.4.2-2.7.3-3.9.1-1.2.2-2.2.4-3.2.1-.6.2-1.1.3-1.6.1-.7-.3-1.4-1.1-1.6-.7-.1-1.4.3-1.6 1.1 0 .2-.1.4-.1.6-.3 1.7-.5 3.6-.7 5.8-.1.8-.1 1.7-.2 2.7 0 .7-.2 3-.1 6v1c0 .6 0 1.3.1 2v.4c.1 1.2.1 2.4.3 3.7 0 .2 0 .4.1.5.1 1.1.3 2.1.5 3.2 0 .2.1.4.1.6v.2c0 .2.1.3.1.5.1.4.2.7.3 1.1.1.3.1.5.2.8.1.3.1.5.2.8v.2c0 .1.1.2.1.3 0 .1.1.2.1.3.1.2.1.4.2.5.1.2.1.3.2.5.1.1.1.3.2.4.1.1.1.2.2.3 0 .1.1.1.1.2h-.1c-3.5-.4-6.7-2.3-9.1-4.8-3.6-3.8-3.2-8.1-5.2-12.6-1.1-2.4-3.6-4-5.2-6.1-1.5-2.1-3.1-6-3.4-8.7-.1-1.2-.1-2.4-.4-3.5-.3-1.1-1.1-2.2-2.4-2.1-2.7.1-2.4 3.9-2.6 5.6-.3 2.7-1.8 6.5-3.4 8.7-1.6 2.1-4.1 3.7-5.2 6.1-2 4.6-1.6 8.9-5.2 12.6-2.4 2.6-5.8 4.5-9.4 4.9h-.1c.1-.2.2-.5.3-.7.1-.1.1-.2.1-.3.1-.2.2-.5.3-.7 0-.1.1-.2.1-.4.1-.2.1-.4.2-.5 0-.2.1-.3.1-.5 0-.1.1-.2.1-.3 0-.1.1-.2.1-.3l.3-1.2c.1-.3.1-.6.2-.9v-.3c.1-.4.1-.8.2-1.1.2-1.1.3-2.1.4-3.2 0-.4.1-.8.1-1.2.1-1.7.2-3.3.3-4.8v-1c0-3-.1-5.3-.1-6 0-.8-.1-1.6-.2-2.4-.2-2.3-.4-4.3-.8-6.2 0-.2-.1-.4-.1-.6-.1-.7-.8-1.2-1.6-1.1-.7.1-1.2.8-1.1 1.6l.3 1.5c.2 1.3.4 2.6.5 4.1.1 1 .2 2 .2 3.1.1 1.7.1 3.6.1 5.6v2.4c0 .4 0 .8-.1 1.2 0 .4 0 .9-.1 1.3 0 .3 0 .7-.1 1 0 .4-.1.8-.1 1.1v.7c0 .3-.1.6-.1 1 0 .3-.1.7-.1 1 0 .3-.1.6-.1.8 0 .2-.1.4-.1.6 0 .2-.1.3-.1.5 0 .1 0 .2-.1.3 0 .2-.1.4-.1.6-.1.3-.1.5-.2.8l-.3 1.2c0 .1-.1.2-.1.4 0 .1-.1.2-.1.4 0 .1-.1.2-.1.3-.5 1.3-1.1 2.3-1.9 3l-.1.1c-.1.1-.2.1-.2.2-1.5 1-3.4 1.2-5.5.5-3.7-1.1-6.9-4.4-7.9-6.9-.8-2-.8-4.5-.1-7.5 2.2-9.1 8.9-17.3 15.1-24.1 1.9-2.1 3.7-3.2 5.1-3.1h.4c.3.1.7.2 1 .4.4.3.7.6 1 .9.3.4.6.8.8 1.2.1.3.2.5.5.7.2.2.5.3.8.3.7 0 1.3-.6 1.3-1.3 0-.1 0-.3-.1-.4-.1-.3-.3-.6-.4-.8-.1-.1-.2-.3-.2-.4-.1-.1-.2-.2-.2-.4.1-.1.2-.1.3-.1.2-.1.3-.1.6-.2.4-.1.9-.2 1.4-.4h.5c.1 0 .2 0 .3-.1.2 0 .5-.1.7-.1.1 0 .2 0 .3-.1.3 0 .5-.1.8-.1.1 0 .2 0 .3-.1h.2c.1 0 .2 0 .4-.1.2 0 .4-.1.6-.1h.1c.2 0 .3-.1.5-.1.3 0 .6-.1.9-.1 1.1-.2 2.3-.3 3.4-.4h.1c.4 0 .7-.1 1.1-.1.3 0 .6 0 1-.1h9.8c.3 0 .5 0 .8.1h.5c.7 0 1.4.1 2.2.2.4 0 .7.1 1 .1h.4c.3 0 .6.1.9.1.3 0 .7.1 1 .1h.3c.3 0 .5.1.8.1 1 .2 2 .3 2.9.5h.1c.1 0 .3.1.4.1.1 0 .2 0 .2.1.2 0 .4.1.6.1.6.1 1.1.3 1.4.4.1 0 .2.1.2.1-.1.1-.2.2-.2.4-.1.1-.2.3-.2.4-.1.3-.3.5-.4.8 0 .1-.1.3-.1.4 0 .7.6 1.3 1.3 1.3.3 0 .6-.1.8-.3.2-.2.3-.4.5-.7.2-.3.4-.7.6-1 .4-.5.9-1.1 1.5-1.3.2-.1.4-.1.6-.2h.4c1.4 0 3.2 1 5.1 3.1 6.2 6.8 12.9 15.1 15.1 24.1 0 .2.1.4.1.5 0 .2.1.4.1.5 0 .1.1.3.1.4v.7c0 .3.1.6.1.9v.3c-.2.5-.2.6-.2.8z" class="st20"/><path id="XMLID_00000162311089494927111050000006654510279142786220_" d="M230.4 283.8c-.7.5-1.5 1.2-2.3 2.1-5.6 6.1-11.5 13.5-13.5 21.7-.7 2.7-.6 4.9.1 6.8.9 2.2 3.8 5.1 7.1 6.1 1.4.4 2.6.5 3.7.1-.6 2-1.5 3.5-2.6 4.2-1.5 1-3.4 1.2-5.5.5-3.7-1.1-6.9-4.4-7.9-6.9-.8-2-.8-4.5-.1-7.5 2.2-9.1 8.9-17.3 15.1-24.1 1.9-2.1 3.7-3.2 5.1-3.1.3 0 .6 0 .8.1z" class="st28"/><path id="XMLID_00000080898912766541309980000002363249539160407224_" d="M275.3 283.8c.7.5 1.5 1.2 2.3 2.1 5.6 6.1 11.5 13.5 13.5 21.7.7 2.7.6 4.9-.1 6.8-.9 2.2-3.8 5.1-7.1 6.1-1.4.4-2.6.5-3.7.1.6 2 1.5 3.5 2.6 4.2 1.5 1 3.4 1.2 5.5.5 3.7-1.1 6.9-4.4 7.9-6.9.8-2 .8-4.5.1-7.5-2.2-9.1-8.9-17.3-15.1-24.1-1.9-2.1-3.7-3.2-5.1-3.1-.3 0-.6.1-.8.1z" class="st28"/><path id="XMLID_00000100343779513722346200000012665798094815893377_" d="M285.6 347.2v-.3c-.4-2.7-1.1-5.7-2.2-9.1l-.2-.5c-.4-1.3-.9-2.7-1.2-4-.1-.3-.2-.6-.2-1-.4-1.8-.7-3.7-.6-5.5 0-.6.1-1.1.2-1.7.1-.3 0-.5-.1-.8v-.1c.3-.6.1-1.4-.5-1.8-.6-.3-1.2-.2-1.6.3-.1.1-.1.2-.2.3 0 0-.1.2-.4.6v.1c-.7 1-2.4 3.2-5.4 5.5-3 2.3-7.7 4.9-14.6 6.2-.9.2-1.8.3-2.7.4-1 .1-1.9.2-3 .3l-3-.3c-.9-.1-1.8-.3-2.7-.4-6.9-1.3-11.6-4-14.6-6.3-3-2.2-4.7-4.4-5.4-5.5 0 0 0-.1-.1-.1-.2-.3-.4-.5-.4-.6-.4-.6-1.2-.9-1.8-.5-.6.4-.9 1.1-.5 1.8-.1.3-.2.6-.1.9.1.6.2 1.2.2 1.7.1 1.8-.1 3.6-.6 5.4-.1.3-.2.6-.2 1-.4 1.4-.8 2.7-1.2 4.1l-.2.5c-1.1 3.3-1.8 6.3-2.2 9v.3c-.2 1.2-.3 2.3-.3 3.5.9.7 1.7 1.4 2.7 2.1v-.3c0-1 0-2 .1-3.1v-.4c.3-3.1 1-6.4 2.3-10.3l.2-.5c.3-.9.6-1.7.8-2.6 2 1.6 4.2 3.1 6.5 4.4 3.9 2.2 8 3.8 12.4 4.8 1.4.3 2.7.5 4.1.7 1.3.2 2.7.4 4.1.4 1.4 0 2.8-.2 4.2-.4 2.5-.3 4.9-.9 7.3-1.6 4-1.2 7.7-3 11.2-5.2 1.4-.9 2.8-1.9 4.2-3 .3.9.5 1.7.8 2.6l.2.5c1.3 4 2 7.3 2.3 10.4v.4c.1 1 .1 2 .1 3v.3c.9-.7 1.8-1.4 2.6-2.1-.1-1.1-.2-2.3-.3-3.5zm-14.3-9.1c-4 2.2-8.4 3.7-13 4.5-.3.1-.7.1-1 .2-1.1.2-2.1.4-3.2.4h-.5c-.2.1-.5.1-.8.1-.3 0-.6-.1-.9-.2-.6 0-1.3-.1-1.9-.2-.6-.1-1.1-.1-1.7-.2-.2 0-.5-.1-.7-.1-.7-.1-1.5-.3-2.2-.4-1-.2-2-.5-2.9-.8-4-1.2-7.9-3-11.4-5.3-1.6-1-3-2.2-4.5-3.4.4-1.5.6-3.1.6-4.7 3.4 3.6 10.1 8.8 21.6 10.4.9.1 1.9.2 2.9.3.3 0 .5 0 .7.1h1.6c1-.1 1.9-.2 2.8-.3 11.4-1.6 18.1-6.7 21.5-10.3 0 1.6.3 3.2.6 4.7-2.3 1.9-4.8 3.7-7.6 5.2z" class="st19"/><path id="XMLID_00000103970904748374373840000013978012349274953607_" d="M262.1 314.9c-.4.2-.6.8-.3 1.2.2.4.8.6 1.2.3.4-.2.6-.8.3-1.2-.3-.4-.8-.6-1.2-.3z" class="st21"/><path id="XMLID_00000127726606439523623650000009132215612814605206_" d="M265.9 314.7c.4-.2.6-.8.3-1.2-.2-.4-.8-.6-1.2-.3-.4.2-.6.8-.3 1.2.3.4.8.6 1.2.3z" class="st21"/><path id="XMLID_00000036222329852209312860000009346444705128745880_" d="M239.5 314.7c.4.2.9.1 1.2-.3.2-.4.1-.9-.3-1.2-.4-.2-.9-.1-1.2.3-.2.5-.1 1 .3 1.2z" class="st21"/><path id="XMLID_00000000926650062338074890000014544939118172112047_" d="M242.5 316.3c.4.2.9.1 1.2-.3.2-.4.1-.9-.3-1.2-.4-.2-.9-.1-1.2.3-.2.5-.1 1 .3 1.2z" class="st21"/><path id="XMLID_00000134234049440175313230000014180747179477311921_" d="M242.8 312.7c.4.1.9-.1 1.1-.5.1-.3 0-.7-.3-.9-.1-.1-.2-.1-.3-.2-.4-.1-.9.1-1.1.6-.2.5.2.8.6 1z" class="st21"/><path id="XMLID_00000094600432854374444960000002056357016851270845_" d="M263.2 311.6c-.1-.3-.3-.5-.6-.6h-.5c-.4.1-.7.6-.6 1.1 0 .1 0 .1.1.2.2.3.6.5 1 .4.5-.2.7-.6.6-1.1z" class="st21"/><path id="XMLID_00000160161486810792210540000018350124039857974926_" d="M276 357.3c-6.9 3.6-14.8 5.6-23.1 5.6-8.2 0-16-2-22.8-5.4 0-1.1.2-2.1.4-3.1 1-4 4-7.3 10.8-7.2 2.6 0 5 1.1 7.4 1.6 2.6.6 5.2.6 7.8.2 1.1-.2 2.1-.5 3.1-.8 1.6-.5 3.2-.9 4.8-1 6.9-.2 9.9 3.1 11 7.1.3.9.5 2 .6 3z" style="fill:#fdda9f"/><path id="XMLID_00000107589407064032367030000015656516892395295638_" d="M279.2 293.3c-.2 1-.3 2.1-.4 3.2l-.2.8-.3-.2c-.8-.5-1.8-.2-2.3.5-.1.2-.3.5-.3.7-.2 1.2-.4 2.3-.6 3-.3 1.3-.9 2.5-1.8 3.5-2.5 2.8-5.9 2.6-5.9 2.6h-4.9c-2.9 0-4.6-2.2-5.4-4.7 0 0-.1-.6-.5-1.2-.1-.3-.3-.6-.5-.8-.9-1-2.1-1.5-3.4-1.6-1.2 0-2.5.6-3.4 1.6-.2.3-.4.5-.5.8-.3.7-.5 1.2-.5 1.2-.8 2.5-2.5 4.7-5.4 4.7H238s-3.3.2-5.9-2.6c-.9-1-1.5-2.2-1.8-3.5-.2-.7-.4-1.8-.6-3 0-.2-.1-.3-.1-.4-.4-.9-1.5-1.3-2.4-.8l-.3.2c-.1-1.5-.3-2.8-.5-4.1l1.4-.9c.4-.2.7-.4 1.1-.6 1.2-.6 2.5-.9 3.9-.9h11.4c1.5 0 3.1-.1 4.6.2.6.1 1.2.3 1.8.6.7.3 1.4.4 2.2.4.7 0 1.5-.2 2.2-.4.6-.2 1.2-.5 1.8-.6 1.5-.3 3.1-.2 4.6-.2h11.4c1.4 0 2.8.3 4 .9.3.2.7.3 1 .6z" class="st19"/><path id="XMLID_00000120557045521479948850000018293308156362477965_" d="M233.8 303.4c.5.5 1 .9 1.5 1.2l7.8-11.5h-3.2l-6.7 9.5c.2.2.4.5.6.8z" class="st0"/><path id="XMLID_00000120547381250582373660000009930767679741255093_" d="M267.7 293.1h-.2l-7.5 10.7c.6 1 1.4 1.5 2.4 1.5l8.4-12.2z" class="st0"/><path id="XMLID_00000176031775494911810450000013236192663438915979_" d="m266 305.3 8.2-12.1c-.1 0-.3-.1-.4-.1h-1.3l-8.4 12.2h1.7z" class="st0"/><path id="XMLID_00000075863070580513546580000011732131292203425955_" d="m238.4 305.3 8.3-12.2h-1.9l-8.3 12c.8.2 1.4.2 1.5.2h.1z" class="st0"/><g id="XMLID_00000147181688379227485370000018004391872044523199_"><path id="XMLID_00000119823157074706874820000014262500123334618515_" d="m264.9 263.3-2.2 2.7-1.8-3.4 1.4-3c.2-.4.1-.8-.3-1.1-.4-.3-.6-.7-.6-1.1 0-.8.7-1.5 1.5-1.5s1.4.7 1.4 1.5c0 .5-.2.9-.6 1.2-.4.2-.5.7-.3 1.1z" class="st30"/><path id="XMLID_00000101803900298197809790000009706931193349871548_" d="M275 257.7c0 1.6-1.3 2.9-2.9 2.9-.6 0-1.1.5-1.1 1.1v19.8c-.2-.1-.5-.1-.7-.2-5.7-1.3-11.6-1.9-17.6-1.9-3 0-6 .2-8.9.5-2.9.3-5.8.8-8.7 1.4-.2.1-.5.1-.7.2v-19.8c0-.3-.1-.6-.3-.7-.2-.2-.5-.3-.7-.3-1.6 0-2.9-1.3-2.9-2.9 0-1.6 1.3-2.9 2.9-2.9 1.6 0 2.9 1.3 2.9 2.9 0 .6-.2 1.2-.6 1.7-.3.4-.3.9 0 1.3l6.4 7.9c.2.2.5.4.8.4h.1c.4 0 .7-.2.8-.6l6.9-13c.3-.5.1-1.1-.4-1.4-1.3-.8-2.1-2.3-2.1-3.8 0-2.5 2-4.5 4.4-4.6 2.4.1 4.4 2.1 4.4 4.6 0 1.6-.8 3-2.1 3.8-.5.3-.6.9-.4 1.4l6.9 13c.2.3.5.5.8.6h.1c.3 0 .6-.1.8-.4l6.4-7.9c.2-.2.2-.4.2-.7 0-.2-.1-.4-.2-.6-.4-.5-.6-1.1-.6-1.7 0-1.6 1.3-2.9 2.9-2.9 1.9-.1 3.2 1.2 3.2 2.8z" class="st30"/><path id="XMLID_00000066487228816486162250000001045896905382831748_" d="M275 257.7c0 1.6-1.3 2.9-2.9 2.9-.6 0-1.1.5-1.1 1.1v19.8c-.2-.1-.5-.1-.7-.2-5.7-1.3-11.6-1.9-17.6-1.9-3 0-6 .2-8.9.5-2.9.3-5.8.8-8.7 1.4-.2.1-.5.1-.7.2v-19.8c0-.3-.1-.6-.3-.7-.2-.2-.5-.3-.7-.3-1.6 0-2.9-1.3-2.9-2.9 0-1.6 1.3-2.9 2.9-2.9 1.6 0 2.9 1.3 2.9 2.9 0 .6-.2 1.2-.6 1.7-.3.4-.3.9 0 1.3l6.4 7.9c.2.2.5.4.8.4h.1c.4 0 .7-.2.8-.6l6.9-13c.3-.5.1-1.1-.4-1.4-1.3-.8-2.1-2.3-2.1-3.8 0-2.5 2-4.5 4.4-4.6 2.4.1 4.4 2.1 4.4 4.6 0 1.6-.8 3-2.1 3.8-.5.3-.6.9-.4 1.4l6.9 13c.2.3.5.5.8.6h.1c.3 0 .6-.1.8-.4l6.4-7.9c.2-.2.2-.4.2-.7 0-.2-.1-.4-.2-.6-.4-.5-.6-1.1-.6-1.7 0-1.6 1.3-2.9 2.9-2.9 1.9-.1 3.2 1.2 3.2 2.8z" class="st30"/><path id="XMLID_00000098914535399394389860000010936622553077782189_" d="m244.6 262.5-1.8 3.4-2.2-2.7 1.5-3.6c.2-.4 0-.8-.3-1.1-.4-.3-.6-.7-.6-1.2 0-.8.7-1.5 1.4-1.5.8 0 1.5.7 1.5 1.5 0 .4-.2.9-.6 1.1-.3.3-.4.7-.3 1.1z" class="st30"/><path id="XMLID_00000163766099169810322300000010163899810521974424_" d="m264.9 263.3-2.2 2.7-1.8-3.4 1.4-3c.2-.4.1-.8-.3-1.1-.4-.3-.6-.7-.6-1.1 0-.8.7-1.5 1.5-1.5s1.4.7 1.4 1.5c0 .5-.2.9-.6 1.2-.4.2-.5.7-.3 1.1z" class="st31"/><path id="XMLID_00000023998880789528007870000002224810226123693192_" d="m244.6 262.5-1.8 3.4-2.2-2.7 1.5-3.6c.2-.4 0-.8-.3-1.1-.4-.3-.6-.7-.6-1.2 0-.8.7-1.5 1.4-1.5.8 0 1.5.7 1.5 1.5 0 .4-.2.9-.6 1.1-.3.3-.4.7-.3 1.1z" class="st31"/><path id="XMLID_00000052825819674196216430000008888975247239012234_" d="m264.9 263.3-2.2 2.7-1.8-3.4 1.4-3c.2-.4.1-.8-.3-1.1-.4-.3-.6-.7-.6-1.1 0-.8.7-1.5 1.5-1.5s1.4.7 1.4 1.5c0 .5-.2.9-.6 1.2-.4.2-.5.7-.3 1.1z" class="st30"/><path id="XMLID_00000143618498241747857580000015233050336605292435_" d="m244.6 262.5-1.8 3.4-2.2-2.7 1.5-3.6c.2-.4 0-.8-.3-1.1-.4-.3-.6-.7-.6-1.2 0-.8.7-1.5 1.4-1.5.8 0 1.5.7 1.5 1.5 0 .4-.2.9-.6 1.1-.3.3-.4.7-.3 1.1z" class="st30"/><path id="XMLID_00000160902460089102338780000005058114097085568427_" d="m234.4 261.6 2.3 16.7s11.4-4 34.7 0l.6 1.6v1.9h-1.9l-20.4-1.4-13 1.4h-3.3z" class="st31"/><path id="XMLID_00000147913409246243942580000006739893100548105663_" d="m234.4 261.6 2.3 16.7s11.4-4 34.7 0l.6 1.6v1.9h-1.9l-20.4-1.4-13 1.4h-3.3z" style="opacity:.1;fill:#fdc72a"/><g id="XMLID_00000039815557407811513510000008762251347524251556_"><g id="g523"><g id="XMLID_00000164473910347950076320000011555731182239608994_"><path id="path517" d="M252.5 253.7c-1.3-.8-2.1-2.3-2.1-3.8 0-2 1.7-3.5 3.6-4l-2.6-1.3-3.4 2.4v5.1l1.5 2.7-2.3 4.4-3.7 7.9-1.6-.1-2-2.3-2.8-3.1-1.3-.8 6.5 10.4c.2.2.5.4.8.4.4 0 .8-.2.9-.6l8.8-15.9c.3-.5.1-1.1-.3-1.4z" class="st33"/></g><g id="XMLID_00000148659502157585729970000006153770159003221142_"><path id="path520" d="M243.4 272c-.1 0 0 0 0 0z" class="st33"/></g></g></g><path id="XMLID_00000062895250271187077870000001171090282678028474_" d="m254.7 255.4 6.5 15.4c.4 1 1.7 1.1 2.2.2l6.5-10.2-1.8 1.2-1.2 1.6-1.8 1.1-1.5 2.3-1.6.8z" class="st33"/></g><path id="XMLID_00000129923997405618588020000009959263657356017030_" d="M298.9 310.3c-2.4-9.7-9.3-18.2-15.7-25.3-2.3-2.5-4.5-3.9-6.7-4h-1c-.9.1-1.7.4-2.2.8v-19.1c2.8-.7 4.6-3.6 3.7-6.5-.6-1.9-2.3-3.4-4.3-3.6-3.1-.4-5.8 2.1-5.8 5.1 0 .8.2 1.5.5 2.2l-1.2 1.5-.8-1.8c.8-.9 1.1-2.2.6-3.4-.4-1.2-1.5-2-2.7-2.1-2-.2-3.8 1.4-3.8 3.3 0 .7.2 1.5.7 2l-.4.8-2.7-5c1.4-1.3 2.2-3.1 2.2-5.1 0-3.7-3-6.7-6.7-6.8-1.8.1-3.5.8-4.7 2.1-1.3 1.3-2 3-2 4.8 0 1.9.8 3.8 2.2 5.1l-2.7 5-.4-.8c.4-.6.7-1.3.7-2 0-2-1.7-3.6-3.8-3.3-1.2.1-2.3 1-2.8 2.1-.5 1.2-.2 2.5.6 3.4l-.8 1.8-1.2-1.5c.3-.7.5-1.4.5-2.1 0-2.5-1.8-4.8-4.3-5.2-3.2-.5-6 2-6 5.1 0 2.4 1.6 4.4 3.9 5v19c-.5-.3-1.2-.6-2-.6h-1c-2.1.1-4.4 1.5-6.7 4-6.4 7.1-13.3 15.7-15.7 25.3-.4 1.5-.6 3-.6 4.3v1.5c.1 1.2.4 2.3.8 3.3 1.4 3.6 5.5 7.2 9.6 8.4 1.1.3 2.2.5 3.2.5 1.7 0 3.3-.5 4.6-1.4 1.1-.7 2-1.9 2.7-3.3.1-.2.2-.5.3-.7 0-.1.1-.2.1-.3.1-.2.2-.5.3-.7 0-.1.1-.2.1-.4.1-.2.1-.4.2-.5 0-.2.1-.3.1-.5 0-.1.1-.2.1-.3 0-.1.1-.2.1-.3l.3-1.2c.1-.3.1-.6.2-.9v-.3c.1-.4.1-.8.2-1.1.2-1.1.3-2.1.4-3.2 0-.4.1-.8.1-1.2.1-1.7.2-3.3.3-4.8v-1c0-3-.1-5.3-.1-6 0-.8-.1-1.6-.2-2.4-.2-2.3-.4-4.3-.8-6.2 0-.2-.1-.4-.1-.6-.1-.7-.8-1.2-1.6-1.1-.7.1-1.2.8-1.1 1.6l.3 1.5c.2 1.3.4 2.6.5 4.1.1 1 .2 2 .2 3.1.1 1.7.1 3.6.1 5.6v2.4c0 .4 0 .8-.1 1.2 0 .4 0 .9-.1 1.3 0 .3 0 .7-.1 1 0 .4-.1.8-.1 1.1v.7c0 .3-.1.6-.1 1 0 .3-.1.7-.1 1 0 .3-.1.6-.1.8 0 .2-.1.4-.1.6 0 .2-.1.3-.1.5 0 .1 0 .2-.1.3 0 .2-.1.4-.1.6-.1.3-.1.5-.2.8l-.3 1.2c0 .1-.1.2-.1.4 0 .1-.1.2-.1.4 0 .1-.1.2-.1.3-.5 1.3-1.1 2.3-1.9 3l-.1.1c-.1.1-.2.1-.2.2-1.5 1-3.4 1.2-5.5.5-3.7-1.1-6.9-4.4-7.9-6.9-.8-2-.8-4.5-.1-7.5 2.2-9.1 8.9-17.3 15.1-24.1 1.9-2.1 3.7-3.2 5.1-3.1h.4c.3.1.7.2 1 .4.4.3.7.6 1 .9.3.4.6.8.8 1.2.1.3.2.5.5.7.2.2.5.3.8.3.7 0 1.3-.6 1.3-1.3 0-.1 0-.3-.1-.4-.1-.3-.3-.6-.4-.8-.1-.1-.2-.3-.2-.4-.1-.1-.2-.2-.2-.4.1-.1.2-.1.3-.1.2-.1.3-.1.6-.2.4-.1.9-.2 1.4-.4h.5c.1 0 .2 0 .3-.1.2 0 .5-.1.7-.1.1 0 .2 0 .3-.1.3 0 .5-.1.8-.1.1 0 .2 0 .3-.1h.2c.1 0 .2 0 .4-.1.2 0 .4-.1.6-.1h.1c.2 0 .3-.1.5-.1.3 0 .6-.1.9-.1 1.1-.2 2.3-.3 3.4-.4h.1c.4 0 .7-.1 1.1-.1.3 0 .6 0 1-.1h9.8c.3 0 .5 0 .8.1h.5c.7 0 1.4.1 2.2.2.4 0 .7.1 1 .1h.4c.3 0 .6.1.9.1.3 0 .7.1 1 .1h.3c.3 0 .5.1.8.1 1 .2 2 .3 2.9.5h.1c.1 0 .3.1.4.1.1 0 .2 0 .2.1.2 0 .4.1.6.1.6.1 1.1.3 1.4.4.1 0 .2.1.2.1-.1.1-.2.2-.2.4-.1.1-.2.3-.2.4-.1.3-.3.5-.4.8 0 .1-.1.3-.1.4 0 .7.6 1.3 1.3 1.3.3 0 .6-.1.8-.3.2-.2.3-.4.5-.7.2-.3.4-.7.6-1 .4-.5.9-1.1 1.5-1.3.2-.1.4-.1.6-.2h.4c1.4 0 3.2 1 5.1 3.1 6.2 6.8 12.9 15.1 15.1 24.1 0 .2.1.4.1.5 0 .2.1.4.1.5 0 .1.1.3.1.4v.7c0 .3.1.6.1.9v2.2c0 .1 0 .3-.1.4 0 .1-.1.3-.1.4-.1.3-.1.5-.2.8v.1c0 .1-.1.3-.1.4-1 2.5-4.2 5.7-7.9 6.9-2.1.7-4 .5-5.5-.5-.2-.1-.4-.3-.6-.5 0 0-.1-.1-.1-.2 0 0-.1-.1-.1-.2-.2-.3-.4-.6-.7-1 0-.1-.1-.1-.1-.2s-.1-.1-.1-.2c-.1-.2-.2-.3-.2-.5 0-.1-.1-.2-.1-.2-.4-.9-.7-1.9-1-3 0-.1-.1-.3-.1-.4-.1-.6-.3-1.2-.4-1.8 0-.2-.1-.3-.1-.5-.1-.3-.1-.6-.1-1 0-.2 0-.3-.1-.5s0-.3-.1-.5c0-.2 0-.3-.1-.5v-.1c0-.2 0-.3-.1-.5-.1-.7-.1-1.4-.2-2.1v-.4c0-.7-.1-1.4-.1-2.1v-2.6c0-2 0-3.9.1-5.5.1-1.4.2-2.7.3-3.9.1-1.2.2-2.2.4-3.2.1-.6.2-1.1.3-1.6.1-.7-.3-1.4-1.1-1.6-.7-.1-1.4.3-1.6 1.1 0 .2-.1.4-.1.6-.3 1.7-.5 3.6-.7 5.8-.1.8-.1 1.7-.2 2.7 0 .7-.2 3-.1 6v1c0 .6 0 1.3.1 2v.4c.1 1.2.1 2.4.3 3.7 0 .2 0 .4.1.5.1 1.1.3 2.1.5 3.2 0 .2.1.4.1.6v.2c0 .2.1.3.1.5.1.4.2.7.3 1.1.1.3.1.5.2.8.1.3.1.5.2.8v.2c0 .1.1.2.1.3 0 .1.1.2.1.3.1.2.1.4.2.5.1.2.1.3.2.5.1.1.1.3.2.4.1.1.1.2.2.3 0 .1.1.1.1.2.7 1.4 1.6 2.6 2.7 3.3 1.4.9 2.9 1.4 4.6 1.4 1 0 2.1-.2 3.2-.5 4.1-1.3 8.2-4.9 9.6-8.4.4-1.1.7-2.2.8-3.4 0-.4.1-.9 0-1.3 0-1.2-.2-2.6-.6-4.2zm-36.4-50.9c.1-.4-.1-.8-.4-1-.3-.2-.5-.6-.5-1 0-.7.6-1.3 1.3-1.3.7 0 1.3.6 1.3 1.3 0 .4-.2.8-.6 1.1-.4.3-.6.8-.4 1.3l1.5 3.5-1.8 2.2-.2.2-.2-.3-1.5-2.8zm-20.6-1c-.3-.2-.6-.6-.6-1.1 0-.7.6-1.3 1.3-1.3.7 0 1.3.6 1.3 1.3 0 .4-.2.8-.5 1-.4.3-.5.8-.3 1.3l1.3 2.9-1.5 2.9-.1.3-.2-.2-1.8-2.2 1.5-3.5c.1-.6 0-1.1-.4-1.4zm19.8 21.2c-2.9-.3-5.9-.5-8.9-.5s-6 .2-8.9.5c-1.1.1-2.1.3-3.2.4-.3 0-.6.1-.9.1-.2 0-.3 0-.5.1-.6.1-1.2.2-1.9.3-.1 0-.3.1-.4.1-.6.1-1.2.2-1.8.4h-.1c-.2 0-.3.1-.5.1v-19.5c0-.3-.1-.6-.4-.9-.2-.2-.5-.4-.9-.4-1.5 0-2.7-1.2-2.7-2.7 0-1.5 1.2-2.7 2.7-2.7 1.5 0 2.7 1.2 2.7 2.7 0 .6-.2 1.1-.5 1.6-.3.4-.3.8-.1 1.2h-.1l1.1 1.4 3.4 4.2 2 2.5c.3.3.7.5 1.1.4.4 0 .8-.3 1-.6l.2-.3 1.7-3.2 5-9.4.1-.2c.2-.5 0-1.1-.5-1.4-1.3-.8-2-2.2-2-3.7 0-2.4 1.9-4.3 4.2-4.4h.5c.1 0 .3 0 .4.1h.2l.1-.1v.2h.1c.1 0 .1 0 .2.1 0 0 .1 0 .2.1.1 0 .2.1.4.2l.1.1s.1 0 .1.1c.1 0 .1.1.2.1.2.2.4.3.6.5.1 0 .1.1.1.2l.1.1.1.1.1.1.1.1.1.1v.1s.1.1.1.2c0 0 0 .1.1.1 0 0 0 .1.1.1l.1.1c0 .1.1.1.1.2s0 .1.1.2c.1.2.1.4.2.7v.6c0 1.5-.8 2.9-2 3.7-.5.3-.7.9-.5 1.5l1 1.8 4.1 7.7 1.7 3.2.2.4c.2.4.5.6 1 .6h.1c.4 0 .7-.2.9-.5l.1-.1 2-2.5 3.4-4.2.9-1.1c.2-.2.3-.5.3-.8 0-.3-.1-.5-.2-.7-.3-.5-.5-1-.5-1.6 0-1.5 1.2-2.7 2.7-2.7 1.5 0 2.7 1.2 2.7 2.7 0 1.5-1.2 2.7-2.7 2.7-.7 0-1.2.5-1.2 1.2v19.5c-.2 0-.3-.1-.5-.1h-.2c-.6-.1-1.2-.3-1.7-.4-.1 0-.3-.1-.4-.1-.6-.1-1.2-.2-1.7-.3-.2 0-.4-.1-.7-.1-.1 0-.3 0-.4-.1-1.4.1-2.6-.1-3.8-.2zm-19.8-11c.3.4.7.5 1.1.5.4 0 .8-.3 1-.6l.2-.3c-.8.1-1.5.2-2.3.4z" class="st19"/><path id="XMLID_00000155842261531975145550000011077272634419268791_" d="M242.8 265.4c-.1 0-.2 0-.3.1-.9.2-1.8.4-2.6.6l2 2.5c.7-.2 1.5-.3 2.2-.5l1.7-3.2c-.9.1-1.9.3-3 .5zm48.8 17.7c-4.9-6.1-11.1-11-18.3-14.2-.8-.4-1.6-.7-2.5-1v3.2c.8.4 1.6.7 2.5 1.1 15.5 7.6 26.2 23.5 26.2 41.9v2c-.4 8.2-2.8 15.8-6.9 22.4-2 3.2-4.3 6.2-7 8.8-.3.3-.6.5-.8.8-.5.5-1.1 1-1.6 1.4-.3.2-.5.4-.8.6-2.3 1.9-4.8 3.5-7.4 4.9-6.6 3.5-14.1 5.6-22.1 5.6-7.9 0-15.3-2-21.8-5.4-2.7-1.5-5.3-3.2-7.7-5.1-.3-.2-.5-.4-.8-.7-.6-.5-1.1-1-1.6-1.5-.3-.3-.6-.5-.8-.8-5.4-5.3-9.5-12-11.8-19.4-1.2-3.7-1.9-7.6-2-11.7v-2.2c0-18.3 10.6-34.2 26-41.8.8-.4 1.6-.8 2.5-1.1v-3.2c-.8.3-1.6.7-2.5 1.1-17 7.9-28.9 25.1-28.9 45 0 5.7 1 11.1 2.7 16.2 2.9 8.4 8 15.7 14.6 21.4.8.7 1.7 1.4 2.6 2.1 2.3 1.7 4.8 3.3 7.4 4.6 6.7 3.4 14.3 5.3 22.3 5.3 8.1 0 15.8-2 22.5-5.4 2.5-1.3 4.9-2.8 7.1-4.4.9-.7 1.7-1.3 2.6-2.1 3.3-2.8 6.2-6 8.6-9.5 3-4.4 5.4-9.3 6.9-14.5 1.2-4.3 1.9-8.9 1.9-13.6-.3-11.6-4.3-22.3-11.1-30.8zm-28.1-14.5 2-2.5c-.9-.2-1.8-.4-2.6-.6-.1 0-.2 0-.4-.1-1-.2-2-.4-3-.5l1.7 3.2c.8.1 1.6.3 2.3.5z" class="st19"/><path id="XMLID_00000121968806273254885240000005563343757991840397_" d="M256.9 338.5c-.2-.3-.3-.5-.6-.7-.4-.5-1-.8-1.6-1.1-.6-.3-1.2-.4-1.9-.4s-1.3.1-1.9.4c-.6.3-1.1.6-1.6 1.1-.2.2-.4.5-.6.7-.5.8-.8 1.7-.8 2.6 0 .6.1 1.1.3 1.7.7 1.8 2.4 3.1 4.5 3.1 2 0 3.8-1.3 4.5-3v-.1c.2-.5.3-1.1.3-1.7.1-.9-.1-1.8-.6-2.6zm-4.4.4h.8c1.1.2 1.9 1.1 1.9 2.2 0 1-.6 1.8-1.5 2.1-.2.1-.5.1-.8.1-.3 0-.6-.1-.9-.2-.8-.4-1.4-1.2-1.4-2.1 0-1 .8-1.9 1.9-2.1z" class="st19"/><path id="XMLID_00000168080304480681492120000006051152723816426883_" d="M255.1 341.1c0 1-.6 1.8-1.5 2.1-.2.1-.5.1-.8.1-.3 0-.6-.1-.9-.2-.8-.4-1.4-1.2-1.4-2.1 0-1.1.8-2.1 1.9-2.2.1 0 .3-.3.4-.3.1 0 .2.3.3.3 1.2.2 2 1.2 2 2.3z" class="st26"/><path id="XMLID_00000129175497909032707220000016926447157817379486_" d="M255.1 341.1c0 1-.6 1.8-1.5 2.1-.2.1-.5.1-.8.1-.3 0-.6-.1-.9-.2-.8-.4-1.4-1.2-1.4-2.1 0-1.1.8-2.1 1.9-2.2.1 0 .3-.3.4-.3.1 0 .2.3.3.3 1.2.2 2 1.2 2 2.3z" class="st27"/><g id="XMLID_00000170988082550235058730000013972218222123736230_"><path id="XMLID_00000077294715773251369880000015225782338854194604_" d="m262.5 353.1-.2-.2c-.2-.3-.5-.5-.7-.7-.2-.2-.5-.4-.6-.6l.5-.5.6-.6c.1-.1.1-.2.2-.3.5-.8.7-1.8.4-2.7-.3-1-1-1.7-2-2.1-.9-.4-1.7-.3-2.3-.1-1 .4-1.8 1.3-2.5 2-.1.1-.2.2-.3.4-.2.3-.7.3-1 .3h-2.8c-.6 0-1.1 0-1.5-.1-.4-.2-.7-.6-1.1-1-.3-.4-.7-.8-1.1-1.1-1.1-.9-2.6-.9-3.8-.1-1.2.8-1.8 2.3-1.4 3.7.2.7.7 1.2 1.1 1.5.2.2.4.3.4.5.1.1.1.1.1.2-.1.2-.5.5-.7.6-1.4 1.1-1.8 3.2-.8 4.7a3 3 0 0 0 4 .9c.6-.3 1-.7 1.4-1.1.2-.1.3-.3.5-.4.6-.5 1.1-.6 2.3-.5h3.3c1.3 0 1.8 0 2.5.7l.2.2c.4.4.9 1 1.6 1.3.1.1.2.1.3.1.3.1.6.1.9.1.8 0 1.5-.4 2.1-1 .5-.6.8-1.5.8-2.3.2-.6 0-1.3-.4-1.8zm-3.7 2.1-.2-.2c-1.3-1.4-2.6-1.4-4-1.4h-3.1c-1.2-.1-2.5-.1-3.7 1-.2.2-.4.3-.5.5-.3.3-.6.6-1 .8-.4.2-1 .1-1.2-.3-.4-.6-.2-1.4.3-1.9.7-.5 2.3-1.8 1-3.6-.2-.3-.5-.6-.8-.8-.2-.2-.5-.4-.5-.6-.2-.6.2-1.1.5-1.3.2-.1.8-.4 1.3 0 .3.2.5.5.8.8.5.6 1 1.2 1.8 1.5.8.4 1.7.4 2.5.3h2.8c1.1 0 1.9-.3 2.5-1 .1-.1.2-.2.3-.4 1.1-1.3 1.7-1.7 2.4-1.4.4.2.7.4.8.8.1.2.1.5-.1.9l-.4.4c-.6.5-1.7 1.5-1.1 2.9.3.6.8 1 1.1 1.3l.5.5c.3.4.2 1.1-.2 1.5-.3.4-.6.3-.8.2-.3.2-.6-.1-1-.5z" class="st19"/></g><path id="XMLID_00000066497055057156570370000003196280489187374519_" d="M257.7 333.2c-.6 1.2-1.2 1.9-1.6 2.4-.9.9-1.7 1.6-2.6 1.7l-.2-.1c-.1 0-.2.2-.3.2h-.2c-1 .1-2.2-.8-3.3-1.9-.4-.4-.9-1-1.4-2-1-2-2-5.3-1.6-10.5l.1-.8c1.6-.2 3.5-.7 5.5-1.7.2-.1.4-.1.6-.1.2 0 .4 0 .6.1 2.1 1.1 4 1.6 5.7 1.7l.1.8c.4 5-.4 8.2-1.4 10.2z" style="fill:#f1909a"/><path id="XMLID_00000032642865708831315840000007173970485040395685_" d="M259.2 326.1c-1.7-.3-3.7-.9-5.8-1.9-.2-.1-.4-.2-.7-.2-.2 0-.5.1-.7.2-2 1-3.8 1.6-5.5 1.9 0-.9 0-1.9.1-3l.1-.8c1.6-.2 3.5-.7 5.5-1.7.2-.1.4-.1.6-.1.2 0 .4 0 .6.1 2.1 1.1 4 1.6 5.7 1.7l.1.8v3z" style="fill:#ec6b6d"/><path id="XMLID_00000126281012367255332870000010027379850405210554_" d="M262.1 318.8H260c-.3 0-.6-.1-.9-.1h-.2c-.1 0-.2 0-.3-.1-.7-.2-1.4-.4-2-.8-.5-.3-1-.7-1.3-1.1l-.1-.1c-.2-.5 0-1 .5-1.1 1.2-.3 2.2-.8 2.9-1.2.9-.6 1.6-1.5 1.8-2.6.3-1.8-.3-3.3-1-4.4-.9-1.3-2.2-2.2-3.7-2.5-.3-.1-.6-.1-.9-.1h-4.1c-.3 0-.6 0-.8.1-1.5.3-2.9 1.2-3.8 2.5-.8 1.2-1.4 2.7-1 4.4.2 1.1.9 2 1.8 2.6.7.4 1.6.9 2.8 1.2.5.1.8.7.5 1.1l-.1.1c-.4.4-.8.8-1.3 1.1-.6.4-1.3.6-2 .8-.1 0-.2.1-.3.1h-.2c-.3.1-.6.1-.9.1h-2.1c-1.7-.2-3.7-.7-6-2 0 .2 1.8 5 7.5 5.6h.1c-.5 4.6.1 7.9.9 10.3.4 1.2.9 2.1 1.4 2.8.3.5.6.8.9 1.2l.2.2c.4.4.7.7 1.1 1 .2.2.4.3.7.4.5.3 1.1.5 1.7.6.2 0 .5 0 .7.1h1.6c.6-.1 1.1-.3 1.6-.6.2-.1.4-.3.6-.4.4-.3.8-.6 1.1-1l.5-.5c.2-.2.4-.5.6-.8.6-.9 1.2-2 1.6-3.5.7-2.3 1.1-5.4.7-9.6 2.8-.3 4.6-1.7 5.8-3 1.1-1.3 1.6-2.5 1.6-2.6-2.4 1-4.4 1.6-6.1 1.8zm-2.9 7.3v1.6c0 .2 0 .4-.1.7 0 .1 0 .3-.1.4 0 .3-.1.6-.1.9 0 .1 0 .2-.1.3 0 .1 0 .2-.1.3 0 .1-.1.3-.1.4v.1c0 .1-.1.2-.1.3 0 .1-.1.2-.1.3 0 .1-.1.2-.1.3 0 .1-.1.2-.1.3 0 .1-.1.2-.1.2-.1.3-.3.7-.4 1-.6 1.2-1.2 1.9-1.6 2.4l-.3.3c-.4.3-.7.6-1.1.8-.4.2-.8.3-1.2.4-.3.1-.9 0-1.1 0h-.2c-.4-.1-.8-.2-1.2-.4-.4-.2-.7-.5-1.1-.8l-.3-.3c-.4-.4-.9-1-1.4-2-.1-.1-.1-.2-.2-.3-.2-.3-.3-.7-.5-1.1 0-.1-.1-.3-.1-.4-.1-.2-.2-.5-.2-.8 0-.1-.1-.2-.1-.4-.1-.4-.2-.9-.3-1.3v-.3c0-.3-.1-.5-.1-.8 0-.3-.1-.6-.1-.9v-3c0-.4 0-.8.1-1.2l.1-.8h.3c.2 0 .4-.1.6-.1.2 0 .4-.1.6-.1.1 0 .2-.1.4-.1.1 0 .2-.1.4-.1.1 0 .2-.1.3-.1.1 0 .2-.1.3-.1.1 0 .2-.1.4-.1.1 0 .2-.1.4-.1.1 0 .3-.1.4-.2.1 0 .2-.1.3-.1.2-.1.4-.2.5-.2.1-.1.2-.1.4-.2.1.3.1.7.2 1.1.2 1.3.4 3 .6 4.7.1.9.1 1.7.2 2.5v4.4h.1s.1-.2.2-.6c.1-.2.2-.4.2-.7l.3-.9c.1-.3.2-.7.2-1.1.1-.4.1-.8.2-1.2 0-.4.1-.9.1-1.3s0-.9.1-1.3v-2.6c0-.8-.1-1.6-.2-2.3 0-.2 0-.4-.1-.6.3.2.7.3 1 .4.1 0 .2.1.3.1h.1c.1 0 .2.1.3.1.2.1.3.1.5.2.2 0 .3.1.5.1.1 0 .2.1.3.1.1 0 .2.1.3.1.1 0 .2 0 .3.1h.2c.1 0 .2 0 .3.1.1 0 .3 0 .4.1h.2c.1 0 .3 0 .4.1l.1.8v1.2c-.2.6-.2 1.2-.2 1.7z" class="st19"/><path id="XMLID_00000009562955815808610530000005843071272728628617_" d="M250.6 306.2s.2-.1.6-.1c.4-.1 1-.2 1.7-.2s1.6.1 2.4.4c.4.2.9.4 1.3.7.4.3.8.7 1.1 1.1.3.4.5 1 .7 1.5v.9c0 .3-.1.6-.2.8-.2.5-.5.9-.8 1.2-.3.3-.7.5-1 .7-.3.2-.7.3-.9.4-.3.1-.5.1-.8.1h-.7v-.1s.1 0 .2-.1c.1 0 .2-.1.4-.2s.4-.2.6-.4c.2-.1.5-.3.7-.5.5-.4 1-1 1.2-1.6.1-.2.1-.3.1-.5v-.5c-.1-.4-.2-.7-.4-1.1-.2-.3-.5-.6-.8-.9-.3-.3-.7-.5-1-.6-.7-.3-1.5-.6-2.1-.7-.3-.1-.6-.1-.9-.1-.3 0-.5-.1-.7-.1-.4 0-.7 0-.7-.1z" style="opacity:.9;fill:#4e2e18"/><path id="XMLID_00000155856924512245634020000013969238644458154652_" d="M254.3 341.1c0 .8-.7 1.5-1.5 1.5s-1.5-.7-1.5-1.5.7-1.5 1.5-1.5c.8.1 1.5.7 1.5 1.5z" class="st19"/><g id="XMLID_00000009572540961478198270000010823140466328083382_"><path id="XMLID_00000014633483805928184970000010178803268114833575_" d="M252 341.1h1.8v9.4H252z" class="st19"/></g><path id="XMLID_00000027580815671942861160000014331317089292337568_" d="M260.6 355.9c-.3.4-.6.3-.8.2-.3-.2-.7-.5-1-.8l-.2-.2c-1.3-1.4-2.6-1.4-4-1.4h-3.1c-1.2-.1-2.5-.1-3.7 1-.2.2-.4.3-.5.5-.3.3-.6.6-1 .8-.4.2-1 .1-1.2-.3-.4-.6-.2-1.4.3-1.9.7-.5 2.3-1.8 1-3.6-.2-.3-.5-.6-.8-.8-.2-.2-.5-.4-.5-.6-.2-.6.2-1.1.5-1.3.2-.1.8-.4 1.3 0 .3.2.5.5.8.8.5.6 1 1.2 1.8 1.5.8.4 1.7.4 2.5.3h2.8c1.1 0 1.9-.3 2.5-1 .1-.1.2-.2.3-.4 1.1-1.3 1.7-1.7 2.4-1.4.4.2.7.4.8.8.1.2.1.5-.1.9l-.4.4c-.6.5-1.7 1.5-1.1 2.9.3.6.8 1 1.1 1.3l.5.5c.3.7.1 1.4-.2 1.8z" class="st0"/><path id="XMLID_00000106855770991212633910000010214902659794008204_" d="M261 354.8c0 .4-.1.8-.3 1-.3.4-.6.3-.8.2-.3-.2-.7-.5-1-.8l-.2-.2c-1.3-1.4-2.6-1.4-4-1.4h-3.1c-1.2-.1-2.5-.1-3.7 1-.2.2-.4.3-.5.5-.3.3-.6.6-1 .8-.4.2-1 .1-1.2-.3-.2-.3-.3-.6-.2-1 .2.1.5 0 .8-.1.4-.2.7-.5 1.1-.9.2-.2.4-.4.6-.5 1.3-1.2 2.8-1.2 4.1-1.1h3.6c1.6 0 2.9 0 4.4 1.5l.2.2c.4.4.7.8 1.1.9-.3.2-.1.3.1.2z" style="opacity:.8;fill:#cfd0d1"/></g><g id="g572"><g id="g570"><g id="XMLID_00000030466287076720610470000006268004050009314728_"><path id="XMLID_00000158707568439501548160000004499147546710880402_" d="M182 367.2c-6.6 0-11.8 5.2-11.8 11.7 0 6.8 5.2 12 11.8 12 6.6 0 11.8-5.3 11.8-12 0-6.5-5.2-11.7-11.8-11.7zm0 18.6c-3.6 0-6.4-3-6.4-6.9 0-3.7 2.8-6.6 6.4-6.6 3.6 0 6.4 2.9 6.4 6.6 0 3.9-2.8 6.9-6.4 6.9z" class="st19"/><path id="XMLID_00000111173863771048027080000004507298123154629763_" d="M210.3 370.6v6h-8.1v-6c0-2-1.1-3.1-3.1-3.1H195v4.9h1.9v18.2h5.3v-9.1h8.1v9.1h5.3v-18.2h1.9v-4.9h-4.2c-1.9 0-3 1.1-3 3.1zm-13.4 1.3h1.2z" class="st19"/><path id="XMLID_00000061454492233390569030000012912308009108651159_" d="M241.6 367.5h-4.9l-5.1 11.6-5.1-11.6h-4.9l-1.5 18.2h-1.7v4.9h3.8c1.9 0 3-1 3.1-3l.6-8.6 3.6 7.9h4l3.6-7.8.7 8.5c.1 2 1.2 3 3.1 3h3.8v-4.9H243Z" class="st19"/><path id="XMLID_00000029030277173330396410000006391548017047595966_" d="m257.7 369.7-3.1 5.2c-.1.2-.2.3-.3.5-.1-.1-.2-.3-.3-.4l-3.1-5.2c-1.1-1.8-2.1-2.2-3.8-2.2h-2.5v4.9h1.9s.1.1.1.2l5.1 8.1v9.9h5.3v-9.9l5-8.1c0-.1.1-.1.1-.2h2v-4.9h-2.5c-1.7-.1-2.8.3-3.9 2.1z" class="st19"/><path id="XMLID_00000011736751712819624750000014872610394156420015_" d="M276.5 367.5H267v4.9h1.9v15.1c0 2 1.1 3.1 3.1 3.1h4.6c7.1 0 11.7-4.5 11.7-11.6-.1-6.9-4.7-11.5-11.8-11.5zm-2.3 5h2.1c4.1 0 6.4 2.4 6.4 6.6 0 4.3-2.3 6.6-6.4 6.6h-2.1z" class="st19"/><path id="XMLID_00000183219262736530112830000004961215464654999482_" d="M301.1 367.2c-6.6 0-11.8 5.2-11.8 11.7 0 6.8 5.2 12 11.8 12 6.6 0 11.8-5.3 11.8-12 0-6.5-5.2-11.7-11.8-11.7zm0 18.6c-3.6 0-6.4-3-6.4-6.9 0-3.7 2.8-6.6 6.4-6.6 3.6 0 6.4 2.9 6.4 6.6-.1 3.9-2.9 6.9-6.4 6.9z" class="st19"/><path id="XMLID_00000033327564101120186940000003522298838548789681_" d="M332.4 378h-3.9v4.9h1.9v1c-.6.6-2.3 1.9-4.7 1.9-3.6 0-6.3-2.9-6.3-6.8 0-3.8 2.7-6.7 6.2-6.7 2.9 0 4.8 1.7 4.9 1.7l1 .9 3.1-4-.7-.8c-.1-.1-2.8-2.9-8.3-2.9-6.5 0-11.6 5.2-11.6 11.8 0 6.8 4.8 12 11.3 12 2.3 0 4-.7 5.3-1.4v1h5v-9.5c-.1-2-1.2-3.1-3.2-3.1z" class="st19"/></g><g id="XMLID_00000147923915256163170010000010258036943744946356_"><path id="XMLID_00000171698914028130976150000007367998931939929013_" d="M174.8 403h-2.2v-6.1c0-.7-.3-1-1-1h-1.4v1.5h.7v6.1c0 .7.3 1 1 1h3.5c.7 0 1-.3 1-1v-1.3h-1.5z" class="st19"/><path id="XMLID_00000092424776617311241490000009670791704470656164_" d="M185.1 396.9v4.5c0 1.1-.6 1.7-1.7 1.7-1 0-1.7-.6-1.7-1.7v-4.5c0-.7-.3-1-1-1h-1.4v1.5h.7v4c0 1.9 1.3 3.2 3.3 3.2 2 0 3.3-1.3 3.3-3.2v-4h.7v-1.5H186c-.6 0-.9.3-.9 1z" class="st19"/><path id="XMLID_00000085210797666200257790000009946210161170077111_" d="M196.9 397.6c.1-.2.1-.2.3-.2h.5v-1.5h-.9c-.7 0-1 .2-1.3.7l-.9 1.5c-.1.2-.2.4-.3.5-.1-.2-.2-.4-.3-.5l-.9-1.5c-.3-.6-.6-.7-1.3-.7h-.9v1.5h.6c.2 0 .2 0 .3.2l1.5 2.5-2.7 4.4h1.9l1.5-2.6c.1-.2.2-.4.3-.5.1.2.2.3.3.5l1.5 2.6h1.9l-2.7-4.4z" class="st19"/><path id="XMLID_00000150808174087231749370000012388611690280662197_" d="M207 396.9v4.5c0 1.1-.6 1.7-1.7 1.7-1 0-1.7-.6-1.7-1.7v-4.5c0-.7-.3-1-1-1h-1.4v1.5h.7v4c0 1.9 1.3 3.2 3.3 3.2 2 0 3.3-1.3 3.3-3.2v-4h.7v-1.5H208c-.7 0-1 .3-1 1z" class="st19"/><path id="XMLID_00000168809484693082893150000003524293414381078201_" d="m219.3 402.9-1-1.9c0-.1-.1-.1-.1-.2.6-.3 1.2-1 1.2-2.2 0-1.6-1.1-2.6-2.7-2.6h-3.8v1.5h.7v7.1h1.7v-3.2h.8c.4 0 .4 0 .6.3l1.1 2.2c.3.6.7.7 1.3.7h.8V403h-.4c-.1 0-.1 0-.2-.1zm-3.8-5.5h1.3c.7 0 1.1.4 1.1 1.2 0 .8-.4 1.2-1.1 1.2h-1.2v-2.4z" class="st19"/><path id="XMLID_00000090973125401224187640000014160812583039986087_" d="m228 396.7-1.2 2c-.1.2-.2.4-.3.5-.1-.2-.2-.3-.3-.5l-1.2-2c-.4-.6-.7-.7-1.3-.7h-.8v1.5h.5c.2 0 .2 0 .3.2l2 3.2v3.7h1.7v-3.7l2-3.2c.1-.2.1-.2.3-.2h.5V396h-.8c-.7-.1-1 0-1.4.7z" class="st19"/><path id="XMLID_00000052102020343286572860000013929772755525458576_" d="M243.4 395.9h-3.8v1.5h.7v7.1h1.7v-3h1.4c1.6 0 2.8-1.2 2.8-2.8 0-1.6-1.1-2.8-2.8-2.8zm-1.4 1.5h1.2c.8 0 1.3.5 1.3 1.3s-.5 1.3-1.3 1.3H242Z" class="st19"/><path id="XMLID_00000115515158278722615270000013365478311657409716_" d="M254.6 403h-2.4v-2.1h2.8v-1.5h-2.8v-2h2v.8h1.5v-1.3c0-.7-.3-1-1-1h-5v1.5h.7v6.1c0 .7.3 1 1 1h3.6c.7 0 1-.3 1-1v-1.3h-1.6z" class="st19"/><path id="XMLID_00000131344969016506834160000003605065911431005852_" d="M265.9 395.9h-5.6c-.7 0-.9.3-.9.9v1.3h1.5v-.8h1.4v7.1h1.7v-7.1h1.4v.8h1.5v-1.3c-.1-.6-.3-.9-1-.9z" class="st19"/><path id="XMLID_00000150095301722382994980000009124087184504387714_" d="M282.6 395.9H277c-.7 0-.9.3-.9.9v1.3h1.5v-.8h1.4v7.1h1.7v-7.1h1.4v.8h1.5v-1.3c0-.6-.3-.9-1-.9z" class="st19"/><path id="XMLID_00000004517015505665948680000007816735408690619032_" d="m293.4 402.9-1-1.9c0-.1-.1-.1-.1-.2.6-.3 1.2-1 1.2-2.2 0-1.6-1.1-2.6-2.7-2.6H287v1.5h.7v7.1h1.7v-3.2h.8c.4 0 .4 0 .6.3l1.1 2.2c.3.6.7.7 1.3.7h.8V403h-.4c-.1 0-.2 0-.2-.1zm-3.9-5.5h1.3c.7 0 1.1.4 1.1 1.2 0 .8-.4 1.2-1.1 1.2h-1.2v-2.4z" class="st19"/><path id="XMLID_00000035506236747550634500000001831969539088753296_" d="m304.7 403-2.6-7.1h-1.6l-2.6 7v.1h-.5v1.5h.9c.7 0 1-.2 1.2-.8l.5-1.5h2.6l.5 1.5c.2.6.5.8 1.2.8h.9V403h-.5zm-2.5-2.3h-1.7l.8-2.1c0-.1.1-.2.1-.3 0 .1.1.2.1.3z" class="st19"/><path id="XMLID_00000088842736811744243650000003147285409943557504_" d="m313.8 396.7-1.8 5c0 .1-.1.2-.1.2 0-.1-.1-.2-.1-.2l-1.8-5c-.2-.6-.5-.8-1.2-.8h-.9v1.5h.5v.1l2.6 7h1.6l2.6-7v-.1h.5v-1.5h-.7c-.6 0-.9.2-1.2.8z" class="st19"/><path id="XMLID_00000068642422003158024360000004521578055080366488_" d="M324.2 403h-2.4v-2.1h2.8v-1.5h-2.8v-2h2v.8h1.5v-1.3c0-.7-.3-1-1-1h-5v1.5h.7v6.1c0 .7.3 1 1 1h3.6c.7 0 1-.3 1-1v-1.3H324Z" class="st19"/><path id="XMLID_00000143587275608797275400000009183389442461002637_" d="M334 402.2v.8h-2.2v-6.1c0-.7-.3-1-1-1h-1.4v1.5h.7v6.1c0 .7.3 1 1 1h3.5c.7 0 1-.3 1-1v-1.3z" class="st19"/></g></g></g></g><g id="g582"><g id="g578"><circle id="circle576" cx="253" cy="519.7" r="23.2" class="st0"/></g><path id="path580" d="M267.6 537.8c-4 3.2-9.1 5.2-14.6 5.2-12.8 0-23.2-10.4-23.2-23.2 0-11.7 8.6-21.4 19.9-23-5.2 4.2-8.6 10.7-8.6 18 0 12.8 10.4 23.2 23.2 23.2 1.1 0 2.2-.1 3.3-.2z" class="st11"/></g></g><path id="path586" d="M677.5 568.5H134.6c-1.8 0-3.3 1.5-3.3 3.3 0 1.8 1.5 3.3 3.3 3.3h542.9c1.8 0 3.3-1.5 3.3-3.3 0-1.8-1.5-3.3-3.3-3.3z" class="st19"/></g></svg>