<svg xmlns="http://www.w3.org/2000/svg" xml:space="preserve" id="svg168" width="64" height="64" version="1.1"><style id="style395" type="text/css">.st3{opacity:.8}.st5{opacity:.5}.st4{opacity:.7}.st0,.st1{fill:#e5bd88}.st1{opacity:.6}.st2{fill:#ffe8cc}.st3{fill:#7d655b}.st4{fill:#5d453e}.st5{fill:#f3d3a5}.st6{fill:#b4916f}.st7{fill:#1d1d1b}.st10,.st8{fill:#9ec65c}.st10{opacity:.5}.st14{opacity:.6;fill:#7abcdc}</style><g id="g3304" transform="matrix(.08326 0 0 .08326 -1.31 -1.296)"><circle id="circle307" cx="400.1" cy="399.927" r="384.356" fill="#fff" data-name="Ellipse 1" style="stroke-width:12.0111"/><path id="path3196" d="m456.6 267.3-.3.6c0 .1-4.2 11.5-12.8 27.1-2.9.8-5.7 1.8-8.5 2.9-.6-.7-1.1-1.5-1.4-2.3-.3-.6-.2-1.4.2-1.9 4.3-4.6 5-9 4.9-11.8-.2-6-4.3-9.9-4.7-10.3-.6-.5-1.3-.9-2.1-1.1-8.8-2.1-16.8-1.7-23.7 1.2-3.7 1.6-7.1 3.8-10 6.7-1.5 1.4-2.9 3.1-4.2 5-2.7 3.8-4.1 8.3-4.1 13.1v9.4c-.9-.5-1.6-1.2-2.2-2-3.5-4.4-2.7-11.4-2.7-11.4.3-2.6-1.5-5-4.1-5.3-2.6-.3-5 1.5-5.3 4.1-.1.4-1.3 10.9 4.6 18.4 2.5 3.1 5.7 5.3 9.7 6.4v39.2c-.6 2.1-1.2 4.2-1.7 6.3-5.3 4-10.8 7.7-16.4 10.9-18.3 10.5-40 13.4-59.4 8-28.8-7.9-45.9-30.2-50.9-66.1-1.7-12.3 0-26.6 4.9-41.6 8.2-24.8 25.6-45.2 45.8-67.3 1.3-1.4 2.7-3 4.3-4.8 10.4-11.8 26.2-29.5 40.4-30.1 4.8-.2 9.2 1.6 13.3 5.6 1.9 1.8 46.6 44.3 74.7 55.5.2.1.4.2.7.2.1 0 10.7 2.7 14.5 11.2 3.1 6.3 1.8 14.4-3.5 24.2z" class="st0"/><path id="path3198" d="M390 316.2v39.2c-.6 2.1-1.2 4.2-1.7 6.3-5.3 4-10.8 7.7-16.4 10.9-18.3 10.5-40 13.4-59.4 8-2.4-.7-4.7-1.4-7-2.3 18.3 3.8 38.1.6 55-9.1 5.6-3.2 11-6.8 16.4-10.9.5-2.1 1.1-4.2 1.7-6.3v-44.7c.5.8 1 1.6 1.6 2.4 2.5 3.1 5.8 5.3 9.8 6.5z" class="st1"/><path id="path3200" d="m456.6 267.3-.3.6c0 .1-4.2 11.5-12.8 27.1-2.9.8-5.7 1.8-8.5 2.9-.6-.7-1.1-1.5-1.4-2.3-.3-.6-.2-1.4.2-1.9 4.3-4.6 5-9 4.9-11.8 0-.8-.1-1.6-.3-2.3 4.4-9 6.5-14.9 6.6-15l.3-.6c5.3-9.8 6.6-20.6 3.8-26.8-.9-1.9-2-3.6-3.4-5.2.1 0 .1 0 .2.1.1 0 10.7 2.7 14.5 11.2 2.8 6.1 1.5 14.2-3.8 24z" class="st1"/><path id="path3202" d="M375.6 181.1c-2-.8-4.1-1.1-6.3-1-14.3.6-30 18.4-40.4 30.1-1.5 1.7-3 3.3-4.3 4.8-20.2 22.1-37.7 42.5-45.8 67.3-4.9 15-6.6 29.4-4.9 41.6 3 21.6 10.4 38.2 22 49.7-18.7-11-30.2-30.8-34.1-59.1-1.7-12.3 0-26.6 4.9-41.6 8.2-24.8 25.6-45.2 45.8-67.3 1.3-1.4 2.7-3 4.3-4.8 10.4-11.8 26.2-29.5 40.4-30.1 4.8-.2 9.2 1.6 13.3 5.6.3.3 2.1 2.1 5.1 4.8z" class="st2"/><path id="path3204" d="M426.9 287.3c-3.1 3.3-3.9 8.1-1.9 12.4.4.9.9 1.8 1.5 2.6-11.2 6.6-20.5 16.5-27 28.9v-34.7c0-2.8.8-5.5 2.3-7.7.9-1.4 2-2.6 3.1-3.7 2.1-2 4.5-3.6 7-4.7 3.4-1.4 7.3-2 11.6-1.7 4.2.3 6.4 5.3 3.6 8.5-.1 0-.2 0-.2.1z" class="st3"/><path id="path3206" d="M428 282c-2.8.2-5.4.7-7.8 1.8-2.6 1.1-5 2.7-7 4.7-1.1 1.1-2.1 2.3-3.1 3.7-1.5 2.2-2.3 4.8-2.3 7.7v18.7c-3.1 3.9-5.9 8.1-8.3 12.7v-34.7c0-2.8.8-5.5 2.3-7.7.9-1.4 2-2.6 3.1-3.7 2.1-2 4.5-3.6 7-4.7 3.4-1.4 7.3-2 11.6-1.7 2.1 0 3.8 1.5 4.5 3.2z" class="st4"/><path id="path3208" d="M586.5 592.2c-34.7 35.2-79.2 60.7-129.1 71.9-6.4-6.1-12.4-12.8-17.8-20.1.8.1 1.6.1 2.4.1 3.1 0 6.2-.4 9.2-1.2 1.8-.5 3.9-1 6.4-1.5 22.7-5.2 75.5-17.2 118.8-89.3 2.9-.1 5.7-.4 8.3-1 5.2 16.3 5.8 30.1 1.8 41.1z" class="st5"/><path id="path3210" d="M586.5 592.2c-6.1 6.2-12.4 12-19.1 17.6 3.7-11.1 6.6-31.3 2.1-46.9 2.3-3.5 4.6-7.1 6.9-10.9 2.9-.1 5.7-.4 8.3-1 5.2 16.4 5.8 30.2 1.8 41.2z" class="st6"/><path id="path3212" d="M548.8 452.8c-3.1 4.8-5.4 9.5-7.1 14.2-.2.1-.4.3-.5.4-4.8 5-10.3 8.7-16.4 11.1-2.4.9-3.6 3.7-2.7 6.1.7 1.9 2.5 3 4.4 3 .6 0 1.1-.1 1.7-.3 3.7-1.4 7.2-3.3 10.5-5.5-.3 4.8 0 9.3.7 13.5-16.8 14.1-37.1 29.5-61.2 39.3-1.1.4-2.3.9-3.5 1.5-7.8 3.3-18.6 7.8-25.3 5.5-3.2-1.1-6-3.2-9-5.5-.9-.7-1.9-1.4-2.8-2L413.3 517c2.4-.4 4.8-.8 7.3-1.3 2.6-.5 4.2-3 3.7-5.6-.5-2.6-3-4.2-5.6-3.7-28.3 5.7-48.3.7-57.8-2.7-5-1.8-9.3-5.2-12.1-9.3-2-3.1-2.9-5.7-2.4-7.8.4-1.9 1.9-3.7 4.5-5.4 4-2.6 9.1-3.2 13.9-1.9 33.3 9.3 51.1-.5 51.9-.9 2.3-1.3 3-4.1 1.8-6.4-1.3-2.3-4.2-3.1-6.4-1.8-.1 0-4.7 2.5-13.6 3.4-.4-4.3-1-13.2-1.7-22.3.3.3.6.6 1 .9 9 7.9 19.6 12.4 27 14.8 11.4 3.6 23 5.1 34.6 5.1 19.4 0 38.7-4 56.2-8.5 3.4-.9 6.7-1.8 10.1-2.7.1 0 .2-.1.3-.1 7.8-2.4 15.5-4.9 22.8-8z" class="st5"/><path id="path3214" d="M410.2 508c-23.7 3.2-40.6-1.1-49.1-4.2-5-1.8-9.3-5.2-12.1-9.3-2-3.1-2.9-5.7-2.4-7.8.4-1.9 1.9-3.7 4.5-5.4 4-2.6 9.1-3.2 13.9-1.9.7.2 1.4.4 2 .5-.1.1-.3.1-.4.2-2.6 1.7-4.1 3.5-4.5 5.4-.4 2.1.4 4.7 2.4 7.8 2.8 4.2 7.1 7.5 12.1 9.3 6.5 2.4 17.9 5.5 33.6 5.4z" class="st6"/><path id="path3216" d="M548.8 452.8c-3.1 4.8-5.4 9.5-7.1 14.2-.2.1-.4.3-.5.4-4.3 4.5-9.3 8-14.7 10.4 1.4-5 2.9-14.2 6.8-19.4 5.4-1.6 10.5-3.5 15.5-5.6z" class="st6"/><path id="path3218" d="M539.5 495.4c-4.2 3.5-8.6 7.1-13.3 10.7-.7-4.9-1.9-14.2-1.8-18.9.6.3 1.4.5 2.1.5.6 0 1.1-.1 1.7-.3 3.7-1.4 7.2-3.3 10.5-5.5-.2 4.7.1 9.3.8 13.5z" class="st6"/><path id="path3220" d="M522.3 451.9c-3 .9-6 1.7-9.1 2.4-24 6.2-51.5 11.5-77.3 5.8 6.7-1.7 12.2-7 16.4-15.8.9-2 1.6-4 2.2-5.7.7-1.9 2.4-5.4 6.7-6.9 4.9-1.7 14.5-1.3 32.4 10.2 6.9 4.5 15.5 5.6 22.9 2.9 5.7-2 12.3-6.5 16.2-16.4.8 6.5-.5 15.3-10.4 23.5z" class="st3"/><path id="path3222" d="M456.4 423.5c-7 3.2-9.8 9.4-10.7 12-.5 1.5-1.1 3.2-1.8 4.7-3.1 6.6-6.8 10.3-11 10.9-6.3.9-13.5-4.8-16.6-7.9-1.9-10.8-1-27 14.3-43.1 1-1.1 2.1-2.1 3.2-3.1 3.8 2.9 10.4 6.9 18.1 7 .8 5.9 2.3 13.8 4.5 19.5z" class="st3"/><path id="path3224" d="M456.4 423.5c-7 3.2-9.8 9.4-10.7 12-.5 1.5-1.1 3.2-1.8 4.7-3.1 6.6-6.8 10.3-11 10.9-6.3.9-13.5-4.8-16.6-7.9-.6-3.5-.9-7.6-.6-12 3.6 2.9 8.8 5.9 13.5 5.2 4.2-.6 7.9-4.3 11-10.9.7-1.5 1.3-3.2 1.8-4.7.9-2.6 3.7-8.8 10.6-12 .9 5 2.1 10.5 3.8 14.7z" class="st4"/><path id="path3226" d="M526.1 416c-1.4 10.7-5.7 17.5-12.8 20-4.6 1.7-10.1.9-14.5-2-13-8.4-24.1-12.5-33.1-12.4-1.5-3.3-3.3-11.1-4.5-19.3 6.2-2.6 11.5-8.1 16-16.4 13.5 2.7 30.9 10.5 48.9 30.1z" class="st3"/><path id="path3228" d="M526.1 416c-1.4 10.7-5.7 17.5-12.8 20-4.6 1.7-10.1.9-14.5-2-13-8.4-24.1-12.5-33.1-12.4-1.2-2.7-2.6-8.1-3.7-14.3 9-.1 20.1 4.1 33 12.4 4.5 2.9 9.9 3.6 14.5 2 5-1.8 8.6-5.6 10.8-11.5 2 1.7 3.9 3.7 5.8 5.8z" class="st4"/><path id="path3230" d="M466.9 384.7c-3.7 5.7-7.9 9-12.4 9.8-4.8.8-9.4-1.2-12.6-3.3 7.6-4.5 16.2-6.8 25-6.5z" class="st3"/><path id="path3232" d="M590.9 314c-3.3 3.7-9.8 9.2-20.4 11.1-.2 0-.4 0-.5.1-2.8.4-5.9.6-9.3.5-5.2-.2-10.1-2.4-13.9-6.2-10.7-10.7-18.6-17.2-23.4-19.5-2.4-1.1-5.2-.1-6.3 2.3-1.1 2.4-.1 5.2 2.3 6.3 3.7 1.8 11.3 8.2 20.8 17.7 5.4 5.4 12.6 8.6 20.1 8.9 3 .1 5.8 0 8.4-.2 8.8 14.1 28.4 51.2 12.7 80.1-5 9.2-12.6 16.2-21.8 21.8l-.1.1c-6.3 3.8-13.3 7-20.7 9.7 5.7-11.1 3.4-21.5 1.6-26.5-.8-2.4-2.1-4.6-3.7-6.5-25-29.3-50-37.1-66.7-38.4-4.2-.3-8.4-.2-12.5.4-5.8-19.3-2.4-39.5-2.4-39.7.4-2.6-1.3-5-3.9-5.5-2.6-.4-5 1.3-5.5 3.9-.2 1-3.7 22.3 2.5 43.5-9.2 3-17.7 8.3-24.7 15.7-18.1 19.2-19 38.9-16.5 52 0 .6.1 1.3.4 1.9 0 .2.1.3.1.5-1.2-.9-2.4-1.9-3.6-2.8-5.9-5.2-9.5-12.2-10.5-20.2-2.5-20-1-41.5 3.9-61.1.3-.3.6-.7.8-1.1 4.2-7.8 13.4-19.9 20.6-19.7 4.6.1 8.3 6.1 10.6 11 1.1 2.4 3.9 3.4 6.3 2.3s3.4-3.9 2.3-6.3c-4.9-10.7-11.3-16.3-18.9-16.5-4.5-.1-8.8 1.7-12.6 4.5v-.1c6.5-13.7 16.4-23.9 28.7-29.8.4-.1.8-.3 1.2-.6 3.5-1.6 7.1-2.9 10.9-3.8.2 0 .4-.1.6-.1 4.7-1.1 9.7-1.7 14.9-1.7 1 0 2-.3 2.8-.9.1-.1 11.4-8.3 26.1-8.3 5.4 0 11.2 1.1 17.2 4.1 1.3.7 2.9.7 4.2 0 1.3-.6 2.3-1.9 2.6-3.4.4-1.7 4.1-17 26.8-13 16.7 4.3 44.8 15.2 49.6 26.3 1.3 2.3.8 5.1-1.1 7.2z" class="st5"/><path id="path3234" d="M581.4 415c-5 9.2-12.6 16.2-21.8 21.8l-.1.1c-6.3 3.8-13.3 7-20.7 9.7 2.6-5 3.5-10 3.6-14.3 8.4-5.4 15.4-12.2 20-20.7 15.2-27.8-2.6-63.4-11.7-78.5 3 1.2 6.3 1.9 9.6 2 3 .1 5.8 0 8.4-.2 8.8 14.1 28.4 51.2 12.7 80.1z" class="st6"/><g id="g3240"><g id="g3238"><ellipse id="ellipse3236" cx="514.9" cy="365.4" class="st3" rx="21.4" ry="32.9" transform="rotate(-77.719 514.858 365.375)"/></g></g><g id="g3246"><g id="g3244"><ellipse id="ellipse3242" cx="415.3" cy="378.1" class="st3" rx="26.7" ry="17.4" transform="rotate(-21.283 415.257 378.032)"/></g></g><path id="path3248" d="M332.5 272.3c3.1 0 6.6-.4 10.3-1.3 2.5-.6 4.1-3.2 3.5-5.7-.6-2.5-3.2-4.1-5.7-3.5-5.4 1.3-12.6 2-16.7-1.6-4.7-4.2-3.8-12.4-3.7-12.5.3-2.6-1.5-4.9-4.1-5.3-2.6-.3-5 1.5-5.3 4.1-.1.5-1.6 13.2 6.8 20.7 3.7 3.3 8.7 5.1 14.9 5.1z" class="st7"/><path id="path3250" d="M344.5 312.9c-.1.8-.4 1.9-1 2.1-1.3.5-4.5-.3-7.5-2.6-2.1-1.6-5.1-1.1-6.6 1-1.6 2.1-1.1 5.1 1 6.6 3.3 2.4 7.9 4.6 12.3 4.6 1.5 0 3-.2 4.4-.8 2.1-.8 5.8-3.1 6.9-9.2.4-2.1.7-4.1 1-6.1 1.3-8.2 2.6-15.9 6-23.2 1.1-2.4.1-5.2-2.3-6.3-2.4-1.1-5.2-.1-6.3 2.3-4 8.4-5.4 17.2-6.8 25.7-.4 1.9-.7 3.9-1.1 5.9z" class="st7"/><path id="path3252" d="M339.9 349.3h1.9c2.6-.1 4.7-2.2 4.6-4.8-.1-2.6-2.2-4.7-4.8-4.6-12.3.3-21.2-2.6-26.4-8.7-7.4-8.7-5.2-21.3-5.2-21.6.5-2.6-1.2-5-3.8-5.5-2.6-.5-5 1.2-5.5 3.8-.1.7-3.1 17.2 7.2 29.4 6.8 7.9 17.6 12 32 12z" class="st7"/><path id="path3254" d="M477.7 321.8c-14.3 7.2-15.1 25.2-15.1 25.9-.1 2.6 1.9 4.8 4.5 4.9h.2c2.5 0 4.6-2 4.7-4.5 0-.1.7-13.2 10-17.8 7-3.5 21.2-3.5 49.6 16.2 2.2 1.5 5.1 1 6.6-1.2 1.5-2.1 1-5.1-1.2-6.6-25.9-17.9-45.9-23.6-59.3-16.9z" class="st7"/><path id="path3256" d="M428 365.7c-2.4-1-5.2.1-6.2 2.5-5.8 13.8-19.3 11.5-20.8 11.2-2.6-.5-5.1 1.1-5.6 3.6-.6 2.6 1.1 5.1 3.6 5.6 1.5.3 3.4.6 5.5.6 8.4 0 20.2-3.6 26-17.3 1-2.4-.1-5.2-2.5-6.2z" class="st7"/><path id="path3258" d="M530.6 357.5c-5.9 7.1-11.6 10.5-16.9 10.1-8.3-.7-14.1-10.4-14.2-10.5-1.3-2.3-4.2-3-6.5-1.7s-3.1 4.2-1.8 6.5c.3.6 8.2 14.1 21.5 15.3.6.1 1.2.1 1.8.1 8 0 15.8-4.6 23.3-13.6 1.7-2 1.4-5-.6-6.7-2-1.7-4.9-1.6-6.6.5z" class="st7"/><path id="path3260" d="M606.4 232.6c-41.2-48.3-98.2-80.7-160.4-91.4-12.7-5.7-27-9.3-42.3-10.5-1-.1-8.1-.1-13.8-.1-4.3 0-7.4.1-9.6.2-3.8-7.2-12.6-10.1-13.8-10.4-.3-.1-.6-.2-1-.2-20.1-1.8-37.4 13.3-50.5 30.7-53.5 17.6-99.6 51-133.3 96.5-34.7 46.9-53 102.6-53 161.2 0 17.7 1.7 35 5 51.8 0 .4.1.8.2 1.1C155.7 571.2 243.8 657.3 354.6 676c.2 0 .4.1.6.1 14.6 2.4 29.6 3.7 44.9 3.7 19.4 0 38.3-2.1 56.6-5.9.3 0 .5-.1.8-.2 52.5-11.3 99.3-37.9 135.7-74.7.6-.4 1.2-.9 1.6-1.6 47.4-48.9 76.7-115.5 76.7-188.8-.2-64.5-23.2-127-65.1-176zm-284.9-74.5c.2-.3.4-.5.6-.8 11.4-15.5 26-28.8 42.1-27.7 2.3.9 7.6 3.5 8.3 7.2.4 2.6 2.9 4.3 5.5 3.8.3 0 .5-.1.8-.2 3.7-.4 22-.4 24.2-.2 19.6 1.5 37.5 7.3 51.8 16.5 9.2 6 17.1 13.5 23.6 22.4 10.2 14.1 19.7 30.8 12 47.9-.6 1.4-.5 3 .2 4.3.3.4 6.2 11.1 1.4 24.7-4.3 12.1-15.7 22.7-33.9 31.6 4.2-8.7 6.5-14.7 7.1-16.2 6.6-12.4 8-23.2 3.9-32.2-5.3-11.8-18.1-15.8-20.6-16.4-26.5-10.8-71-53.1-71.4-53.5-6-5.7-12.8-8.5-20.3-8.2-18.3.8-35.6 20.3-47.1 33.3-1.5 1.7-2.9 3.3-4.2 4.7-.6.7-1.2 1.4-1.9 2.1-1.3-1.3-2.7-2.5-4.2-3.4 3.2-7.5 11.1-24.5 22.1-39.7zm197.8 150.4c3.7 1.8 11.3 8.2 20.8 17.7 5.4 5.4 12.6 8.6 20.1 8.9 3 .1 5.8 0 8.4-.2 8.8 14.1 28.4 51.2 12.7 80.1-5 9.2-12.6 16.2-21.8 21.8l-.1.1c-6.3 3.8-13.3 7-20.7 9.7 5.7-11.1 3.4-21.5 1.6-26.5-.8-2.4-2.1-4.6-3.7-6.5-25-29.3-50-37.1-66.7-38.4-4.2-.3-8.4-.2-12.5.4-5.8-19.3-2.4-39.5-2.4-39.7.4-2.6-1.3-5-3.9-5.5-2.6-.4-5 1.3-5.5 3.9-.2 1-3.7 22.3 2.5 43.5-9.2 3-17.7 8.3-24.7 15.7-18.1 19.2-19 38.9-16.5 52 0 .6.1 1.3.4 1.9 0 .2.1.3.1.5-1.2-.9-2.4-1.9-3.6-2.8-5.9-5.2-9.5-12.2-10.5-20.2-2.5-20-1-41.5 3.9-61.1.3-.3.6-.7.8-1.1 4.2-7.8 13.4-19.9 20.6-19.7 4.6.1 8.3 6.1 10.6 11 1.1 2.4 3.9 3.4 6.3 2.3s3.4-3.9 2.3-6.3c-4.9-10.7-11.3-16.3-18.9-16.5-4.5-.1-8.8 1.7-12.6 4.5v-.1c6.5-13.7 16.4-23.9 28.7-29.8.4-.1.8-.3 1.2-.6 3.5-1.6 7.1-2.9 10.9-3.8.2 0 .4-.1.6-.1 4.7-1.1 9.7-1.7 14.9-1.7 1 0 2-.3 2.8-.9.1-.1 11.4-8.3 26.1-8.3 5.4 0 11.2 1.1 17.2 4.1 1.3.7 2.9.7 4.2 0 .1 0 .2-.1.2-.1 1.2-.7 2.1-1.9 2.3-3.2.4-1.7 4.1-17 26.8-13 16.7 4.3 44.8 15.2 49.6 26.3 1 2.3.5 5.2-1.4 7.2-3.3 3.7-9.8 9.2-20.4 11.1-.2 0-.4 0-.5.1-2.8.4-5.9.6-9.3.5-5.2-.2-10.1-2.4-13.9-6.2-10.7-10.7-18.6-17.2-23.4-19.5-2.1-1-4.6-.3-5.9 1.6-.1.2-.3.4-.4.7-.7 2.3.4 5.1 2.7 6.2zm2.8 176.2c.7 1.9 2.5 3 4.4 3 .6 0 1.1-.1 1.7-.3 3.7-1.4 7.2-3.3 10.5-5.5-.3 4.8 0 9.3.7 13.5-16.8 14.1-37.1 29.5-61.2 39.3-1.1.4-2.3.9-3.5 1.5-7.8 3.3-18.6 7.8-25.3 5.5-3.2-1.1-6-3.2-9-5.5-.9-.7-1.9-1.4-2.8-2l-24.3-17.1c2.4-.4 4.8-.8 7.3-1.3 2.6-.5 4.2-3 3.7-5.6-.5-2.6-3-4.2-5.6-3.7-28.3 5.7-48.3.7-57.8-2.7-5-1.8-9.3-5.2-12.1-9.3-2-3.1-2.9-5.7-2.4-7.8.4-1.9 1.9-3.7 4.5-5.4 4-2.6 9.1-3.2 13.9-1.9 33.3 9.3 51.1-.5 51.9-.9 2.3-1.3 3-4.1 1.8-6.4-1.3-2.3-4.2-3.1-6.4-1.8-.1 0-4.7 2.5-13.6 3.4-.4-4.3-1-13.2-1.7-22.3.3.3.6.6 1 .9 9 7.9 19.6 12.4 27 14.8 11.4 3.6 23 5.1 34.6 5.1 19.4 0 38.7-4 56.2-8.5 3.4-.9 6.7-1.8 10.1-2.7.1 0 .2-.1.3-.1 7.8-2.3 15.5-4.8 22.8-7.9-3.1 4.8-5.4 9.5-7.1 14.2-.2.1-.4.3-.5.4-4.8 5-10.3 8.7-16.4 11.1-2.4.8-3.6 3.5-2.7 6zM266.6 272.9c8.2-24.8 25.6-45.2 45.8-67.3 1.3-1.4 2.7-3 4.3-4.8 10.4-11.8 26.2-29.5 40.4-30.1 4.8-.2 9.2 1.6 13.3 5.6 1.9 1.8 46.6 44.3 74.7 55.5.2.1.4.2.7.2.1 0 10.7 2.7 14.5 11.2 2.8 6.2 1.5 14.3-3.8 24.1l-.3.6c0 .1-4.2 11.5-12.8 27.1-2.9.8-5.7 1.8-8.5 2.9-.6-.7-1.1-1.5-1.4-2.3-.3-.6-.2-1.4.2-1.9 4.3-4.6 5-9 4.9-11.8-.2-6.2-3.7-11-9.8-12-7-1.2-14.2-.9-20.8 1.8-3.7 1.6-7.1 3.8-10 6.7-1.5 1.4-2.9 3.1-4.2 5-2.7 3.8-4.1 8.3-4.1 13.1v9.4c-.9-.5-1.6-1.2-2.2-2-3.5-4.4-2.7-11.4-2.7-11.4.3-2.6-1.5-5-4.1-5.3-2.6-.3-5 1.5-5.3 4.1-.1.4-1.3 10.9 4.6 18.4 2.5 3.1 5.7 5.3 9.7 6.4v39.2c-.6 2.1-1.2 4.2-1.7 6.3-5.3 4-10.8 7.7-16.4 10.9-18.3 10.5-40 13.4-59.4 8-28.8-7.9-45.9-30.2-50.9-66.1-1.4-12.2.3-26.5 5.3-41.5zm-1.2-21.2c-3-3-6.2-8.8-3.7-18.9 1-4 2.8-7.9 5.4-11.8 7.3-10.7 15-16.9 21.2-17.1 3.1-.1 6 1.4 8.9 4.3-12.6 14.3-23.8 28.2-31.8 43.5zM425 299.6c.4.9.9 1.8 1.5 2.6-11.2 6.6-20.5 16.5-27 28.9v-34.7c0-2.8.8-5.5 2.3-7.7.9-1.4 2-2.6 3.1-3.7 2.1-2 4.5-3.6 7-4.7 3.4-1.4 7.3-2 11.6-1.7 4.2.3 6.4 5.3 3.6 8.5l-.1.1c-3.2 3.4-4 8.2-2 12.4zM513.3 436c-4.6 1.7-10.1.9-14.5-2-13-8.4-24.1-12.5-33.1-12.4-1.5-3.3-3.3-11.1-4.5-19.3 6.2-2.6 11.5-8.1 16-16.4 13.5 2.7 31 10.5 48.9 30.1-1.4 10.7-5.7 17.4-12.8 20zm19.4-7.5c.9 6.4-.5 15.2-10.3 23.4-3 .9-6 1.7-9.1 2.4-24 6.2-51.5 11.5-77.3 5.8 6.7-1.7 12.2-7 16.4-15.8.9-2 1.6-4 2.2-5.7.7-1.9 2.4-5.4 6.7-6.9 4.9-1.7 14.5-1.3 32.4 10.2 6.9 4.5 15.5 5.6 22.9 2.9 5.6-1.9 12.2-6.4 16.1-16.3zm-78.2-34.1c-4.8.8-9.4-1.2-12.6-3.3 7.6-4.4 16.3-6.7 25-6.5-3.7 5.8-7.9 9-12.4 9.8zm-2.6 9.6c.9 5.8 2.3 13.7 4.5 19.5-7 3.2-9.8 9.4-10.7 12-.5 1.5-1.1 3.2-1.8 4.7-3.1 6.6-6.8 10.3-11 10.9-6.3.9-13.5-4.8-16.6-7.9-1.9-10.8-1-27 14.3-43.1 1-1.1 2.1-2.1 3.2-3.1 3.7 2.9 10.3 6.9 18.1 7zm-313.7 4.6c0-109.3 66.9-205.8 167.9-244.5-7.8 12.6-13.2 24.5-15.7 30.4-.8-.1-1.6-.1-2.3-.1-12.1.3-22.3 11.7-28.8 21.2-3.2 4.8-5.5 9.8-6.8 14.8-3.8 15.5 2.6 25.3 8.6 30-1.3 3-2.5 6.1-3.5 9.3-5 15.1-6.9 29.8-5.7 42.7-6.7 4.1-25 16.1-46 35.9-21.1 20-48.4 51.5-65.7 93-1.3-10.5-2-21.5-2-32.7zm74.1 96.2c-2.1-1.6-5-1.2-6.6.9-1.6 2.1-1.2 5 .9 6.6 1.2 1 8.3 6.4 19.5 14.6l-22.4 1.5c-2.6.2-4.6 2.4-4.4 5 .2 2.5 2.3 4.4 4.7 4.4h.3l33.8-2.2c26.9 19.3 67.4 47 108 69.8l4.5 60.4c-104-20-186.3-101.7-207.2-205.4 25.5-77.3 90.3-124.5 110.1-137.5 8.6 44.5 35.2 60.9 56.6 66.8 7.2 2 14.6 2.9 22.1 2.9 15.3 0 30.7-4 44.5-11.9 3-1.7 5.9-3.5 8.8-5.5-2.8 16.7-3.3 34.2-1.2 50.7.4 3.3 1.2 6.5 2.3 9.5-.1.5-.2 1-.1 1.5.4 5.2 2.1 27.7 2.8 36.7-6.1-.2-13.3-1.2-21.6-3.6-3.8-1.1-7.7-1.3-11.4-.7-28.2-29.2-53.1-49.6-53.4-49.8-2-1.7-5-1.4-6.7.7-1.7 2-1.4 5 .7 6.7.2.2 23.1 18.9 49.6 46-.1.1-.3.1-.4.2-4.8 3.1-7.7 6.9-8.6 11.4-1 4.7.3 9.7 3.8 15 4 5.9 9.8 10.4 16.8 13 7 2.6 19.3 5.9 35.9 5.9 1.7 0 3.4 0 5.2-.1l33.3 23.5c.9.6 1.7 1.3 2.6 1.9 3.4 2.6 7 5.2 11.6 6.8 10.1 3.5 22.8-1.8 32.1-5.7 1.2-.5 2.4-1 3.4-1.4 23.8-9.6 43.8-24.3 60.5-38.2 3.8 10.3 12.2 30.2 25.2 43-41.1 67.7-89 78.6-112.2 83.9-2.6.6-4.9 1.1-6.8 1.6-3.9 1.1-8 1.2-11.9.4-77.1-16.2-223.3-128.1-224.7-129.3ZM400 670.5c-13.6 0-26.9-1-39.9-3l-4.2-56.6c24.8 13.4 49.2 24.6 70.1 30.3 6 9.1 12.8 17.5 20.3 25.2-15.1 2.7-30.5 4.1-46.3 4.1zm186.5-78.3c-34.7 35.2-79.2 60.7-129.1 71.9-6.4-6.1-12.4-12.8-17.8-20.1.8.1 1.6.1 2.4.1 3.1 0 6.2-.4 9.2-1.2 1.8-.5 3.9-1 6.4-1.5 22.7-5.2 75.5-17.2 118.8-89.3 2.9-.1 5.7-.4 8.3-1 5.2 16.3 5.8 30.1 1.8 41.1zm0-51.6c-.1 0-.2 0-.2.1-.1 0-.2.1-.2.1-3.3 1.2-6.9 1.7-10.4 1.8-16.3-15-25.6-44.4-26.2-46.6-1.1-4.6-1.4-9.8-.9-15.3.7-8.8 4.5-17.8 11.5-27.2l.1-.2c1.1-1.4 3.4-.8 3.6 1 .3 2.9.4 7.3.1 14.3-.1 2.1-.2 3.7-.1 4.7.2 3 1.7 5.6 4.1 6.9 2.5 1.4 5.2 1 7.1.7.5-.1 1-.1 1.3-.2 1.9 0 3.7.2 5.5.5 15.8 3.4 19.9 28.2 17.7 43.8-1.3 8.3-6.6 13.2-13 15.6zm7.2 7.2c8.2-4.4 13.7-11.9 15-21.5 2.7-19.7-3.2-49.6-25.1-54.4-2.4-.5-5-.8-7.7-.8-.9 0-1.7.1-2.5.3-.1 0-.3 0-.4.1 0-.7.1-1.6.1-2.4.6-11.3.7-21.8-4.5-26.4-.1-.1-.2-.1-.3-.2 8.8-6 16.1-13.4 21.3-22.9 17-31.3-1-69.4-11.2-86.6 9.7-3.1 16-8.7 19.5-12.6 4.3-4.8 5.5-11.6 3-17.3-8.3-19-51.3-30.5-56.1-31.7-.1 0-.2-.1-.3-.1-23-4.1-32.4 7.7-36 15-9.8-3.7-19-3.6-26.8-2 9.5-7.5 16-15.9 19.2-25.2 4.8-13.8 1-25.4-1.1-30.2 8.1-20.9-3-40.4-13.8-55.3-4.7-6.5-10.1-12.2-16.1-17.3 112.6 30.9 191.9 133.1 191.9 252.4 0 65.1-23.9 124.7-63.3 170.5.4-9.5-1.2-20-4.8-31.4z" class="st7"/><path id="path3262" d="M306.1 164.2c-7.8 12.6-13.2 24.5-15.7 30.4-.8-.1-1.6-.1-2.3-.1-12.1.3-22.3 11.7-28.8 21.2-3.2 4.8-5.5 9.8-6.8 14.8-3.8 15.5 2.6 25.3 8.6 30-1.3 3-2.5 6.1-3.5 9.3-5 15.1-6.9 29.8-5.7 42.7-6.7 4.1-25 16.1-46 35.9-21.1 20-48.4 51.5-65.7 93-1.4-10.8-2.1-21.8-2.1-32.9.1-109.1 67-205.6 168-244.3z" class="st8"/><path id="path3264" d="M306.1 164.2c-.1.2-.3.4-.4.7-81.9 44.4-134.8 129.7-136.4 225.3-10.8 14.8-21 32-29 51.4-1.4-10.8-2.1-21.8-2.1-32.9 0-109.3 66.9-205.8 167.9-244.5z" style="fill:#f0efaf;opacity:.7"/><path id="path3266" d="M446.2 666.4c-15 2.7-30.5 4.1-46.2 4.1-13.6 0-26.9-1-39.9-3l-4.2-56.6c24.8 13.4 49.2 24.6 70.1 30.3 6 9.1 12.8 17.5 20.2 25.2z" class="st8"/><path id="path3268" d="M446.2 666.4c-15 2.7-30.5 4.1-46.2 4.1-13.6 0-26.9-1-39.9-3l-4.2-56.6c24.8 13.4 49.2 24.6 70.1 30.3 6 9.1 12.8 17.5 20.2 25.2z" class="st10"/><path id="path3270" d="M598.5 579.1c.4-9.4-1.2-19.9-4.8-31.4 8.2-4.4 13.7-11.9 15-21.5 2.7-19.7-3.2-49.6-25.1-54.4-2.4-.5-5-.8-7.7-.8-.9 0-1.7.1-2.5.3-.1 0-.3 0-.4.1 0-.7.1-1.6.1-2.4.6-11.3.7-21.8-4.5-26.4-.1-.1-.2-.1-.3-.2 8.8-6 16.1-13.4 21.3-22.9 17-31.3-1-69.4-11.2-86.6 9.7-3.1 16-8.7 19.5-12.6 4.3-4.8 5.5-11.6 3-17.3-8.3-19-51.3-30.5-56.1-31.7-.1 0-.2-.1-.3-.1-23-4.1-32.4 7.7-36 15-9.8-3.7-19-3.6-26.8-2 9.5-7.5 16-15.9 19.2-25.2 4.8-13.8 1-25.4-1.1-30.2 8.1-20.9-3-40.4-13.8-55.3-4.7-6.5-10.1-12.2-16.1-17.3 112.6 30.9 191.9 133.1 191.9 252.4 0 65.1-23.9 124.7-63.3 170.5z" class="st8"/><path id="path3272" d="M598.5 579.1c.4-9.4-1.2-19.9-4.8-31.4 8.2-4.4 13.7-11.9 15-21.5 1-7 .9-15.2-.7-23.2 14.2-32.2 22-67.7 22-105.1 0-107.4-64.3-201-159.3-241.1-.3-.2-.5-.5-.8-.7C582.5 187 661.8 289.2 661.8 408.5c0 65.2-23.9 124.8-63.3 170.6z" class="st10"/><path id="path3274" d="M297.2 208.3c-12.6 14.2-23.8 28.1-31.8 43.4-3-3-6.2-8.8-3.7-18.9 1-4 2.8-7.9 5.4-11.8 7.3-10.7 15-16.9 21.2-17.1 3.1 0 6 1.4 8.9 4.4z" class="st0"/><path id="path3276" d="M297.2 208.3c-12.6 14.2-23.8 28.1-31.8 43.4-3-3-6.2-8.8-3.7-18.9 1-4 2.8-7.9 5.4-11.8 7.3-10.7 15-16.9 21.2-17.1 3.1 0 6 1.4 8.9 4.4z" class="st0"/><path id="path3278" d="m297.2 208.3-.2.2c-1.4-.6-2.9-.9-4.3-.9-6.4.1-14.4 6.6-21.9 17.6-2.7 4-4.6 8.1-5.6 12.2-1.5 6.1-1 10.7.3 14.1 0 .1-.1.1-.1.2-3-3-6.2-8.8-3.7-18.9 1-4 2.8-7.9 5.4-11.8 7.3-10.7 15-16.9 21.2-17.1 3.1 0 6 1.4 8.9 4.4z" class="st2"/><path id="path3280" d="M491.9 256.1c-4.3 12.1-15.7 22.7-33.9 31.6 4.2-8.7 6.5-14.7 7.1-16.2 6.6-12.4 8-23.2 3.9-32.2-5.3-11.8-18.1-15.8-20.6-16.4-26.5-10.8-71-53.1-71.4-53.5-6-5.7-12.8-8.5-20.3-8.2-18.3.8-35.6 20.3-47.1 33.3-1.5 1.7-2.9 3.3-4.2 4.7-.6.7-1.2 1.4-1.9 2.1-1.3-1.3-2.7-2.5-4.2-3.4 3.2-7.5 11.1-24.6 22.1-39.7.2-.3.4-.5.6-.8 11.4-15.5 26-28.8 42.1-27.7 2.3.9 7.6 3.5 8.3 7.2.4 2.6 2.9 4.3 5.5 3.8.3 0 .5-.1.8-.2 3.7-.4 22-.4 24.2-.2 19.6 1.5 37.5 7.3 51.8 16.5 9.2 6 17.1 13.5 23.6 22.4 10.2 14.1 19.7 30.8 12 47.9-.6 1.4-.5 3 .2 4.3.3.4 6.2 11.1 1.4 24.7z" style="fill:#883717;opacity:.8"/><path id="path3282" d="M491.9 256.1c-2.6 7.3-7.7 14-15.4 20.2 2.9-3.6 5.1-7.5 6.5-11.4 4.8-13.6-1.1-24.3-1.4-24.7-.7-1.3-.8-2.9-.2-4.3 7.7-17.1-1.7-33.8-12-47.9-6.5-8.9-14.4-16.5-23.6-22.4-14.3-9.3-32.2-15-51.8-16.5-2.2-.1-20.5-.2-24.2.2-.3.1-.5.2-.8.2-2.6.5-5-1.3-5.5-3.8-.7-3.7-5.9-6.3-8.3-7.2-9.4-.6-18.3 3.6-26.4 10.4 10.1-11.5 22.2-20 35.2-19.1 2.3.9 7.6 3.5 8.3 7.2.4 2.6 2.9 4.3 5.5 3.8.3 0 .5-.1.8-.2 3.7-.4 22-.4 24.2-.2 19.6 1.5 37.5 7.3 51.8 16.5 9.2 6 17.1 13.5 23.6 22.4 10.2 14.1 19.7 30.8 12 47.9-.6 1.4-.5 3 .2 4.3.4.3 6.3 11 1.5 24.6z" style="fill:#be6035;opacity:.5"/><path id="path3284" d="M567.7 548.2c-41.1 67.7-89 78.6-112.2 83.9-2.6.6-4.9 1.1-6.8 1.6-3.9 1.1-8 1.2-11.9.4-76.9-16.2-223.1-128.1-224.5-129.3-2.1-1.6-5-1.2-6.6.9-1.6 2.1-1.2 5 .9 6.6 1.2 1 8.3 6.4 19.5 14.6l-22.4 1.5c-2.6.2-4.6 2.4-4.4 5 .2 2.5 2.3 4.4 4.7 4.4h.3l33.8-2.2c26.9 19.3 67.4 47 108 69.8l4.5 60.4c-104-20-186.3-101.7-207.2-205.4 25.5-77.3 90.3-124.5 110.1-137.5 8.6 44.5 35.2 60.9 56.6 66.8 7.2 2 14.6 2.9 22.1 2.9 15.3 0 30.7-4 44.5-11.9 3-1.7 5.9-3.5 8.8-5.5-2.8 16.7-3.3 34.2-1.2 50.7.4 3.3 1.2 6.5 2.3 9.5-.1.5-.2 1-.1 1.5.4 5.2 2.1 27.7 2.8 36.7-6.1-.2-13.3-1.2-21.6-3.6-3.8-1.1-7.7-1.3-11.4-.7-28.2-29.2-53.1-49.6-53.4-49.8-2-1.7-5-1.4-6.7.7-1.7 2-1.4 5 .7 6.7.2.2 23.1 18.9 49.6 46-.1.1-.3.1-.4.2-4.8 3.1-7.7 6.9-8.6 11.4-1 4.7.3 9.7 3.8 15 4 5.9 9.8 10.4 16.8 13 7 2.6 19.3 5.9 35.9 5.9 1.7 0 3.4 0 5.2-.1l33.3 23.5c.9.6 1.7 1.3 2.6 1.9 3.4 2.6 7 5.2 11.6 6.8 10.1 3.5 22.8-1.8 32.1-5.7 1.2-.5 2.4-1 3.4-1.4 23.8-9.6 43.8-24.3 60.5-38.2 3.5 10.4 12 30.2 25 43z" style="fill:#7abcdc"/><path id="path3286" d="M540.8 506.6c-17.2 14.4-41.7 37.1-65.4 46.7-1.1.4-2.3.9-3.5 1.5-9.6 4-22.6 9.6-33.1 5.9-4.7-1.6-8.4-4.4-11.9-7-.9-.7-1.8-1.3-2.7-2l-34.4-24.2c-1.8.1-3.6.1-5.4.1-10.3 0-20.7-1.2-30.7-4-6.7-1.9-12.8-4.5-18.1-9.2-5.2-4.6-9.3-10.4-11.7-16.9-3.1-8.3 1.1-20.9 8.7-25.7.1-.1-2.8-4-2.6-4.1-10.7-14.9-19.4-26.3-25.4-34 8.9 7.8 24.6 21.8 41.8 39.4-.1.1-.3.1-.4.2-4.8 3.1-7.7 6.9-8.6 11.4-1 4.7.3 9.7 3.8 15 4 5.9 9.8 10.4 16.8 13 7 2.6 19.3 5.9 35.9 5.9 1.7 0 3.4 0 5.2-.1l33.3 23.5c.9.6 1.7 1.3 2.6 1.9 3.4 2.6 7 5.2 11.6 6.8 10.1 3.5 22.8-1.8 32.1-5.7 1.2-.5 2.4-1 3.4-1.4 22.8-9.5 42.3-23.5 58.7-37z" class="st14"/><path id="path3288" d="M567.7 548.2c-41.1 67.7-89 78.6-112.2 83.9-2.6.6-4.9 1.1-6.8 1.6-3.9 1.1-8 1.2-11.9.4C374 620.9 265 543.8 226.3 515.3c45.6 29.8 146.9 92.7 205.5 105.1 3.9.8 8 .7 11.9-.4 2-.5 4.2-1 6.8-1.6 22.7-5.2 68.9-15.7 109.3-79.3 2.5 3.3 5.1 6.4 7.9 9.1z" class="st14"/><path id="path3290" d="M350.5 665.7c-4.6-.9-9.2-1.9-13.7-3l-4.3-65.1c4.5 2.7 9 5.2 13.5 7.8z" class="st14"/><path id="path3292" d="M389.1 473.8c-4.7-.2-10.1-.8-16.2-2.2-.8-10.4-2.1-27.9-2.5-32.5 0-.5 0-1.1.1-1.5-1.1-3-1.9-6.2-2.3-9.5-1.8-14-1.7-28.8.1-43.2 2.8-1.2 5.5-2.6 8.2-4.2 3-1.7 5.9-3.5 8.8-5.5-2.8 16.7-3.3 34.2-1.2 50.7.4 3.3 1.2 6.5 2.3 9.5-.1.5-.2 1-.1 1.5.4 5.5 2.1 27.9 2.8 36.9z" class="st14"/><path id="path3294" d="M258.9 342.2c-21.3 14.2-77.5 56.7-109.7 141.4-2.3-7.6-4.2-15.3-5.8-23.2 25.5-77.3 90.3-124.5 110.1-137.5 1.3 7.1 3.2 13.5 5.4 19.3z" style="fill:#ccf1ff"/><path id="path3296" d="M599.3 525c-1.1 8.3-6.4 13.2-12.9 15.7-.1 0-.2 0-.2.1-.1 0-.2.1-.2.1-3.3 1.2-6.9 1.7-10.4 1.8-16.3-15-25.6-44.4-26.2-46.6-1.1-4.6-1.4-9.8-.9-15.3.7-8.8 4.5-17.8 11.5-27.2l.1-.2c1.1-1.5 3.4-.8 3.6 1 .3 2.9.4 7.3 0 14.3-.1 2.1-.2 3.7-.1 4.7.2 3 1.7 5.6 4.1 6.9 2.5 1.4 5.2 1 7.1.7.5-.1 1-.1 1.3-.2 1.9 0 3.7.2 5.5.5 15.8 3.3 19.9 28 17.7 43.7z" class="st0"/><path id="path3298" d="M590.9 314c-3.3 3.7-9.8 9.2-20.4 11.1-.2 0-.4 0-.5.1-2.8.4-5.9.6-9.3.5-5.2-.2-10.1-2.4-13.9-6.2-10.7-10.7-18.6-17.2-23.4-19.5-2.1-1-4.6-.3-5.9 1.6-1.1-1.4-2.4-3.2-4-4.9 1.2-.7 2.1-1.9 2.3-3.2.4-1.7 4.1-17 26.8-13 16.7 4.3 44.8 15.2 49.6 26.3 1.1 2.3.6 5.1-1.3 7.2z" class="st3"/><path id="path3300" d="M590.9 314c-3.3 3.7-9.8 9.2-20.4 11.1-.2 0-.4 0-.5.1-2 .3-4.2.5-6.6.5 6.6-2.5 11-6.4 13.5-9.2 1.8-2.1 2.4-4.9 1.4-7.2-4.9-11.1-32.9-22-49.6-26.3-1.6-.3-3.1-.5-4.5-.6 4-2.3 9.9-3.5 18.5-2 16.7 4.3 44.8 15.2 49.6 26.3 1 2.4.5 5.2-1.4 7.3z" class="st4"/><path id="path3302" d="M575.2 523.6c-11.6-15.5-18.2-36.4-18.7-38.2-.8-3.2-1.1-6.7-1.1-10.5 0-1.6.1-3.2.2-4.9.5-5.7 2.2-11.5 5.4-17.5-.3.1-.6.3-.8.6l-.1.2c-7 9.5-10.8 18.4-11.5 27.2-.5 5.6-.1 10.7.9 15.3.7 2.2 9.9 31.7 26.2 46.6 3.5-.1 7.1-.6 10.4-1.8.1 0 .2-.1.2-.1.1 0 .1 0 .2-.1 5.8-2.2 10.7-6.4 12.4-13.4-12.6 8.9-21.5-.7-23.7-3.4z" class="st1"/></g></svg>