<svg xmlns="http://www.w3.org/2000/svg" xml:space="preserve" id="svg168" width="64" height="64" version="1.1"><style id="style395" type="text/css">.st1,.st4{opacity:.5}.st0{fill:#fff}.st1{fill:#d9d9d9}.st2{fill:#b9603c}.st4,.st5{fill:#f4a94e}.st5{opacity:.5}.st6{fill:#f1929a}.st7{fill:#e3676a}.st8{fill:#fdda9f}.st9{fill:#2b1911}</style><circle id="circle307" cx="32" cy="32" r="32" fill="#fff" data-name="Ellipse 1"/><g id="g2774" transform="matrix(.0866 0 0 .0866 -2.623 -2.703)"><path id="path2716" d="M546.5 341.1c0 .2-.1.4-.1.5 0 .2-.1.3-.1.5v.2c-.1 2.6-.3 5.3-.7 8-1.9 13.8-7.1 25.9-14.6 34.2-.8.9-1.7 1.8-2.8 2.8-1.4 1.3-2.8 2.4-4.3 3.5-12.2 8.8-27.2 10.9-38.2 11.1-8.5.1-17.5-.9-26.6-3-13.8-3.2-30.2-13.7-39.9-22.7.5-4.6.7-9.5.8-14.6l1.2 1.5c2.8 2.9 6.7 4.4 11.5 4.4 1.4 3 4.2 7.5 9.1 9.7 1.9.8 3.9 1.2 5.9 1.2 3.2 0 6.6-1 10.1-2.9 1.9-1 2.7-3.4 1.6-5.4-1-1.9-3.4-2.7-5.4-1.6-3.7 1.9-6.7 2.4-9.1 1.4-2.8-1.2-4.5-4.3-5.3-6.3l1.7-3.6 4.9-1.6c2.9-.9 3.2-4.8.6-6.3l-8.5-4.6c-2.6-1.4-5.7 1-4.9 3.8l1.1 4.4c0 .1-.1.1-.1.2l-1.6 3.5c-2.6 0-4.6-.7-6-2-2.6-2.6-2.2-7.1-2.2-7.3.2-2.2-1.4-4.1-3.5-4.4-.6-.1-1.2 0-1.8.2-.4-5.3-1-10.8-1.8-16.4 3.2 2 6.8 3 10.9 3 3.2 0 6.7-.6 10.4-1.9 3.3-1.1 5.1-4.6 4-7.9-1.1-3.3-4.6-5.1-7.9-4-3.3 1.1-7.9 2-10.8.1-2.9-1.9-3.8-6.4-3.9-8-.2-3.4-3.1-6-6.6-5.9-.3 0-.6 0-.8.1-.5-2.1-1.1-4.3-1.7-6.4-.1-.3 1.1-1.8 1.3-2.1.5-.7.9-1.4 1.4-2.1 1-1.4 2-2.7 3.1-4 2.2-2.6 4.5-5.1 7.1-7.3 1.5-1.3 3-2.6 4.6-3.9 2.3-1.8 4.7-3.5 7.3-5 4.2-2.4 8.6-4.3 13.2-5.7 6.2-1.9 12.7-3 19.3-3.3h1.8c6.5-.2 13.2.5 19.7 2 1.6.4 3.1.8 4.6 1.3 10 3 19.2 8.2 27 15.2.3.3.5.6.9.9.2.4 25.6 21.8 24.1 56.5z" class="st0"/><path id="path2718" d="M546.5 341.1c0 .2-.1.4-.1.5 0 .2-.1.3-.1.5v.2c-.1 2.6-.3 5.3-.7 8-1.9 13.8-7.1 25.9-14.6 34.2-.8.9-1.7 1.8-2.8 2.8-1.4 1.3-2.8 2.4-4.3 3.5-12.2 8.8-27.2 10.9-38.2 11.1-8.5.1-17.5-.9-26.6-3-13.8-3.2-30.2-13.7-39.9-22.7v-.1c9.3 6.9 21.1 13.4 31.5 15.8 9.1 2.1 18 3.1 26.6 3 11-.2 26-2.3 38.2-11.1 1.5-1.1 2.9-2.2 4.3-3.5 1.1-1 2-1.9 2.8-2.8 7.5-8.3 12.7-20.4 14.6-34.2.4-2.7.6-5.4.7-8v-.2c0-.2 0-.3.1-.5 0-.2.1-.4.1-.5 1.3-30.2-17.8-50.4-23-55.2 2.2 1.5 4.3 3.2 6.3 5 .3.3.5.6.9.9.3.2 25.7 21.6 24.2 56.3z" class="st1"/><path id="path2720" d="M546.5 341.1c0 .2-.1.4-.1.5 0 .2-.1.3-.1.5v.2c-.1 2.6-.3 5.3-.7 8-1.9 13.8-7.1 25.9-14.6 34.2-.8.9-1.7 1.8-2.8 2.8-1.4 1.3-2.8 2.4-4.3 3.5-8.3.8-16.5.1-24.8-2.7-33.4-11.5-53.4-54.6-37-86.9 7-13.8 18.6-25.5 32.3-32.4 10 3 19.2 8.2 27 15.2.3.3.5.6.9.9.3.1 25.7 21.5 24.2 56.2z" class="st2"/><path id="path2722" d="M546.5 341.1c0 .2-.1.4-.1.5 0 .2-.1.3-.1.5v.2c-.1 2.6-.3 5.3-.7 8-1.9 13.8-7.1 25.9-14.6 34.2-.8.9-1.7 1.8-2.8 2.8-1.4 1.3-2.8 2.4-4.3 3.5-9.9.8-14.1 0-19.1-1.1 1.9-.1 4-1.8 5.5-2.8 6-4 10.3-10.5 14.3-16.4 3.7-5.5 6.7-11.7 7.8-18.3 0-.2.1-.4.1-.6.4-2.6.6-5.2.7-7.7v-.1c0-.2 0-.3.1-.5 0-.2.1-.3.1-.5 1.4-33.1-23.3-53.6-23.6-53.8-.3-.3-.6-.5-.8-.8-7-6.1-15.1-10.8-24-13.7 3-2.2 6.2-4.1 9.4-5.7 10 3 19.2 8.2 27 15.2.3.3.5.6.9.9.3.1 25.7 21.5 24.2 56.2z" style="fill:#d68859;opacity:.8"/><path id="path2724" d="m306.5 316.7-5.4 19.4c-.7 2.4-1.3 4.9-1.8 7.3-18.8 12.1-46.7 16.9-50 17.4 2-.4 4-.9 6-1.4 4-1 6.4-5 5.4-8.9-1-4-5-6.4-8.9-5.4-13.9 3.4-61.4 12.1-88.5-18.8-12-13.7-18.5-35-15.1-53.4 21.2-2.6 30.3-17.2 34-26.2 3.6.4 6.8.9 8.9 1.2l2.3.4c7.7 1.3 15.2-1 20.6-6.2-1.6 28.8 4.9 91.1 92.5 74.6z" class="st0"/><path id="path2726" d="M513.8 521.7c-6-30-24.7-55.7-54.2-74.3-.4-.3-.8-.5-1.2-.8l-3.7-1.7c-.2-.1-.4-.2-.5-.3-13.3 3.6-24.1 11.6-30.7 17.6l-.5.5c-6.7 6-13.6 12.2-23.7 14.6-1.6.4-3.2.6-4.8.6-7 0-13.7-3.6-17.9-10-5.8-8.8-4.9-18.5-1.9-27.5-3.4 1.1-6.9 2.1-10.6 2.8-3 .6-5.9.8-8.9.8-6 0-12-1.2-17.5-3.5-15.8-6.6-42.2-24.9-41.4-72.5.1-7.9 1.2-16.2 3-24.6-18.8 12.1-46.7 16.9-50 17.4H249c-12 2.4-23.6 3.3-34.5 2.7l-3.8.3c6.1 22.5 25 75.9 71.3 107.7-.2-16.8-3.4-24.1-3.5-24.3-1.8-3.7-.3-8.1 3.3-9.9 3.6-1.8 8.1-.3 9.9 3.3.4.8 6.5 13.8 4.6 43.6 0 .6 0 1.1-.1 1.7-1.1 15-4.2 34.2-11.1 58 5.6.5 11 2.3 15.8 5.5.5.4 1.1.7 1.6 1.1 3.3 2.4 4 7 1.6 10.3-2.4 3.3-7 4-10.3 1.6-.3-.2-.7-.5-1-.7-8.7-5.8-18.1-2.3-22.9.3-9.3 5-16.8 14.8-16.8 21.8 0 6.7 5.4 12.1 12.1 12.1h26.4c13 0 24.5-8.8 27.9-21.4l24.1-88.8c1.1-3.9 5.1-6.3 9.1-5.2 3.9 1.1 6.3 5.1 5.2 9.1l-13.6 50.3c.5.7 1.2 1.5 1.9 2.4.1.2.3.4.5.6 1.4 1.7 3.2 3.7 5.4 5.9l.8.8c2.3 2.2 4.9 4.6 7.8 6.9.3.2.6.5.9.7l1.2.9c.3.3.6.5 1 .7 1.4 1 2.9 2.1 4.5 3.1.5.3.9.6 1.4.9 1.4.9 2.9 1.8 4.5 2.6 4.7-3.4 9.9-5.8 14.8-7.2 1.9-.5 3.8-1 5.6-1.3-.1 0-5.3 2.2-5.4 2.2-8.5.2-39.9 26.4-23.1 25.3 8.6-.6 4 .9 2.9 9.4-.2 1.8 5.6-.4 6.1.2l.4.4.4.4c.1.1.2.2.4.3l1.2.6c.2.1.3.1.5.1.1 0 .3 0 .4.1h87.5c.3 0 .6 0 1 .1 4.3-.1 8.5-.6 12.7-1.6 13.2-3.3 24.3-12.1 30.3-24.2 8-16 6.5-35.2 3.9-48.5zm-81-39.4c-11.5 4.4-20.9 13.7-25.9 25.7-4.7 11.5-4.7 23.6.1 34.2.3.6.5 1.1.8 1.7.1.3.3.6.5.9 0 .1.1.1.1.2.2.4.5.9.7 1.3.3.5.5 1 .8 1.5.3.6.6 1.1 1 1.6.7 1.2 1.5 2.3 2.2 3.4-2-.5-3.9-1-5.4-1.1-3.1-.2-6.9 3.4-10 4.4-1.5-2.5-2.9-5.1-4.1-7.8-.3-.5-.5-1.1-.7-1.6-.2-.4-.4-.9-.5-1.3-.3-.9-.6-1.7-.9-2.6-.4-1.3-.8-2.5-1.1-3.8-.2-.9-.4-1.9-.6-2.8-.1-.4-.2-.9-.3-1.3-.1-.5-.2-.9-.2-1.4-.1-.5-.1-.9-.2-1.4-.1-.4-.1-.8-.1-1.2-.1-1-.2-1.9-.2-2.9 0-.9-.1-1.8-.1-2.7 0-7.7 1.5-15.4 4.6-23 6.5-15.7 19-28 34.3-33.8 3.8-1.4 8.1.5 9.5 4.3 1.4 3.8-.5 8-4.3 9.5z" class="st4"/><path id="path2728" d="M411.7 555s26.3 22.2 10.7 48.3l-24.8 1.7-17.6-2.8s-10-6.1-10.3-7.5c-.3-1.5 2.2-11.9 2.9-13.2.7-1.3 13.9-23.4 14.3-23.4.6.1 24.8-3.1 24.8-3.1z" class="st0"/><path id="path2730" d="M281.2 488.7c-1.4 14.7-4.8 33.7-12.1 57.7-2.1.8-4.2 1.7-6.2 2.8-14.3 7.7-24.6 22.3-24.6 34.8 0 4.3 1 8.4 2.9 12.1h-22.1c-3.1.1-6 .1-7.9-.8-4-1.9-3.2-9-1.8-14.6 3.1-12.7 13-21 25.2-21 3.5 0 6.5-2.5 7.2-5.9l17.1-81.4c7 6.1 14.5 11.5 22.3 16.3z" class="st4"/><path id="path2732" d="M220.8 552.7s30.6-1.2 50.1 26.5l-16.1 16.2s-12.4 9.9-13.2 10.1c-.8.2-16.4.4-17.2 0-.8-.4-24.2-1.7-24.2-1.7s-2.7-4.7-2.7-7.8c0-3.1.4-23.2 1.4-23.8 1-.6 8.5-16.1 9.3-16.1.8 0 12.6-3.4 12.6-3.4z" class="st0"/><path id="path2734" d="M278.5 552.7s30.6-1.2 50.1 26.5l-16.1 16.2s-12.4 9.9-13.2 10.1c-.8.2-16.4.4-17.2 0-.8-.4-24.2-1.7-24.2-1.7s-8.3-5.3-8.3-8.4c0-3.1.4-23.2 1.4-23.8 1-.6 8.5-16.1 9.3-16.1.8.1 18.2-2.8 18.2-2.8z" class="st0"/><path id="path2736" d="M509.8 570.3c-6.1 12.1-17.1 20.9-30.3 24.2-1.7.4-3.4.8-5.1 1 8-4.5 14.5-11.2 18.7-19.6 8-16.1 6.6-35.3 3.9-48.6-6-30-24.7-55.7-54.2-74.3-.4-.3-.8-.5-1.2-.8L439 451c4.5-2.5 9.6-4.8 15.1-6.3.2.1.4.2.5.3l3.7 1.7c.4.3.8.5 1.2.8 29.5 18.6 48.2 44.3 54.2 74.3 2.7 13.2 4.2 32.4-3.9 48.5z" class="st5"/><path id="path2738" d="M402 389.2c-3.2 12.5-8.8 22-16.8 28.7l-.3.3c-6.4 5.2-14.3 8.7-23.8 10.5-6.2 1.2-12.4.6-17.9-1.8-15.1-6.3-33-21.7-32.3-58.7.2-8.9 1.6-18.4 4.4-28.2l13.1-46.7c1.1-3.9-1.2-8-5.1-9.1-3.9-1.1-8 1.2-9.1 5.1l-7.6 27.3c-87.6 16.5-94.1-45.8-92.6-74.5.8-.7 1.5-1.5 2.1-2.3l10.9-13.7c4.3-5.4 9.7-9.8 15.7-12.8 28-14.1 64.1-10.6 96.6 9.4 31.8 19.6 53.8 54.2 61.8 97.4 5.2 28 5.5 51.3.9 69.1z" class="st4"/><path id="path2740" d="M402 389.2c-3.2 12.5-8.8 22-16.8 28.7l-.3.3c-6.4 5.2-14.3 8.7-23.8 10.5-5 1-10.1.7-14.8-.6 8.1-1.9 15-5.2 20.7-9.8l.3-.3c8-6.7 13.6-16.2 16.8-28.7 4.6-17.8 4.3-41.1-1-69.2-8-43.2-30-77.8-61.8-97.4-16.3-10-33.6-15.9-50.2-17.5 21.9-2.1 45.8 3.8 68 17.5 31.8 19.6 53.8 54.2 61.8 97.4 5.4 28 5.7 51.3 1.1 69.1z" class="st5"/><path id="path2742" d="M644.1 551.4c-7 14.7-18.1 26.4-32.1 33.8-10.1 5.3-21.4 8.9-34 10.7 7.6-4.9 13.5-10.4 17.9-15.6 5-1.6 9.6-4.5 11-5.5 23.2-12.4 36-38.5 33.6-68.2-1.6-19.4-10.6-36.2-20.2-53.9-4.4-8.1-8.9-16.5-12.7-25.2-5.5-12.8-4.7-27.2 2.2-38.5 3.1-5.1 7.2-9.5 12.3-13 2.6-1.8 6.3-1.2 8.1 1.5.9 1.3 1.2 2.8.9 4.3-.3 1.5-1.1 2.9-2.4 3.7-3.8 2.6-6.8 5.8-9 9.5-5 8.1-5.5 18.6-1.5 27.9 3.6 8.2 7.8 16 12.2 24.3 9.7 18 19.7 36.6 21.6 58.4 1.5 16.2-1.3 32.1-7.9 45.8z" class="st0"/><path id="path2744" d="M595.9 397.6s13.9 10.6 31.3 4.3l9.6-13.8s-1.5-9.6-2.6-10.4c-1.2-.9-11.3-11.3-11.3-11.3s-9.3 8.2-11.3 8.7c-2.1.4-15.7 22.5-15.7 22.5z" class="st2"/><path id="path2746" d="M462.2 253.5c-12.9 1.4-23 5.2-30.2 9 1.2-10.8 4.6-26 13.7-34.2 4.7 4.7 12.6 13.1 16.5 25.2z" class="st6"/><path id="path2748" d="M432 262.5c1.2-10.8 4.6-26 13.7-34.2.7.7 4.6 2.2 5.4 3.1-5.9 4.3-12.8 21.6-10.7 28.4" class="st7"/><path id="path2750" d="M573.8 281.4c-.8 7.9-4 23.5-16 42.8-2.6-15-9.2-27-15.2-35.3 8.1-3.1 21.1-7.3 31.2-7.5z" class="st6"/><path id="path2752" d="M542.7 288.9c8.1-3 21-7.3 31.2-7.5-.2 1.9-.5 4.3-1.1 7.1-7 1-21.5 5.8-26.6 7.3" class="st7"/><path id="path2754" d="m595.1 552.1-.3.9c-.2.6-2.1 7.4-8.4 15.5-.4.4-.7.8-1 1.3-7.8 9.5-21.6 20.5-45.5 25.3-7.4 1.5-15.5 2.2-23.9 2.1l-9.4-.1c6.8-5.4 12.4-12.3 16.4-20.2 9.9-19.8 8.3-42.6 5.2-58.1-1.3-6.4-3-12.6-5.3-18.6 1.9-4.8 7.6-16.1 19.2-18 4-.7 6.8-4.5 6.1-8.5-.7-4-4.5-6.8-8.5-6.1-11.7 2-19.6 9.2-24.5 16.1-8.3-14.8-19.9-28.1-34.5-39.5.6.2 1.3.3 1.9.5 3.9 1.1 8-1.1 9.2-5 1.1-3.9-1.1-8-5-9.2-24.5-7.2-50.5.2-73.4 20.7l-.5.5c-5.8 5.2-10.8 9.7-17.3 11.3-3 .7-5.6-1.3-6.9-3.2-4.7-7.1 1-18.7 5.6-28.1.6-1.3 1.2-2.5 1.8-3.7 9.6-8.6 16.4-20.4 20.2-35 .2-.8.4-1.6.6-2.3 11.1 8.8 26 17.3 39.4 20.5 9.5 2.2 18.8 3.3 27.8 3.3h1.8c9.3-.1 21.1-1.6 32.6-6.4.2.8.5 1.6 1 2.3 15.9 24.1 47.8 49 50.3 51 45.6 37.8 26.1 88.6 25.3 90.7z" class="st0"/><path id="path2756" d="M491.6 440.9c-1 2.1-2.9 3.5-5.1 4 2.5-.6 4.6-2.5 5.3-5.1 1.1-3.9-1.1-8-5-9.2-24.5-7.2-50.5.2-73.4 20.7l-.5.5c-5.8 5.2-10.8 9.7-17.3 11.3-3 .7-5.6-1.3-6.9-3.2-2.5-3.7-2.1-8.7-.5-13.9 1.1 1.2 2.7 2 4.6 1.9 6.7-.5 12.4-4 18.9-8.2l.6-.4c25.9-16.4 52.8-19.3 75.8-8.1 3.8 1.6 5.3 6 3.5 9.7z" class="st1"/><path id="path2758" d="M508.2 408s-11.5 90.5 97.6 128.8l-5.8-35.1-4.1-21.2-40.9-35.1-25-34.2-6.2-7.5z" class="st2"/><path id="path2760" d="M350.1 493.9s39.1 22.9 43.7 42.6l6.6 18.2-6.6.3s-10 6.4-13.5 7.5c-3.5 1.2-8.1 12.2-8.5 12.2-.4 0-14-7-15.1-7.4-1.2-.4-16.3-11.6-16.3-11.6s-5.8-8.5-4.6-11.2c1.1-2.6 14.3-50.6 14.3-50.6z" class="st8"/><path id="path2762" d="M247.7 352.2s5.2 42.7 40.6 94.4l3.4 36.5-10.5-4.3-39.4-36-28.7-46.8-7-31 2.1-7z" class="st8"/><path id="path2764" d="M286.5 254.2c-3.9-1.3-8 .9-9.3 4.7-.8 2.6-2.8 4.7-5.3 5.7-2.3.9-4.8.9-7.1 0s-4-2.7-5-5c-.7-1.7-.9-3.5-.5-5.3.8-4-1.8-7.9-5.8-8.7-4-.8-7.9 1.8-8.7 5.8-.9 4.7-.5 9.4 1.3 13.8 2.4 5.9 7 10.6 13 13 3 1.2 6.1 1.9 9.2 1.9 3.1 0 6.2-.6 9.1-1.8 6.5-2.7 11.5-8.1 13.7-14.8 1.4-3.9-.7-8.1-4.6-9.3z" class="st9"/><path id="path2766" d="M480.7 365.9c3.7 2.5 8 3.8 12.8 3.8 3.7 0 7.6-.7 11.9-2.1 3.3-1.1 5.1-4.6 4-7.9-1.1-3.3-4.6-5.1-7.9-4-6.1 2-10.7 2-13.7-.1-3.8-2.5-4.9-8.3-5.1-10.3-.2-3.4-3.2-6.1-6.6-5.9-3.4.2-6.1 3.1-5.9 6.6.1 1.4 1 13.4 10.5 19.9z" class="st9"/><path id="path2768" d="M666.8 504.4c-2.1-24.9-12.9-44.9-23.3-64.3-4.3-8-8.4-15.5-11.7-23.1-2.1-4.9-1.9-10.3.5-14.3 1.2-1.9 2.8-3.6 4.9-5 4.5-3.1 7.5-7.8 8.5-13.3 1-5.4-.2-10.9-3.3-15.4-6.5-9.3-19.3-11.6-28.7-5.2-6.8 4.7-12.4 10.6-16.5 17.4-9.4 15.4-10.6 34.9-3.2 52.1 4 9.3 8.7 17.9 13.2 26.4 8.8 16.3 17.1 31.7 18.5 48.1 1.6 18.9-4.4 35.8-15.9 46.7 1.8-5.6 5.1-18.1 4.7-33.8-.5-19.4-7.1-47.5-35.4-71l-.2-.2c-.3-.3-32.3-25-47.1-47.5-.3-.4-.5-.7-.9-1.1 2-1.4 3.9-2.9 5.7-4.6 1.4-1.3 2.6-2.5 3.6-3.7 9.1-10 15.4-24.5 17.7-40.8.1-.9.2-1.7.3-2.6v-.1c.2-1.6.4-3.1.5-4.6 23-29.7 27-54.9 27.7-64.5.2-2.9-.8-5.6-2.7-7.8-2-2.2-4.8-3.5-7.7-3.5-14.5-.5-33.6 6.5-41.9 9.9-11.4-11.7-25.7-19.7-41.5-23.4-3.7-.9-7.4-1.5-11.2-1.9-.4-.1-.7-.2-1.1-.2-1.8-.1-3.6-.2-5.3-.3-4.5-17.7-16.3-29.3-21.5-34.6l-.4-.4c-4.1-4.1-10.2-3.9-15.3.5-16.6 14.3-18.8 43.2-19 53-4.7 3.8-8.8 7.9-12.5 12.5-12.2-31.9-32.6-57.6-59.3-74-36.9-22.7-78.4-26.4-111-10-7.8 3.9-14.9 9.8-20.6 16.8l-10.9 13.7c-2 2.6-5.2 3.7-8.8 3.1l-2.3-.4c-14.4-2.3-32.4-3.8-43.4 5.7l-.4.3c-26.4 26-20.1 71 2.5 96.7 10.7 12.2 25.4 20.6 42.5 24.7 1.9 8.2 6.7 26.1 16.5 46.9 9.5 20.2 21.5 37.9 35.3 52.6L228.5 545c-16.2 2.5-29.2 14.6-33.5 31.7-5.2 20.9 3.9 28.7 9.7 31.5 4.2 2 8.5 2.3 12.2 2.3h74.5c19.7 0 37.1-13.3 42.2-32.3l5.8-21.3c5 5.3 12.1 11.7 21.1 17.5 1 .6 1.9 1.2 2.9 1.8-2.2 3.6-3.8 7.5-4.4 11.9-.6 4.1.2 8.2 2.2 11.8.1.1.2.3.2.4.6 1.1 1.4 2.2 2.3 3.2.3.4.7.8 1.1 1.1l.6.6c.2.2.5.4.7.6 3.1 2.5 6.8 4.1 10.8 4.5h.3c.6.1 1.2.1 1.9.1h59.5c.3.1.6.1 1 .1l70.9 1.1c.4.1.8.1 1.2.1H558c23 0 43.5-4.6 60.9-13.8 16.8-8.9 30.2-22.9 38.6-40.5 7.7-15.7 10.9-34.2 9.3-53zM542.7 288.9c8.1-3 21-7.3 31.2-7.5-.8 7.9-4 23.5-16 42.8-2.6-15-9.2-27-15.2-35.3zm-97-60.6c4.8 4.8 12.7 13.2 16.5 25.2-12.9 1.4-23 5.2-30.2 9 1.2-10.8 4.6-26.1 13.7-34.2zm-33.2 68.6c.5-.7.9-1.4 1.4-2.1 1-1.4 2-2.7 3.1-4 2.2-2.6 4.5-5.1 7.1-7.3 1.5-1.3 3-2.6 4.6-3.9 2.3-1.8 4.7-3.5 7.3-5 4.2-2.4 8.6-4.3 13.2-5.7 6.2-1.9 12.7-3 19.3-3.3h1.8c6.5-.2 13.2.5 19.7 2 1.6.4 3.1.8 4.6 1.3 10 3 19.2 8.2 27 15.2.3.3.5.6.9.9.3.2 25.7 21.6 24.2 56.3 0 .2-.1.4-.1.5 0 .2-.1.3-.1.5v.2c-.1 2.6-.3 5.3-.7 8-1.9 13.8-7.1 25.9-14.6 34.2-.8.9-1.7 1.8-2.8 2.8-1.4 1.3-2.8 2.4-4.3 3.5-12.2 8.8-27.2 10.9-38.2 11.1-8.5.1-17.5-.9-26.6-3-13.8-3.2-30.2-13.7-39.9-22.7.5-4.6.7-9.5.8-14.6l1.2 1.5c2.8 2.9 6.7 4.4 11.5 4.4 1.4 3 4.2 7.5 9.1 9.7 1.9.8 3.9 1.2 5.9 1.2 3.2 0 6.6-1 10.1-2.9 1.9-1 2.7-3.4 1.6-5.4-1-1.9-3.4-2.7-5.4-1.6-3.7 1.9-6.7 2.4-9.1 1.4-2.8-1.2-4.5-4.3-5.3-6.3l1.7-3.6 4.9-1.6c2.9-.9 3.2-4.8.6-6.3l-8.5-4.6c-2.6-1.4-5.7 1-4.9 3.8l1.1 4.4c0 .1-.1.1-.1.2l-1.6 3.5c-2.6 0-4.6-.7-6-2-2.6-2.6-2.2-7.1-2.2-7.3.2-2.2-1.4-4.1-3.5-4.4-.6-.1-1.2 0-1.8.2-.4-5.3-1-10.8-1.8-16.4 3.2 2 6.8 3 10.9 3 3.2 0 6.7-.6 10.4-1.9 3.3-1.1 5.1-4.6 4-7.9-1.1-3.3-4.6-5.1-7.9-4-3.3 1.1-7.9 2-10.8.1-2.9-1.9-3.8-6.4-3.9-8-.2-3.4-3.1-6-6.6-5.9-.3 0-.6 0-.8.1-.5-2.1-1.1-4.3-1.7-6.4-.1-.2 1-1.6 1.2-1.9zm-174.3 287c0 4.3 1 8.4 2.9 12.1H219c-3.1.1-6 .1-7.9-.8-4-1.9-3.2-9-1.8-14.6 3.1-12.7 13-21 25.2-21 3.5 0 6.5-2.5 7.2-5.9l17.1-81.4c7 6.1 14.5 11.6 22.3 16.3-1.4 14.7-4.8 33.7-12.1 57.7-2.1.8-4.2 1.7-6.2 2.8-14.2 7.7-24.6 22.3-24.6 34.8zm241.3 10.6c-4.2 1-8.5 1.6-12.7 1.6-.3 0-.6-.1-1-.1h-87.5c-.1 0-.3 0-.4-.1-.2 0-.4-.1-.5-.1-.4-.1-.8-.3-1.2-.6-.1-.1-.2-.2-.4-.3-.2-.1-.3-.2-.4-.4l-.4-.4c-.2-.3-.5-.6-.7-1.1-1.1-1.9-1.6-4.2-1.3-6.7 1.4-13.2 12.4-21.7 19.4-24.1 9.9-3.5 18.1-2.9 28.4-2.1 3.5.3 7.1.5 10.9.7 2.3.1 4.4-.9 5.8-2.5-1.2-1-2.7-1.6-4.4-1.7h-.1c-3.6-.1-7.1-.3-10.4-.5-2.5-.1-5-.3-7.4-.4-.7-1-1.4-1.9-2.1-3-.7-1.1-1.5-2.2-2.2-3.4-.3-.5-.7-1.1-1-1.6-.3-.5-.6-1-.8-1.5-.2-.4-.5-.9-.7-1.3 0-.1-.1-.1-.1-.2-.2-.3-.3-.6-.5-.9-.3-.6-.5-1.1-.8-1.7-4.8-10.6-4.8-22.7-.1-34.2 4.9-11.9 14.4-21.3 25.9-25.7 3.8-1.4 5.7-5.7 4.3-9.5-1.5-3.8-5.7-5.7-9.5-4.3-15.3 5.8-27.8 18.1-34.3 33.8-3.1 7.5-4.6 15.3-4.6 23 0 .9 0 1.8.1 2.7 0 1 .1 2 .2 2.9 0 .4.1.8.1 1.2 0 .5.1.9.2 1.4.1.5.1.9.2 1.4.1.5.2.9.3 1.3.2.9.4 1.9.6 2.8.3 1.3.7 2.6 1.1 3.8.3.9.6 1.7.9 2.6.2.4.3.9.5 1.3.2.5.5 1.1.7 1.6 1.2 2.7 2.6 5.4 4.1 7.8.1.1.1.2.2.3-1.2.2-2.3.4-3.5.6-1.8.4-3.7.8-5.6 1.3-4.9 1.4-10.1 3.8-14.8 7.2-1.5-.9-3-1.7-4.5-2.6-.5-.3-1-.6-1.4-.9-1.6-1-3-2.1-4.5-3.1-.3-.2-.7-.5-1-.7l-1.2-.9c-.3-.2-.6-.5-.9-.7-3-2.4-5.6-4.7-7.8-6.9l-.8-.8c-2.1-2.2-3.9-4.2-5.4-5.9-.2-.2-.3-.4-.5-.6-.8-.9-1.4-1.7-1.9-2.4l13.6-50.3c1.1-3.9-1.3-8-5.2-9.1-3.9-1.1-8 1.3-9.1 5.2l-24.1 88.8c-3.4 12.6-14.9 21.4-27.9 21.4H265c-6.7 0-12.1-5.4-12.1-12.1 0-7.1 7.5-16.8 16.8-21.8 4.8-2.6 14.2-6.1 22.9-.3.3.2.7.5 1 .7 3.3 2.4 7.9 1.7 10.3-1.6 2.4-3.3 1.7-7.9-1.6-10.3-.5-.4-1.1-.8-1.6-1.1-4.8-3.2-10.2-5-15.8-5.5 6.8-23.8 10-43 11.1-58 .1-.6.1-1.1.1-1.7 1.9-29.7-4.2-42.7-4.6-43.6-1.8-3.7-6.2-5.2-9.9-3.3-3.7 1.8-5.2 6.2-3.3 9.9.1.1 3.3 7.5 3.5 24.3-46.3-31.7-65.2-85.2-71.3-107.7-.1-.2-.1-.4-.2-.6 1.3.1 2.6.2 4 .3 10.9.6 22.5-.3 34.5-2.7H249.1c2-.4 4-.9 6-1.4 4-1 6.4-5 5.4-8.9-1-4-5-6.4-8.9-5.4-13.9 3.4-61.4 12.1-88.5-18.8-12-13.7-18.5-35-15.1-53.4 21.2-2.6 30.3-17.2 34-26.2 3.6.4 6.8.9 8.9 1.2l2.3.4c7.7 1.3 15.2-1 20.6-6.2.8-.7 1.5-1.5 2.1-2.3l10.9-13.7c4.3-5.4 9.7-9.8 15.7-12.8 28-14.1 64.1-10.6 96.6 9.4 31.8 19.6 53.8 54.2 61.8 97.4 5.2 28.1 5.6 51.4 1 69.2-3.2 12.5-8.8 22-16.8 28.7l-.3.3c-6.4 5.2-14.3 8.7-23.8 10.5-6.2 1.2-12.4.6-17.9-1.8-15.1-6.3-33-21.7-32.3-58.7.2-8.9 1.6-18.4 4.4-28.2l13.1-46.7c1.1-3.9-1.2-8-5.1-9.1-3.9-1.1-8 1.2-9.1 5.1l-7.6 27.3-5.4 19.4c-.7 2.4-1.3 4.9-1.8 7.3-1.9 8.4-2.9 16.7-3 24.6-.8 47.7 25.6 65.9 41.4 72.5 5.5 2.3 11.4 3.5 17.5 3.5 2.9 0 5.9-.3 8.9-.8 3.7-.7 7.2-1.6 10.6-2.8-2.9 9-3.9 18.7 1.9 27.5 4.2 6.4 10.9 10 17.9 10 1.6 0 3.2-.2 4.8-.6 10.2-2.4 17.1-8.6 23.7-14.6l.5-.5c6.6-6 17.4-13.9 30.7-17.6.2.1.4.2.5.3l3.7 1.7c.4.3.8.5 1.2.8 29.5 18.6 48.2 44.3 54.2 74.3 2.6 13.3 4.1 32.5-3.9 48.6-6.1 12.1-17.2 20.9-30.4 24.2zm60.4.7c-7.4 1.5-15.5 2.2-23.9 2.1l-9.4-.1c6.8-5.4 12.4-12.3 16.4-20.2 9.9-19.8 8.3-42.6 5.2-58.1-1.3-6.4-3-12.6-5.3-18.6 1.9-4.8 7.6-16.1 19.2-18 4-.7 6.8-4.5 6.1-8.5-.7-4-4.5-6.8-8.5-6.1-11.7 2-19.6 9.2-24.5 16.1-8.3-14.8-19.9-28.1-34.5-39.5.6.2 1.3.3 1.9.5 3.9 1.1 8-1.1 9.2-5 1.1-3.9-1.1-8-5-9.2-24.5-7.2-50.5.2-73.4 20.7l-.5.5c-5.8 5.2-10.8 9.7-17.3 11.3-3 .7-5.6-1.3-6.9-3.2-4.7-7.1 1-18.7 5.6-28.1.6-1.3 1.2-2.5 1.8-3.7 9.6-8.6 16.4-20.4 20.2-35 .2-.8.4-1.6.6-2.3 11.1 8.8 26 17.3 39.4 20.5 9.5 2.2 18.8 3.3 27.8 3.3h1.8c9.3-.1 21.1-1.6 32.6-6.4.2.8.5 1.6 1 2.3 15.9 24.1 47.8 49 50.3 51 45.6 38 26.1 88.8 25.3 90.9l-.3.9c-.2.6-2.1 7.4-8.4 15.5-.4.4-.7.8-1 1.3-7.8 9.3-21.6 20.3-45.5 25.1zm104.2-43.8c-7 14.7-18.1 26.4-32.1 33.8-10.1 5.3-21.4 8.9-34 10.7 7.6-4.9 13.5-10.4 17.9-15.6 5-1.6 9.6-4.5 11-5.5 23.2-12.4 36-38.5 33.6-68.2-1.6-19.4-10.6-36.2-20.2-53.9-4.4-8.1-8.9-16.5-12.7-25.2-5.5-12.8-4.7-27.2 2.2-38.5 3.1-5.1 7.2-9.5 12.3-13 2.6-1.8 6.3-1.2 8.1 1.5.9 1.3 1.2 2.8.9 4.3-.3 1.5-1.1 2.9-2.4 3.7-3.8 2.6-6.8 5.8-9 9.5-5 8.1-5.5 18.6-1.5 27.9 3.6 8.2 7.8 16 12.2 24.3 9.7 18 19.7 36.6 21.6 58.4 1.5 16.2-1.3 32.1-7.9 45.8z" class="st9"/><g id="g2772"><path id="path2770" d="M472.2 603.3c0 4.1-3.3 7.4-7.4 7.4h-87.9c-3.9-.3-7.6-1.8-10.8-4.5-.2-.2-.5-.4-.7-.6l-.6-.6c-.2-.3-.5-.5-.7-.8-1-1.1-1.9-2.3-2.6-3.6-.1-.1-.2-.3-.2-.4-2.6-4.5-3.7-9.9-3.1-15.4.4-3.6 1.2-6.9 2.4-10.1 1.8-4.8 4.4-9 7.5-12.7 5.6-6.6 12.7-11.4 19.2-13.7 1.9-.7 3.7-1.2 5.5-1.7 5.4-1.4 10.5-1.8 15.4-1.9 4.5 0 8.9.3 13.5.6 3.3.3 6.8.5 10.3.6 4.1.1 7.3 3.6 7.1 7.6-.1 1.8-.7 3.4-1.8 4.6-1.4 1.6-3.5 2.6-5.8 2.5-3.9-.1-7.5-.4-10.9-.7-10.4-.8-18.6-1.4-28.4 2.1-7 2.5-18 10.9-19.4 24.1-.3 2.4.2 4.8 1.3 6.7.3.5.6.9.9 1.3l.2.2c.6.6 1.6 1.4 2.8 1.4h86.7c.3 0 .7 0 1 .1 3.7.7 6.5 3.8 6.5 7.5z" class="st9"/></g></g></svg>