<svg xmlns="http://www.w3.org/2000/svg" xml:space="preserve" id="svg168" width="64" height="64" version="1.1"><style id="style395" type="text/css">.st3{opacity:.8}.st2{fill:#d68f33}.st3{fill:#fff}.st4{opacity:.7;fill:#bb6521}.st7{fill:#301501}.st9{opacity:.7;fill:#ccc}</style><g id="g3003" transform="matrix(.1041 0 0 .1041 -9.68 -9.804)"><path id="path2866" d="M510.7 428.7h-29.9v20.5c0 1.9-1.4 3.4-3.2 3.6h-.5c-2 0-3.6-1.6-3.6-3.6v-20.5h-42.7v20.5c0 2-1.6 3.6-3.6 3.6s-3.7-1.6-3.7-3.6v-20.5h-42.7v20.5c0 2-1.6 3.6-3.6 3.6s-3.6-1.6-3.6-3.6v-20.5h-44.9v20.5c0 2-1.6 3.6-3.6 3.6-.2 0-.5 0-.7-.1-1.7-.3-2.9-1.8-2.9-3.6v-20.5h-28.9c-.7 0-1.3.6-1.3 1.3v32.4h221V430c-.2-.7-.8-1.3-1.6-1.3z" style="fill:#7abcdc"/><ellipse id="ellipse2868" cx="400.4" cy="603.1" rx="219.9" ry="39.5" style="opacity:.2;fill:#d9d9d9"/><path id="path2870" d="m322 575.9-2.1 1.9c-12.6 1.4-23.2 6.3-33.4 11.1-3.8 1.8-7.8 3.6-11.8 5.2-4.1 1.7-8.9 3.5-13.7 4.7-.6.1-1.2.3-1.7.4 17.1-11.7 16.6-31.3 13.3-45.5.1-2.4.7-20.5-9.9-35.6-.1-.2-.2-.3-.4-.5-1.1-1.5-2.2-2.8-3.3-4.1 2.3-4.5 18.4-31.3 21.7-35.3l6.1 25 15.1 54.5z" class="st2"/><path id="path2872" d="m564 607.2-32.9-5.3-42.3-19.1-5.4-4.9-2.1-1.9 20.3-18.1L519 492l3.6-9.7 22 19.8 3 8 1.1 3-11.9 23.4s-3.8 7.4-6.1 17.5c-3.3 14.2-3.7 33.7 13.3 45.3 5 3.5 11.6 6.2 20 7.9z" class="st2"/><path id="XMLID_122_" d="M585.7 234.9v1.3c0 1.1-.1 2.2-.2 3.3-.2 1.8-.4 3.8-.9 5.9-.2 1.3-.5 2.6-.9 4l-.5 2-10.2 45.3c-1.4 6.5-3.8 28.2-11.4 12-.8-1.8-1.8 3.6-3.3 2.6-1.4-.8-6.3-.5-7-2.1-.8-1.8-9.4-8.1-10.5-10.9-8.9-22-17.4-61.1-55.2-94.7-3.3-2.9-1.9-7.6-4.8-4.3s-8.2 2.2-5 5.1c27.8 24.7 44.6 57.2 54.6 79.9l-.1 7.5s.1 15.1 0 31.9c0 1.2-.1 2-.3 2.7-.5 9-3.1 17.6-7.7 25.2v-1.4c-.9-19-10.2-36.2-24.5-48.6-5.1-4.4-10.4-7.7-16.4-10.7-9.9-4.9-18.8-12.2-25.9-20.5-7.3-8.6-12.9-18.8-17.5-29.5-24.4-24.1-22.9-64.8-22.7-69.1 9.7.7 26.1 1.6 37.2 4.6l-1.2 2.1c-1.9 3.9-6 9.3-2 11.2 3.6 1.7 1.6-2.9 3.7-6.1.1 0 2 1.1 2 1 .2-.3-1.5-1.8-1.4-2.1l2.7-4.8 2.6-5.1 3.7-1.9c2-4.2 7.8.5 12 1.4.3.1.6.1 1 .3l99.3 37.8c1 .6 5 3.4 7.8 9.5 1 2.3 1.9 5 2.5 8.3.1.7.2 1.3.3 2 .1 1.7.2 3.3.2 4.9z" class="st2"/><path id="XMLID_121_" d="M365.2 241.7c-4.5 10.4-9.9 20.3-17 28.7-6.9 8.2-15.6 15.2-25.2 20-5.8 2.9-11 6.1-16 10.4-13 11.2-21.7 26.5-23.5 43.5-2.3-4.9-14.1-2.8-14.8-8.3-.2-1.3-.3-2.6-.4-4-.2-.7-.3-1.5-.3-2.7-.1-16.3 2.7-38.2 2.7-38.2l1.5-9.6c9.7-22.1 25-53.8 52.1-77.8 3.2-2.8 5.3 1.4 2.5-1.8s.4-6-2.8-3.2c-36.7 32.7-53.7 78.2-62.4 99.5-1.1 2.7-2 4.9-2.7 6.6-.7 1.6-5.1.4-6.5 1.2-.3.2-.5.3-.8.4-.6.3-1.2.5-1.9.6-.3.1-.7.1-1.1.1-.4 0-.9 0-1.3-.1-4.4-.8-11.9-2.8-13.6-7.3L222.6 262c-.3-1.3-6.3-10.6-6.5-11.9-.1-.6 2.6-3.6 2.5-4.2-.3-1.5-.5-3.7-.6-5.1 0-.3-.1-.7-.1-1-.1-1-.1-2-.1-3 0-4.8 3.2-12.4 4.3-15.5.2-.4.3-.8.5-1.3.1-.3.3-.7.4-1 .1-.1.1-.3.2-.4l1.1-.1c.2-.4-.7-.7-.5-1 .2-.3.4-.7.5-1 .2-.4.5-.8.7-1.1.3-.5.6-.9.9-1.3.1 0-2.2-1.6 1 .3.4-.5-.1-1.4.3-1.9.3-.4 1.3-1.8 1.7-2.1l.5-.5c1-.9.8-2.9 1.1-3.1l93.4-38.3c.3-.1 9 .6 9.3.5 4.1-.9 10.3-1.1 12.2 3l2.7 5.7 2.7 4.6.6 1c6.7-3.9-1.8 2.9-1.6 3.2 0 .1 2.9-.3 2.9-.3 2.1 3.1-1.1 2.4 2.3.7 3.8-1.8 2.2-3.1.3-6.9l1.4-8.1c9.8-2.6 23.6-2.8 32.2-3.5.3 5.7-.4 50.3-23.7 73.3z" class="st2"/><path id="XMLID_120_" d="M522.7 351.1c-1.1 1.8-2.3 3.6-3.6 5.3-15.2 19.6-47 42.9-112 42.9h-1.2c-.3 0-.5.1-.8.1-.3 0-.5-.1-.7-.1h-3.3c-.3 0-.5.1-.7.1-.2 0-.5-.1-.8-.1h-1.2c-65 0-96.8-23.3-112-42.9-2.5-3.3-4.6-6.8-6.3-10.5 1.9-17.5 10.9-33.2 24.2-44.7 5.1-4.4 10.4-7.7 16.4-10.7 9.9-4.9 18.8-12.2 25.9-20.5 7.3-8.6 12.9-18.8 17.5-29.5 23.9-23.7 22.9-63.4 22.6-68.8 2-.2 3.9-.3 5.8-.4 3.5-.2 6.9-.3 10.2-.2 4.1-.1 8.4.1 12.9.4-.2 4.3-1.7 45 22.7 69.1 4.6 10.7 10.2 20.9 17.5 29.5 7.1 8.4 16 15.7 25.9 20.5 6 3 11.3 6.3 16.4 10.7 14.3 12.4 23.6 29.5 24.5 48.5.1.4.1.8.1 1.3z" class="st3"/><path id="XMLID_110_" d="M362.4 337.2c-.8 1.4-2.7 2-4.2 1.2s-2-2.7-1.2-4.2 2.7-2 4.2-1.2c1.5.9 2 2.8 1.2 4.2z"/><path id="XMLID_109_" d="M373.1 342.9c-.8 1.5-2.7 2-4.2 1.2s-2-2.7-1.2-4.2c.8-1.4 2.7-2 4.2-1.1 1.5.8 2 2.7 1.2 4.1z"/><path id="XMLID_108_" d="M373.7 329.1c-.5 1.6-2.2 2.5-3.8 1.9a3.037 3.037 0 0 1 1.8-5.8c1.6.5 2.5 2.3 2 3.9z"/><path id="XMLID_107_" d="M435.5 331c-1.6.5-3.3-.4-3.8-1.9a3.037 3.037 0 0 1 5.8-1.8c.5 1.5-.4 3.2-2 3.7z"/><path id="XMLID_106_" d="M436.4 344.1c-1.5.8-3.3.3-4.2-1.2-.8-1.4-.3-3.3 1.2-4.1 1.4-.8 3.3-.3 4.1 1.1.9 1.5.4 3.3-1.1 4.2z"/><path id="XMLID_105_" d="M447.1 338.4c-1.4.8-3.3.3-4.1-1.2-.8-1.5-.3-3.3 1.1-4.2 1.5-.8 3.3-.3 4.2 1.2.8 1.5.3 3.3-1.2 4.2z"/><path id="XMLID_104_" d="M464.4 347.3c-.3.5-6 11.7-18.4 16.1-1 .3-2.6.8-4.5 1.2-.7.1-1.4.3-2.1.4-.1 0-.3 0-.4.1-.7.1-1.5.2-2.3.3-7.7.7-18.8 0-31.5-6.3-1.3-.7-2.9-.7-4.2 0-12.7 6.4-23.8 7.1-31.5 6.3-.8-.1-1.6-.2-2.3-.3-.1 0-.3-.1-.4-.1-.7-.1-1.4-.2-2.1-.4-2-.4-3.5-.8-4.5-1.2-12.4-4.4-18.1-15.6-18.4-16.1-1.5-3.1-.3-6.8 2.8-8.4 3.1-1.5 6.8-.3 8.4 2.8 2.7 5.4 7.3 8.5 12.6 10 3.1.9 6.5 1.2 9.8 1 4.7-.2 9.6-1.3 13.7-3.8 2.4-1.5 4.8-3.6 6.1-6.1.3-.6.6-1.2.7-1.8v-.1c.8-3.9-3.6-5.7-6.2-7.5-5.1-3.5-9.7-8.7-12.7-14.5-.8-1.5-1.4-3-2-4.5-.1-.2-.2-.5-.3-.7l-.3-.9c0-.1 0-.2-.1-.4-.3-1.3-.3-2.7-.2-4.1.8-7.5 8-11.1 14.9-11.7 2.3-.2 4.7-.3 7-.4 2.3-.1 4.6-.1 6.9 0h6.9c2.3.1 4.6.2 7 .4 6.9.5 14 4.1 14.9 11.7.1 1.3.2 2.8-.2 4.1 0 .2 0 .3-.1.4l-.3.9c-.1.2-.2.5-.3.7-.5 1.5-1.2 3-2 4.5-3 5.7-7.6 10.9-12.7 14.5-2.6 1.8-7 3.6-6.2 7.5v.1c.2.6.4 1.2.7 1.8 1.3 2.5 3.7 4.6 6.1 6.1 4.1 2.5 9 3.6 13.7 3.8 3.3.2 6.7-.1 9.8-1 5.3-1.5 9.9-4.6 12.7-10 1.5-3.1 5.3-4.3 8.4-2.8 3.3 1.6 4.6 5.4 3.1 8.4z"/><path id="XMLID_100_" d="M251 301.7c.2.5 1.1 3.9 1.4 4.4-1.5.9-3.3 1.3-5.1 1-4.4-.8-12.5-5.5-14.2-10l-11.7-47.5c-6.9-27.1 4.2-48.6 8.9-46l102.4-35.4.9-.3c4.1-.9 12.4 6 14.3 10l.7 1.5-99.4 38.4c-2 1.2-15.5 10.8-8.5 37.8z" class="st4"/><path id="XMLID_99_" d="M557.6 304.7c-.2.6-1.2 2.5-1.5 3 1.6.9 3.5 1.3 5.4 1 4.6-.8 9.8-5.3 11.6-10l10.4-48.9c7.3-28.6-6.9-38.7-9-40l-102-38.8c-.3-.1-.7-.2-1-.3-4.3-.9-9 1.5-11 5.9l-.8 1.6 99.8 38c2.1 1.3 16.3 11.4 9 40z" class="st4"/><path id="XMLID_37_" d="M440.8 351.8c-.5 5-1.9 9.7-3.9 14-6.3 13.1-19.1 22.1-33.8 22.1-14.7 0-27.5-9-33.8-22.1-2-4.3-3.4-9-3.9-14 3.1.9 6.5 1.2 9.8 1 4.7-.3 9.7-1.4 13.8-3.9 2.4-1.5 4.9-3.7 6.2-6.3.3-.6.6-1.2.7-1.9v-.1c.8-4-3.6-5.9-6.2-7.8-5.1-3.7-9.8-9-12.8-14.9 6.8-6.9 16-11.2 26.1-11.2 10.1 0 19.3 4.2 26.1 11.2-3 5.9-7.7 11.3-12.8 14.9-2.6 1.9-7 3.8-6.2 7.8v.1c.2.7.4 1.3.7 1.9 1.3 2.6 3.8 4.7 6.2 6.3 4.1 2.5 9 3.7 13.8 3.9 3.5.2 6.9-.1 10-1z"/><path id="XMLID_12_" d="M420.9 370.3c.8.7.8 1.9 0 2.6-4.9 4.1-11.1 6.5-17.8 6.5-6.8 0-13-2.4-17.8-6.5-.8-.7-.8-1.9 0-2.6 4.9-4.1 11.1-6.5 17.8-6.5 6.7 0 12.9 2.4 17.8 6.5z" style="fill:#fd939b;opacity:.5"/><path id="XMLID_3_" d="M420.9 372.9c-.9.7-1.8 1.4-2.7 2-4.4-2.8-9.5-4.5-15.1-4.5s-10.7 1.6-15.1 4.5c-.9-.6-1.9-1.3-2.7-2-.8-.7-.8-1.9 0-2.6 4.9-4.1 11.1-6.5 17.8-6.5 6.8 0 13 2.4 17.8 6.5.8.7.8 2 0 2.6z" style="fill:#f66a6c"/><g id="XMLID_24_"><path id="XMLID_25_" d="M382 309.1c3.1-1.9 6.5-3 9.9-3.8 3.4-.8 7-1.2 10.5-1.2 1.8 0 3.5.1 5.3.2 1.8.2 3.5.4 5.2.9 3.5.7 6.8 2 9.9 3.9-3.6.2-7-.1-10.3 0-1.7-.1-3.4 0-5-.1h-5c-3.3 0-6.7 0-10 .1-3.5.1-6.9.1-10.5 0z" class="st3"/></g><path id="path2891" d="m245.7 354.6.1.1c-.1 0-.1 0-.1-.1z" class="st7"/><path id="path2893" d="m292 395.3.3-.1c-.1-.1-.2-.2-.3-.2z" class="st7"/><g id="g2897"><path id="path2895" d="M339.2 379.3h-.1.1z" style="fill:none"/></g><path id="path2899" d="m322 575.9-2.1 1.9c-12.6 1.4-23.2 6.3-33.4 11.1-3.8 1.8-7.8 3.6-11.8 5.2-4.1 1.7-8.9 3.5-13.7 4.7-.6.1-1.2.3-1.7.4 8.2-5.6 12.3-13 14.1-20.8 1.9-.9 3.8-1.7 5.6-2.6 9.6-4.5 19.5-9.1 31-10.8z" class="st4"/><path id="path2901" d="M259.2 599.3c-34.2 7.5-47.4-19.9-48.2-21.7-8.1-19.8-10.4-36.3-7-48.8 2.6-9.7 8.3-15.1 12.5-17.8 2.3-1.5 4.9-2.3 7.5-2.5 2.9-.2 5.6-.1 8.2.4 0 0 .2 0 .4.1 5.3 1.1 9.8 3.6 13.7 6.9 8.3 6.1 18.6 17.5 26.1 38.3v-.3c3.4 14.2 3.9 33.8-13.2 45.4z" class="st3"/><path id="path2903" d="M273.3 578.4c-1.7 7.9-5.9 15.3-14.1 21-34.2 7.5-47.4-19.9-48.2-21.7-8.1-19.8-10.4-36.3-7-48.8 1.9-7.1 5.4-11.8 8.8-14.9-2.6 12.2 0 27.9 7.6 46.5.6 1.3 1.4 2.6 2.1 3.8 3.9 6.1 9.3 11.3 15.8 14.7 4.5 2.4 9.5 3.8 14.6 4.3 5.5.5 10.8.4 15.5-1.7 1.7-.8 3.4-1.9 4.9-3.2z" class="st9"/><path id="path2905" d="M335.3 582.7c0 2.7-2.2 5-4.9 5.1H325.6c-12.9.3-23.5 5.3-34.8 10.5-3.9 1.8-8 3.7-12.2 5.4-4.4 1.8-9.6 3.8-15.1 5.2-5.7 1.4-10.9 2-15.7 2-14.7 0-25.3-5.8-32.2-11.4-9.7-8-14-17.5-14.2-17.9 0-.1 0-.1-.1-.1-17.6-43.2-6.5-64.7 3.5-74.6 2.1-2.1 4.2-3.7 6-4.8 1.2-.8 2.5-1.5 3.8-2 2.7-1.2 5.6-1.9 8.5-2.1 10.2-.8 19.6 2 27.8 8.1l.1.1s0-.1.1-.1c3.2-5.7 7.2-11 11.8-15.9.6-.6 1.2-1.3 1.8-1.9 2-2 5.3-2.1 7.3 0 2 2 2.1 5.3 0 7.4-1.7 1.7-3.2 3.4-4.7 5.2-.6.7-1.1 1.4-1.7 2.1-2.6 3.4-4.8 6.9-6.8 10.6l1.5 1.8c.6.8 1.2 1.5 1.8 2.4.1.2.2.3.4.5 10.6 15.2 10 33.2 9.9 35.6v.3c-6.8-18.8-15.8-29.8-23.6-36.3-.9-.7-1.7-1.4-2.6-2-3.9-3.3-8.4-5.8-13.7-6.9-.3-.1-.4-.1-.4-.1-2.6-.5-5.3-.7-8.2-.4-2.6.2-5.2 1.1-7.5 2.5-.8.5-1.6 1.1-2.4 1.7-3.8 3-8 8.1-10.1 16.1-3.4 12.6-1 29 7 48.8.8 1.8 14.1 29.3 48.2 21.7.6-.1 1.1-.3 1.7-.4 4.9-1.2 9.7-3.1 13.7-4.7s8-3.5 11.8-5.2c9.3-4.3 18.8-8.7 29.8-10.6 1.2-.2 2.4-.4 3.6-.5 1.8-.2 3.6-.3 5.5-.4 1.6 0 3.2-.1 4.8 0 3 0 5.3 2.4 5.3 5.2z"/><g id="g2909"><path id="path2907" d="M551.8 517c-.7.4-1.5.5-2.3.5-1.9 0-3.7-1.1-4.7-2.9-.2-.4-.4-.7-.5-1.1-1.9-3.6-4-7-6.5-10.3-1.3-1.7-2.7-3.4-4.2-5.1-.8-.9-1.7-1.8-2.6-2.7-1-1-1.5-2.2-1.5-3.5 0-.7.1-1.5.4-2.2.3-.6.6-1.2 1.1-1.6 1.3-1.3 3.1-1.8 4.8-1.4.9.2 1.8.7 2.6 1.4.8.8 1.5 1.6 2.2 2.3 4.5 4.9 8.4 10.2 11.5 15.7.7 1.2 1.4 2.5 2 3.8 1.3 2.7.3 5.8-2.3 7.1z"/></g><path id="path2911" d="M592.2 577.6c-.9 1.9-14.2 29.2-48.2 21.8-17-11.6-16.6-31.1-13.3-45.3v.1c8.8-22.7 19.4-34.1 28.2-39.9 5.5-4 12.2-6.4 20.3-5.8 2.6.2 5.2 1.1 7.5 2.5 4.3 2.7 9.9 8 12.5 17.8 3.4 12.5 1.1 28.9-7 48.8z" class="st3"/><path id="path2913" d="M592.2 577.6c-.9 1.9-14.2 29.2-48.2 21.8-.3-.2-.6-.4-.9-.7l-1.2-.9c-.3-.2-.6-.5-.9-.7-.3-.3-.6-.5-.9-.8-.4-.3-.7-.7-1.1-1l-.6-.6c-1.1-1.2-2.1-2.4-3-3.6l-.6-.9-.6-.9c-.8-1.3-1.5-2.7-2.1-4.1l-.3-.6c-.2-.4-.3-.7-.4-1.1-.1-.2-.1-.3-.2-.5-.4-1.1-.7-2.2-1-3.3 0-.1-.1-.3-.1-.5 0-.1-.1-.3-.1-.4 16.2 12.7 44.8-.6 52.1-18.5 7.7-18.9 10.2-34.8 7.5-47.1 3.7 3.1 7.6 8 9.7 15.7 3.3 12.4 1 28.8-7.1 48.7z" class="st9"/><path id="path2915" d="M601.8 581.6c0 .1 0 .1-.1.1-.2.4-4.4 9.8-14.2 17.9-6.8 5.6-17.4 11.4-32.2 11.4-4.8 0-10-.6-15.7-2-5.5-1.4-10.8-3.4-15.1-5.2-4.3-1.7-8.3-3.6-12.2-5.4-11.3-5.2-21.9-10.2-34.8-10.5H473c-2.2 0-4.1-1.4-4.9-3.4-.2-.6-.3-1.1-.3-1.8 0-2.9 2.3-5.2 5.1-5.3h4.8c.5 0 1 0 1.4.1 1.4.1 2.7.2 4.1.3 1.3.1 2.6.3 3.8.5 10.9 1.9 20.3 6.3 29.5 10.5 3.8 1.8 7.8 3.6 11.8 5.2 4.1 1.6 8.9 3.5 13.8 4.7.6.1 1.2.3 1.8.4 34 7.5 47.3-19.8 48.2-21.8 8.1-19.8 10.4-36.3 7-48.8-2.6-9.7-8.3-15.1-12.5-17.8-2.3-1.5-4.9-2.3-7.5-2.5-8.1-.6-14.8 1.8-20.3 5.8-8.8 5.8-19.4 17.2-28.2 39.9v-.1c-.1-1.4-1-23.4 13.5-40.5 1.1-1.2 2.2-2.4 3.3-3.5 1.5-1.4 3-2.7 4.5-3.9 8.2-6.2 17.7-9 27.9-8.2 4.3.3 8.6 1.8 12.3 4.1 10.2 6.8 31 27.4 9.7 79.8z"/><path id="path2917" d="M544 599.3c-.6-.1-1.2-.3-1.8-.4-4.9-1.2-9.7-3.1-13.8-4.7-4-1.6-8-3.5-11.8-5.2-9.2-4.3-18.7-8.7-29.5-10.5 4.6-3.5 9.1-7.4 13.2-11.4 8.3 2.2 15.8 5.7 23.2 9.1 2.1 1 4.3 2 6.5 3 0 .1.1.3.1.5.3 1.1.6 2.2 1 3.3.1.2.1.3.2.5.1.4.3.7.4 1.1l.3.6c.6 1.4 1.3 2.8 2.1 4.1l.6.9.6.9c.9 1.2 1.9 2.5 3 3.6l.6.6c.3.4.7.7 1.1 1 .3.3.6.6.9.8.3.2.6.5.9.7l1.2.9c.4.2.7.4 1 .6z" class="st4"/><ellipse id="ellipse2919" cx="240.8" cy="560.8" rx="15.1" ry="19.2" transform="rotate(-24.992 240.781 560.785)"/><ellipse id="ellipse2921" cx="244.3" cy="529.5" rx="6" ry="8.6" transform="rotate(-3.41 244.249 529.484) scale(.99997)"/><ellipse id="ellipse2923" cx="224.8" cy="528.7" rx="6" ry="8.6" transform="rotate(-24.992 224.858 528.756)"/><ellipse id="ellipse2925" cx="213.9" cy="544" rx="6" ry="8.6" transform="rotate(-42.853 213.925 544.02)"/><g id="g2935"><ellipse id="ellipse2927" cx="562.9" cy="560.8" rx="19.2" ry="15.1" transform="rotate(-65.008 562.865 560.748)"/><ellipse id="ellipse2929" cx="559.4" cy="529.5" rx="8.6" ry="6" transform="rotate(-86.592 559.404 529.494) scale(.99997)"/><ellipse id="ellipse2931" cx="578.8" cy="528.7" rx="8.6" ry="6" transform="rotate(-65.008 578.786 528.721)"/><ellipse id="ellipse2933" cx="589.7" cy="544" rx="8.6" ry="6" transform="rotate(-47.149 589.732 544.026)"/></g><g id="g2939"><path id="path2937" d="m267.3 501.2-8.1-7.4c.6-.6 14.6-16 22.7-21.7l6.3 8.9c-7.2 5.1-20.8 20.1-20.9 20.2z"/></g><g id="g2943"><path id="path2941" d="M535.8 501.2c-.1-.2-13.7-15.1-20.9-20.2l6.3-8.9c8.1 5.8 22.1 21.1 22.7 21.7z"/></g><path id="path2945" d="M512.1 430v32.4h-221V430c0-.7.6-1.3 1.3-1.3h28.9v20.5c0 1.8 1.2 3.2 2.9 3.6-.2.3-.5.7-.8 1h155s-.4-.2-.9-.9c1.8-.2 3.2-1.8 3.2-3.6v-20.5h29.9c.9-.1 1.5.5 1.5 1.2z" style="opacity:.6;fill:#7abcdc"/><path id="path2947" d="M495.4 597.1v14.3c0 1.9-1.5 3.4-3.4 3.4H308c-1.9 0-3.4-1.5-3.4-3.4v-14.3z" style="fill:#9ec65c;opacity:.8"/><path id="path2949" d="M495.4 606.2v5.2c0 1.9-1.5 3.4-3.4 3.4H308c-1.9 0-3.4-1.5-3.4-3.4v-14.3h11.6v5.6c0 1.9 1.5 3.4 3.4 3.4h175.8z" style="opacity:.5;fill:#9ec65c"/><path id="path2951" d="M291.1 472.1v114c0 .7.6 1.3 1.3 1.3h218.3c.7 0 1.3-.6 1.3-1.3v-114zm65.4 99.3c0 1.2-1 2.2-2.2 2.2h-31.1c-1.2 0-2.2-1-2.2-2.2v-31.1c0-1.2 1-2.2 2.2-2.2h31.1c1.2 0 2.2 1 2.2 2.2zm0-49.8c0 1.2-1 2.2-2.2 2.2h-31.1c-1.2 0-2.2-1-2.2-2.2v-31.1c0-1.2 1-2.2 2.2-2.2h31.1c1.2 0 2.2 1 2.2 2.2zm64.8 49.8c0 3.2-2.6 5.8-5.8 5.8h-31.1c-3.2 0-5.8-2.6-5.8-5.8v-31.1c0-3.2 2.6-5.8 5.8-5.8h31.1c3.2 0 5.8 2.6 5.8 5.8zm0-49.8c0 3.2-2.6 5.8-5.8 5.8h-31.1c-3.2 0-5.8-2.6-5.8-5.8v-31.1c0-3.2 2.6-5.8 5.8-5.8h31.1c3.2 0 5.8 2.6 5.8 5.8zm62.2 49.8c0 3.2-2.6 5.8-5.8 5.8h-31.1c-3.2 0-5.8-2.6-5.8-5.8v-31.1c0-3.2 2.6-5.8 5.8-5.8h31.1c3.2 0 5.8 2.6 5.8 5.8zm0-49.8c0 3.2-2.6 5.8-5.8 5.8h-31.1c-3.2 0-5.8-2.6-5.8-5.8v-31.1c0-3.2 2.6-5.8 5.8-5.8h31.1c3.2 0 5.8 2.6 5.8 5.8z" class="st3"/><path id="path2953" d="M512.1 472.1v114c0 .7-.6 1.3-1.4 1.3H292.5c-.7 0-1.3-.6-1.3-1.3v-12.8h31c.3.2.7.3 1.1.3h31.1c.4 0 .8-.1 1.1-.3H379c.8 2.3 2.9 3.9 5.5 3.9h31.1c2.5 0 4.7-1.6 5.5-3.9h20.1c.8 2.3 3 3.9 5.5 3.9h31.1c2.6 0 4.7-1.6 5.5-3.9H496c.7 0 1.4-.6 1.4-1.3v-99.8h14.7z" style="fill:#c6c6c5"/><path id="path2955" d="M356.5 490.5v31.1c0 1.2-1 2.2-2.2 2.2h-31.1c-1.2 0-2.2-1-2.2-2.2v-31.1c0-1.2 1-2.2 2.2-2.2h31.1c1.2.1 2.2 1 2.2 2.2z"/><path id="path2957" d="M415.5 484.7h-31.1c-3.2 0-5.8 2.6-5.8 5.8v31.1c0 3.2 2.6 5.8 5.8 5.8h31.1c3.2 0 5.8-2.6 5.8-5.8v-31.1c0-3.2-2.6-5.8-5.8-5.8zm-1.5 35.5h-28.1V492H414Z"/><path id="rect2959" d="M385.9 492H414v28.1h-28.1z" class="st3"/><path id="path2961" d="M477.7 484.7h-31.1c-3.2 0-5.8 2.6-5.8 5.8v31.1c0 3.2 2.6 5.8 5.8 5.8h31.1c3.2 0 5.8-2.6 5.8-5.8v-31.1c0-3.2-2.6-5.8-5.8-5.8zm-1.5 35.5H448V492h28.1v28.2z"/><path id="rect2963" d="M448 492h28.1v28.1H448z" class="st3"/><path id="path2965" d="M356.5 540.3v31.1c0 1.2-1 2.2-2.2 2.2h-31.1c-1.2 0-2.2-1-2.2-2.2v-31.1c0-1.2 1-2.2 2.2-2.2h31.1c1.2 0 2.2 1 2.2 2.2z"/><path id="path2967" d="M415.5 534.5h-31.1c-3.2 0-5.8 2.6-5.8 5.8v31.1c0 3.2 2.6 5.8 5.8 5.8h31.1c3.2 0 5.8-2.6 5.8-5.8v-31.1c0-3.2-2.6-5.8-5.8-5.8zm-1.5 35.4h-28.1v-28.1H414Z"/><path id="rect2969" d="M385.9 541.8H414v28.1h-28.1z" class="st3"/><path id="path2971" d="M477.7 534.5h-31.1c-3.2 0-5.8 2.6-5.8 5.8v31.1c0 3.2 2.6 5.8 5.8 5.8h31.1c3.2 0 5.8-2.6 5.8-5.8v-31.1c0-3.2-2.6-5.8-5.8-5.8zm-1.5 35.4H448v-28.1h28.1v28.1z"/><path id="rect2973" d="M448 541.8h28.1v28.1H448z" class="st3"/><g id="g2979"><path id="polygon2975" d="m333 203.7.1.1-.2-.2z"/><path id="path2977" d="M483.1 196c-1.2-1.1-2.7-1.6-4.2-1.5-1.6.1-3 .8-4 2-2.1 2.4-1.9 6.1.5 8.2 3.1 2.7 6.1 5.6 9 8.7 4.3 4.5 8.5 9.3 12.5 14.5h1c5.3 0 10.6 1 15.6 2.8-8.4-12.1-18.4-24-30.4-34.7zm-151 3.9v-.4l-.6-1.9c0-.1-.1-.2-.1-.2-.2-.4-.4-.7-.7-.9-1-1.2-2.5-1.9-4-2-1.6-.1-3.1.4-4.2 1.5-12.1 10.7-22.1 22.7-30.4 34.7 5-1.9 10.3-2.8 15.6-2.8h.9c.3-.4.7-.9 1-1.3 1.5-1.9 2.9-3.6 4.2-5.1l2.1-2.4.4-.5 1.5-1.7c1.1-1.2 2.2-2.3 3.3-3.5.2-.2.5-.5.8-.7.3-.4.7-.7 1-1l1.2-1.2.6-.6v-1.1h1.1c1.5-1.5 3-2.8 4.4-4.1.3-.3.6-.6.9-1 .1-.1.2-.2.3-.4l.1-.1.2-.4c.1-.2.1-.3.2-.4 0 0 .1-.1.1-.2v-.1c0-.1.1-.2.1-.3v-1.9zm261.1 22.2-.1-.4c-2.2-10.1-9.1-18.5-18.5-22.9l.1.2-5.8-2.2-90.9-34.6c-.6-.2-1.4-.4-2.2-.6-7.1-1.5-14.6.6-20.2 5.8l-.8.7-1-.3c-16.8-4.9-34-7.4-51.1-7.2-17.1-.2-34.3 2.3-51.1 7.2l-1 .3-.8-.7c-5.6-5.2-13.3-7.4-20.4-5.7l-6.2 2.1-89.7 34.2v-.1l-.7.3c-10.4 3.9-18 12.7-20.3 23.5v.2c-1.4 5.6-1.4 11.4-.1 17l16.4 69.4c.4.5.8.9 1.2 1.4l.2.2c3.9 4.1 8.8 6.8 14.2 7.7l.5.1c1.1.1 2.2.2 3.1.2 5.1 0 10-1.9 13.9-5.3l2.9-2.6.9 19.4c1.4 12.1 6 23.6 13.5 33.2 4 5.1 8.5 9.9 13.5 14.2 2.9 2.5 6.2 5.1 9.8 7.6l1.4 1-.8 1.5c-1.7 3.1-3.4 6.1-4.9 9.1-.9 1.7-1.8 3.4-2.6 5.1-.7 1.4-1.4 2.7-2.1 4.1l.3.4v.1c-2.7 6.2-5.4 13.4-7.3 21.5-.4 1.9-.9 3.9-1.2 5.9-.1.4-.1.8-.2 1.1l1 .2 9.9 1.6c.5-2.7 1-5.4 1.7-8 1.3-5 2.9-9.6 4.5-13.8 1.7-4.2 3.4-7.9 5.1-11.1 3.3-6.4 6.2-10.5 7-11.6l1 .5c4.7 2.4 9.7 4.6 15 6.5 1 .4 2.1.8 3.2 1.2.4.2.8.3 1.2.4.4.1.8.3 1.1.4 1.6.5 3.5 1.1 5.4 1.6 2 .6 4.1 1.1 5.9 1.6 6.1 1.5 12.6 2.8 19.5 3.7 5.6.7 10.3 1.2 14.9 1.5 5.6.4 11.3.6 17.1.6h1.3c.6-.1.8-.1 1.2 0H407.2c4.5 0 8.4-.1 12.1-.3 6.2-.3 12.2-.8 17.7-1.5 6-.7 12-1.8 17.9-3.1 2.2-.5 4-.9 5.6-1.4 2-.5 3.9-1 5.7-1.6.9-.2 1.8-.5 2.6-.8 1-.3 2-.6 2.9-1 6.5-2.2 12.9-4.9 18.7-7.9l1.3-.7c.3.4 1.3 1.8 2.6 4 .9 1.6 1.9 3.5 3 5.6 1 1.9 2.1 4 3.2 6.3.7 1.3 1.3 2.6 1.9 3.9l.3.6.2.5c1.8 4.4 3.6 9.3 5 14.6.8 3 1.5 6 2 9.2l5.7-1 5.3-.9c-1.9-11-5.3-20.7-8.8-28.7 0-.1-.1-.2-.1-.2-.1-.2-.2-.3-.3-.5-1.7-3.7-3.3-6.9-4.9-9.7-.6-1-1.1-2-1.7-2.9-.9-1.7-1.8-3.4-2.8-5.2l-.8-1.5 1.4-1c2.8-1.9 5.5-3.9 8.2-6.2 5.7-4.7 10.8-10 15.2-15.6 7.4-9.6 12.1-21.1 13.5-33.2l.9-19.3 2.9 2.6c3.9 3.4 8.8 5.3 13.9 5.3 1 0 2-.1 3.2-.2l.4-.1c5.4-.9 10.3-3.6 14.2-7.7l.3-.3c.4-.5.8-.9 1.2-1.3L593 243c1.8-7 1.8-14.2.2-20.9zM582.8 237c0 1-.1 2-.2 3.3-.2 2.2-.5 4.1-.9 5.9-.2 1.3-.5 2.6-.9 4l-10.4 46.2c-1.9 5.1-6.2 8.8-11.2 9.7-2.3.3-4.6-.1-6.5-1.3-1.7-1-3.1-2.6-3.9-4.5-.8-1.7-1.7-4-2.8-6.7-4-9.8-9.9-24.5-18.8-40.7-4-7.3-8.5-14.8-13.7-22.3-8.3-12-18.4-24-30.4-34.7-1.2-1.1-2.7-1.6-4.2-1.5-1.6.1-3 .8-4 2-2.1 2.4-1.9 6.1.5 8.2 3.1 2.7 6.1 5.6 9 8.7 4.3 4.5 8.5 9.3 12.5 14.5 2.7 3.5 5.4 7.2 8 11 0 .1.1.1.1.2 1.2 1.7 2.3 3.5 3.5 5.3 2.7 4.2 5.3 8.6 7.9 13.2 4.4 7.9 8.5 16.3 12.6 25.5l.1.4v38.7c0 1.2-.1 2.2-.3 2.9-.5 9-3.2 17.7-7.7 25.2-1.1 1.8-2.3 3.6-3.6 5.3-.2.3-.5.6-.7.9-.2.3-.5.6-.7.9-1.6 2-3.4 3.9-5.2 5.8l-1.3 1.3c-.2.2-.5.4-.7.6l-.7.7c-.3.3-.6.6-1 .9-.4.4-.9.8-1.3 1.2l-.1.1c-1.1.9-1.9 1.6-2.9 2.4l-2.7 2.1c-.6.5-1.3.9-1.9 1.4l-.1.1-.1.1c-.7.5-1.3.9-2 1.4-.7.5-1.5 1-2.2 1.5-.6.4-1.2.8-1.9 1.2-.3.2-.6.4-.9.5-.7.4-1.3.8-2 1.1-.6.3-1.2.6-1.7 1-.7.4-1.3.7-2 1.1-.7.4-1.4.7-2.1 1-.9.4-1.7.8-2.6 1.3-.9.4-1.9.9-2.9 1.3l-.8.3c-.4.1-.8.3-1.1.5-1.3.5-2.6 1-4 1.5-.7.3-1.5.6-2.3.8-.8.3-1.6.5-2.4.8-.4.1-.9.3-1.3.4l-.6.2c-.9.3-1.8.5-2.7.8-.4.1-.9.3-1.3.4l-1.1.3h-.2c-.7.2-1.5.4-2.2.6-.4.1-.8.2-1.1.3-.5.1-.9.2-1.3.3-.9.2-1.9.5-2.9.7h-.2c-.4.1-.7.1-1.1.2l-3.6.7c-1.8.4-3.6.7-5.5 1-.9.2-1.9.3-2.8.4-1.1.2-2.2.3-3.3.4-.8.1-1.5.2-2.3.3l-1.4.2c-.8.1-1.6.2-2.4.2-.8.1-1.6.1-2.4.2-.9.1-1.9.2-2.9.2-.9.1-1.8.1-2.7.2h-.5c-.4 0-.8 0-1.2.1-.5 0-1 .1-1.6.1h-1.1c-1 0-2 .1-3.1.1s-2.3.1-3.4.1h-4.8c-.1 0-.3.1-.4.1h-.4c-.2 0-.3 0-.5-.1h-3.2c-.2 0-.4.1-.5.1h-.4c-.1 0-.3 0-.4-.1h-4.9c-1.1 0-2.3 0-3.4-.1h-.1c-1.1 0-2.2-.1-3.2-.1h-.2l-2.5-.1c-.6 0-1.1-.1-1.7-.1-.9 0-1.8-.1-2.7-.2-1.8-.1-3.6-.3-5.3-.4-.6 0-1.2-.1-1.7-.2l-.7-.1c-.3 0-.6-.1-.9-.1l-.7-.1c-.7-.1-1.3-.2-2-.2-1.3-.2-2.5-.3-3.7-.5l-2.4-.3c-.4-.1-.9-.1-1.3-.2-1-.2-2.1-.3-3.1-.5h-.1l-.2-.1c-1.2-.2-2.4-.4-3.5-.7l-1-.2c-.4-.1-.7-.2-1.1-.2h-.2c-1-.2-2-.5-2.9-.7-.4-.1-.9-.2-1.3-.3l-1.2-.3c-.8-.2-1.6-.4-2.3-.6h-.2l-1.1-.3c-.5-.1-.9-.3-1.4-.4-.9-.3-1.8-.5-2.6-.8l-.7-.2c-.4-.1-.9-.3-1.3-.4-.8-.3-1.6-.5-2.4-.8-.8-.3-1.6-.5-2.3-.8-1.3-.5-2.7-1-3.9-1.5-.4-.2-.7-.3-1.1-.5l-.8-.3c-1-.4-2-.9-2.9-1.3-.9-.4-1.8-.8-2.6-1.3l-1.8-.9-.6-.3c-1.2-.6-2.3-1.2-3.5-1.9-.2-.1-.4-.2-.6-.4-.1 0-.2-.1-.4-.2l-.2-.1c-.3-.2-.5-.3-.8-.5l-.3-.2h-.1l-.2-.1c-1.7-1-3.3-2.1-4.9-3.1l-.6-.4c-.3-.2-.7-.4-1-.7l-.2-.1c-.7-.5-1.3-.9-1.9-1.4-.1-.1-.2-.2-.3-.2l-.1-.1c-.6-.5-1.1-.9-1.6-1.2-1.5-1.2-2.6-2.1-3.7-3.1l-.2-.2c-.4-.4-.8-.7-1.2-1l-.3-.3c-1.1-1-2.1-2-3.3-3.1l-.3-.3c-.4-.4-.8-.8-1.2-1.3l-.8-.8c-.2-.2-.4-.4-.6-.7-.5-.5-.9-1-1.3-1.5-1-1.2-1.8-2.2-2.6-3.2-2.6-3.4-4.7-6.9-6.4-10.6-2.3-5-3.9-10.4-4.6-16.1-.2-1.4-.3-2.8-.4-3.9-.2-.8-.3-1.7-.3-2.9v-38.7l.1-.4.9-2.1.5-1.1c.1-.3.3-.5.4-.8l.1-.3c0-.1.1-.2.1-.3l.9-1.8c.3-.6.5-1.2.8-1.7.2-.5.5-1 .8-1.6l.6-1.2c.2-.3.3-.5.4-.8l.3-.6s0-.1.1-.1l.4-.9c.5-1.1 1.1-2.2 1.6-3.3.7-1.4 1.4-2.7 2.1-4.1.2-.4.4-.7.6-1.1.4-.8.9-1.7 1.4-2.5.2-.3.4-.6.5-1 0-.1.1-.2.1-.3l.4-.6c.1-.2.3-.5.4-.8l.6-1v-1.4h.8c.2-.3.4-.6.5-.9l.1-.2c.1-.2.3-.4.4-.6l1.8-3 .9-1.5c.5-.8 1-1.6 1.5-2.5l.3-.4c.4-.5.7-1 1-1.5l.9-1.3c.1-.2.2-.3.2-.4l.5-.7c.2-.3.4-.7.7-1 0-.1.2-.3.3-.4l.9-1.3c.1-.1.1-.2.2-.3l1.3-1.8c.3-.5.7-.9 1-1.4l1.8-2.4c1.1-1.4 2-2.7 2.9-3.9.3-.4.7-.9 1-1.3 1.5-1.9 2.9-3.6 4.2-5.1l2.1-2.4.4-.5 1.5-1.7c1.1-1.2 2.2-2.3 3.3-3.5.2-.2.5-.5.8-.7.3-.4.7-.7 1-1l1.2-1.2.6-.6v-1.1h1.1c1.5-1.5 3-2.8 4.4-4.1.3-.3.6-.6.9-1 .1-.1.2-.2.3-.4l.1-.1.2-.4c.1-.2.1-.3.2-.4 0 0 .1-.1.1-.2v-.1c0-.1.1-.2.1-.3v-2.2l-.6-1.9c0-.1-.1-.2-.1-.2-.2-.4-.4-.7-.7-.9-1-1.2-2.5-1.9-4-2-1.6-.1-3.1.4-4.2 1.5-12.1 10.7-22.1 22.7-30.4 34.7-4.9 7.1-9.3 14.3-13.1 21.1-9.2 16.7-15.4 31.8-19.4 41.9l-.4.9c0 .1-.1.3-.2.4-.1.4-.3.7-.4 1-.1.3-.2.5-.3.8-.1.2-.1.4-.2.6l-.2.4c0 .1-.1.1-.1.2l-.1.4c-.1.1-.1.3-.2.4l-.3.6-.1.3-.1.3c-.1.1-.1.3-.2.4-.1.2-.2.5-.4.8-.2.5-.5.9-.8 1.3-.3.4-.6.8-1 1.1-.2.2-.4.3-.6.5-.3.3-.8.6-1.3.9l-.4.3-.3.3h-.4l-.3.1c-.1 0-.2.1-.2.1l-.2.1c-.2.1-.4.1-.6.2l-1.7.4-.1-.1h-1.7c-.1 0-.3 0-.6-.1-.4-.1-.8-.1-1.1-.2-.1 0-.3-.1-.5-.1s-.4-.1-.6-.2c-.1 0-.2-.1-.3-.1l-.2-.1h-.4l-.3-.3c-.2-.1-.4-.2-.5-.3l-.1-.1h-.1l-.7-.4-.9-.6c-.1 0-.1-.1-.2-.1l-.1-.1h-.1c-.3-.2-.5-.4-.7-.6-.2-.2-.5-.4-.7-.6l-.3-.3-.5-.5c-.2-.2-.4-.5-.6-.7-.5-.6-.9-1.2-1.2-1.8-.1-.1-.2-.3-.3-.5l-.3-.6c-.1-.1-.1-.3-.2-.4-.1-.3-.3-.6-.4-.9l-.1-.3-10.4-46.4c-.1-.3-.2-.7-.2-1l-.2-.2v-.6c0-.1 0-.2-.1-.3l-.2-1-.1-.4c0-.2-.1-.4-.1-.6V245.9l-.1-.1V244.9c-.1-.4-.1-.8-.2-1.1l-.1-.4-.1-.1v-.7c-.1-.5-.1-1-.2-1.4 0-.2 0-.5-.1-.8l-.1-1.1c-.1-1-.1-2-.1-3v-3.2l.1-.7c0-.3.1-.5.1-.7l.1-.6v-.3c0-.3.1-.5.1-.8v-.4l.1-.4.1-.5c0-.1 0-.2.1-.3 0-.3.1-.6.2-.9l.3-1.2.1-.4c0-.2.1-.4.2-.6 0-.1.1-.3.1-.4.1-.3.2-.7.3-1 .1-.2.1-.3.2-.4l.3-.7c0-.1.1-.2.1-.3.1-.1.1-.3.2-.5s.1-.4.2-.5V220h.7s0-.1.1-.1c.1-.2.3-.5.4-.7l.2-.3c.2-.3.3-.6.5-.8l.2-.4c.1-.2.2-.3.3-.4l.1-.1v-.2l.1-.1.1-.2.1-.1.4-.8h.2c.2-.2.3-.4.5-.6.1-.2.3-.4.5-.6l.1-.1c.1-.1.2-.2.2-.3l.2-.2.3-.3.4-.4.2-.2c.1-.1.2-.2.4-.3.2-.1.4-.3.6-.5.1-.1.2-.2.3-.2l.2-.2.2-.2v-.9h1.4l96.5-36.7c.4-.1.8-.3 1.3-.4 4.9-1 10.1 1.7 12.5 6.6l3.7 7.8c0 .1.1.2.1.3l.3.5c0 .1.1.1.1.2l.3.4.1.1.1.1.2.2c.1.1.2.2.3.2 0 0 .1 0 .1.1l-1 1.6 1.1-1.5.4.3.1.1c.2.1.3.2.5.2.2.1.2.1.3.1l.7.2h.5l.1.1c1.1.1 2-.1 3-.5 2.9-1.4 4.1-4.9 2.7-7.8l-2-4.2 2.2-.6c9.2-2.4 18.6-4 28-4.8 2.1-.2 3.9-.3 5.7-.4 3.1-.2 6.4-.3 10-.2 4.2 0 8.5.1 12.7.4 10.5.7 20.9 2.4 31 5.1l2.3.6-2.3 4.2c-.6 1.3-.7 2.9-.2 4.3.5 1.5 1.6 2.7 3 3.3 2.6 1.2 5.7.4 7.3-2l.3-.4c.1-.1.1-.2.2-.3l.1-.1 1.5-2.8 2.3-4.9c2.3-4.9 7.6-7.6 12.5-6.6.4.1.8.2 1.2.4l96.7 36.8.1.1c.8.5 4.7 3.1 7.8 8.9h.7v1.5l.6 1.5.3.9c0 .1.1.2.1.3.3.9.6 1.9.8 3 .1.3.2.7.2 1 .1.4.2 1 .3 1.6.1.6.2 1.3.3 1.9.2 1.5.3 3.1.2 4.7.7-.1.6.3.6.8zm-250.7-37.1v-.4l-.6-1.9c0-.1-.1-.2-.1-.2-.2-.4-.4-.7-.7-.9-1-1.2-2.5-1.9-4-2-1.6-.1-3.1.4-4.2 1.5-12.1 10.7-22.1 22.7-30.4 34.7 5-1.9 10.3-2.8 15.6-2.8h.9c.3-.4.7-.9 1-1.3 1.5-1.9 2.9-3.6 4.2-5.1l2.1-2.4.4-.5 1.5-1.7c1.1-1.2 2.2-2.3 3.3-3.5.2-.2.5-.5.8-.7.3-.4.7-.7 1-1l1.2-1.2.6-.6v-1.1h1.1c1.5-1.5 3-2.8 4.4-4.1.3-.3.6-.6.9-1 .1-.1.2-.2.3-.4l.1-.1.2-.4c.1-.2.1-.3.2-.4 0 0 .1-.1.1-.2v-.1c0-.1.1-.2.1-.3v-1.9zm151-3.9c-1.2-1.1-2.7-1.6-4.2-1.5-1.6.1-3 .8-4 2-2.1 2.4-1.9 6.1.5 8.2 3.1 2.7 6.1 5.6 9 8.7 4.3 4.5 8.5 9.3 12.5 14.5h1c5.3 0 10.6 1 15.6 2.8-8.4-12.1-18.4-24-30.4-34.7z"/></g><path id="path2981" d="M527.2 253c-.1.6-.1 1.2-.2 1.8l-.9 3.8-1.7-1c-2.7-1.5-5.7-1.4-8.1-.1-1.1.6-2 1.4-2.7 2.5-.7 1-1.2 2.2-1.4 3.5-.8 5.8-1.8 11-2.7 14.2-1.6 6.1-4.5 11.8-8.7 16.5-12.2 13.3-28.1 12.5-28.1 12.5h-23.5c-13.8 0-21.7-10.5-25.6-22.4 0-.1-.6-2.7-2.2-5.8-.7-1.4-1.5-2.7-2.5-3.9-4.2-4.9-10.1-7.4-16-7.6-5.9.2-11.9 2.7-16 7.6-1 1.2-1.8 2.5-2.5 3.9-1.6 3.1-2.2 5.7-2.2 5.8-3.8 12-11.8 22.4-25.6 22.4h-23.5s-16 .8-28.1-12.5c-4.2-4.6-7.1-10.4-8.8-16.5-.9-3.3-1.9-8.4-2.7-14.2-.1-.7-.3-1.4-.6-2.1-.7-1.7-2-3.1-3.6-4-2.4-1.3-5.4-1.4-8 .1l-1.5.9c-.2-2.3-.4-4.5-.7-6.6 3.8-6.9 8.2-14 13.1-21.1 5-1.9 10.3-2.8 15.7-2.8h54.3c7.3 0 14.7-.5 22 .8 2.9.5 5.7 1.6 8.4 2.7 3.4 1.3 6.9 2 10.4 2.1 3.5-.1 7.1-.8 10.4-2.1 2.7-1.1 5.5-2.2 8.4-2.7 7.2-1.3 14.7-.8 22-.8h54.3c5.3 0 10.6 1 15.6 2.8 5 7.5 9.5 15 13.5 22.3z"/><path id="XMLID_00000120557045521479948850000018293308156362477965_" d="M312.3 287.3c2.3 2.5 4.7 4.3 7.1 5.6l37.3-54.8h-15.5l-31.9 45.2c.9 1.4 1.9 2.8 3 4z" class="st3"/><path id="XMLID_00000120547381250582373660000009930767679741255093_" d="M474 238.1h-1.3L436.9 289c3 4.7 6.8 7.1 11.5 7.3l39.9-58.3Z" class="st3"/><path id="XMLID_00000176031775494911810450000013236192663438915979_" d="m465.9 296.4 39.2-57.6c-.7-.1-1.4-.3-2.1-.4-.2 0-.5-.1-.7-.1-.5-.1-1-.1-1.6-.2-.2 0-.4 0-.7-.1-.7 0-1.5-.1-2.2-.1h-1.3l-40.3 58.4h9.7z" class="st3"/><path id="XMLID_00000075863070580513546580000011732131292203425955_" d="M334.3 296.4 374 238c-2.3-.1-4.7 0-7.2 0h-2l-39.4 57.3c4 1.1 6.9 1.1 7 1.1h.5z" class="st3"/><path id="path2987" d="M294.6 406.2c3.2 2.2 7.7 6.4 10.5 14 2.9 7.8 3 16.5.1 24.6l-.1.4c-1.5 4.2-4 8-7.1 11.2-3.1 3.2-7 5.7-11.3 7.4-8.3 3.2-14.9 3.9-18.3 1.7-2.1-1.4-3.3-4.2-3.6-8.5.5-4.1 5.4-37.2 23.1-50.5 2.1-1.6 4.7-1.7 6.7-.3z" class="st2"/><path id="path2989" d="M294.6 406.2c.4.3.8.6 1.3.9-13.1 15.2-17 41.5-17.4 45.1.3 4.3 1.5 7.1 3.6 8.5 2 1.3 5.1 1.6 9 .9-1.4.8-2.8 1.5-4.3 2.1-8.3 3.2-14.9 3.9-18.3 1.7-2.1-1.4-3.3-4.2-3.6-8.5.5-4.1 5.4-37.2 23.1-50.5 2-1.5 4.6-1.6 6.6-.2z" class="st4"/><path id="path2991" d="M507.6 406.2c-3.2 2.2-7.7 6.4-10.5 14-2.9 7.8-3 16.5-.1 24.6l.1.4c1.5 4.2 4 8 7.1 11.2 3.1 3.2 7 5.7 11.3 7.4 8.3 3.2 14.9 3.9 18.3 1.7 2.1-1.4 3.3-4.2 3.6-8.5-.5-4.1-5.4-37.2-23.1-50.5-2.1-1.6-4.7-1.7-6.7-.3z" class="st2"/><path id="path2993" d="M507.6 406.2c-.4.3-.8.6-1.3.9 13.1 15.2 17 41.5 17.4 45.1-.3 4.3-1.5 7.1-3.6 8.5-2 1.3-5.1 1.6-9 .9 1.4.8 2.8 1.5 4.3 2.1 8.3 3.2 14.9 3.9 18.3 1.7 2.1-1.4 3.3-4.2 3.6-8.5-.5-4.1-5.4-37.2-23.1-50.5-2-1.5-4.6-1.6-6.6-.2z" class="st4"/><path id="path2995" d="M285.1 429.1c-.5 1.3-.4 2.7.1 3.9.4-2 .8-3.9 1.2-5.9-.6.5-1 1.2-1.3 2zM548 456.2c-.2-1.7-4.9-41.4-27.4-58.3-4-3-9.1-4-13.7-2.9-1.9.4-3.7 1.2-5.3 2.3-1.4.9-2.9 2.1-4.5 3.6-3.6 3.4-7.4 8.4-10.1 15.5-.3.8-.6 1.7-.9 2.6h-5.3v-6.5c0-2-1.6-3.6-3.6-3.6s-3.6 1.6-3.6 3.6v6.5h-42.7v-6.5c0-2-1.6-3.6-3.6-3.6s-3.6 1.6-3.6 3.6v6.5H381v-6.5c0-2-1.6-3.6-3.6-3.6s-3.6 1.6-3.6 3.6v6.5h-44.9v-6.5c0-2-1.6-3.6-3.6-3.6s-3.6 1.6-3.6 3.6v6.5h-5.3c-.3-.9-.6-1.7-.9-2.6-2.1-5.7-5-10-7.9-13.2-2.3-2.6-4.7-4.5-6.7-5.9-.8-.5-1.6-1-2.5-1.4-5.3-2.4-11.7-1.7-16.6 1.9-22.5 16.9-27.2 56.6-27.4 58.3v.8c.4 8.2 3.2 14.1 8.4 17.5 2.7 1.8 5.9 2.7 9.6 3 2.8.2 5.9-.1 9.2-.8v109.5c0 6.1 5 11.1 11.1 11.1h2.3v14.3c0 7.2 5.9 13.1 13.1 13.1h184c7.2 0 13.1-5.9 13.1-13.1v-14.3h5.6c6.1 0 11.1-5 11.1-11.1V476.8c3 .6 5.7.8 8.2.6 3.7-.2 6.9-1.2 9.6-3 5.2-3.4 8.1-9.3 8.4-17.5v-.4zm-232.7-7.5.1-.3c1.5-4.3 2.4-8.7 2.6-13.1.1-2.2.1-4.4-.1-6.6h3.5v20.5c0 2 1.6 3.6 3.6 3.6s3.6-1.6 3.6-3.6v-20.5h44.9v20.5c0 2 1.6 3.6 3.6 3.6s3.6-1.6 3.6-3.6v-20.5h42.7v20.5c0 2 1.6 3.6 3.6 3.6s3.6-1.6 3.6-3.6v-20.5h42.7v20.5c0 2 1.6 3.6 3.6 3.6s3.6-1.6 3.6-3.6v-20.5h3.4c-.2 2.2-.2 4.4-.1 6.6.3 4.4 1.1 8.8 2.6 13.1l.1.3c1.9 5.1 4.7 9.8 8.3 13.7H307c3.6-4 6.4-8.6 8.3-13.7zm-33.9 16.8c-5.8 1.6-10.4 1.6-13-.1-2.1-1.3-3.3-4.2-3.5-8.5.5-4.1 5.4-37.2 23.1-50.5 1.7-1.3 3.8-1.5 5.6-.8.3.1.7.3 1 .5 2.3 1.5 5.1 4.1 7.6 8.1.9 1.4 1.7 2.9 2.4 4.7.2.4.3.8.5 1.2 1 2.7 1.7 5.6 2 8.5.1 1 .2 1.9.2 2.9l-7.8-2.9-1.8-.7-5.7-2.1c-2-.7-4.2-.2-5.6 1.2-.5.5-1 1.2-1.3 2-.5 1.3-.4 2.7.1 3.9.2.5.4.9.8 1.3.6.8 1.4 1.3 2.4 1.7l2.9 1.1 14.9 5.5c-.2.8-.4 1.5-.7 2.3l-.1.4c-1 2.9-2.5 5.6-4.3 8l-9.7-3.6-6.4-2.4c-1.1-.4-2.3-.4-3.3-.1-1.6.5-2.9 1.6-3.6 3.3-1 2.8.4 5.9 3.2 6.9l.4.1 9.7 3.6.7.3c-.2.1-.4.3-.7.4-1.4.8-2.9 1.5-4.4 2.1-2.2.7-3.9 1.3-5.6 1.7zm214 145.9c0 1.9-1.5 3.4-3.4 3.4H308c-1.9 0-3.4-1.5-3.4-3.4v-14.3h190.9v14.3zm16.7-25.3c0 .7-.6 1.3-1.3 1.3H292.5c-.7 0-1.3-.6-1.3-1.3V473.5c1.1-.4 2.1-.9 3.1-1.4H508c1.2.6 2.4 1.1 3.7 1.6.2.1.3.1.5.2v112.2zm21.7-120.7c-2.4 1.6-6.6 1.7-12 .3-2-.5-4.1-1.2-6.3-2-1.2-.5-2.3-1-3.4-1.6-.6-.3-1.1-.6-1.7-1l1.7-.6 9.1-3.3.6-.3c2.4-1.2 3.5-4 2.5-6.6-.5-1.3-1.4-2.3-2.5-2.9-1.3-.7-2.9-.8-4.3-.3l-5.4 2-10.7 3.9c-1.8-2.4-3.3-5.1-4.3-8l-.1-.4c-.3-.8-.5-1.5-.7-2.3l15.9-5.9 1.9-.7c.6-.2 1.2-.5 1.6-1 1.7-1.4 2.3-3.8 1.5-5.9-1-2.8-4.1-4.2-6.9-3.2l-2.4.9-5.1 1.9-7.8 2.9c0-1 .1-1.9.2-2.9.3-2.9 1-5.7 2-8.5.2-.4.3-.8.5-1.2 1.4-3.3 3-5.8 4.7-7.9 1.9-2.2 3.8-3.8 5.3-4.9 1.4-.9 3-1.2 4.6-.8.7.2 1.4.5 2.1 1 17.7 13.3 22.6 46.4 23.1 50.5-.4 4.6-1.6 7.5-3.7 8.8z"/><path id="path2997" d="M347.1 403.7c5.7 1.4 11.8 2.6 18.1 3.5-5.2 3.3-10.1 7.2-14.7 11.7h-21.8v-6.5c0-2-1.6-3.6-3.6-3.6s-3.6 1.6-3.6 3.6v6.5h-5.3c-.3-.9-.6-1.7-.9-2.6-2.1-5.7-5-10-7.9-13.2 3.3-6.4 6.2-10.5 7-11.6l1 .5c4.7 2.4 9.7 4.6 15 6.5 1 .4 2.1.8 3.2 1.2.4.2.8.3 1.2.4.4.1.8.3 1.1.4 1.6.5 3.5 1.1 5.4 1.6 1.9.7 4 1.2 5.8 1.6z" class="st2"/><path id="path2999" d="M497.1 400.9c-3.6 3.4-7.4 8.4-10.1 15.5-.3.8-.6 1.7-.9 2.6h-5.3v-6.5c0-2-1.6-3.6-3.6-3.6s-3.6 1.6-3.6 3.6v6.5h-17.9c-4.7-4.6-9.6-8.5-14.9-11.8 4.7-.7 9.3-1.5 13.9-2.5 2.2-.5 4-.9 5.6-1.4 2-.5 3.9-1 5.7-1.6.9-.2 1.8-.5 2.6-.8 1-.3 2-.6 2.9-1 6.5-2.2 12.9-4.9 18.7-7.9l1.3-.7c.3.4 1.3 1.8 2.6 4 .9 1.7 1.9 3.5 3 5.6z" class="st2"/><path id="path3001" d="M430.8 418.9v-6.5c0-2-1.6-3.6-3.6-3.6s-3.6 1.6-3.6 3.6v6.5h-42.7v-6.5c0-2-1.6-3.6-3.6-3.6s-3.6 1.6-3.6 3.6v6.5h-23.1c4.6-4.5 9.5-8.4 14.7-11.7.4.1.9.1 1.4.2 5.6.7 10.3 1.2 14.9 1.5 5.6.4 11.3.6 17.1.6h1.3c.6-.1.8-.1 1.2 0H407.3c4.5 0 8.4-.1 12.1-.3 6.2-.3 12.2-.8 17.7-1.5 1.3-.2 2.6-.3 4-.5 5.2 3.3 10.2 7.3 14.9 11.8h-25.2z" class="st3"/></g></svg>