<svg xmlns="http://www.w3.org/2000/svg" width="64" height="64"><g data-name="Group 95" transform="translate(-11.479 -43.433)"><circle cx="43.479" cy="75.433" r="32" fill="#fff" data-name="Ellipse 1"/><path fill="#75cef9" d="m53.89 80.037-.72-.423-2.843-1.574.8-4.508-.485-6.868-.57-.425-6.653 2.386-.593.946v24.017l.593 1.082 10.47-3.755.565-.7v-10.82Z" data-name="Path 38"/><path fill="#90d8f9" d="M38.855 66.988h-.67l-5.892 6.244v17.126l.657.557 10.47 3.755V68.623z" data-name="Path 39"/><path fill="#75cef9" d="m32.686 72.496-4.972-5.508h-.67l-3.987 1.43a.874.874 0 0 0-.578.82v24.189a.874.874 0 0 0 1.169.822l9.3-3.336V73.23z" data-name="Path 40"/><path fill="#6bbef6" d="M27.492 92.059V66.988h-.448l-3.987 1.43a.874.874 0 0 0-.578.82v24.189a.874.874 0 0 0 1.169.822l4.169-1.5a.9.9 0 0 1-.325-.69z" data-name="Path 41"/><path fill="#f87c68" d="M32.95 56.433a6.926 6.926 0 0 0-5.2 11.495l4.293 4.89a1.214 1.214 0 0 0 1.824 0l4.293-4.89a6.926 6.926 0 0 0-5.21-11.495zm0 10.786a3.847 3.847 0 1 1 3.847-3.847 3.847 3.847 0 0 1-3.847 3.847z" data-name="Path 42"/><g data-name="Group 85"><path fill="#ec625e" d="M31.276 67.928A7.014 7.014 0 0 1 30 65.84a3.844 3.844 0 0 1 .01-4.947 6.874 6.874 0 0 1 4.705-4.244 7.128 7.128 0 0 0-1.766-.22 6.926 6.926 0 0 0-5.2 11.496l4.293 4.89a1.214 1.214 0 0 0 1.824 0l.854-.972z" data-name="Path 43"/></g><path fill="#95d6a4" d="m53.89 64.869-3.817 1.369c.157 1.023.112 2.31-.976 2.7-1.812.653-1.981 2.654-.443 2.865 1.538.21 2.339.864 1.833 2.044-.506 1.18-2.233 4.467.758 5.92a4.323 4.323 0 0 0 2.644.267l.365-.607V65.375z" data-name="Path 44"/><path fill="#90d8f9" d="M60.1 86.733c-2.33-2.08 1.49-3.567.619-6.7s-6.18-.733-6.18-.733l-.65.733V90.91l7.35 2.636c3.274-2.17 1.194-4.735-1.138-6.814z" data-name="Path 45"/><path fill="#b3e59f" d="M63.19 94.25a.874.874 0 0 0 1.17-.821v-24.19a.874.874 0 0 0-.58-.822l-9.89-3.548v15.168c2.385-.4 4.79-1.942 5.826-.753a2.221 2.221 0 0 1 0 3.37c-.506.422-2.4 3.54.168 5.015 2.32 1.332 3.38 3.553 1.356 5.88z" data-name="Path 46"/><g data-name="Group 86"><path fill="#b1e4f9" d="M30.749 79.744a2.236 2.236 0 0 1-1.517-.586 2.258 2.258 0 0 1-3.035 0 2.236 2.236 0 0 1-1.517.586.632.632 0 0 1 0-1.264.985.985 0 0 0 .79-.393.912.912 0 0 1 1.455 0 .991.991 0 0 0 1.58 0 .912.912 0 0 1 1.455 0 .985.985 0 0 0 .79.393.632.632 0 0 1 0 1.264z" data-name="Path 47"/></g><g data-name="Group 87"><path fill="#b1e4f9" d="M41.22 83.91a2.236 2.236 0 0 1-1.517-.585 2.258 2.258 0 0 1-3.035 0 2.236 2.236 0 0 1-1.517.586.632.632 0 1 1 0-1.264.985.985 0 0 0 .79-.393.905.905 0 0 1 .728-.361.906.906 0 0 1 .727.36.992.992 0 0 0 1.58 0 .912.912 0 0 1 1.455 0 .985.985 0 0 0 .79.394.632.632 0 0 1 0 1.264z" data-name="Path 48"/></g><g data-name="Group 88"><path fill="#b1e4f9" d="M51.69 88.078a2.236 2.236 0 0 1-1.517-.586 2.258 2.258 0 0 1-3.035 0 2.236 2.236 0 0 1-1.517.586.632.632 0 1 1 0-1.264.985.985 0 0 0 .79-.393.912.912 0 0 1 1.455 0 .991.991 0 0 0 1.58 0 .912.912 0 0 1 1.455 0 .985.985 0 0 0 .79.393.632.632 0 0 1 0 1.264z" data-name="Path 49"/></g><g data-name="Group 89"><path fill="#b1e4f9" d="M30.749 76.454a2.236 2.236 0 0 1-1.517-.586 2.258 2.258 0 0 1-3.035 0 2.236 2.236 0 0 1-1.517.586.632.632 0 1 1 0-1.264.985.985 0 0 0 .79-.393.912.912 0 0 1 1.455 0 .991.991 0 0 0 1.58 0 .912.912 0 0 1 1.455 0 .985.985 0 0 0 .79.393.632.632 0 0 1 0 1.264z" data-name="Path 50"/></g><g data-name="Group 90"><path fill="#b1e4f9" d="M41.22 80.623a2.236 2.236 0 0 1-1.517-.586 2.258 2.258 0 0 1-3.035 0 2.236 2.236 0 0 1-1.517.586.632.632 0 1 1 0-1.264.985.985 0 0 0 .79-.393.905.905 0 0 1 .728-.361.906.906 0 0 1 .727.36.991.991 0 0 0 1.58 0 .912.912 0 0 1 1.455 0 .985.985 0 0 0 .79.394.632.632 0 0 1 0 1.264z" data-name="Path 51"/></g><g data-name="Group 91"><path fill="#b1e4f9" d="M51.69 84.79a2.236 2.236 0 0 1-1.517-.586 2.258 2.258 0 0 1-3.035 0 2.236 2.236 0 0 1-1.517.586.632.632 0 1 1 0-1.264.985.985 0 0 0 .79-.393.912.912 0 0 1 1.455 0 .991.991 0 0 0 1.58 0 .912.912 0 0 1 1.455 0 .985.985 0 0 0 .79.393.632.632 0 0 1 0 1.264z" data-name="Path 52"/></g></g></svg>