<svg xmlns="http://www.w3.org/2000/svg" xml:space="preserve" id="svg168" width="64" height="64" version="1.1"><style id="style395" type="text/css">.st4,.st5{opacity:.5}.st2{fill:#525152}.st3{opacity:.8}.st3,.st4{fill:#3a3a3a}.st5{fill:#c49e9d}.st6{fill:#ac7676}.st7{fill:#fff}.st8{fill:#161616}.st12{fill:#2a2a2a}.st13,.st14{fill:#fecd03}.st14{opacity:.7}</style><g id="g2581" transform="translate(-7.095 -7.107) scale(.09759)"><path id="path2479" d="M588.4 389.8v33.7H212.9v-33.7c0-5.7 4.7-10.4 10.4-10.4H578c5.7 0 10.4 4.6 10.4 10.4z" style="fill:#7abcdc"/><path id="path2481" d="M588.3 388.8c0-.2 0-.3-.1-.4 0-.2 0-.3-.1-.5 0-.2-.1-.4-.1-.5 0-.1-.1-.3-.1-.4-.1-.2-.1-.4-.2-.5 0-.1 0-.2-.1-.2-1.5-3.9-5.3-6.8-9.7-6.8H223.3c-4.6 0-8.4 3-9.8 7-.1.2-.1.4-.2.6 0 .1-.1.3-.1.4 0 .2-.1.3-.1.5s-.1.4-.1.6v17.5c2.9 3.4 6.5 6.7 10.6 10 3.8 3 7.9 5.5 12.2 7.5h51c1-.4 1.9-.9 2.8-1.3 8.1-4.1 15.1-9.7 20.7-16.6 4.3-5.2 7.2-10.4 9.1-15.3H482c2 4.9 4.9 10 9.1 15.3 5.6 6.9 12.6 12.5 20.7 16.7.9.5 1.9.9 2.8 1.3h51c4.3-2 8.4-4.5 12.2-7.5 4.2-3.3 7.8-6.7 10.7-10.2v-16c-.1-.6-.1-.9-.2-1.2zm-286.2 10.1c-4.7 5.8-10.7 10.5-17.4 14-4.6 2.3-9.5 4-14.7 5l-.4.1c-14 2.6-28.4-1.2-39.8-10.1-6.3-5-10.8-9.9-13.7-14.9 1.9-1.7 4.3-2.8 7.1-2.8h84.6c-1.4 2.8-3.3 5.7-5.7 8.7zm269.1 8.9c-11.3 9-25.8 12.7-39.8 10.1l-.4-.1c-5.2-1-10.1-2.7-14.7-5-6.7-3.4-12.6-8.1-17.4-14-2.4-3-4.3-5.9-5.8-8.7H578c2.7 0 5.1 1 6.9 2.7-2.8 5-7.4 10-13.7 15z" style="opacity:.5;fill:#7abcdc"/><path id="path2483" d="M547.5 144.2c-22.5-16.3-44.9-21.7-66.6-16.3-16.1 4-26 13-26.1 13.1-1.9 1.7-4.8 1.9-6.9.5-13.9-9.8-38-10.6-45.1-10.6h-4.2c-5.9 0-31.1.6-45.3 10.6-2.1 1.5-5 1.3-6.9-.5-.1-.1-10-9-26.1-13.1-21.7-5.5-44.2 0-66.6 16.3-4.7 3.4-7.3 9.2-6.8 15 1.1 13.5 3.5 20.9 5.5 23.7 2.8-4.1 6-8.5 9.9-13.5 7.7-9.8 16.2-19.9 26.9-27.6 7.1-5.1 13.7-7.4 20.4-7 7.1.4 14.1 2.3 19.6 5.5 2.1 1.2 3.4 3.4 3.4 5.7.1 2.4-1.1 4.6-3.1 6-10.7 7.2-19.3 17.9-26.4 27.3-1.4 1.8-2.8 3.6-4.2 5.5-6.6 8.6-13.4 17.4-17.6 27.1-.5 1.2-.9 2.2-1.1 3l4.1-2.3c1.8-1 4.1-.9 5.8.3 1.7 1.2 2.6 3.3 2.2 5.3-.3 2-7.9 47.9-13.9 71.6.9-.3 2-.9 3.3-1.7.9-.5 1.9-.8 2.9-.8.8 0 1.6.2 2.3.5 1.7.8 2.8 2.4 3.1 4.2 0 .2 2.2 15.1 16.5 29.6 16.7 17 43.5 26.7 77.8 28.2l-.6-.6c-12.7-12.1-14.2-37.6-14.3-47-13.6-8.2-16.6-24.8-16.7-25.6-.5-2.9 1.4-5.8 4.4-6.3 1.4-.3 2.9.1 4.1.9 1.2.8 2 2.1 2.3 3.5 0 .1 2.6 13.2 12.4 18.6 5.6 3 12.8 3.1 21.4.2V288c-4.5-.8-14.1-4-17.7-16-1-3.5-.4-7.2 1.8-10.2 2.2-2.9 5.5-4.6 9.2-4.6H415c3.7 0 7 1.7 9.2 4.6 2.2 2.9 2.8 6.7 1.8 10.2-3.6 12-13.2 15.2-17.7 16v5.7c8.6 2.9 15.8 2.9 21.4-.2 9.6-5.2 12.3-18 12.4-18.6.5-2.9 3.4-4.9 6.3-4.4s4.9 3.4 4.4 6.3c-.1.7-3.1 17.3-16.7 25.5-.1 9.3-1.6 34.9-14.3 47-.1.1-.2.2-.4.3 32.1-2.2 57.3-11.8 73.2-28 14.1-14.3 16.4-29 16.5-29.6.2-1.8 1.4-3.4 3.1-4.2 1.7-.8 3.7-.7 5.2.3 1.3.8 2.4 1.3 3.3 1.7-6-23.7-13.5-69.5-13.9-71.6-.3-2.1.5-4.1 2.2-5.3 1.7-1.2 3.9-1.3 5.8-.3l4.1 2.3c-.2-.8-.6-1.8-1.1-3-4.2-9.8-11-18.6-17.6-27.1-1.4-1.9-2.8-3.7-4.2-5.5-7.1-9.4-15.6-20.1-26.4-27.3-2-1.4-3.1-3.6-3.1-6 .1-2.4 1.4-4.5 3.4-5.7 5.5-3.2 12.4-5.1 19.6-5.5 6.7-.3 13.3 2 20.4 7 10.7 7.6 19.2 17.8 26.9 27.6 3.9 5 7.1 9.3 9.9 13.5 1-1.4 2.1-4 3.1-7.8 1-3.9 1.9-9.1 2.4-15.9.7-5.9-2-11.6-6.7-15zm-173.8 92.6c-3 0-5.5-2.5-5.5-5.5 0-6.8-5.5-12.2-12.2-12.2-6.7 0-12.2 5.5-12.2 12.2 0 3-2.4 5.5-5.5 5.5-3 0-5.5-2.5-5.5-5.5 0-12.8 10.4-23.2 23.2-23.2 12.8 0 23.2 10.4 23.2 23.2 0 3-2.5 5.5-5.5 5.5zm100.8-5.5c0 3-2.4 5.5-5.5 5.5-3 0-5.5-2.5-5.5-5.5 0-6.8-5.5-12.2-12.2-12.2-6.7 0-12.2 5.5-12.2 12.2 0 3-2.4 5.5-5.5 5.5-3 0-5.5-2.5-5.5-5.5 0-12.8 10.4-23.2 23.2-23.2 12.8 0 23.2 10.4 23.2 23.2z" class="st2"/><path id="path2485" d="M522.7 289.9c-.9-.3-2-.9-3.3-1.7-1.6-1-3.5-1.1-5.2-.3-1.7.8-2.8 2.4-3.1 4.2-.1.6-2.4 15.3-16.5 29.6-15.9 16.2-41.1 25.8-73.2 28 .1-.1.2-.2.4-.3 2.7-2.5 4.8-5.6 6.6-9.1 21.7-4.4 39.1-13.4 51.1-26.5 13.7-15 16-30.3 16.1-31 .2-1.9 1.4-3.5 3-4.4 1.7-.8 3.6-.7 5.1.3 1.3.8 2.3 1.4 3.2 1.7-5.9-24.7-13.2-72.6-13.5-74.8-.3-2.2.5-4.3 2.2-5.6 1.7-1.3 3.8-1.4 5.6-.4l4 2.4c-.2-.8-.6-1.9-1.1-3.1-4.1-10.2-10.7-19.4-17.1-28.3-1.4-2-2.8-3.8-4.1-5.8-2.5-3.5-5.2-7.3-8.1-10.9 9.3 7.1 16.9 16.6 23.3 25.1 1.4 1.8 2.8 3.6 4.2 5.5 6.6 8.5 13.4 17.3 17.6 27.1.5 1.2.9 2.2 1.1 3l-4.1-2.3c-1.8-1-4.1-.9-5.8.3-1.7 1.2-2.6 3.3-2.2 5.3.2 2.5 7.7 48.4 13.8 72z" class="st3"/><path id="path2487" d="M383.8 349.4c-3.7-3.5-6.4-8.1-8.5-13.2-23.6-4-42.4-12.8-55.2-25.9-14.2-14.5-16.4-29.4-16.5-29.6-.2-1.8-1.4-3.4-3.1-4.2-.7-.3-1.5-.5-2.3-.5-1 0-2 .3-2.9.8-1.3.8-2.4 1.3-3.3 1.7 6-23.7 13.5-69.5 13.9-71.6.3-2.1-.5-4.1-2.2-5.3-1.7-1.2-4-1.3-5.8-.3l-4.1 2.3c.2-.8.6-1.8 1.1-3 4.2-9.8 11-18.6 17.6-27.1 1.4-1.8 2.8-3.6 4.2-5.5 4.1-5.4 8.6-11.2 13.7-16.5h-.1c-.2.2-.5.4-.7.5-10.7 7.2-19.3 17.9-26.4 27.3-1.4 1.8-2.8 3.6-4.2 5.5-6.6 8.6-13.4 17.4-17.6 27.1-.5 1.2-.9 2.2-1.1 3l4.1-2.3c1.8-1 4.1-.9 5.8.3 1.7 1.2 2.6 3.3 2.2 5.3-.3 2-7.9 47.9-13.9 71.6.9-.3 2-.9 3.3-1.7.9-.5 1.9-.8 2.9-.8.8 0 1.6.2 2.3.5 1.7.8 2.8 2.4 3.1 4.2 0 .2 2.2 15.1 16.5 29.6 16.7 17 43.5 26.7 77.8 28.2-.1 0-.3-.2-.6-.4z" class="st3"/><path id="path2489" d="M554.4 159.2c-.6 6.8-1.4 12-2.4 15.9-1 3.9-2.1 6.4-3.1 7.8-2.5-3.7-5.4-7.6-8.7-11.9.4-2.5.7-5.4 1-8.6.5-5.9-2.1-11.6-6.8-15-19.9-14.4-39.8-20.4-59.2-17.7 1.8-.7 3.8-1.3 5.9-1.8 21.7-5.5 44.1 0 66.6 16.3 4.5 3.4 7.2 9.1 6.7 15z" class="st4"/><path id="path2491" d="M332 132c-21.2-4.8-43.1.8-65.1 16.6-4.7 3.4-7.3 9.2-6.8 15 .2 2.8.5 5.4.9 7.7-3.3 4.3-6 8-8.4 11.6-2-2.8-4.4-10.2-5.5-23.7-.5-5.9 2.1-11.6 6.8-15 22.5-16.3 44.9-21.7 66.6-16.3 4.2 1.1 8.1 2.5 11.5 4.1z" class="st4"/><path id="path2493" d="M531.1 173.8c-4 1.9-9.7 5.9-15.5 13.9-2.1-2.8-4.3-5.6-6.4-8.4-1.4-1.8-2.8-3.6-4.1-5.4-7-9.2-15.3-19.6-25.9-27.5 3.8-1.7 8.2-2.7 12.8-2.9 4.6-.2 9.4 1.5 14.8 5.4 9.5 6.9 17.3 16 24.3 24.9z" class="st5"/><path id="path2495" d="M531.1 173.8c-2.3 1.1-5.2 2.9-8.4 5.9-6.4-7.9-13.4-15.6-21.7-21.5-5.2-3.7-9.8-5.5-14.3-5.4-2.4-2.2-4.8-4.3-7.5-6.3 3.8-1.7 8.2-2.7 12.8-2.9 4.6-.2 9.4 1.5 14.8 5.4 9.5 6.8 17.3 15.9 24.3 24.8z" class="st6"/><path id="path2497" d="M322 146.5c-10.6 7.8-18.9 18.2-25.9 27.5-1.4 1.8-2.8 3.6-4.1 5.4-2.1 2.8-4.3 5.5-6.4 8.4-5.7-8.1-11.5-12-15.5-13.9 7-9 14.9-18.1 24.3-24.8 5.4-3.8 10.2-5.6 14.8-5.4 4.6.2 9 1.2 12.8 2.8z" class="st5"/><path id="path2499" d="M322 146.5c-2.1 1.6-4.2 3.3-6.1 5-4.6-.2-9.4 1.5-14.8 5.4-8.7 6.2-16 14.4-22.6 22.7-3.2-2.9-6.1-4.7-8.4-5.8 7-9 14.9-18.1 24.3-24.8 5.4-3.8 10.2-5.6 14.8-5.4 4.6.3 9 1.3 12.8 2.9z" class="st6"/><path id="path2501" d="M447.8 260.7C436 251 419.3 248 412.3 233c-6.3-13.6-.2-28.3 8-39.8 2.4-3.4 4.5-7 6-10.8 4-10.3 7.5-28.2-10-37.6-9.7-5.2-21.5-5.2-31.2 0-17.6 9.5-14 27.4-10 37.6 1.5 3.9 3.6 7.5 6 10.8 8.1 11.5 14.2 26.1 8 39.8-6.9 15.1-23.6 18-35.5 27.7-10 8.2-18.5 23.2-18.2 36.3.5 21.1 11.3 44.8 36.7 55.9 1.6.7 28.7 2.6 28.7.3 0 2.3 27.1.4 28.7-.3 25.4-11.2 36.2-34.8 36.7-55.9.1-13.2-8.4-28.2-18.4-36.3z" class="st7"/><path id="path2503" d="M379.2 231.3c0 3-2.4 5.5-5.5 5.5s-5.5-2.5-5.5-5.5c0-6.8-5.5-12.2-12.2-12.2-6.7 0-12.2 5.5-12.2 12.2 0 3-2.4 5.5-5.5 5.5-3 0-5.5-2.5-5.5-5.5 0-12.8 10.4-23.2 23.2-23.2 12.8 0 23.2 10.4 23.2 23.2z" class="st8"/><path id="path2505" d="M474.5 231.3c0 3-2.4 5.5-5.5 5.5-3 0-5.5-2.5-5.5-5.5 0-6.8-5.5-12.2-12.2-12.2-6.7 0-12.2 5.5-12.2 12.2 0 3-2.4 5.5-5.5 5.5-3 0-5.5-2.5-5.5-5.5 0-12.8 10.4-23.2 23.2-23.2 12.8 0 23.2 10.4 23.2 23.2z" class="st8"/><path id="path2507" d="M553.9 135.3c-31.6-22.9-58.8-22.4-76.1-17.9-12.9 3.3-22.2 9.2-27.2 12.9-19-10.9-46.6-10.4-50-10.3-3.5-.1-31.1-.6-50 10.3-4.9-3.7-14.2-9.6-27.2-12.9-17.3-4.4-44.5-4.9-76.1 17.9-7.8 5.6-12.1 15.1-11.3 24.8 1.5 17.5 5 28.1 10.7 32.5 2.7 2 5.8 2.7 9 2.1 1.5-.3 2.7-1.2 3.5-2.4 2.2-3.3 4.5-6.7 7.2-10.4 3 1.5 7.6 4.8 12.4 11.8-3.2 4.9-5.7 9.5-7.6 13.9-2.9 6.8-3.2 11.9-1 15.5 1.6 2.6 4.4 4.2 7.9 4.4.5 0 1 0 1.5-.1-3 17.4-9 51-13.4 65.5-.5 1.8-.1 3.8 1.2 5.2.2.2 4.7 5.1 13.4 2.5 2.1 6.7 7 17.7 17.4 28.5 1.1 1.1 2.3 2.3 3.5 3.4-2 14.8-6.5 27.1-10.4 35.5-2.8 6.1-5.3 10.1-6.1 11.4h12.6c1.6-2.9 3.5-6.8 5.4-11.4 3.1-7.4 6.3-16.8 8.3-27.7 6.9 4.7 14.8 8.7 23.5 11.8 16.6 6 36.5 9.1 58.9 9.1 2 0 4.1 0 6.3-.1 2.3.1 4.4.1 6.4.1 22.5 0 42.3-3.1 58.9-9.1 9.2-3.3 17.5-7.6 24.7-12.7 2 11.3 5.2 21 8.4 28.5 1.9 4.6 3.8 8.5 5.4 11.4h12.6c-.9-1.3-3.3-5.4-6-11.4-4-8.6-8.7-21.4-10.6-36.6l2.3-2.3c10.5-10.8 15.3-21.8 17.5-28.5 8.7 2.6 13.2-2.3 13.4-2.5 1.3-1.4 1.7-3.4 1.2-5.3-4.3-14.4-10.4-48-13.4-65.5.5.1 1 .2 1.6.1 3.5-.2 6.3-1.8 7.9-4.4 2.3-3.7 1.9-8.7-1-15.5-1.9-4.5-4.4-9-7.6-13.9 4.8-7 9.4-10.2 12.4-11.8 2.7 3.7 5.1 7.1 7.2 10.3a5.7 5.7 0 0 0 3.6 2.4c3.2.6 6.4-.1 9-2.1 5.8-4.4 9.3-15 10.7-32.5 1.3-9.4-3.1-18.8-10.9-24.5zm-280.6 37.9c6.2-7.8 13.7-16.3 22.3-22.5 5-3.6 9.4-5.2 13.5-5 3 .1 6 .7 8.7 1.5-9.4 7.7-16.9 17.2-23.3 25.6-1.2 1.5-2.3 3-3.5 4.6l-1 1.2c-1.4 1.9-2.9 3.8-4.4 5.7-4.4-5.6-8.8-9.1-12.3-11.1zm136 171.3c-1.8.5-3.9.8-6.5.8h-.1c-2.1 0-3.7-.1-5.1-.4-1.5-.3-3.1-1-4.5-2-.5-.4-1.1-.9-1.7-1.4-8.3-7.9-10.3-25.6-10.8-35.1 1.7.3 3.4.4 5.1.4 5.2 0 11-1.2 17.1-3.5 6.1 2.3 11.9 3.5 17.1 3.5 1.7 0 3.4-.1 5.1-.4-.5 9.5-2.5 27.1-10.8 35.1-1.5 1.5-3.2 2.5-4.9 3zm106.4-160.2c-1.5-2-3-3.9-4.4-5.8l-.8-1c-1.2-1.6-2.4-3.1-3.6-4.7-6.4-8.4-13.9-17.9-23.3-25.6 2.7-.8 5.7-1.3 8.7-1.5 4.1-.2 8.5 1.4 13.5 5 8.7 6.2 15.9 14.4 22.3 22.5-3.6 2-8 5.5-12.4 11.1zm38.7-25.1c-.6 6.8-1.4 12-2.4 15.9-1 3.9-2.1 6.4-3.1 7.8-2.8-4.2-6-8.5-9.9-13.5-7.7-9.8-16.2-19.9-26.9-27.6-7.1-5.1-13.7-7.4-20.4-7-7.1.4-14.1 2.3-19.6 5.5-2.1 1.2-3.4 3.4-3.4 5.7-.1 2.4 1.1 4.6 3.1 6 10.8 7.3 19.3 17.9 26.4 27.3 1.4 1.8 2.8 3.6 4.2 5.5 6.6 8.5 13.4 17.3 17.6 27.1.5 1.2.9 2.2 1.1 3l-4.1-2.3c-1.8-1-4.1-.9-5.8.3-1.7 1.2-2.6 3.3-2.2 5.3.3 2 7.9 47.9 13.9 71.6-.9-.3-2-.9-3.3-1.7-1.6-1-3.5-1.1-5.2-.3-1.7.8-2.8 2.4-3.1 4.2-.1.6-2.4 15.3-16.5 29.6-15.9 16.2-41.1 25.8-73.2 28 .1-.1.2-.2.4-.3 12.7-12.1 14.2-37.6 14.3-47 13.6-8.2 16.6-24.8 16.7-25.5.5-3-1.4-5.8-4.4-6.3-3-.5-5.8 1.4-6.3 4.4-.1.5-2.8 13.3-12.4 18.6-5.6 3.1-12.8 3.1-21.4.2V288c4.5-.8 14.1-4 17.7-16 1-3.5.4-7.2-1.8-10.2-2.2-2.9-5.5-4.6-9.2-4.6h-24.3c-3.7 0-7 1.7-9.2 4.6-2.2 2.9-2.8 6.7-1.8 10.2 3.6 12 13.2 15.2 17.7 16v5.7c-8.6 2.9-15.8 2.9-21.4-.2-9.8-5.3-12.4-18.4-12.4-18.6-.3-1.4-1.1-2.7-2.3-3.5-1.2-.8-2.7-1.2-4.1-.9-3 .5-4.9 3.4-4.4 6.3.1.7 3.1 17.3 16.7 25.6.1 9.3 1.6 34.9 14.3 47l.6.6c-34.3-1.5-61.1-11.2-77.8-28.2-14.2-14.5-16.4-29.4-16.5-29.6-.2-1.8-1.4-3.4-3.1-4.2-.7-.3-1.5-.5-2.3-.5-1 0-2 .3-2.9.8-1.3.8-2.4 1.3-3.3 1.7 6-23.7 13.5-69.5 13.9-71.6.3-2.1-.5-4.1-2.2-5.3-1.7-1.2-4-1.3-5.8-.3l-4.1 2.3c.2-.8.6-1.8 1.1-3 4.2-9.8 11-18.6 17.6-27.1 1.4-1.8 2.8-3.6 4.2-5.5 7.1-9.4 15.7-20.1 26.4-27.3 2-1.3 3.1-3.6 3.1-6-.1-2.4-1.4-4.5-3.4-5.7-5.5-3.2-12.5-5.1-19.6-5.5-6.7-.3-13.3 2-20.4 7-10.7 7.7-19.2 17.8-26.9 27.6-3.9 5-7.1 9.4-9.9 13.5-2-2.8-4.4-10.2-5.5-23.7-.5-5.9 2.1-11.6 6.8-15 22.5-16.3 44.9-21.7 66.6-16.3 16.1 4 26 13 26.1 13.1 1.9 1.8 4.8 2 6.9.5 14.2-10 39.4-10.6 45.3-10.6h4.2c7.1 0 31.2.8 45.1 10.6 2.1 1.5 5 1.3 6.9-.5.1-.1 10-9.1 26.1-13.1 21.7-5.5 44.1 0 66.6 16.3 4.4 3.2 7.1 8.9 6.6 14.8z" class="st8"/><path id="path2509" d="M429.6 301.9c-.3 10.2-2.1 32.9-12.7 43-1.8 1.7-4 3.1-6.4 3.8-2.6.8-5.3 1-7.9 1-2 0-4.1-.1-6.1-.5-2.1-.4-4.1-1.4-5.8-2.6-.7-.5-1.4-1.1-2.1-1.7-10.6-10.1-12.4-32.8-12.7-43 2.5.6 5.2.9 8 .9 5.8 0 12-1.3 18.8-4 6.8 2.6 13 4 18.8 4 2.9 0 5.6-.3 8.1-.9z" class="st8"/><path id="path2511" d="M408.8 304.2h-12c-7.8 0-13.8 6.3-12.9 13.5 1.3 10.8 2.6 27.5 18.9 27.5 13.3-.9 17.6-15.2 18.9-26.7.9-7.6-5.1-14.3-12.9-14.3z" style="fill:#ff8084"/><path id="path2513" d="M421.7 318.5c-.2 2.1-.6 4.3-1.1 6.5-2-4.4-6.5-7.6-11.8-7.6h-12c-5.4 0-10 3.1-12 7.4-.4-2.5-.7-4.9-.9-7.2-.9-7.2 5.1-13.5 12.9-13.5h12c7.8.1 13.8 6.8 12.9 14.4z" style="fill:#db4b52;opacity:.5"/><path id="path2515" d="M402.8 300.3c-1.9 0-3.4 1.5-3.4 3.4v27.4c0 1.9 1.5 3.4 3.4 3.4s3.4-1.5 3.4-3.4v-27.4c0-1.9-1.5-3.4-3.4-3.4z" class="st8"/><path id="path2517" d="M533.6 378.8c-.2-.4-.5-.7-.9-1.1l-.1-.1c-.2-.1-.3-.3-.5-.4-.2-.2-.5-.3-.7-.5-.1-.1-.3-.1-.4-.2-.3-.2-.7-.3-1-.4-.2-.1-.4-.1-.6-.1-.5-.1-1-.1-1.5-.1h-.5c-.1 0-.3 0-.4.1-.3.1-.6.1-.8.2-.2.1-.3.1-.5.2s-.3.2-.5.2c-.1.1-.3.2-.4.3-.1.1-.2.1-.3.2-.1.1-.3.2-.4.3-.3.3-.6.6-.9 1-.1.1-.1.2-.2.3-.1.2-.2.3-.3.5H534c-.1 0-.3-.2-.4-.4zm65.1 4.2c-2.2-6.7-7.6-12-14.4-14.1-2-.6-4.1-.9-6.2-.9H223.3c-2.3 0-4.4.3-6.5 1-6.9 2.1-12.3 7.6-14.4 14.4-.6 2-1 4.1-1 6.4v212.5c0 12 9.8 21.8 21.8 21.8h47.9l-.7 56.6c0 2.2 1.2 4.3 3.2 5.2.8.4 1.6.6 2.5.6 1.3 0 2.6-.4 3.6-1.3l75-61.1H578c12 0 21.8-9.8 21.8-21.8V389.8c0-2.4-.4-4.7-1.1-6.8zm-10.3 219.2c0 5.7-4.7 10.4-10.4 10.4H352.7c-.5 0-1.1.1-1.6.2-.4.1-.7.2-1 .4-.4.2-.7.4-1 .7l-67 54.6.6-50.2v-.7c0-.1 0-.2-.1-.3v-.2c0-.1-.1-.2-.1-.4v-.2c0-.1-.1-.3-.1-.4v-.1c-.1-.1-.1-.3-.2-.4 0 0 0-.1-.1-.1-.1-.1-.2-.3-.2-.4v-.1c-.1-.1-.2-.3-.3-.4-.1-.1-.2-.3-.4-.4l-.4-.4c-1-.8-2.3-1.4-3.7-1.4h-53.7c-5.7 0-10.4-4.7-10.4-10.4V434.8h375.5v167.4zm0-178.8H212.9v-33.7c0-1.2.2-2.3.6-3.3 1.4-4.1 5.3-7 9.8-7H578c4.4 0 8.3 2.8 9.7 6.7.4 1.1.7 2.4.7 3.6zm-54.8-44.6c-.2-.4-.5-.7-.9-1.1l-.1-.1c-.2-.1-.3-.3-.5-.4-.2-.2-.5-.3-.7-.5-.1-.1-.3-.1-.4-.2-.3-.2-.7-.3-1-.4-.2-.1-.4-.1-.6-.1-.5-.1-1-.1-1.5-.1h-.5c-.1 0-.3 0-.4.1-.3.1-.6.1-.8.2-.2.1-.3.1-.5.2s-.3.2-.5.2c-.1.1-.3.2-.4.3-.1.1-.2.1-.3.2-.1.1-.3.2-.4.3-.3.3-.6.6-.9 1-.1.1-.1.2-.2.3-.1.2-.2.3-.3.5H534c-.1 0-.3-.2-.4-.4z" class="st8"/><path id="path2519" d="M588.4 434.8v167.4c0 5.7-4.7 10.4-10.4 10.4H352.7c-.5 0-1.1.1-1.6.2-.4.1-.7.2-1 .4-.4.2-.7.4-1 .7l-67 54.6.6-50.2v-.7c0-.1 0-.2-.1-.3v-.2c0-.1-.1-.2-.1-.4v-.2c0-.1-.1-.3-.1-.4v-.1c-.1-.1-.1-.3-.2-.4 0 0 0-.1-.1-.1-.1-.1-.2-.3-.2-.4v-.1c-.1-.1-.2-.3-.3-.4-.1-.1-.2-.3-.4-.4l-.4-.4c-1-.8-2.3-1.4-3.7-1.4h-53.7c-5.7 0-10.4-4.7-10.4-10.4V434.8Z" class="st7"/><path id="path2521" d="M588.4 434.8v167.4c0 5.7-4.7 10.4-10.4 10.4H352.7c-.5 0-1.1.1-1.6.2-.4.1-.7.2-1 .4-.4.2-.7.4-1 .7l-67 54.6.2-17.4 59.7-48.6c.3-.3.7-.5 1-.7.3-.2.7-.3 1-.4.5-.2 1-.2 1.6-.2h219.6c5.7 0 10.4-4.7 10.4-10.4v-156z" style="opacity:.8;fill:#c6c6c5"/><path id="path2523" d="M499 368H303.6c3.1-7.4 6.3-16.8 8.3-27.7 6.9 4.7 14.8 8.7 23.5 11.8 16.6 6 36.5 9.1 58.9 9.1 2 0 4.1 0 6.3-.1 2.3.1 4.4.1 6.4.1 22.5 0 42.3-3.1 58.9-9.1 9.2-3.3 17.5-7.6 24.7-12.7 2 11.3 5.3 21 8.4 28.6z" class="st2"/><path id="path2525" d="M261.3 402.7c0 3.9-3.2 7.1-7.1 7.1-3.9 0-7.1-3.2-7.1-7.1 0-3.9 3.2-7.1 7.1-7.1 3.9 0 7.1 3.2 7.1 7.1z" class="st12"/><circle id="circle2527" cx="279.5" cy="402.7" r="7.1" class="st12"/><path id="path2529" d="M300.3 372.2c-.3 4.5-1.9 11.5-7.9 18.8-6.1 7.5-14.9 12.7-24.7 14.6l-.4.1c-5.2.9-10.4.7-15.5-.6-5-1.3-9.9-3.7-14.1-7-8.1-6.5-12.7-12.8-12.4-17.4.1-2.9 2.3-5.8 6.5-8.6 4.4-1.9 40.7-16.4 64.4-6.4 2.6 1.1 4.2 3.6 4.1 6.5z" class="st2"/><path id="path2531" d="M300.3 372.2c0 .6-.1 1.2-.2 1.8-23-4.3-51.8 7.3-55.7 8.9-4.2 2.8-6.3 5.7-6.5 8.6-.1 2.7 1.4 6.1 4.3 9.6-1.6-.9-3.2-2-4.6-3.1-8.1-6.5-12.7-12.8-12.4-17.4.1-2.9 2.3-5.8 6.5-8.6 4.4-1.9 40.7-16.4 64.4-6.4 2.7 1.2 4.3 3.7 4.2 6.6z" class="st3"/><path id="path2533" d="M500.8 372.2c.3 4.5 1.9 11.5 7.9 18.8 6.1 7.5 14.9 12.7 24.7 14.6l.4.1c5.2.9 10.4.7 15.5-.6 5-1.3 9.9-3.7 14.1-7 8.1-6.5 12.7-12.8 12.4-17.4-.1-2.9-2.3-5.8-6.5-8.6-4.4-1.9-40.7-16.4-64.4-6.4-2.6 1.1-4.3 3.6-4.1 6.5z" class="st2"/><path id="path2535" d="M500.8 372.2c0 .6.1 1.2.2 1.8 23-4.3 51.8 7.3 55.7 8.9 4.2 2.8 6.3 5.7 6.5 8.6.1 2.7-1.4 6.1-4.3 9.6 1.6-.9 3.2-2 4.6-3.1 8.1-6.5 12.7-12.8 12.4-17.4-.1-2.9-2.3-5.8-6.5-8.6-4.4-1.9-40.7-16.4-64.4-6.4-2.7 1.2-4.4 3.7-4.2 6.6z" class="st3"/><path id="path2537" d="M271.6 376c-2 .4-3.7 1.7-4.5 3.4h11.2c-1.2-2.4-3.9-3.9-6.7-3.4zm40.8-8c-1.2-6.1-5.4-11.3-11.4-13.8-30.2-12.7-73 5.9-74.8 6.7l-.5.2-.4.3c-3.6 2.4-6.5 4.9-8.6 7.7-2.5 3.4-3.9 7.1-4.1 11-.1 2.1.1 4.3.7 6.4.4 1.7 1.1 3.3 1.9 5 2.7 5.4 7.6 10.9 14.5 16.4 11.3 9 25.8 12.7 39.8 10.1l.4-.1c5.2-1 10.1-2.7 14.7-5 6.7-3.4 12.6-8.1 17.4-14 5.7-7 8.5-13.8 9.8-19.5.5-2.4.8-4.5.9-6.4.2-1.7 0-3.4-.3-5zm-20 23c-2.9 3.5-6.3 6.5-10.2 8.9l-3.3-18.8c-.1-.6-.3-1.2-.6-1.7-1.2-2.4-3.9-3.9-6.7-3.4-2 .4-3.7 1.7-4.5 3.4-.6 1.2-.8 2.5-.6 3.9l3.8 21.7-2.7.6-.4.1c-3.5.6-7.1.7-10.6.3l-3.5-19.7c-.6-3.4-3.8-5.7-7.2-5.1-3.4.6-5.7 3.8-5.1 7.2l2.3 13.2c-1.9-1-3.8-2.3-5.6-3.7-8.1-6.5-12.7-12.8-12.4-17.4 0-.4.1-.8.2-1.2.6-2.5 2.7-4.9 6.3-7.3 1.3-.5 5.5-2.2 11.3-4.1 13.7-4.3 36.5-9.4 53.2-2.3 1.2.5 2.2 1.3 2.9 2.3.9 1.2 1.3 2.7 1.2 4.2-.1 2-.5 4.4-1.4 7.2-1.1 3.6-3.1 7.6-6.4 11.7z" class="st8"/><path id="path2539" d="M533.6 378.8c-.2-.4-.5-.7-.9-1.1.4.3.7.7.9 1.1zm54.8 1.2c-.2-4-1.6-7.7-4.1-11.1-2.1-2.8-4.9-5.3-8.5-7.6l-.4-.3-.5-.2c-1.8-.8-44.6-19.4-74.8-6.7-6 2.5-10.2 7.8-11.4 13.8-.3 1.6-.5 3.3-.4 5 .1 1.9.4 4 .9 6.4 1.3 5.7 4.1 12.5 9.8 19.5 4.7 5.8 10.7 10.5 17.4 14 4.6 2.3 9.5 4 14.7 5l.4.1c14 2.6 28.4-1.2 39.8-10.1 6.9-5.5 11.8-11 14.5-16.4.9-1.8 1.6-3.5 2-5.3.5-2 .7-4.1.6-6.1zm-24.9 18c-.4.3-.7.6-1.1.9l-.9.6c-.1.1-.2.1-.2.2-.1 0-.1.1-.1.1-.1.1-.2.1-.3.2-.1.1-.2.1-.3.2-.2.1-.5.3-.7.4-.6.4-1.2.7-1.9 1.1l2.3-13.2c.2-1 .1-1.9-.2-2.8-.6-2.2-2.5-4-4.9-4.4-.9-.2-1.8-.1-2.6.1-2.3.6-4.2 2.5-4.7 5l-3.5 19.7c-1.4.2-2.8.2-4.3.2h-.3c-.6 0-1.2 0-1.8-.1h-.4c-.7 0-1.4-.1-2-.2l-1.8-.3-.4-.1c-.5-.1-.9-.2-1.4-.3-.5-.1-.9-.2-1.3-.3l3.8-21.7c.2-1.4 0-2.7-.6-3.9-.1-.2-.2-.4-.4-.6-.2-.4-.5-.7-.9-1.1l-.1-.1c-.2-.1-.3-.3-.5-.4-.2-.2-.5-.3-.7-.5-.1-.1-.3-.1-.4-.2-.3-.2-.7-.3-1-.4-.2-.1-.4-.1-.6-.1-.5-.1-1-.1-1.5-.1h-.5c-.1 0-.3 0-.4.1-.3.1-.6.1-.8.2-.2.1-.3.1-.5.2s-.3.2-.5.2c-.1.1-.3.2-.4.3-.1.1-.2.1-.3.2-.1.1-.3.2-.4.3-.3.3-.6.6-.9 1-.1.1-.1.2-.2.3-.1.2-.2.3-.3.5-.3.5-.5 1.1-.6 1.7l-3.3 18.8h-.1c-.5-.3-.9-.6-1.3-.9-.5-.3-.9-.6-1.4-1-.4-.3-.9-.7-1.3-1-.4-.4-.9-.7-1.3-1.1-.4-.3-.8-.7-1.2-1.1-.4-.4-.8-.7-1.1-1.1-.4-.4-.8-.9-1.2-1.3-.4-.5-.8-.9-1.2-1.4-3.4-4.1-5.3-8.1-6.5-11.6-.6-2-1-3.8-1.2-5.4 0-.3-.1-.6-.1-.9 0-.3-.1-.6-.1-.9-.1-1.5.3-3 1.2-4.2.7-1 1.7-1.8 2.9-2.3 16.7-7.1 39.5-2 53.2 2.3 5.8 1.8 10 3.5 11.3 4.1 3.6 2.4 5.7 4.9 6.3 7.3.1.4.2.8.2 1.2.3 4.8-4.2 11.1-12.3 17.6z" class="st8"/><path id="path2541" d="M300.1 472.5c-.4-1.3-1.6-2.2-3-2.2h-18.5l-5.7-17.6c-.4-1.3-1.6-2.2-3-2.2-1.3 0-2.5.9-3 2.2l-5.7 17.6h-18.5c-1.3 0-2.5.9-3 2.2-.4 1.3 0 2.7 1.1 3.5l15 10.9-5.7 17.6c-.4 1.3 0 2.7 1.1 3.5 1.1.8 2.6.8 3.7 0l15-10.9 15 10.9c.5.4 1.2.6 1.8.6.6 0 1.3-.2 1.8-.6 1.1-.8 1.5-2.2 1.1-3.5l-5.7-17.6 15-10.9c1.1-.8 1.6-2.2 1.2-3.5zm-21.6 10.7c-1.1.8-1.5 2.2-1.1 3.5l3.5 10.7-9.1-6.6c-.5-.4-1.2-.6-1.8-.6-.6 0-1.3.2-1.8.6l-9.1 6.6 3.5-10.7c.4-1.3 0-2.7-1.1-3.5l-9.1-6.6h11.2c1.3 0 2.5-.9 3-2.1l3.5-10.7 3.5 10.7c.4 1.3 1.6 2.1 3 2.1h11.2z" class="st8"/><path id="path2543" d="m277.3 486.7 3.5 10.7-9.1-6.6c-.5-.4-1.2-.6-1.8-.6-.6 0-1.3.2-1.8.6l-9.1 6.6 3.5-10.7c.4-1.3 0-2.7-1.1-3.5l-9.1-6.6h11.2c1.3 0 2.5-.9 3-2.1l3.5-10.7 3.5 10.7c.4 1.3 1.6 2.1 3 2.1h11.2l-9.1 6.6c-1.2.8-1.7 2.2-1.3 3.5z" class="st13"/><path id="path2545" d="M365.4 472.5c-.4-1.3-1.6-2.2-3-2.2h-18.5l-5.7-17.6c-.4-1.3-1.6-2.2-3-2.2-1.3 0-2.5.9-3 2.2l-5.7 17.6H308c-1.3 0-2.5.9-3 2.2-.4 1.3 0 2.7 1.1 3.5l15 10.9-5.7 17.6c-.4 1.3 0 2.7 1.1 3.5.5.4 1.2.6 1.8.6.6 0 1.3-.2 1.8-.6l15-10.9 15 10.9c1.1.8 2.6.8 3.7 0s1.5-2.2 1.1-3.5l-5.7-17.6 15-10.9c1.1-.8 1.6-2.2 1.2-3.5zm-21.6 10.7c-1.1.8-1.5 2.2-1.1 3.5l3.5 10.7-9.1-6.6c-1.1-.8-2.6-.8-3.7 0l-9.1 6.6 3.5-10.7c.4-1.3 0-2.7-1.1-3.5l-9.1-6.6h11.2c1.3 0 2.5-.9 3-2.1l3.5-10.7 3.5 10.7c.4 1.3 1.6 2.1 3 2.1H353Z" class="st8"/><path id="path2547" d="m342.6 486.7 3.5 10.7-9.1-6.6c-1.1-.8-2.6-.8-3.7 0l-9.1 6.6 3.5-10.7c.4-1.3 0-2.7-1.1-3.5l-9.1-6.6h11.2c1.3 0 2.5-.9 3-2.1l3.5-10.7 3.5 10.7c.4 1.3 1.6 2.1 3 2.1h11.2l-9.1 6.6c-1.1.8-1.6 2.2-1.2 3.5z" class="st13"/><path id="path2549" d="M430.4 472.5c-.4-1.3-1.6-2.2-3-2.2h-18.5l-5.7-17.6c-.4-1.3-1.6-2.2-3-2.2-1.3 0-2.5.9-3 2.2l-5.7 17.6H373c-1.3 0-2.5.9-3 2.2-.4 1.3 0 2.7 1.1 3.5l15 10.9-5.7 17.6c-.4 1.3 0 2.7 1.1 3.5 1.1.8 2.6.8 3.7 0l15-10.9 15 10.9c.5.4 1.2.6 1.8.6.6 0 1.3-.2 1.8-.6 1.1-.8 1.5-2.2 1.1-3.5l-5.7-17.6 15-10.9c1.2-.8 1.6-2.2 1.2-3.5zm-21.6 10.7c-1.1.8-1.5 2.2-1.1 3.5l3.5 10.7-9.1-6.6c-.5-.4-1.2-.6-1.8-.6-.6 0-1.3.2-1.8.6l-9.1 6.6 3.5-10.7c.4-1.3 0-2.7-1.1-3.5l-9.1-6.6h11.2c1.3 0 2.5-.9 3-2.1l3.5-10.7 3.5 10.7c.4 1.3 1.6 2.1 3 2.1h11.2z" class="st8"/><path id="path2551" d="m407.7 486.7 3.5 10.7-9.1-6.6c-.5-.4-1.2-.6-1.8-.6-.6 0-1.3.2-1.8.6l-9.1 6.6 3.5-10.7c.4-1.3 0-2.7-1.1-3.5l-9.1-6.6h11.2c1.3 0 2.5-.9 3-2.1l3.5-10.7 3.5 10.7c.4 1.3 1.6 2.1 3 2.1h11.2l-9.1 6.6c-1.3.8-1.7 2.2-1.3 3.5z" class="st13"/><path id="path2553" d="M496 472.5c-.4-1.3-1.6-2.2-3-2.2h-18.5l-5.7-17.6c-.4-1.3-1.6-2.2-3-2.2-1.3 0-2.5.9-3 2.2l-5.7 17.6h-18.5c-1.3 0-2.5.9-3 2.2-.4 1.3 0 2.7 1.1 3.5l15 10.9-5.7 17.6c-.4 1.3 0 2.7 1.1 3.5 1.1.8 2.6.8 3.7 0l15-10.9 15 10.9c.5.4 1.2.6 1.8.6.6 0 1.3-.2 1.8-.6 1.1-.8 1.6-2.2 1.1-3.5l-5.7-17.6 15-10.9c1.1-.8 1.6-2.2 1.2-3.5zm-21.6 10.7c-1.1.8-1.5 2.2-1.1 3.5l3.5 10.7-9.1-6.6c-1.1-.8-2.6-.8-3.7 0l-9.1 6.6 3.5-10.7c.4-1.3 0-2.7-1.1-3.5l-9.1-6.6h11.2c1.3 0 2.5-.9 3-2.1l3.5-10.7 3.5 10.7c.4 1.3 1.6 2.1 3 2.1h11.2z" class="st8"/><path id="path2555" d="m473.2 486.7 3.5 10.7-9.1-6.6c-1.1-.8-2.6-.8-3.7 0l-9.1 6.6 3.5-10.7c.4-1.3 0-2.7-1.1-3.5l-9.1-6.6h11.2c1.3 0 2.5-.9 3-2.1l3.5-10.7 3.5 10.7c.4 1.3 1.6 2.1 3 2.1h11.2l-9.1 6.6c-1.1.8-1.6 2.2-1.2 3.5z" class="st13"/><path id="path2557" d="M561.5 472.5c-.4-1.3-1.6-2.2-3-2.2H540l-5.7-17.6c-.4-1.3-1.6-2.2-3-2.2s-2.5.9-3 2.2l-5.7 17.6h-18.5c-1.3 0-2.5.9-3 2.2-.4 1.3 0 2.7 1.1 3.5l15 10.9-5.7 17.6c-.4 1.3 0 2.7 1.1 3.5 1.1.8 2.6.8 3.7 0l15-10.9 15 10.9c.5.4 1.2.6 1.8.6.6 0 1.3-.2 1.8-.6 1.1-.8 1.5-2.2 1.1-3.5l-5.7-17.6 15-10.9c1.2-.8 1.7-2.2 1.2-3.5zm-21.6 10.7c-1.1.8-1.5 2.2-1.1 3.5l3.5 10.7-9.1-6.6c-.5-.4-1.2-.6-1.8-.6-.6 0-1.3.2-1.8.6l-9.1 6.6 3.5-10.7c.4-1.3 0-2.7-1.1-3.5l-9.1-6.6H525c1.3 0 2.5-.9 3-2.1l3.5-10.7 3.5 10.7c.4 1.3 1.6 2.1 3 2.1h11z" class="st8"/><path id="path2559" d="m538.8 486.7 3.5 10.7-9.1-6.6c-.5-.4-1.2-.6-1.8-.6-.6 0-1.3.2-1.8.6l-9.1 6.6 3.5-10.7c.4-1.3 0-2.7-1.1-3.5l-9.1-6.6H525c1.3 0 2.5-.9 3-2.1l3.5-10.7 3.5 10.7c.4 1.3 1.6 2.1 3 2.1h11l-9.1 6.6c-1.1.8-1.5 2.2-1.1 3.5z" class="st13"/><path id="path2561" d="m280.8 497.3-9.1-6.6c-.5-.4-1.2-.6-1.8-.6-.6 0-1.3.2-1.8.6l-9.1 6.6 3.5-10.7c.4-1.3 0-2.7-1.1-3.5l-9.1-6.6h11.2c1.3 0 2.5-.9 3-2.1l.1-.3 1 .7c1.1.8 1.5 2.2 1.1 3.5l-3.5 10.7 9.1-6.6c.5-.4 1.2-.6 1.8-.6.6 0 1.3.2 1.8.6l.8.6-.3.2c-1.1.8-1.5 2.2-1.1 3.5z" class="st14"/><path id="path2563" d="m346.1 497.3-9.1-6.6c-1.1-.8-2.6-.8-3.7 0l-9.1 6.6 3.5-10.7c.4-1.3 0-2.7-1.1-3.5l-9.1-6.6h11.2c1.3 0 2.5-.9 3-2.1l.1-.3 1 .7c1.1.8 1.5 2.2 1.1 3.5l-3.5 10.7 9.1-6.6c1.1-.8 2.6-.8 3.7 0l.8.6-.3.2c-1.1.8-1.5 2.2-1.1 3.5z" class="st14"/><path id="path2565" d="m411.1 497.3-9.1-6.6c-.5-.4-1.2-.6-1.8-.6-.6 0-1.3.2-1.8.6l-9.1 6.6 3.5-10.7c.4-1.3 0-2.7-1.1-3.5l-9.1-6.6h11.2c1.3 0 2.5-.9 3-2.1l.1-.3 1 .7c1.1.8 1.5 2.2 1.1 3.5l-3.5 10.7 9.1-6.6c.5-.4 1.2-.6 1.8-.6.6 0 1.3.2 1.8.6l.8.6-.3.2c-1.1.8-1.5 2.2-1.1 3.5z" class="st14"/><path id="path2567" d="m476.7 497.3-9.1-6.6c-1.1-.8-2.6-.8-3.7 0l-9.1 6.6 3.5-10.7c.4-1.3 0-2.7-1.1-3.5l-9.1-6.6h11.2c1.3 0 2.5-.9 3-2.1l.1-.3 1 .7c1.1.8 1.6 2.2 1.1 3.5L461 489l9.1-6.6c1.1-.8 2.6-.8 3.7 0l.8.6-.3.2c-1.1.8-1.5 2.2-1.1 3.5z" class="st14"/><path id="path2569" d="m542.3 497.3-9.1-6.6c-.5-.4-1.2-.6-1.8-.6-.6 0-1.3.2-1.8.6l-9.1 6.6 3.5-10.7c.4-1.3 0-2.7-1.1-3.5l-9.1-6.6H525c1.3 0 2.5-.9 3-2.1l.1-.3 1 .7c1.1.8 1.5 2.2 1.1 3.5l-3.5 10.7 9.1-6.6c.5-.4 1.2-.6 1.8-.6.6 0 1.3.2 1.8.6l.8.5-.3.2c-1.1.8-1.5 2.2-1.1 3.5z" class="st14"/><g id="g2579"><path id="path2571" d="M239.6 532.5h322.1c1.7 0 3.1-1.4 3.1-3.1 0-1.7-1.4-3.1-3.1-3.1H239.6c-1.7 0-3.1 1.4-3.1 3.1 0 1.7 1.4 3.1 3.1 3.1z" class="st8"/><path id="path2573" d="M561.7 547.1H239.6c-1.7 0-3.1 1.4-3.1 3.1 0 1.7 1.4 3.1 3.1 3.1h322.1c1.7 0 3.1-1.4 3.1-3.1 0-1.7-1.4-3.1-3.1-3.1z" class="st8"/><path id="path2575" d="M561.7 567.9H239.6c-1.7 0-3.1 1.4-3.1 3.1 0 1.7 1.4 3.1 3.1 3.1h322.1c1.7 0 3.1-1.4 3.1-3.1 0-1.7-1.4-3.1-3.1-3.1z" class="st8"/><path id="path2577" d="M400.3 588.7H239.6c-1.7 0-3.1 1.4-3.1 3.1 0 1.7 1.4 3.1 3.1 3.1h160.7c1.7 0 3.1-1.4 3.1-3.1 0-1.7-1.4-3.1-3.1-3.1z" class="st8"/></g></g></svg>