<?xml version="1.0" encoding="UTF-8"?>
<svg id="Layer_2" data-name="Layer 2" xmlns="http://www.w3.org/2000/svg" viewBox="0 0 9.47 9.47">
  <defs>
    <style>
      .cls-1 {
        fill: #2b1911;
      }
    </style>
  </defs>
  <g id="Layer_1-2" data-name="Layer 1">
    <path class="cls-1" d="m6.87,3.91l-2.57,2.56c-.28.28-.55,0-.55,0l-1.15-1.15c-.12-.12-.18-.27-.18-.43s.06-.31.18-.43c.24-.23.62-.23.85,0l.58.58,1.99-1.99c.12-.12.27-.18.43-.18s.31.06.42.17c.24.23.24.62,0,.85"/>
    <path class="cls-1" d="m4.74,9.47C2.12,9.47,0,7.35,0,4.73S2.12,0,4.74,0s4.73,2.12,4.73,4.73-2.12,4.74-4.73,4.74M4.74.76C2.54.76.76,2.54.76,4.73s1.78,3.98,3.98,3.98,3.98-1.79,3.98-3.98S6.93.76,4.74.76"/>
  </g>
</svg>