<svg xmlns="http://www.w3.org/2000/svg" xml:space="preserve" width="842.613" height="358.173" viewBox="0 0 222.941 94.767"><path d="M1560.38 766.789c-66.66-50.48-173.1-110.289-326.36-139.57-19.31-3.719-39.26-6.848-60-9.528-21.33-2.742-43.44-4.82-66.46-6.32-22.9 1.5-44.87 3.578-66.13 6.32-20.75 2.61-40.7 5.739-59.942 9.457-153.59 29.223-260.093 89.161-326.75 139.641-66.004 50.02-104.48 98.871-120.851 122.281 79.761 7.18 154.375 51.461 209.031 108.461 81.066 84.399 70.762 180.329 116.543 282.209 24.523 54.46 81.133 89.09 116.223 136.96 34.436 47.02 68.806 133.44 75.326 193.31 4.31 39.72-2.67 124.31 57 126.13 27.85.91 45.92-23.67 53.03-47.93 7.3-24.98 6.13-52.44 8.93-78.2 6.52-59.87 40.83-146.29 75.33-193.31 35.02-47.87 91.7-82.5 116.16-136.96 45.78-101.88 35.54-197.81 116.54-282.209 53.35-55.633 125.81-99.199 203.55-107.871-16.11-23.09-54.58-72.398-121.17-122.871m4.5 1277.191c-18 8.87-36.27 17.15-54.79 24.98a1038.341 1038.341 0 0 1-163.57 53.22c-16.96 3.97-34.11 7.56-51.39 10.7-60.85 11.14-123.53 16.95-187.57 16.95-66.13 0-130.9-6.2-193.638-18.06a977.69 977.69 0 0 1-49.957-10.7 1032.715 1032.715 0 0 1-164.356-54.39c-18.589-7.96-36.847-16.38-54.785-25.31-343.25-170.74-579.605-525.21-579.605-933.88 0-5.02.066-10.11.066-15.13v-.98c.195-10.3.524-20.61 1.043-30.85l.066-1.1c4.043-90.2 19.63-177.469 45.391-260.301C163.18 633.41 255.008 485.23 375.531 366.27c6.199-6.129 12.395-12.129 18.723-18.059 11.738-11.16 23.805-21.922 36.129-32.422a913.131 913.131 0 0 1 17.285-14.539c53.219-43.699 110.937-82.18 172.18-114.719 145.57-77.422 311.617-121.312 487.712-121.312 178.24 0 346.12 44.941 492.99 124.179 58.7 31.563 113.94 68.672 165.2 110.543 5.81 4.758 11.55 9.528 17.22 14.418 12.39 10.5 24.52 21.262 36.33 32.352 6.32 5.93 12.52 11.867 18.72 17.93 59.8 58.898 112.56 124.898 156.91 196.64 90.59 146.61 145.84 317.231 153.86 499.839v.2c.45 10.04.78 20.08.98 30.19v.92c0 5.02.06 10.04.06 15.06 0 410.75-238.83 766.79-584.95 936.49" style="fill:#95d444;fill-opacity:1;fill-rule:nonzero;stroke:none" transform="matrix(.03528 0 0 -.03528 0 94.767)"/><path d="M1838.02 364.641c-.27 1.961-.53 3.91-.79 5.871-4.95 34.59-12.29 70.668-22.13 109.168a1053.276 1053.276 0 0 1 55.92 81.601c50.81 82.239 90.5 172.028 116.98 267.258 64.14 38.402 120.24 97.691 143.5 156.141 9.33 23.48 15.13 49.05 17.29 76.44-8.02-182.608-63.27-353.229-153.86-499.839-44.35-71.742-97.11-137.742-156.91-196.64m311.75 727.789c-.46 30.32-4.9 62.67-13.31 96.98-43.6 177.55-155.71 338.45-274.18 478.2-77.23 120.74-178.67 224.59-297.4 304.65v71.72c346.12-169.7 584.95-525.74 584.95-936.49 0-5.02-.06-10.04-.06-15.06m-62.68 33.84c-.25 2.4-.63 4.86-1.01 7.32-.01.06-.01.13-.02.19.45-2.52.77-5.05 1.03-7.51m-1.24 9.27c-.33 2.21-.72 4.43-1.04 6.65.39-2.22.71-4.44 1.04-6.65" style="fill:#68b630;fill-opacity:1;fill-rule:nonzero;stroke:none" transform="matrix(.03528 0 0 -.03528 0 94.767)"/><path d="M750.285 186.531C877.66 118.77 1020.68 76.699 1172.45 67.238c-21.46-1.367-43.11-2.02-64.89-2.02-176.095 0-342.142 43.891-487.712 121.313-61.243 32.539-118.961 71.02-172.18 114.719a913.131 913.131 0 0 0-17.285 14.539c-12.324 10.5-24.391 21.262-36.129 32.422-6.328 5.93-12.524 11.93-18.723 18.059C255.008 485.23 163.18 633.41 111.785 799.129c-25.762 82.832-41.347 170.101-45.39 260.301l-.067 1.1c-.52 10.24-.848 20.55-1.043 30.85v.98c0 5.02-.066 10.11-.066 15.13 0 408.67 236.355 763.14 579.605 933.88 17.938 8.93 36.196 17.35 54.785 25.31 52.7 22.5 107.614 40.76 164.356 54.39a977.69 977.69 0 0 0 49.957 10.7c62.738 11.86 127.508 18.06 193.638 18.06 21.98 0 43.83-.65 65.41-2.02a1031.93 1031.93 0 0 1-128.61-16.04 976.81 976.81 0 0 1-49.958-10.7 1032.49 1032.49 0 0 1-164.351-54.39c-18.59-7.96-36.852-16.38-54.785-25.31-343.25-170.74-579.61-525.21-579.61-933.88 0-5.02.067-10.11.067-15.13v-.98c.195-10.3.523-20.61 1.043-30.85l.066-1.1c4.047-90.2 19.633-177.469 45.395-260.301C293.617 633.41 385.449 485.23 505.973 366.27a957.332 957.332 0 0 1 18.718-18.059c11.739-11.16 23.805-21.922 36.129-32.422a932.467 932.467 0 0 1 17.285-14.539c53.219-43.699 110.938-82.18 172.18-114.719" style="fill:#f0f59f;fill-opacity:1;fill-rule:nonzero;stroke:none" transform="matrix(.03528 0 0 -.03528 0 94.767)"/><path d="M1681.55 889.66c-16.11-23.09-54.58-72.398-121.17-122.871-66.66-50.48-173.1-110.289-326.36-139.57-19.31-3.719-39.26-6.848-60-9.528-21.33-2.742-43.44-4.82-66.46-6.32-22.9 1.5-44.87 3.578-66.13 6.32-20.75 2.61-40.7 5.739-59.942 9.457-153.59 29.223-260.093 89.161-326.75 139.641-66.004 50.02-104.48 98.871-120.851 122.281 79.761 7.18 154.375 51.461 209.031 108.461 81.066 84.399 70.762 180.329 116.543 282.209 24.523 54.46 81.133 89.09 116.223 136.96 34.436 47.02 68.806 133.44 75.326 193.31 4.31 39.72-2.67 124.31 57 126.13 27.85.91 45.92-23.67 53.03-47.93 7.3-24.98 6.13-52.44 8.93-78.2 6.52-59.87 40.83-146.29 75.33-193.31 35.02-47.87 91.7-82.5 116.16-136.96 45.78-101.88 35.54-197.81 116.54-282.209 53.35-55.633 125.81-99.199 203.55-107.871" style="fill:#fff;fill-opacity:1;fill-rule:nonzero;stroke:none" transform="matrix(.03528 0 0 -.03528 0 94.767)"/><path d="M1782.97 314.359c-5.67-4.89-11.41-9.66-17.22-14.418-51.26-41.871-106.5-78.98-165.2-110.543-146.87-79.238-314.75-124.18-492.99-124.18-176.095 0-342.142 43.891-487.712 121.313-61.243 32.539-118.961 71.02-172.18 114.719a913.131 913.131 0 0 0-17.285 14.539c.195 2.68.39 5.352.652 8.09 6.395 68.223 22.957 142.18 51.457 230.351l3.524 10.899c6.261 19.43 12.589 39 18.523 58.691 45.586-36.519 93.524-69.98 144.328-98.871 86.223-48.98 179.551-84.648 276.274-106.371 30.195-6.789 60.652-12.258 91.309-16.496 29.67-4.051 60.72-8.812 91.3-8.742 31.37.058 62.68 4.762 93.72 9.129 55.51 7.761 110.42 19.691 164.03 36.07 88.5 27.063 172.96 66.582 250.7 116.871 32.09 20.738 63.01 43.371 92.88 67.301 5.8-19.301 12-38.473 18.13-57.52l3.58-10.961c28.64-88.89 45.27-163.171 51.53-231.648.26-2.742.52-5.48.65-8.223" style="fill:#f4a237;fill-opacity:1;fill-rule:nonzero;stroke:none" transform="matrix(.03528 0 0 -.03528 0 94.767)"/><path d="M1691.99 686.371c-53.42-44.41-110.35-84.461-171.4-117.66-90.39-49.109-188.61-82.633-289.77-100.629-7.95-1.434-15.85-3.652-23.8-6.332-23.68-7.891-47.35-19.039-71.35-20.672-30.46-2.019-60.92 14.481-91.12 18.07-12.65 1.5-25.24 3.262-37.82 5.211v.071c-5.55.851-11.089 1.761-16.632 2.672-16.567 2.867-33.133 6.07-49.567 9.718-21.914 4.891-43.699 10.5-65.218 16.891-89.942 26.738-175.508 66.918-253.77 118.769-34.762 23.02-68.023 48.321-99.98 75.059 7.824 34.5 12.976 69.59 13.304 105.332 75.848-80.543 226.113-196.699 482.753-232.832 20.74-2.867 42.2-5.277 64.37-7.109 5.61-.52 11.22-1.039 16.7-1.301-23.94-4.109-42.2-25.109-42.2-50.16 0-20.867 12.65-38.867 30.72-46.688 6.2-2.742 13.04-4.242 20.22-4.242 6.13 0 12 1.102 17.41 3.133h.07c19.43 7.098 33.39 25.887 33.39 47.797 0 25.179-18.39 46.242-42.46 50.222 1.11 0 2.15.071 3.2.129 5.02.391 9.91.719 14.8 1.11 21.85 1.832 42.92 4.172 63.39 7.039 254.82 35.812 404.89 150.601 481.26 231.082.52-35.551 5.74-70.379 13.5-104.68" style="fill:#82c3e2;fill-opacity:1;fill-rule:nonzero;stroke:none" transform="matrix(.03528 0 0 -.03528 0 94.767)"/><path d="M1207.86 463.969c3.48 9.269 5.71 19.16 6.49 29.441 3.28.852 6.57 1.59 9.89 2.192 95.74 17.019 188.74 48.718 274.31 95.218 57.78 31.442 111.72 69.399 162.26 111.399-4.56 20.152-8.15 40.429-10.37 61.043a633.596 633.596 0 0 1 28.05 27.789c.52-35.551 5.74-70.379 13.5-104.68-53.42-44.41-110.35-84.461-171.4-117.66-90.39-49.109-188.61-82.633-289.77-100.629-7.63-1.371-15.33-2.742-22.96-4.113m-201.13.461c-44.351 6.84-88.308 16.5-131.417 29.281-89.942 26.738-175.508 66.918-253.77 118.769-34.762 23.02-68.023 48.321-99.98 75.059 7.824 34.5 12.976 69.59 13.304 105.332a640.375 640.375 0 0 1 28.235-28.152c-2.157-20.66-5.739-41.117-10.368-61.387 30.262-25.312 61.762-49.242 94.633-71.031 74.094-49.11 155.16-87.129 240.27-112.442 37.039-11 74.726-19.539 112.763-25.847.71-10.321 2.9-20.211 6.33-29.582" style="fill:#5398cd;fill-opacity:1;fill-rule:nonzero;stroke:none" transform="matrix(.03528 0 0 -.03528 0 94.767)"/><path d="M1660.81 702.219c-50.54-42-104.48-79.957-162.26-111.399-85.57-46.5-178.57-78.199-274.31-95.218-7.57-1.372-15.01-3.454-22.57-6-17.55-5.872-35.02-13.563-52.63-17.411 5.87 8.278 9.26 18.391 9.26 29.278 0 6.332-1.18 12.39-3.33 18.07-6.32 16.633-21.13 29.152-39.13 32.152 1.11 0 2.15.071 3.2.129 5.02.391 9.91.719 14.8 1.11 4.5.39 9 .781 13.44 1.172 17.08 1.636 33.72 3.589 49.95 5.867 226.64 31.832 370.45 126.203 453.21 203.293 2.22-20.614 5.81-40.891 10.37-61.043" style="fill:#82c3e2;fill-opacity:1;fill-rule:nonzero;stroke:none" transform="matrix(.03528 0 0 -.03528 0 94.767)"/><path d="M2089.7 1086.75c0-3.26-.07-6.52-.2-9.72l-.06-2.08c-.13-3.33-.33-6.59-.66-9.85-.19-2.87-.52-5.67-.84-8.48-.13-1.11-.26-2.15-.39-3.2l-.07-.32c-.39-2.87-.78-5.74-1.31-8.55-.58-3.32-1.23-6.58-1.95-9.84-1.44-6.2-3.13-12.2-5.09-18.07l-.39-1.3c-.98-2.87-2.02-5.68-3.13-8.42-21.98-55.24-93.85-127.568-176.03-152.998-47.74-14.813-89.15-10.703-123.26 12.129-4.63 3.129-9.13 6.91-13.37 11.277-1.05 1.113-2.15 2.223-3.13 3.391a70.852 70.852 0 0 0-3 3.402c-5.09 6.258-9.98 13.43-14.55 21.449-.91 1.571-1.82 3.2-2.67 4.828-.91 1.633-1.76 3.321-2.61 5.024-1.76 3.457-3.39 6.976-5.02 10.629-.85 1.828-1.63 3.648-2.41 5.539-8.22 19.441-15.27 41.808-21.33 66.332-.72 2.998-1.5 5.998-2.15 9.068-3.07 13.17-5.81 26.87-8.35 41.02-.59 3.46-1.17 6.91-1.76 10.37-1.18 7.11-2.28 14.28-3.33 21.52l-1.56 11.16c-.53 3.71-.98 7.43-1.44 11.15-.46 3.46-.85 6.91-1.24 10.37l-.19 1.37-1.18 10.76c-1.69 15.65-3.13 31.57-4.3 47.55-.26 3.32-.52 6.58-.72 9.91-1.04 15.46-1.89 30.91-2.54 46.3-.33 6.98-.59 13.96-.79 20.87-.13 5.68-.32 11.29-.45 16.96-.13 6.46-.26 12.91-.33 19.24-.52 44.55.59 86.94 2.81 123.85 1.95 31.63 4.17 60.59 6.91 87.53 2.61 25.69 5.54 49.5 9 71.94 1.89 12.52 3.91 24.58 6.13 36.32 3.07 16.37-7.76 32.09-24.07 35.16-16.3 2.99-32.02-7.77-35.08-24.07-.85-4.57-1.7-9.13-2.48-13.83-6.78-39-12.07-81.39-16.18-129.92-1.63-18.84-3-38.61-4.3-59.48-.91-15.32-3.65-66.91-2.87-134.22.06-7.3.2-14.8.39-22.5.33-14.41.78-29.41 1.57-44.87.06-2.74.19-5.54.39-8.35 1.3-26.41 3.32-53.93 6.19-81.59.39-3.97.85-8.02 1.31-12.06 2.67-23.81 6-47.68 10.24-71.03.78-4.56 1.63-9.06 2.54-13.56.2-1.24.46-2.54.78-3.78.66-3.72 1.44-7.37 2.22-11.03 1.83-8.41 3.72-16.691 5.74-24.839 1.43-5.742 3-11.481 4.57-17.09 1.63-5.812 3.32-11.551 5.15-17.152.26-1.18.65-2.348 1.04-3.457.78-2.481 1.57-4.891 2.42-7.313.65-2.078 1.36-4.168 2.15-6.258 1.37-3.98 2.8-7.89 4.3-11.671 1.44-3.848 3-7.629 4.57-11.348 1.3-3.203 2.74-6.391 4.17-9.524 1.17-2.609 2.35-5.148 3.65-7.699.59-1.429 1.31-2.867 2.03-4.238l-1.64.199c-77.74 8.672-150.2 52.238-203.55 107.871-81 84.399-70.76 180.329-116.54 282.209-24.46 54.46-81.14 89.09-116.16 136.96-34.5 47.02-68.81 133.44-75.33 193.31-2.8 25.76-1.63 53.22-8.93 78.2-7.11 24.26-25.18 48.84-53.03 47.93-59.67-1.82-52.69-86.41-57-126.13-6.52-59.87-40.89-146.29-75.326-193.31-35.09-47.87-91.7-82.5-116.223-136.96-45.781-101.88-35.477-197.81-116.543-282.209-54.656-57-129.27-101.281-209.031-108.461l-2.282-.191c2.543 5.019 5.024 10.242 7.301 15.582 1.176 2.48 2.219 4.961 3.266 7.437 2.148 5.09 4.172 10.372 6.129 15.723.976 2.598 1.957 5.207 2.871 7.891 1.367 3.91 2.738 7.949 3.976 12 1.11 3.386 2.219 6.847 3.196 10.297.781 2.48 1.5 5.031 2.219 7.57a124.2 124.2 0 0 1 1.957 6.98c2.347 8.481 4.5 17.082 6.519 25.821a997.014 997.014 0 0 1 4.5 21c.391 1.9.785 3.79 1.109 5.68 1.696 8.48 3.196 16.96 4.633 25.57 3.977 23.73 7.106 47.87 9.52 71.93.914 8.68 1.762 17.28 2.48 25.89 3.196 37.57 4.824 74.35 5.606 108.01.199 7.82.328 15.52.394 22.95.715 67.05-1.957 118.51-2.871 133.83a2502.084 2502.084 0 0 1-3.719 52.51c-4.171 52.04-9.714 96.98-17.019 138.26-.719 4.18-1.434 8.35-2.219 12.46-3 16.3-18.781 27.06-35.086 24.07-16.304-3.07-27.07-18.79-24.066-35.16 2.086-11.15 4.043-22.63 5.867-34.43 4.305-28.05 7.961-58.11 10.957-91.31 2.023-21.91 3.719-45.13 5.219-70.05 2.215-36.98 3.324-79.43 2.804-123.98-.066-6.33-.195-12.72-.328-19.11-.129-5.67-.324-11.28-.453-16.96-.066-3.13-.199-6.26-.328-9.45-.062-2.55-.195-5.09-.262-7.63-.324-8.55-.781-17.09-1.238-25.7-.519-9.59-1.109-19.24-1.824-28.83-.524-7.56-1.11-15.06-1.762-22.63-.719-8.48-1.566-17.02-2.414-25.43-.262-2.48-.523-4.96-.781-7.44-.328-3.19-.719-6.39-1.047-9.52-.844-7.24-1.758-14.41-2.738-21.59-.977-7.43-2.086-14.8-3.129-22.04-1.043-6.33-2.024-12.59-3.133-18.79-.781-4.37-1.563-8.67-2.348-12.97-.652-3.4-1.304-6.79-2.019-10.18-.457-2.35-.914-4.63-1.434-6.98-.98-4.56-1.957-9.06-3.004-13.5-1.433-6.13-2.933-12.129-4.433-18l-.196-.648c-2.414-9.071-4.957-17.813-7.629-26.153l-.328-.918c-.914-2.8-1.828-5.543-2.738-8.211-.98-2.742-1.891-5.421-2.871-8.031-.848-2.277-1.695-4.5-2.543-6.648-11.48-28.891-25.305-51.852-41.738-66.071l-2.352-1.949a72.213 72.213 0 0 0-5.348-3.98c-34.042-22.832-75.523-26.942-123.199-12.129-82.242 25.43-154.113 97.758-176.09 152.998-17.937 45-18.718 101.55-2.347 168.21 49.695 202.57 198.136 386.16 336.855 539.1 42.457 46.82 82.18 71.15 114.528 70.17 1.433-.06 2.804-.13 4.109-.26l1.043-.13c1.434-.19 2.738-.38 4.043-.65 7.566-1.5 15.066-4.37 21.391-8.87 8.218-5.87 15.457-13.63 22.175-21.06 7.172-7.9 13.239-16.77 18.067-26.29 2.933-5.74 5.281-11.15 10.629-15.19 5.089-3.85 11.414-5.94 17.804-5.94 16.371 0 29.614 13.31 29.614 29.68 0 2.86-.524 5.74-1.372 8.47-2.023 6.59-5.871 12.72-9.199 18.46-1.691 2.93-3.453 5.81-5.343 8.61-1.633 2.54-4.047 5.09-5.415 7.83l-.261.32a63.34 63.34 0 0 0 6.785 3.07c3.586 1.43 7.758 2.93 12.519 4.43a703.125 703.125 0 0 0 32.086 8.22c1.7.39 3.2.72 4.504 1.04l1.367.33c1.305.26 2.543.52 3.786.85 2.214.39 4.433.85 6.652 1.3a617.182 617.182 0 0 0 15.391 3.07c2.347.45 4.695.91 7.043 1.37 5.609.98 11.023 2.02 16.761 2.93 2.153.39 4.5.85 6.914 1.31l4.696.72c2.609.45 5.281.91 8.019 1.3 4.438.78 9 1.5 13.504 2.22l1.762.32c3.844.59 7.691 1.18 11.476 1.77l.914.12c6.457.85 13.043 1.89 19.5 2.61 25.11 3.53 50.805 6.33 76.305 8.55l1.5.13c8.219.71 16.567 1.5 24.981 2.09 7.175.58 14.48.97 22.175 1.43 2.739.13 5.414.46 8.348.46 3.39.26 6.72.45 10.11.58l8.67.46c2.35.13 4.7.26 7.05.26 6.45.32 12.91.59 19.69.72h3.33c7.96.45 15.72.59 24.13.59l1.17.19h.27c8.67.13 17.47.13 26.28.13h2.93c8.55 0 17.16 0 25.83-.13.72 0 1.3 0 2.35-.19 8.22-.14 16.3-.27 24.52-.59 6.91-.13 13.83-.27 20.74-.59l9.98-.39c6.26-.33 12.46-.59 18.59-1.04l5.15-.33c5.74-.39 11.48-.72 17.35-1.17 3.39-.13 6.91-.39 10.24-.72 15.13-1.05 30.98-2.48 48.46-4.37 7.82-.79 15.45-1.63 23.21-2.54 1.31-.14 2.48-.26 3.79-.4 1.17-.19 2.34-.32 3.71-.58 6.72-.78 13.37-1.63 20.68-2.68 7.37-.85 14.67-1.89 21.72-3.06l6.45-1.04c5.87-.72 11.61-1.77 17.35-2.61 22.18-3.72 44.35-7.64 65.74-12.07l1.37-.33c2.94-.58 6-1.17 8.94-1.89l1.04-.13c1.76-.46 3.52-.72 5.28-1.17 4.31-.91 8.48-1.83 12.72-2.74 13.89-3.26 24.33-6.53 32.16-9.59 1.89-.72 3.65-1.56 5.41-2.54-1.37-2.74-3.79-5.29-5.48-7.83-1.83-2.8-3.59-5.68-5.28-8.61-3.33-5.74-7.18-11.87-9.2-18.46-.85-2.73-1.37-5.61-1.37-8.47 0-16.37 13.24-29.68 29.61-29.68 6.39 0 12.72 2.09 17.81 5.94 5.28 4.04 7.63 9.45 10.63 15.19 3.91 7.7 8.6 14.94 14.02 21.66 9.26 11.34 20.35 23.6 33.72 30 4.5 2.15 9.32 2.8 13.89 4.56l.19.07c2.81.52 5.74.91 8.87.97 32.29.85 72.07-23.28 114.59-70.17 138.66-152.94 287.1-336.53 336.8-539.1.98-4.05 1.89-8.03 2.74-11.94.91-3.91 1.69-7.83 2.41-11.68.59-3.13 1.17-6.26 1.7-9.32.32-2.22.71-4.44 1.04-6.65l.2-1.7c.39-2.54.78-5.09 1.04-7.57.91-6.91 1.56-13.69 1.95-20.34.2-2.55.33-5.09.4-7.57.13-3.91.26-7.76.26-11.61" style="fill:#f4a237;fill-opacity:1;fill-rule:nonzero;stroke:none" transform="matrix(.03528 0 0 -.03528 0 94.767)"/><path d="M492.535 949.77c.211.601.426 1.21.641 1.808-.211-.598-.426-1.207-.641-1.808m1.778 5.109a786.536 786.536 0 0 1 2.007 6.062 430.777 430.777 0 0 0-2.007-6.062" style="fill:#909723;fill-opacity:1;fill-rule:nonzero;stroke:none" transform="matrix(.03528 0 0 -.03528 0 94.767)"/><path d="M368.688 845.219c-16.715-.008-34.458 2.89-53.157 8.703-37.09 11.469-72.07 32.476-101.316 57.148-35.602 30.051-62.707 65.532-74.774 95.85-9.39 23.56-14.078 50.28-14.066 79.95.008 27.02 3.914 56.49 11.719 88.26 49.695 202.57 198.136 386.16 336.855 539.1 41.637 45.92 80.641 70.2 112.637 70.2.633 0 1.262-.01 1.891-.03 1.433-.06 2.804-.13 4.109-.26l1.043-.13c1.434-.19 2.738-.38 4.043-.65a62.706 62.706 0 0 0 7.672-2.02c.539-.19 1.07-.39 1.59-.59-16.5-10.56-33.981-25.96-52.047-45.85-124.438-137.15-257.617-301.83-302.16-483.6-14.743-59.74-14.024-110.48 2.086-150.85 19.695-49.57 84.199-114.462 157.96-137.22 16.797-5.21 32.731-7.82 47.731-7.82 12.609 0 24.559 1.84 35.816 5.531-.668-2.05-1.34-4.07-2.007-6.062-.375-1.109-.758-2.207-1.137-3.301-.215-.598-.43-1.207-.641-1.808-3.086-8.692-6.359-16.918-9.836-24.622-10.328-22.847-22.367-41.136-36.269-53.168l-2.352-1.949a72.213 72.213 0 0 0-5.348-3.98c-20.691-13.871-44.136-20.832-70.042-20.832" style="fill:#ee6e18;fill-opacity:1;fill-rule:nonzero;stroke:none" transform="matrix(.03528 0 0 -.03528 0 94.767)"/><path d="m2086.08 1133.59-.03.25c0-.02 0-.04.01-.06.01-.06.01-.13.02-.19" style="fill:#678329;fill-opacity:1;fill-rule:nonzero;stroke:none" transform="matrix(.03528 0 0 -.03528 0 94.767)"/><path d="M1846.39 845.219c-25.91 0-49.34 6.953-70.07 20.832-4.63 3.129-9.13 6.91-13.37 11.277-1.05 1.113-2.15 2.223-3.13 3.391a70.852 70.852 0 0 0-3 3.402c-5.09 6.258-9.98 13.43-14.55 21.449-.91 1.571-1.82 3.2-2.67 4.828-.91 1.633-1.76 3.321-2.61 5.024-1.76 3.457-3.39 6.976-5.02 10.629-.85 1.828-1.63 3.648-2.41 5.539-3.85 9.101-7.44 18.832-10.79 29.129 11.24-3.68 23.17-5.52 35.76-5.52 15 0 30.93 2.61 47.73 7.821 73.76 22.761 138.26 87.66 157.96 137.22 16.11 40.37 16.82 91.12 2.09 150.86-44.55 181.76-177.73 346.44-302.17 483.6-18.05 19.87-35.51 35.26-52 45.82 2.87.9 5.79 1.55 8.62 2.57 3.05.62 6.32 1.02 9.79 1.11.63.02 1.26.03 1.89.03 32 0 71-24.28 112.64-70.21 138.72-152.93 287.16-336.53 336.86-539.1 3.47-14.13 6.17-27.81 8.1-41.01l.01-.07.03-.25c3.52-24.22 4.44-46.87 2.77-67.85-.02-.21-.04-.43-.07-.64l-.06-.92c-.13-1.52-.28-3.04-.44-4.54-.11-1.01-.23-2.01-.34-3.02-.11-.85-.21-1.73-.32-2.6l-.09-.66-.05-.26c-.19-1.37-.37-2.74-.57-4.1-.23-1.47-.47-2.92-.72-4.37-.01-.03-.01-.05-.02-.08-.39-2.26-.82-4.49-1.28-6.71-.37-1.74-.75-3.47-1.16-5.18-1.32-5.47-2.86-10.8-4.6-16.02l-.39-1.3c-.98-2.87-2.02-5.68-3.13-8.42-21.98-55.24-93.85-127.568-176.03-152.998-18.72-5.813-36.47-8.703-53.19-8.703" style="fill:#ee6e18;fill-opacity:1;fill-rule:nonzero;stroke:none" transform="matrix(.03528 0 0 -.03528 0 94.767)"/><path d="M1520.59 568.711c-90.39-49.109-188.61-82.633-289.77-100.629-7.63-1.371-15.33-2.742-22.96-4.113-23.93-4.239-47.93-8.219-72.19-9.848-3.59-.191-7.18-.391-10.76-.449h-.07c-5.41-2.031-11.28-3.133-17.41-3.133-7.18 0-14.02 1.5-20.22 4.242-14.28 1.039-28.5 2.668-42.66 4.367-12.65 1.5-25.24 3.262-37.82 5.211a737.573 737.573 0 0 0-16.632 2.743 1000.803 1000.803 0 0 0-49.567 9.718c-21.914 4.891-43.699 10.5-65.218 16.891-89.942 26.738-175.508 66.918-253.77 118.769-34.762 23.02-68.023 48.321-99.98 75.059 7.824 34.5 12.976 69.59 13.304 105.332 75.848-80.543 226.113-196.699 482.753-232.832 20.74-2.867 42.2-5.277 64.37-7.109 5.61-.52 11.22-1.039 16.7-1.301h.13c2.8.519 5.67.781 8.61.781 2.8 0 5.54-.262 8.21-.719h.2c1.11 0 2.15.071 3.2.129 5.02.391 9.91.719 14.8 1.11 21.85 1.832 42.92 4.172 63.39 7.039 254.82 35.812 404.89 150.601 481.26 231.082.52-35.551 5.74-70.379 13.5-104.68-53.42-44.41-110.35-84.461-171.4-117.66m317.43-204.07c-.27 1.961-.53 3.91-.79 5.871-8.74 61.047-24.91 126.718-49.17 202.179l-3.52 10.957c-9.53 29.614-19.18 59.481-27.2 89.543-1.89 7.18-3.72 14.348-5.35 21.528-9.65 41.152-15.39 82.5-12.59 123.722v.059a292.89 292.89 0 0 0 4.96 37.441c1.24 6.129.52 12.129-1.76 17.481l.26.457.65 1.43c7.11 14.281 1.83 31.632-12.13 39.519-12.32 6.981-27.52 4.242-36.78-5.797-1.63-1.703-3-3.59-4.18-5.672-.13-.199-2.74-4.64-8.02-12.328v-.07l-.85-1.301c-16.11-23.09-54.58-72.398-121.17-122.871-66.66-50.48-173.1-110.289-326.36-139.57-19.31-3.719-39.26-6.848-60-9.528-21.33-2.742-43.44-4.82-66.46-6.32-22.9 1.5-44.87 3.578-66.13 6.32-20.75 2.61-40.7 5.739-59.942 9.457-153.59 29.223-260.093 89.161-326.75 139.641-66.004 50.02-104.48 98.871-120.851 122.281l-1.239 1.891v.07c-5.218 7.5-7.828 12-8.023 12.328-8.086 14.469-26.348 19.629-40.895 11.539-14.085-7.886-19.238-25.367-12.128-39.648-2.868-5.809-4.043-12.461-2.672-19.309 2.605-12.851 4.238-25.761 5.019-38.679 2.61-40.5-3-81.133-12.39-121.5-1.633-7.114-3.457-14.223-5.282-21.332-8.023-30.52-17.871-60.852-27.523-90.782l-3.524-10.957c-24.062-74.742-40.109-140.019-48.914-200.679-.261-1.891-.586-3.852-.785-5.742-3.781-26.411-6.062-52.04-7.043-77.149 19.242-16.5 38.938-32.351 59.289-47.551.325 1.891.52 3.789.453 5.739a657.729 657.729 0 0 0 2.153 68.48c.195 2.68.39 5.352.652 8.09 6.395 68.223 22.957 142.18 51.457 230.351l3.524 10.899c6.261 19.43 12.589 39 18.523 58.691 45.586-36.519 93.524-69.98 144.328-98.871 86.223-48.98 179.551-84.648 276.274-106.371 30.195-6.789 60.652-12.258 91.309-16.496 29.67-4.051 60.72-8.812 91.3-8.742 31.37.058 62.68 4.762 93.72 9.129 55.51 7.761 110.42 19.691 164.03 36.07 88.5 27.063 172.96 66.582 250.7 116.871 32.09 20.738 63.01 43.371 92.88 67.301 5.8-19.301 12-38.473 18.13-57.52l3.58-10.961c28.64-88.89 45.27-163.171 51.53-231.648.26-2.742.52-5.48.65-8.223 1.89-22.828 2.48-45 2.09-66.98-.07-2.418.19-4.699.71-6.981a1112.553 1112.553 0 0 1 59.09 47.223c-.98 25.109-3.26 50.609-6.84 77.02M1313.52 1088.03c-9.19-5.09-12.44-16.82-7.21-25.87 5.09-9.18 16.82-12.43 26.01-7.2 9.19 5.22 12.3 16.81 7.07 26-5.09 9.05-16.82 12.3-25.87 7.07M1399.46 1090.43c9.18 5.23 12.44 16.96 7.21 26.01-5.23 9.19-16.82 12.3-26.01 7.21-9.05-5.23-12.3-16.82-7.07-26.01 5.23-9.04 16.82-12.3 25.87-7.21M810.23 1090.43c9.188-5.09 20.778-1.83 26.008 7.21 5.231 9.19 1.84 20.78-7.207 26.01-9.187 5.09-20.777 1.98-26.008-7.21-5.23-9.05-1.98-20.78 7.207-26.01M877.512 1054.96c9.187-5.23 20.777-1.98 26.008 7.2 5.085 9.05 1.976 20.78-7.207 25.87-9.188 5.23-20.782 1.98-26.008-7.07-5.231-9.19-1.981-20.78 7.207-26M883.164 1136.65c9.895-3.21 20.461 2.14 23.871 11.77l.133.4c2.473 7.62-.199 15.71-6.02 20.46-1.804 1.61-3.945 2.74-6.285 3.55-10.027 3.27-20.726-2.28-24-12.31-3.277-10.03 2.274-20.72 12.301-23.87M1338.81 1160.52c-2.07 6.35-7.09 10.9-13.04 12.51-3.41 1-7.22 1-10.83-.2-10.03-3.21-15.58-13.98-12.44-24.01.47-1.34 1.07-2.61 1.74-3.74 4.55-7.49 13.57-11.24 22.27-8.43 10.03 3.15 15.58 13.84 12.3 23.87" style="fill:#271814;fill-opacity:1;fill-rule:nonzero;stroke:none" transform="matrix(.03528 0 0 -.03528 0 94.767)"/><path d="M1623.67 139.211c-154.92-79.36-330.44-124.16-516.11-124.16-183.337 0-356.576 43.66-510.025 121.09 1.07 23.8 4.211 47.468 10.028 70.14 22.937 89.59 88.394 162.938 241.91 160.528 57.23-.868 110.656-23.727 165.817-35.5 58.24-12.438 115.67-13.969 174.44-3.809 23.87 4.148 47.01 10.898 70.07 17.648 35.44 10.364 70.74 20.731 108.25 21.602 154.52 3.672 221.11-68.539 244.92-157.531 6.08-22.528 9.43-46.199 10.7-70.008" style="fill:#fcd98e;fill-opacity:1;fill-rule:nonzero;stroke:none" transform="matrix(.03528 0 0 -.03528 0 94.767)"/><path d="M1696.62 1568.86c-3.46-22.44-6.39-46.25-9-71.94l-4.43-17.74-7.77 4.5c-18 10.43-39.65 4.37-50.48-11.16-3.32-4.76-5.6-10.36-6.52-16.63-3.78-27.32-8.61-51.32-12.72-66.65-7.43-28.57-21.06-55.31-40.89-77.09-56.94-62.28-131.74-58.31-131.74-58.31h-110.03c-64.56 0-101.67 48.98-119.67 105.07-.14.39-2.81 12.46-10.5 27.13-3.27 6.59-7.11 12.85-11.94 18.46-19.57 22.89-47.22 34.57-75 35.42-27.85-.85-55.51-12.53-75.07-35.42-4.76-5.61-8.68-11.87-11.87-18.46-7.76-14.67-10.44-26.74-10.57-27.13-17.994-56.09-55.107-105.07-119.607-105.07h-110.09s-74.743-3.97-131.68 58.31c-19.828 21.78-33.457 48.52-40.957 77.09-4.109 15.33-8.871 39.33-12.719 66.65a35.796 35.796 0 0 1-2.676 9.66c-8.543 20.48-33.847 30-54.324 18.13l-7.242-4.24c-2.996 33.2-6.652 63.26-10.957 91.31l30.395 19.37a208.334 208.334 0 0 0 25.109 13.69c27.129 12.52 56.738 19.05 86.871 19.05h6.719c35.023-.13 70.109-.13 105.199-.2 47.414 0 94.894-.06 142.371-.13 34.176 0 68.875 2.41 102.858-3.91 13.56-2.48 26.47-7.57 39.32-12.65 15.79-6.2 32.29-9.46 48.92-9.79 16.56.33 33.06 3.59 48.85 9.79 12.91 5.08 25.82 10.17 39.39 12.65 33.91 6.32 68.61 3.91 102.85 3.91 47.41.07 94.96.13 142.37.13 35.03.07 70.18.07 105.2.2h6.72c31.24 0 61.89-6.98 89.81-20.42 7.63-3.65 15-7.76 22.17-12.32l33.33-21.26" style="fill:#271814;fill-opacity:1;fill-rule:nonzero;stroke:none" transform="matrix(.03528 0 0 -.03528 0 94.767)"/><path d="M682.434 1344.43c10.652-11.65 22.136-20.06 33.304-26.24l174.489 256.47c-24.192.04-48.379.05-72.571.07l-149.293-211.39c4.164-6.87 8.871-13.21 14.071-18.91M1439.49 1574.78c-1.84 0-3.67-.01-5.51-.01l-.3-.04-167.8-238.44c13.96-21.87 31.98-33.35 53.86-34.41l186.58 272.98-66.83-.08M1401.64 1301.74l183.42 269.59-.02.01c-3.22.69-6.47 1.25-9.74 1.74-1.09.17-2.18.3-3.28.44-2.42.31-4.85.57-7.29.78-1.05.08-2.1.18-3.16.25-3.41.21-6.83.36-10.26.36l-5.88-.01-188.63-273.18 36.38-.03 1.58.05h6.88M785.609 1301.74l185.871 273.2h-.011c-10.914.25-22.164.1-33.731-.08-5.484-.08-4.113-.12-9.586-.16l-184.531-268.05c18.652-5.35 32.301-4.98 32.57-4.98l2.539.07h6.879" style="fill:#fff;fill-opacity:1;fill-rule:nonzero;stroke:none" transform="matrix(.03528 0 0 -.03528 0 94.767)"/><path d="m1376.82 2240.04-49-60.15-40.83 76.72 30.15 66.66h-.08c3.69 8.09 1.57 17.83-5.65 23.48-7.85 6.21-12.33 15.47-12.33 25.37 0 17.9 14.61 32.43 32.51 32.43 17.82 0 32.35-14.53 32.35-32.43 0-10.76-5.34-20.81-14.21-26.78-8.01-5.34-10.76-15.39-7.15-23.95h-.07l34.31-81.35" style="fill:#fbc619;fill-opacity:1;fill-rule:nonzero;stroke:none" transform="matrix(.03528 0 0 -.03528 0 94.767)"/><path d="M1601.79 2365.21c0-35.5-28.9-64.32-64.31-64.32-13.04 0-23.56-10.52-23.56-23.55v-441.3c-5.18 1.25-10.36 2.43-15.62 3.6-126.66 28.75-258.97 43.11-393.41 43.11h-.08c-67.21 0-133.88-3.61-199.603-10.75-65.727-7.23-130.426-17.98-193.797-32.36a898.145 898.145 0 0 1-15.629-3.6v441.3c0 6.52-2.668 12.41-6.906 16.64-4.242 4.32-10.129 6.91-16.648 6.91-35.493 0-64.309 28.82-64.309 64.32 0 35.49 28.816 64.31 64.309 64.31 35.492 0 64.312-28.82 64.312-64.31 0-13.82-4.32-27.01-12.484-38.09-6.442-8.87-5.813-20.65.785-28.82h-.078l142.91-175.66c4.555-5.57 11.23-8.71 18.297-8.71l2.277.08c7.852.78 14.84 5.42 18.531 12.4l154.613 290.39-.08.08c5.66 10.67 2.44 24.02-7.93 30.78-29.21 18.92-46.64 50.96-46.64 85.74 0 54.97 43.66 99.73 98.07 101.85 54.5-2.12 98.16-46.88 98.16-101.85 0-34.78-17.43-66.82-46.72-85.74-10.29-6.76-13.51-20.11-7.85-30.78l-.08-.08 154.61-290.39c3.69-6.98 10.68-11.62 18.53-12.4l2.28-.08c6.99 0 13.74 3.14 18.22 8.71l142.91 175.66c3.45 4.32 5.26 9.58 5.26 14.92 0 4.8-1.49 9.66-4.55 13.9-8.09 11.08-12.41 24.27-12.41 38.09 0 35.49 28.82 64.31 64.31 64.31 35.41 0 64.31-28.82 64.31-64.31" style="fill:#fbc619;fill-opacity:1;fill-rule:nonzero;stroke:none" transform="matrix(.03528 0 0 -.03528 0 94.767)"/><path d="M1601.79 2365.21c0-35.5-28.9-64.32-64.31-64.32-13.04 0-23.56-10.52-23.56-23.55v-441.3c-5.18 1.25-10.36 2.43-15.62 3.6-126.66 28.75-258.97 43.11-393.41 43.11h-.08c-67.21 0-133.88-3.61-199.603-10.75-65.727-7.23-130.426-17.98-193.797-32.36a898.145 898.145 0 0 1-15.629-3.6v441.3c0 6.52-2.668 12.41-6.906 16.64-4.242 4.32-10.129 6.91-16.648 6.91-35.493 0-64.309 28.82-64.309 64.32 0 35.49 28.816 64.31 64.309 64.31 35.492 0 64.312-28.82 64.312-64.31 0-13.82-4.32-27.01-12.484-38.09-6.442-8.87-5.813-20.65.785-28.82h-.078l142.91-175.66c4.555-5.57 11.23-8.71 18.297-8.71l2.277.08c7.852.78 14.84 5.42 18.531 12.4l154.613 290.39-.08.08c5.66 10.67 2.44 24.02-7.93 30.78-29.21 18.92-46.64 50.96-46.64 85.74 0 54.97 43.66 99.73 98.07 101.85 54.5-2.12 98.16-46.88 98.16-101.85 0-34.78-17.43-66.82-46.72-85.74-10.29-6.76-13.51-20.11-7.85-30.78l-.08-.08 154.61-290.39c3.69-6.98 10.68-11.62 18.53-12.4l2.28-.08c6.99 0 13.74 3.14 18.22 8.71l142.91 175.66c3.45 4.32 5.26 9.58 5.26 14.92 0 4.8-1.49 9.66-4.55 13.9-8.09 11.08-12.41 24.27-12.41 38.09 0 35.49 28.82 64.31 64.31 64.31 35.41 0 64.31-28.82 64.31-64.31" style="fill:#fbc619;fill-opacity:1;fill-rule:nonzero;stroke:none" transform="matrix(.03528 0 0 -.03528 0 94.767)"/><path d="m922.719 2256.61-40.832-76.72-49 60.15 34.238 81.35a19.631 19.631 0 0 1-7.148 23.95c-8.95 5.97-14.211 16.02-14.211 26.78 0 17.9 14.527 32.43 32.351 32.43 17.903 0 32.43-14.53 32.43-32.43 0-9.9-4.477-19.16-12.328-25.37-7.145-5.65-9.266-15.39-5.653-23.48l30.153-66.66" style="fill:#fbc619;fill-opacity:1;fill-rule:nonzero;stroke:none" transform="matrix(.03528 0 0 -.03528 0 94.767)"/><path d="M1332.89 2192.03c-2.67.52-5.41 1.04-8.09 1.63l-33.58 63.13 31.69 70.17h-.72c1.64 8.55-1.5 17.35-8.34 22.77-7.05 5.48-11.03 13.69-11.03 22.5 0 15.65 12.92 28.43 28.77 28.43 15.71 0 28.63-12.78 28.63-28.43 0-9.59-4.7-18.52-12.46-23.81-9.39-6-13.11-18.06-8.67-28.5l33.32-79.24-39.52-48.65M877.594 2191.05l-40.305 49.63 33.324 79.24c4.371 10.31.719 22.31-8.543 28.5-7.757 5.29-12.457 14.09-12.457 23.81 0 15.65 12.785 28.43 28.504 28.43 15.848 0 28.629-12.78 28.629-28.43 0-8.81-3.976-17.02-10.891-22.5-8.347-6.59-11.152-18.2-6.718-28.05l29.347-64.89-34.238-64.37c-2.219-.46-4.433-.92-6.652-1.37" style="fill:#f57b14;fill-opacity:1;fill-rule:nonzero;stroke:none" transform="matrix(.03528 0 0 -.03528 0 94.767)"/><path d="M1510.09 1840.75c-3.65.92-7.3 1.77-11.02 2.48-1.17.26-2.35.52-3.59.79-12.78 2.93-25.69 5.67-38.67 8.28-3.07.58-6.2 1.24-9.33 1.83-12.91 2.54-25.89 4.89-39 7.1-5.02.91-10.04 1.7-15.07 2.48-2.93.52-5.87 1.04-8.87 1.44-26.54 4.04-53.28 7.76-80.28 10.69-65.48 7.05-132.14 10.7-199.51 10.7-66.65 0-133.895-3.65-199.766-10.83h-.191c-23.742-2.61-47.352-5.87-70.832-9.39l.391.2c-6.653-.98-13.172-2.09-19.758-3.13-3.457-.59-6.852-1.05-10.309-1.64-13.957-2.34-27.847-4.95-41.672-7.62-3.261-.59-6.523-1.25-9.718-1.9-13.434-2.74-26.805-5.48-40.047-8.48l-2.282-.52c-3.652-.71-7.304-1.56-10.957-2.48v408.94l47.84-345.81s113.676 40.13 343.081 40.13c112.11 0 251.89-9.58 419.56-38.12v-65.14" style="fill:#f8a10f;fill-opacity:1;fill-rule:nonzero;stroke:none" transform="matrix(.03528 0 0 -.03528 0 94.767)"/><path d="M1099.23 2454.17c-29.21 18.93-46.64 50.97-46.64 85.75 0 45.32 38.8 77.19 79.72 90.45l-58.2 29.79-77.051-52.51-.489-114.84 34.35-59.88-51.529-97.66-82.45-176.68-36.316 2.95-44.168 51.03-61.84 68.71-29.855 17.02 145.855-233.25c4.555-5.58 11.231-8.72 18.297-8.72 7.852.79 17.117 5.5 20.809 12.49l197.437 354.57c5.66 10.68 2.44 24.03-7.93 30.78M1148.32 2416.8l144.08-342.93c7.86-21.33 37.04-23.8 48.38-4.11l144.09 228.54-40.39-27.32-27.48-35.34-40.18-23.55-33.11-51.05-35.21-17.01-160.18 272.77" style="fill:#fbd96e;fill-opacity:1;fill-rule:nonzero;stroke:none" transform="matrix(.03528 0 0 -.03528 0 94.767)"/><path d="m864.027 2121.07.719-.91c5.867-7.05 14.543-10.77 23.934-9.98 9.261.98 17.285 6.45 21.394 14.34l3.848 7.25c-16.828-3.14-33.395-6.72-49.895-10.7m440.233-245.23c-65.48 7.05-132.14 10.7-199.51 10.7-66.65 0-133.895-3.65-199.766-10.83h-.191c-23.742-2.61-47.352-5.87-70.832-9.39l.391.2c-6.653-.98-13.172-2.09-19.758-3.13-3.457-.59-6.852-1.05-10.309-1.64-13.957-2.34-27.847-4.95-41.672-7.62-3.261-.59-6.523-1.25-9.718-1.9-13.434-2.74-26.805-5.48-40.047-8.48l-2.282-.52c-3.652-.71-7.304-1.56-10.957-2.48v436.59c0 7.23-2.933 14.28-7.957 19.23-5.152 5.29-12.066 8.09-19.5 8.09-33.328 0-60.394 27.2-60.394 60.52 0 33.46 27.066 60.59 60.394 60.59 33.457 0 60.59-27.13 60.59-60.59 0-12.97-4.109-25.43-11.742-35.87-5.867-8.02-6.715-18.33-2.934-27.26h-1.304l24.98-30.71 76.895-94.51 45.328-55.76h.062l.719-.91c5.867-7.05 14.543-10.77 23.934-9.98 9.261.98 17.285 6.45 21.394 14.34l3.848 7.25 38.609 72.45 112.309 210.86 1.63 3.52-.13.13c4.24 11.93 0 25.11-10.89 32.15-28.18 18.2-44.94 49.05-44.94 82.51 0 52.89 41.55 96 94.11 98.09 2.09-.13 4.11-.33 6.79-.59l5.54-.72c2.8-.46 5.61-1.04 8.09-1.63l1.04-.33.39-.13c1.37-.26 2.68-.71 3.85-1.04l1.76 3.26h.13l-.72-3.65 1.9-.59c1.17-.45 2.47-.91 3.97-1.63 1.05-.32 2.09-.72 3.39-1.5 2.48-.84 5.16-2.15 8.22-3.91.46-.33.85-.59 2.22-1.37.72-.39 1.56-.85 2.74-1.76 1.37-.72 2.35-1.44 3.72-2.48 4.95-3.39 9.65-7.5 13.89-11.87 1.17-1.04 2.08-2.22 3.26-3.52l2.08-2.35 1.77-2.35h.13l1.76-2.21.58-1.05c.72-1.04 1.44-2.02 2.22-3.2.59-.91 1.18-1.95 1.76-2.8l.85-1.5c.59-.98 1.31-2.15 2.09-3.65l1.3-2.48c.46-.91.72-1.63 1.18-2.67l1.3-3.07c.59-1.3 1.17-2.8 1.76-4.56.46-1.18.91-2.48 1.18-3.79 1.5-4.56 2.67-9.58 3.52-15l.32-3.2c.13-1.95.26-3.84.59-6.19v-4.56c0-33.46-16.76-64.31-44.93-82.51a27.196 27.196 0 0 1-10.44-33l-.26-.33 21.39-40.23 91.77-172.32 38.41-72.12 4.43-8.36c4.31-7.89 12.2-13.36 21.46-14.34h2.81c8.08 0 15.97 3.78 21.13 10.11l1.56 1.89 45.39 55.82 75.92 93.34 19.96 24.52c4.11 5.02 6.19 11.02 6.19 17.34 0 5.87-1.95 11.42-5.47 16.11-7.64 10.44-11.55 22.9-11.55 35.87 0 33.46 27.13 60.59 60.46 60.59 33.46 0 60.65-27.13 60.65-60.59 0-33.32-27.19-60.52-60.65-60.52-15.13 0-27.33-12.2-27.33-27.32v-436.59c-3.65.92-7.3 1.77-11.02 2.48-1.17.26-2.35.52-3.59.79-12.78 2.93-25.69 5.67-38.67 8.28-3.07.58-6.2 1.24-9.33 1.83-12.91 2.54-25.89 4.89-39 7.1-5.02.91-10.04 1.7-15.07 2.48-2.93.52-5.87 1.04-8.87 1.44-26.54 4.04-53.28 7.76-80.28 10.69m-442.19 472.58c-7.757 5.29-12.457 14.09-12.457 23.81 0 15.65 12.785 28.43 28.504 28.43 15.848 0 28.629-12.78 28.629-28.43 0-8.81-3.976-17.02-10.891-22.5-8.347-6.59-11.152-18.2-6.718-28.05l29.347-64.89-34.238-64.37-3.066-5.81-3.586 4.44-40.305 49.63 33.324 79.24c4.371 10.31.719 22.31-8.543 28.5m460.12-21.46c1.64 8.55-1.5 17.35-8.34 22.77-7.05 5.48-11.03 13.69-11.03 22.5 0 15.65 12.92 28.43 28.77 28.43 15.71 0 28.63-12.78 28.63-28.43 0-9.59-4.7-18.52-12.46-23.81-9.39-6-13.11-18.06-8.67-28.5l33.32-79.24-39.52-48.65-4.37-5.42-3.72 7.05-33.58 63.13 31.69 70.17h-.72m814.27-1137.55c-52.96 215.68-207.01 406.77-350.75 565.25-51.39 56.61-101.61 86.61-149.42 89.62l-.13.06-1.3.46c-4.63.26-9.26.33-13.83.13-.91-.07-1.76-.07-2.67-.2-1.18-.26-2.55-.59-4.18-.98-20.61-2.41-37.11-9.78-49.3-17.73v427.25c61.82 15.32 102.59 80.28 82.7 145.76-13.11 43.05-51.14 75.07-95.81 80.49-69.79 8.54-129.46-46.05-129.46-114.34 0-17.34 3.65-34.11 11.15-49.5l-27.59-33.78-17.35 40.96c17.74 20.35 23.74 49.17 13.63 76.3-9.71 25.96-33.85 44.55-61.37 47.81-45.78 5.41-84.78-30.2-84.78-74.74 0-16.44 5.41-32.61 15.39-45.66l-8.09-17.67-59.28 111.59c31.69 28.96 49.89 69.92 49.89 112.9 0 82.11-66.78 150.65-149.16 152.87-40.04-1.17-77.48-17.48-105.391-46.11-28.046-28.96-43.566-66.79-43.566-106.76 0-42.98 18.195-83.94 49.887-112.9l-59.477-111.59-7.89 17.67c9.98 13.05 15.39 28.9 15.39 45.66 0 44.35-38.609 79.83-84.133 74.81-27.586-3-51.98-21.59-61.828-47.55-10.433-27.2-4.304-56.15 13.242-76.63l-17.347-40.96-27.395 33.78c7.176 14.94 10.957 30.79 11.281 47.35.981 56.87-40.761 107.1-96.914 115.9-71.546 11.28-133.57-44.09-133.57-113.75 0-52.76 36.719-99.26 87.785-111.91v-423.99c-11.476 6.58-26.019 12.39-43.633 14.41a84.28 84.28 0 0 1-4.367 1.04c-.914.13-1.761.13-2.676.2-4.562.2-9.195.13-13.824-.13l-1.304-.46h-.524c-47.738-3.07-97.828-33.07-149.156-89.68-143.742-158.48-297.789-349.57-350.684-565.25-8.414-34.31-12.914-66.72-13.37-97.05v-1.17c-.13-10.44.195-20.68 1.042-30.66l.067-1.1c2.28-26.81 8.023-51.79 17.152-74.75 31.566-79.301 123.656-160.18 214.18-188.289 24.39-7.559 48.132-11.282 70.894-11.282 37.828 0 72.914 10.371 103.633 30.981 24.066 16.109 43.566 41.48 59.351 72.789 2.543 5.019 5.024 10.242 7.301 15.582 1.11 2.48 2.219 4.961 3.266 7.437 2.148 5.09 4.172 10.372 6.129 15.723.976 2.598 1.957 5.207 2.871 7.891 1.367 3.976 2.738 7.949 3.976 12 1.11 3.386 2.219 6.847 3.196 10.297.781 2.55 1.566 5.031 2.219 7.57.652 2.281 1.304 4.633 1.957 6.98 2.347 8.481 4.5 17.082 6.519 25.821 1.566 6.92 3.066 13.9 4.5 21 .391 1.9.785 3.79 1.109 5.68 1.696 8.41 3.196 16.96 4.633 25.57 3.977 23.73 7.106 47.87 9.52 71.93.914 8.68 1.762 17.28 2.48 25.89 3.196 37.57 4.824 74.35 5.606 108.01.199 7.82.328 15.45.394 22.95.715 67.05-1.957 118.51-2.871 133.83a2502.084 2502.084 0 0 1-3.719 52.51c-4.171 52.04-9.714 96.98-17.019 138.26-.719 4.18-1.434 8.35-2.219 12.46-3 16.3-18.781 27.06-35.086 24.07-16.304-3.07-27.07-18.79-24.066-35.16 2.086-11.15 4.043-22.63 5.867-34.43 4.305-28.05 7.961-58.11 10.957-91.31 2.023-21.91 3.719-45.13 5.219-70.05 2.215-36.98 3.324-79.43 2.804-123.98-.066-6.33-.195-12.72-.328-19.11-.129-5.67-.324-11.28-.453-16.96-.066-3.13-.199-6.26-.328-9.45-.062-2.55-.195-5.09-.262-7.63-.324-8.55-.718-17.09-1.238-25.7-.519-9.59-1.109-19.24-1.824-28.83-.524-7.56-1.11-15.06-1.762-22.63-.719-8.48-1.566-17.02-2.414-25.43-.262-2.48-.523-4.96-.781-7.44-.328-3.19-.719-6.39-1.047-9.52a986.208 986.208 0 0 0-2.738-21.59c-.977-7.43-2.086-14.8-3.129-22.04-1.043-6.33-2.024-12.59-3.133-18.79-.781-4.37-1.563-8.67-2.348-12.97-.652-3.46-1.304-6.85-2.019-10.18-.457-2.35-.914-4.69-1.434-6.98-.98-4.56-1.957-9.06-3.004-13.5-1.433-6.13-2.867-12.129-4.433-18l-.196-.648c-2.347-9.071-4.89-17.813-7.629-26.153l-.328-.918c-.847-2.8-1.761-5.543-2.738-8.211a227.492 227.492 0 0 0-2.871-8.031c-.848-2.277-1.695-4.5-2.543-6.648-11.48-28.891-25.305-51.852-41.738-66.071l-2.352-1.949a72.213 72.213 0 0 0-5.348-3.98c-34.042-22.832-75.523-26.942-123.199-12.129-82.242 25.43-154.113 97.758-176.09 152.998-17.937 45-18.718 101.55-2.347 168.21 49.695 202.57 198.136 386.16 336.855 539.1 42.457 46.82 82.18 71.15 114.528 70.17 1.433-.06 2.804-.13 4.109-.26l1.043-.13c1.434-.19 2.738-.38 4.043-.65 7.566-1.5 15.066-4.37 21.391-8.87 8.218-5.87 15.457-13.63 22.175-21.06 7.172-7.9 13.239-16.77 18.067-26.29 2.933-5.74 5.281-11.15 10.629-15.19 5.089-3.85 11.414-5.94 17.804-5.94 16.371 0 29.614 13.31 29.614 29.68 0 2.86-.524 5.74-1.372 8.47-2.023 6.59-5.871 12.72-9.199 18.46-1.691 2.93-3.453 5.81-5.343 8.61-1.633 2.54-4.047 5.09-5.415 7.83l-.261.32a63.34 63.34 0 0 0 6.785 3.07c3.586 1.43 7.758 2.93 12.519 4.43a703.125 703.125 0 0 0 32.086 8.22c1.7.39 3.2.72 4.504 1.04l1.367.33c1.305.26 2.543.52 3.786.85 2.214.39 4.433.85 6.652 1.3a617.182 617.182 0 0 0 15.391 3.07c2.347.45 4.695.91 7.043 1.37 5.609.98 11.023 2.02 16.761 2.93 2.153.39 4.5.85 6.914 1.31l4.696.72c2.609.45 5.281.91 8.019 1.3 4.438.78 9 1.5 13.504 2.22l1.762.32c3.844.59 7.691 1.18 11.476 1.77l.914.12c6.457.85 13.043 1.89 19.5 2.61 25.11 3.53 50.805 6.33 76.305 8.55l1.5.13c8.219.71 16.567 1.5 24.981 2.09 7.175.58 14.48.97 22.175 1.43 2.739.13 5.414.46 8.348.46 3.39.26 6.72.45 10.11.58l8.67.46c2.35.13 4.7.26 7.05.26 6.45.32 12.91.59 19.69.72h3.33c7.96.45 15.72.59 24.13.59l1.17.19h.27c8.67.13 17.47.13 26.28.13h2.93c8.55 0 17.16 0 25.83-.13.72 0 1.3 0 2.35-.19 8.22-.14 16.3-.27 24.52-.59 6.91-.13 13.83-.27 20.74-.59l9.98-.39c6.26-.33 12.46-.59 18.59-1.04l5.15-.33c5.74-.39 11.48-.72 17.35-1.17 3.39-.13 6.91-.39 10.24-.72 15.13-1.05 30.98-2.48 48.46-4.37 7.82-.79 15.45-1.63 23.21-2.54 1.31-.14 2.48-.26 3.79-.4 1.17-.19 2.34-.32 3.71-.58 6.72-.78 13.37-1.63 20.68-2.68 7.37-.85 14.67-1.89 21.72-3.06l6.45-1.04c5.87-.72 11.61-1.77 17.35-2.61 22.18-3.72 44.35-7.64 65.74-12.07l1.37-.33c2.94-.58 6-1.17 8.94-1.89l1.04-.13c1.76-.46 3.52-.72 5.28-1.17 4.31-.91 8.48-1.83 12.72-2.74 13.89-3.26 24.33-6.53 32.16-9.59 1.89-.72 3.65-1.56 5.41-2.54-1.37-2.74-3.79-5.29-5.48-7.83-1.83-2.8-3.59-5.68-5.28-8.61-3.33-5.74-7.18-11.87-9.2-18.46-.85-2.73-1.37-5.61-1.37-8.47 0-16.37 13.24-29.68 29.61-29.68 6.39 0 12.72 2.09 17.81 5.94 5.28 4.04 7.63 9.45 10.63 15.19 3.91 7.7 8.6 14.94 14.02 21.66 9.26 11.34 20.35 23.6 33.72 30 4.5 2.15 9.32 2.8 13.89 4.56l.19.07c2.81.52 5.74.91 8.87.97 32.29.85 72.07-23.28 114.59-70.17 138.66-152.94 287.1-336.53 336.8-539.1.98-4.05 1.89-8.03 2.74-11.94.91-3.98 1.69-7.83 2.41-11.68.59-3.13 1.17-6.26 1.7-9.32.39-2.22.71-4.44 1.04-6.65l.2-1.7c.45-2.54.78-5.09 1.04-7.57.91-6.91 1.56-13.69 1.95-20.34.2-2.55.33-5.09.4-7.57.13-3.91.26-7.76.26-11.61 0-3.26-.07-6.52-.2-9.72l-.06-2.08c-.13-3.33-.33-6.59-.66-9.85-.19-2.87-.52-5.67-.84-8.48-.13-1.04-.26-2.15-.39-3.2l-.07-.32c-.39-2.87-.78-5.74-1.31-8.55-.58-3.32-1.23-6.58-1.95-9.84-1.44-6.2-3.13-12.2-5.09-18.07l-.39-1.3c-.98-2.87-2.02-5.68-3.13-8.42-21.98-55.24-93.85-127.568-176.03-152.998-47.74-14.813-89.15-10.703-123.26 12.129-4.63 3.129-9.13 6.91-13.37 11.277-1.05 1.113-2.15 2.223-3.13 3.391a70.852 70.852 0 0 0-3 3.402c-5.09 6.258-9.98 13.43-14.55 21.449-.91 1.571-1.82 3.2-2.67 4.828-.91 1.633-1.76 3.321-2.61 5.024-1.76 3.457-3.39 6.976-5.02 10.629-.85 1.828-1.63 3.648-2.41 5.539-8.22 19.441-15.27 41.808-21.33 66.332-.72 2.938-1.44 5.998-2.15 9.068-3.07 13.17-5.81 26.87-8.35 41.02-.59 3.46-1.17 6.91-1.76 10.37-1.18 7.11-2.28 14.28-3.33 21.52l-1.56 11.16c-.53 3.71-.98 7.43-1.44 11.15-.46 3.39-.85 6.85-1.24 10.37l-.19 1.37c-.39 3.52-.79 7.17-1.18 10.76-1.69 15.65-3.13 31.57-4.3 47.55-.26 3.26-.52 6.58-.72 9.91-1.04 15.46-1.89 30.91-2.54 46.3-.33 6.98-.59 13.96-.79 20.87-.13 5.68-.32 11.29-.45 16.96-.13 6.46-.26 12.85-.33 19.24-.52 44.55.59 86.94 2.81 123.85 1.95 31.63 4.17 60.59 6.91 87.53 2.61 25.69 5.54 49.5 9 71.94 1.89 12.52 3.91 24.58 6.13 36.32 3.07 16.37-7.76 32.09-24.07 35.16-16.3 2.99-32.02-7.77-35.08-24.07-.85-4.57-1.7-9.13-2.48-13.83-6.78-39-12.07-81.39-16.18-129.92-1.63-18.84-3-38.61-4.3-59.48-.91-15.32-3.65-66.91-2.87-134.22.06-7.3.2-14.8.39-22.5.33-14.41.78-29.41 1.57-44.87.06-2.74.19-5.54.39-8.35 1.3-26.41 3.32-53.93 6.19-81.59.39-4.04.85-8.02 1.31-12.06 2.67-23.81 6-47.68 10.24-71.03.78-4.56 1.63-9.06 2.54-13.56.2-1.24.46-2.54.78-3.78.72-3.72 1.44-7.37 2.22-11.03 1.83-8.41 3.72-16.691 5.74-24.839 1.43-5.742 3-11.481 4.57-17.09 1.63-5.812 3.32-11.551 5.15-17.152.26-1.18.65-2.348 1.04-3.457.78-2.481 1.57-4.891 2.42-7.313.65-2.078 1.43-4.168 2.15-6.258 1.37-3.98 2.8-7.82 4.3-11.671 1.44-3.848 3-7.629 4.57-11.348 1.3-3.203 2.74-6.391 4.17-9.524 1.17-2.609 2.35-5.148 3.65-7.699.59-1.429 1.31-2.867 2.03-4.238 15.78-31.563 35.41-57.133 59.61-73.371 30.71-20.61 65.8-30.981 103.63-30.981 22.76 0 46.5 3.723 70.96 11.282 90.52 28.109 182.55 108.988 214.11 188.289 9.33 23.48 15.13 49.05 17.29 76.44v.2c.84 9.71 1.17 19.69.98 30v1.11c-.46 30.32-4.9 62.67-13.31 96.98" style="fill:#271814;fill-opacity:1;fill-rule:nonzero;stroke:none" transform="matrix(.03528 0 0 -.03528 0 94.767)"/><path d="m1346.52 2122.18 45.39 55.82c-19.43 5.22-39.13 9.85-59.02 14.03-2.67.52-5.41 1.04-8.09 1.63a1054.7 1054.7 0 0 1-68.08 11.34l38.41-72.12c17.28-3.14 34.43-6.73 51.39-10.7m626.3-324.14-.06.19c-108.53 135.59-248.1 245.16-407.88 317.95-18 8.15-36.27 15.91-54.79 23.15v-70.37c18.52-7.83 36.79-16.11 54.79-24.98 346.12-169.7 584.95-525.74 584.95-936.49 0-5.02-.06-10.04-.06-15.06v-1.11c-.2-10.05-.53-20.02-.98-30v-.2c-8.02-182.608-63.27-353.229-153.86-499.839-44.35-71.742-97.11-137.742-156.91-196.64-6.2-6.063-12.4-12-18.72-17.93-11.81-11.09-23.94-21.852-36.33-32.352-5.67-4.89-11.41-9.66-17.22-14.418-51.26-41.871-106.5-78.98-165.2-110.543-146.87-79.238-314.75-124.18-492.99-124.18-176.095 0-342.142 43.891-487.712 121.313-61.243 32.539-118.961 71.02-172.18 114.719a913.131 913.131 0 0 0-17.285 14.539c-12.324 10.5-24.391 21.262-36.129 32.422-6.328 5.93-12.524 11.93-18.723 18.059C255.008 485.23 163.18 633.41 111.785 799.129c-25.762 82.832-41.347 170.101-45.39 260.301l-.067 1.1c-.52 10.18-.848 20.42-1.043 30.66v1.17c0 5.02-.066 10.11-.066 15.13 0 408.67 236.355 763.14 579.605 933.88 17.938 8.93 36.196 17.35 54.785 25.31v70.5c-18.519-7.31-36.785-15.2-54.785-23.55C264.531 1938.13 0 1553.14 0 1107.49 0 980.57 21.457 858.609 60.914 745c64.961-186.918 178.574-351.27 325.707-477.672 18.781-16.098 38.024-31.558 57.852-46.367a1106.486 1106.486 0 0 1 165.59-102.852C759.742 42.589 928.727 0 1107.56 0c181.11 0 352.31 43.7 503.43 121.109 55.56 28.5 108.46 61.571 158.15 98.68a1120.507 1120.507 0 0 1 57.59 46.109c72.79 62.352 137.49 133.891 192.14 212.883 67.7 97.828 120.07 207.071 153.59 324.199 27.72 96.79 42.59 198.92 42.59 304.51 0 260.95-90.66 501.02-242.23 690.55M884.246 2192.42c-2.219-.46-4.433-.92-6.652-1.37-19.828-4.24-39.524-8.94-58.957-14.22l45.328-55.76h.062c16.5 3.98 33.067 7.56 49.895 10.7l38.609 72.45c-22.957-3.19-45.785-7.17-68.285-11.8" style="fill:#271814;fill-opacity:1;fill-rule:nonzero;stroke:none" transform="matrix(.03528 0 0 -.03528 0 94.767)"/><path d="M1098.82 551.629c2.8.519 5.67.781 8.61.781 2.8 0 5.54-.262 8.21-.719h.2c24.07-3.98 42.46-25.043 42.46-50.222 0-21.91-13.96-40.699-33.39-47.797h-.07c-5.41-2.031-11.28-3.133-17.41-3.133-7.18 0-14.02 1.5-20.22 4.242-18.07 7.821-30.72 25.821-30.72 46.688 0 25.051 18.26 46.051 42.2 50.16h.13m98.41 8.34c-3.65 5.613-7.76 10.832-12.32 15.59-9.98 10.441-22.05 18.921-35.55 24.589-12.91 5.614-27.06 8.614-41.93 8.614-14.74 0-28.83-3-41.68-8.481-13.5-5.672-25.56-14.09-35.61-24.461-4.63-4.82-8.87-10.109-12.52-15.781-11.09-16.891-17.48-36.98-17.48-58.57 0-13.039 2.35-25.43 6.59-37.039v-.071c15.19-40.89 54.59-70.109 100.7-70.109 45.06 0 83.8 27.98 99.59 67.5l.84 2.219a106.878 106.878 0 0 1 6.79 37.5c0 21.531-6.39 41.679-17.42 58.5" style="fill:#271814;fill-opacity:1;fill-rule:nonzero;stroke:none" transform="matrix(.03528 0 0 -.03528 0 94.767)"/><path d="M1158.3 501.469c0-21.91-13.96-40.699-33.39-47.797h-.07c-5.41-2.031-11.28-3.133-17.41-3.133-7.18 0-14.02 1.5-20.22 4.242-18.07 7.821-30.72 25.821-30.72 46.688 0 25.051 18.26 46.051 42.2 50.16h.13c3.06-.199 6.13 6.262 9.19 6.32 1.3.039 2.58-1.551 3.86-3.129 1.28-1.601 2.56-3.191 3.84-3.129h.13c24.07-3.98 42.46-25.043 42.46-50.222" style="fill:#82c3e2;fill-opacity:1;fill-rule:nonzero;stroke:none" transform="matrix(.03528 0 0 -.03528 0 94.767)"/><path d="M1107.43 450.539c-7.18 0-14.02 1.5-20.22 4.242-18.07 7.821-30.72 25.821-30.72 46.688 0 25.051 18.26 46.051 42.2 50.16h.13c.04-.008.09-.008.13-.008.32 0 .64.07.96.188 2.45.402 4.96.601 7.52.601 2.61 0 5.17-.23 7.66-.629.18-.062.36-.09.54-.09H1115.84c24.07-3.98 42.46-25.043 42.46-50.222 0-21.91-13.96-40.699-33.39-47.797h-.07c-5.41-2.031-11.28-3.133-17.41-3.133" style="fill:#5398cd;fill-opacity:1;fill-rule:nonzero;stroke:none" transform="matrix(.03528 0 0 -.03528 0 94.767)"/><path d="m1241.06 186.07-4.3 4.371c-30.07 30.258-57.59 30.258-89.48 30.258h-33.79c-4.69 0-9.39-.129-14.02-.258-8.15-.191-15.85-.32-23.41.129-27.33 1.571-56.29 1.239-83.677-22.371-4.309-3.719-8.285-7.5-12.07-11.148-7.301-6.91-14.215-13.5-21.391-17.481-9.914-5.41-21.324-3-27.129 5.739-8.676 12.98-5.543 32.089 6.844 41.671 15.199 11.872 50.875 39.59 22.828 80.481-5.086 7.437-11.481 13.25-17.024 18.398-4.957 4.563-10.562 9.653-11.543 12.911-3.914 13.441 3.524 24.261 11.743 29.871 3.714 2.55 16.89 10.05 29.738.07 5.934-4.629 11.676-11.289 17.738-18.332 10.503-12.328 22.503-26.219 40.173-34.57 18.66-8.868 37.83-8.02 54.79-7.297 5.54.199 10.76.457 15.52.258 12.2-.391 24.39-.329 36.2-.258h10.89c23.61 0 43.18 7.687 56.41 22.238 2.48 2.738 4.96 5.539 7.5 8.352 25.31 28.558 37.24 37.5 53.88 30.707 8.47-3.45 14.74-10.039 17.21-18.059 1.5-4.762 2.22-12.199-3-20.219-1.37-2.09-6.32-6.32-9.91-9.39-12.59-10.832-38.74-33.262-24.07-65.02 6.2-13.5 16.9-22.633 25.44-30.012 4.7-4.039 9.2-7.82 11.74-11.339 6.85-9.391 3.59-25.18-3.72-34.051-7.63-9.188-14.35-6.059-17.54-4.5-7.63 3.59-14.87 11.019-22.57 18.851m81.66 47.352a69.027 69.027 0 0 1-3.79 4.758c-4.89 5.679-10.37 10.308-15.26 14.539-5.35 4.57-10.37 8.941-12.78 12.922 2.22 3 7.83 7.828 11.41 10.89 4.89 4.168 9.85 8.481 14.16 13.43 1.56 1.898 3.06 3.848 4.43 5.937 11.87 18.133 14.94 39.391 8.61 59.813-6.65 21.391-22.76 38.668-44.22 47.48-19.76 8.079-36.98 7.098-51.91 1.43-23.29-8.801-41.22-29.019-54.85-44.41-2.42-2.68-4.7-5.281-7.05-7.832-5.21-5.738-14.8-6.981-21.85-6.981h-11.02c-11.35-.058-23.15-.128-34.5.262-6.46.199-12.85-.058-18.98-.32-12.65-.52-24.65-1.051-32.8 2.871-8.68 4.039-16.44 13.109-24.66 22.687-7.3 8.481-14.87 17.352-24.58 24.852-24.725 19.238-58.049 19.891-84.791 1.629-27.523-18.719-39.391-50.797-30.391-81.777 4.629-15.793 15.848-26.032 24.848-34.313 4.109-3.777 7.957-7.301 10.047-10.301 1.172-1.699 1.691-2.867 1.891-3.457-2.024-3.59-10.895-10.5-14.805-13.5-32.09-24.98-39.652-70.961-17.09-104.742 19.371-29.09 57.524-37.961 88.766-20.809 12.519 6.918 22.365 16.372 31.105 24.649 3.39 3.269 6.72 6.461 10.31 9.531 13.17 11.352 25.63 12.578 50.35 11.078 9.45-.578 18.45-.316 27.26-.129 4.24.071 8.54.2 12.91.2h33.79c28.24 0 39.91 0 56.22-16.438l4.04-4.039c9.72-10.043 20.8-21.332 36.07-28.504 2.47-1.168 5.02-2.219 7.56-2.996 6.46-2.223 12.91-3.262 19.31-3.262 17.54 0 34.24 8.02 46.82 23.282 12 14.48 18.13 32.867 18.13 50.738 0 14.738-4.17 29.219-12.71 40.832" style="fill:#271814;fill-opacity:1;fill-rule:nonzero;stroke:none" transform="matrix(.03528 0 0 -.03528 0 94.767)"/><path d="M1216.81 677.922c-12.59-26.481-26.2-43.512-35.55-53.242-19.53-20.27-37.75-36.508-57.57-38.36l-4.31 1.391c-2.32-.09-4.97-4.832-7.29-4.742l-3.05.281-2.22-.281c-22.69-1.848-50.17 18.48-72.67 41.711-8.34 8.711-20 22.961-31.3 44.539-23.049 43.972-44.62 117.761-34.623 235.07h-.184l1.391 17.859c36.196 4.633 77.766 15.934 122.206 38.332a28.048 28.048 0 0 0 13.15 3.239c4.63 0 9.07-1.008 13.24-3.239 46.84-23.609 90.36-34.808 127.95-39.07l1.39-18.98c8.88-108.692-9.45-179.981-30.56-224.508" style="fill:#f57997;fill-opacity:1;fill-rule:nonzero;stroke:none" transform="matrix(.03528 0 0 -.03528 0 94.767)"/><path d="M1249.5 836.891c-39.07 6.379-83.05 19.339-129.81 42.859-4.81 2.59-9.99 3.801-15.36 3.801-5.19 0-10.37-1.211-15.37-3.801-44.07-22.219-85.64-35.09-123.14-41.66-.371 20.371.371 42.398 2.407 66.199h-.184l1.391 17.859c36.196 4.633 77.766 15.934 122.206 38.332a28.048 28.048 0 0 0 13.15 3.239c4.63 0 9.07-1.008 13.24-3.239 46.84-23.609 90.36-34.808 127.95-39.07l1.39-18.98c1.94-23.598 2.59-45.45 2.13-65.539" style="fill:#f14d64;fill-opacity:1;fill-rule:nonzero;stroke:none" transform="matrix(.03528 0 0 -.03528 0 94.767)"/><path d="M1249.48 836.832c0-4.504-.2-9.004-.4-13.371-.19-4.109-.39-8.152-.65-12.063-.19-3.976-.52-7.828-.85-11.679-.45-5.149-.97-10.039-1.63-14.93-.32-3.328-.78-6.527-1.24-9.719-.97-6.718-2.02-13.238-3.32-19.5-.33-2.09-.72-4.109-1.18-6.07-.45-2.48-1.04-5.02-1.63-7.5-.65-2.871-1.3-5.738-2.02-8.48l-.45-1.559c-.66-2.609-1.31-5.152-2.03-7.629-.65-2.223-1.3-4.441-1.95-6.594l-2.16-6.648c-.65-2.219-1.36-4.371-2.21-6.461a100.67 100.67 0 0 0-1.89-5.277 313.7 313.7 0 0 0-9.07-21.461c-12.59-26.411-26.22-43.5-35.55-53.219-2.34-2.41-4.76-4.762-7.23-6.981-8.03-7.242-16.31-13.171-24.66-17.543-9.06-4.699-18.06-7.757-26.74-8.937l-.39-.133c-7.76-1.687-19.17-1.039-25.24-.449l-2.08.191-1.18.2-.91.058h-.07c-8.8 1.242-17.93 4.371-27 9.203-8.28 4.43-16.43 10.239-24.32 17.41-2.48 2.219-4.9 4.571-7.31 6.981-8.28 8.738-19.96 22.957-31.24 44.547-1.17 2.211-2.28 4.5-3.454 6.84-3.656 7.5-7.242 15.793-10.633 24.921-.977 2.739-1.957 5.61-3 8.54-1.891 5.421-3.586 11.152-5.219 17.16a647.027 647.027 0 0 0-2.152 8.019c-2.281 9.262-4.434 19.242-6.195 29.93-.325 1.961-.653 3.98-.914 5.941-.977 5.93-1.758 12-2.415 18.262-.843 6.719-1.429 13.629-1.89 20.797a251.545 251.545 0 0 0-.586 10.242 402.492 402.492 0 0 0-.586 18.199c-.195 12.129 0 24.981.586 38.352.391 9 .976 18.258 1.824 27.848h-.258l1.434 17.871v.058c2.219.262 4.437.59 6.59.922 4.5.649 9 1.43 13.629 2.277l.718.133c4.301.778 8.739 1.758 13.241 2.801 2.61.59 5.28 1.309 8.02 1.957 2.74.723 5.41 1.371 8.22 2.223 2.48.648 5.02 1.367 7.63 2.148 2.54.852 5.15 1.629 7.69 2.41 2.61.918 5.22 1.762 7.83 2.68 2.67.98 5.28 1.891 7.96 2.871 2.93 1.109 5.87 2.277 8.8 3.52 2.41.91 4.83 1.89 7.24 2.929 3.98 1.7 7.96 3.461 12 5.352 2.61 1.18 5.28 2.476 7.96 3.777 1.17-6.711 2.48-14.738 3.91-23.801 4.83-28.628 9.98-67.109 13.76-105.718 1.76-19.371 3.07-38.68 3.78-56.871.72-18.2.79-35.161.79-49.829-.33-7.308-.85-13.96-.92-19.96.07-6.059-.84-11.149-1.1-15.461-.85-8.539-1.11-13.629-1.11-13.629l3.19-.91s2.09 4.57 5.22 12.789c1.5 4.171 3.85 9.132 5.48 14.992 1.89 5.871 3.59 12.59 5.74 19.898 1.63 7.43 3.39 15.449 5.28 23.93 1.5 8.609 2.67 17.609 4.11 27.07.91 9.391 1.83 19.11 2.8 29.02.4 9.91.85 20.019 1.24 30.07.53 20.152.26 40.301-.78 59.152-.98 18.778-2.54 36.329-3.98 51.329-.52 4.691-1.04 9.062-1.63 13.242 7.76-3.59 15.39-6.782 22.89-9.653 2.55-1.05 5.09-1.961 7.64-2.871l1.36-.457c2.03-.781 3.98-1.429 5.94-2.09 3.59-1.242 7.17-2.41 10.83-3.453l.26-.199c3.52-.98 7.04-2.019 10.56-3 2.42-.648 4.76-1.238 7.05-1.828 2.34-.652 4.69-1.172 6.98-1.691 2.02-.461 4.1-.911 6.06-1.309 1.5-.391 2.87-.711 4.37-.973 2.15-.398 4.17-.789 6.2-1.179 2.93-.579 5.86-1.039 8.73-1.5 1.57-.258 3.2-.45 4.77-.719 3.26-.449 6.45-.84 9.58-1.231l1.44-18.918c.39-4.82.72-9.589.98-14.222.19-2.469.32-4.949.39-7.367.13-2.211.26-4.372.32-6.52.59-13.043.72-25.562.4-37.5m65.41 163.828c-3.46-.45-7.11-.851-10.5-.98-1.24-.192-2.61-.192-3.78-.192-3.2-.258-6.52-.457-9.72-.457h-2.67c-3.33 0-6.66.199-9.92.328-3.58.129-7.43.45-11.02.851-6.72.52-13.5 1.69-20.22 2.86-1.43.2-2.87.53-4.04.79-2.35.52-4.44.98-6.46 1.69-15.59 3.79-30.59 9.4-44.09 17.61-10.5 6.46-21.39 15-29.41 24.92-.98.91-1.83 1.82-2.41 2.87l-.4.52-.06.19-.2.33c-5.21 10.11.92 22.31 12 25.11 27.2 6.78 48.98 17.61 64.57 27.13 20.74 12.91 35.81 33.52 40.5 57.53 7.57 39.13-5.67 73.04-22.95 98.87-19.31 28.82-49.51 48.33-83.22 55.17-6.53 1.37-13.11 2.09-19.77 2.09h-90.78c-6.26 0-12.46-.65-18.59-1.96h-.13c-34.04-6.65-64.436-26.28-83.936-55.3-17.219-25.83-30.457-59.74-22.891-98.87 4.691-24.01 19.695-44.62 40.5-57.53 15.195-9.33 36.457-19.89 62.867-26.67 11.03-2.87 16.96-14.94 11.87-25.11l-.52-.98-.39-.52c-.59-1.05-1.5-1.96-2.41-2.87-8.09-9.92-18.92-18.46-29.61-24.92-13.37-8.21-28.436-13.82-43.897-17.61-2.086-.71-4.238-1.17-6.457-1.69-1.433-.26-2.672-.59-4.172-.79-6.586-1.17-13.371-2.34-20.086-2.86-3.652-.401-7.371-.722-11.09-.851-3.39-.129-6.519-.328-9.847-.328h-2.738c-3.133 0-6.524.199-9.653.457-1.176 0-2.609 0-3.781.192-3.59.129-7.176.53-10.566.98-37.372 3.98-81.981 16.7-135.004 43.63 1.109-3.45 40.171-111.911 168.394-124.892h1.434v-.066c-10.172-102.91 1.761-177.262 20.742-229.762 9.262-25.769 20.152-46.308 31.109-62.422 6.914-10.429 13.891-18.976 20.352-25.957 1.24-1.429 2.48-2.8 3.71-4.109 7.83-8.152 16.05-15.191 24.59-21.262 4.76-3.39 9.65-6.449 14.61-9.191 12.13-6.66 24.72-11.348 37.24-13.699 5.41-.461 10.89-.848 16.5-1.239l.2-.062h.13c2.8.519 5.67.781 8.61.781 2.8 0 5.54-.262 8.21-.719h.2c1.11 0 2.15.071 3.2.129 5.02.391 9.91.719 14.8 1.11 12.33 2.41 24.65 7.039 36.72 13.699 4.83 2.609 9.65 5.609 14.35 8.93 8.61 6.07 16.96 13.312 24.98 21.523 3.45 3.59 6.91 7.5 10.76 12.066a282.23 282.23 0 0 1 13.37 18.071c12.78 19.23 25.82 44.472 35.93 77.222 16.05 51.52 25.11 121.5 15.72 215.418 62.35 7.371 103.18 37.629 128.48 66.45 25.31 28.901 35.16 56.291 35.74 57.981-52.95-26.93-97.69-39.65-135-43.63" style="fill:#271814;fill-opacity:1;fill-rule:nonzero;stroke:none" transform="matrix(.03528 0 0 -.03528 0 94.767)"/><path d="M1144.04 1112.32c-1.21 0-2.27.03-3.17.07-2.51.1-3.84.25-3.84.25l-.25 1.73s1.2.53 3.45 1.53c2.23 1.04 5.47 2.53 9.43 4.57 3.94 2.13 8.69 4.59 13.76 7.95 5.06 3.34 10.68 7.1 16.11 11.91 10.91 9.26 22.25 22 26.81 36.68 1.19 3.63 1.76 7.36 2 11.1.08 1.93.05 3.8-.06 5.24.01.71-.29 2.4-.42 3.56l-.08.55-.01.08-.04.19-.07.38-.29 1.54c-1.61 8.18-5.13 16.25-9.96 23.64-4.89 7.35-11.11 14.02-18.16 19.71-7.07 5.68-14.88 10.44-22.91 14.4-16.16 7.72-32.96 12.54-47.72 15.23-7.36 1.56-14.26 2.52-20.4 3.3-6.15.77-11.58 1.43-16.03 1.75-9.04.79-14.21 1.24-14.21 1.24l-.13 1.74s5 1.43 14.02 3.15c9.06 1.72 22.07 3.52 38.08 3.61 15.92-.16 34.99-1.9 54.7-8.97 9.85-3.46 19.73-8.44 29.15-14.85 9.3-6.58 18.1-14.74 25.11-24.66 7.11-9.83 12.26-21.41 14.85-33.59l.45-2.29.3-1.66.11-.97c.14-1.42.32-2.28.42-4.14.28-3.71.21-6.97 0-10.14-.45-6.43-2.04-12.63-4.18-18.3-4.4-11.39-11.32-20.44-18.56-27.56-7.34-7.06-15.12-12.26-22.57-16.2-7.57-3.74-14.63-6.55-21.09-8.27-6.46-1.7-12.13-2.75-16.86-3.09-3.01-.32-5.6-.41-7.74-.41m63.74 85.13" style="fill:#442619;fill-opacity:1;fill-rule:nonzero;stroke:none" transform="matrix(.03528 0 0 -.03528 0 94.767)"/><path d="M1140.1 501.469c0-18.09-14.66-32.66-32.75-32.66-18 0-32.66 14.57-32.66 32.66 0 18.09 14.66 32.66 32.66 32.66 18.09 0 32.75-14.57 32.75-32.66" style="fill:#271814;fill-opacity:1;fill-rule:nonzero;stroke:none" transform="matrix(.03528 0 0 -.03528 0 94.767)"/><path d="M1127.29 290.781h-39.14V501.5h39.14V290.781" style="fill:#271814;fill-opacity:1;fill-rule:nonzero;stroke:none" transform="matrix(.03528 0 0 -.03528 0 94.767)"/><path d="M1281.17 171.719c-7.63-9.188-14.35-6.059-17.54-4.5-7.63 3.59-14.87 11.019-22.57 18.851l-4.3 4.371c-30.07 30.258-57.59 30.258-89.48 30.258h-33.79c-4.69 0-9.39-.129-14.02-.258-8.15-.191-15.85-.32-23.41.129-27.33 1.571-56.29 1.239-83.677-22.371-4.309-3.719-8.285-7.5-12.07-11.148-7.301-6.91-14.215-13.5-21.391-17.481-9.914-5.41-21.324-3-27.129 5.739-8.676 12.98-5.543 32.089 6.844 41.671 15.199 11.872 50.875 39.59 22.828 80.481-5.086 7.437-11.481 13.25-17.024 18.398-4.957 4.563-10.562 9.653-11.543 12.911-3.914 13.441 3.524 24.261 11.743 29.871 3.714 2.55 16.89 10.05 29.738.07 5.934-4.629 11.676-11.289 17.738-18.332 10.503-12.328 22.503-26.219 40.173-34.57 18.66-8.868 37.83-8.02 54.79-7.297 5.54.199 10.76.457 15.52.258 12.2-.391 24.39-.329 36.2-.258h10.89c23.61 0 43.18 7.687 56.41 22.238 2.48 2.738 4.96 5.539 7.5 8.352 25.31 28.558 37.24 37.5 53.88 30.707 8.47-3.45 14.74-10.039 17.21-18.059 1.5-4.762 2.22-12.199-3-20.219-1.37-2.09-6.32-6.32-9.91-9.39-12.59-10.832-38.74-33.262-24.07-65.02 6.2-13.5 16.9-22.633 25.44-30.012 4.7-4.039 9.2-7.82 11.74-11.339 6.85-9.391 3.59-25.18-3.72-34.051" style="fill:#fff;fill-opacity:1;fill-rule:nonzero;stroke:none" transform="matrix(.03528 0 0 -.03528 0 94.767)"/><path d="M1270.14 165.422c-2.76 0-5.02 1.066-6.51 1.797-7.63 3.59-14.87 11.019-22.57 18.851l-4.3 4.371c-30.07 30.258-57.59 30.258-89.48 30.258h-33.79c-4.69 0-9.39-.129-14.02-.258-4.08-.101-8.04-.179-11.93-.179-3.89 0-7.7.078-11.48.308-5.36.309-10.79.539-16.25.539-22.39 0-45.41-3.929-67.427-22.91-4.309-3.719-8.285-7.5-12.07-11.148-7.301-6.91-14.215-13.5-21.391-17.481-3.551-1.941-7.293-2.871-10.902-2.871-6.465 0-12.504 3-16.227 8.61-2.609 3.89-4.156 8.332-4.688 12.902.547-4.57 2.086-9.012 4.688-12.902 3.723-5.61 9.762-8.61 16.227-8.61 3.609 0 7.351.93 10.902 2.871 7.176 3.981 14.09 10.571 21.391 17.481 3.785 3.648 7.761 7.429 12.07 11.148 22.017 18.981 45.037 22.91 67.427 22.91 5.46 0 10.89-.23 16.25-.539 3.78-.23 7.59-.308 11.48-.308 3.89 0 7.85.078 11.93.179 4.63.129 9.33.258 14.02.258h33.79c31.89 0 59.41 0 89.48-30.258l4.3-4.371c7.7-7.832 14.94-15.261 22.57-18.851 1.49-.731 3.75-1.797 6.51-1.797 3.15 0 6.96 1.398 11.03 6.297 1.63 1.98 3.06 4.312 4.22 6.832-1.15-2.52-2.58-4.852-4.22-6.832-4.07-4.899-7.88-6.297-11.03-6.297" style="fill:#adaaa7;fill-opacity:1;fill-rule:nonzero;stroke:none" transform="matrix(.03528 0 0 -.03528 0 94.767)"/><path d="M1270.14 165.422c-2.76 0-5.02 1.066-6.51 1.797-7.63 3.59-14.87 11.019-22.57 18.851l-4.3 4.371c-30.07 30.258-57.59 30.258-89.48 30.258h-33.79c-4.69 0-9.39-.129-14.02-.258-4.08-.101-8.04-.179-11.93-.179-3.89 0-7.7.078-11.48.308-5.36.309-10.79.539-16.25.539-22.39 0-45.41-3.929-67.427-22.91-4.309-3.719-8.285-7.5-12.07-11.148-7.301-6.91-14.215-13.5-21.391-17.481-3.551-1.941-7.293-2.871-10.902-2.871-6.465 0-12.504 3-16.227 8.61-2.602 3.89-4.141 8.332-4.688 12.902a31.902 31.902 0 0 0 .184 8.621 22.653 22.653 0 0 1 5.031-.562c3.993 0 8.137 1.031 12.059 3.171 7.891 4.297 15.457 11.539 23.476 19.18 4.176 3.969 8.543 8.149 13.243 12.188 24.182 20.882 49.462 25.171 74.032 25.171 5.98 0 11.92-.25 17.8-.582 3.98-.25 7.99-.339 12.07-.339 4.45 0 8.99.113 13.69.211 5.09.128 10.24.261 15.39.261h37.04c35.03 0 65.22 0 98.22-33.203l4.77-4.816c8.41-8.551 16.37-16.762 24.78-20.68 1.66-.773 4.13-1.961 7.17-1.961.79 0 1.62.078 2.48.27.44-5.512-.79-11.461-3.15-16.59-1.16-2.52-2.59-4.852-4.22-6.832-4.07-4.899-7.88-6.297-11.03-6.297" style="fill:#dbdddc;fill-opacity:1;fill-rule:nonzero;stroke:none" transform="matrix(.03528 0 0 -.03528 0 94.767)"/><path d="M2769.74 1191.02c-82.42 0-146.98 69.92-146.98 159.17 0 85.84 64.56 153.08 146.98 153.08 82.81 0 147.67-67.24 147.67-153.08 0-89.25-64.86-159.17-147.67-159.17zm0 430.81c-153.07 0-272.98-119.32-272.98-271.64 0-156.11 119.91-278.41 272.98-278.41 153.47 0 273.68 122.3 273.68 278.41 0 152.32-120.21 271.64-273.68 271.64M3114.47 1512.77l27.78-.01h-27.78zm310.92 29.8v-139.53h-187.62v139.53c0 45.87-25.26 71.13-71.13 71.13h-96.2v-113.82h44.03v-419.97h123.3v209.99h187.62v-209.99h123.29v419.97h44.04v113.82h-96.2c-45.87 0-71.13-25.26-71.13-71.13" style="fill:#271814;fill-opacity:1;fill-rule:nonzero;stroke:none" transform="matrix(.03528 0 0 -.03528 0 94.767)"/><path d="M4147.33 1613.7h-113.47l-118.77-267.59-118.77 267.59h-113.47l-33.72-419.98h-38.87v-113.81h88.06c44.56 0 68.69 23.31 71.73 69.05l14.93 198.81 83.88-181.83h92.45l83.43 180.84 15.36-197.59c3.07-45.97 26.98-69.28 71.07-69.28h88.07v113.81h-38.2l-33.71 419.98M4521.12 1563.56l-71.59-120.23a477.38 477.38 0 0 1-6.24-10.42c-1.92 3.35-3.89 6.77-5.91 10.17l-72.42 120.48c-25.39 42.64-48.68 50.14-88.21 50.14h-58.94v-113.82h41.32c1.34 0 2.33-.03 3.03-.07.57-.75 1.39-1.95 2.53-3.78l117.05-187.66v-228.46h123.29v228.5l116.42 187.7c1.13 1.83 1.96 2.97 2.5 3.65.75.06 1.92.12 3.68.12h40.65v113.82h-58.94c-38.7 0-62.96-7.75-88.22-50.14" style="fill:#000;fill-opacity:1;fill-rule:nonzero;stroke:none" transform="matrix(.03528 0 0 -.03528 0 94.767)"/><path d="M4901.95 1499.88h49.44c94.27 0 148.34-55.54 148.34-152.4 0-99.15-52.68-153.76-148.34-153.76h-49.44zm54.18 113.82h-221.51v-113.82h44.03v-348.84c0-45.87 25.26-71.13 71.13-71.13h106.35c163.78 0 269.61 105.03 269.61 267.57 0 161.73-105.83 266.22-269.61 266.22M5523.05 1191.02c-82.43 0-146.99 69.92-146.99 159.17 0 85.84 64.56 153.08 146.99 153.08 82.8 0 147.66-67.24 147.66-153.08 0-89.25-64.86-159.17-147.66-159.17zm0 430.81c-153.08 0-273-119.32-273-271.64 0-156.11 119.92-278.41 273-278.41 153.46 0 273.67 122.3 273.67 278.41 0 152.32-120.21 271.64-273.67 271.64M6248.46 1371.87h-90.77v-113.81h44.02v-23.89c-14.64-13.59-52.87-43.15-108.36-43.15-84.39 0-145.63 66.37-145.63 157.82 0 88.43 62.02 155.11 144.27 155.11 66.94 0 111.87-38.69 112.21-38.99l22.14-19.8 71.66 91.77-16.56 17.36c-2.63 2.76-65.88 67.54-190.81 67.54-150.79 0-268.92-119.91-268.92-272.99 0-157.95 112.12-277.06 260.8-277.06 52.13 0 93.24 15.47 121.92 31.57v-23.44h115.17v220.83c0 45.87-25.27 71.13-71.14 71.13" style="fill:#271814;fill-opacity:1;fill-rule:nonzero;stroke:none" transform="matrix(.03528 0 0 -.03528 0 94.767)"/><path d="m2603.57 793.922-51.43-.082v141.082c0 15.129-7.67 22.797-22.81 22.797h-32.57v-34.5l17.11.711.06-.629V782.219c0-15.129 7.67-22.797 22.8-22.797h79.79c15.13 0 22.8 7.668 22.8 22.797v29.402h-35.83l.08-17.699M2840.51 934.922V831.879c0-24.43-14.49-39.008-38.75-39.008-24.27 0-38.76 14.488-38.76 38.75v103.301c0 15.129-7.67 22.797-22.8 22.797h-32.57v-34.5l17.11.722.05-.64V830.57c0-44.461 31.04-74.332 77.23-74.332 45.87 0 76.7 29.871 76.7 74.332l-.08 92.649h17.25v34.5h-32.31c-15.3 0-23.07-7.668-23.07-22.797M3114.62 919.441c2.3 3.778 3.18 3.778 7.38 3.778h12.5v34.5h-21.22c-15.52 0-22.57-4.02-30.15-17.129l-21.16-35.442c-2.5-4.238-4.84-8.648-6.77-12.429a804.507 804.507 0 0 1-6.84 12.429l-20.86 35.372c-7.61 13.179-14.61 17.199-29.93 17.199h-21.48v-34.5h12.76c3.99 0 4.82 0 7.13-3.797l35.63-57.961-62.24-102.039h43.7l35.29 59.43c2.49 4.23 4.84 8.558 6.76 12.238a704.65 704.65 0 0 1 6.86-11.988l35.53-59.68h43.74l-62.52 102.039 35.89 57.98M3347.58 934.922V831.879c0-24.43-14.49-39.008-38.76-39.008-24.26 0-38.76 14.488-38.76 38.75v103.301c0 15.129-7.67 22.797-22.8 22.797h-32.57v-34.5l17.11.722.06-.64V830.57c0-44.461 31.03-74.332 77.22-74.332 45.88 0 76.7 29.871 76.7 74.332l-.08 92.649h17.26v34.5h-32.32c-15.3 0-23.06-7.668-23.06-22.797M3543.81 923.219h28.99c16.47 0 25.54-9.641 25.54-27.129 0-17.75-9.51-27.93-26.08-27.93h-28.45zm89.73-126.469-22.5 44.73c-.77 1.5-1.64 2.821-2.51 3.981 13.84 7.16 28.81 23.898 28.81 51.68 0 36.238-24.77 60.578-61.64 60.578h-87.27v-34.5h17.18V759.422h38.2v74.226h18.42c8.71 0 9.83-.589 13.23-6.789l25.35-50.187c7.44-14.863 15.28-17.25 31.17-17.25h18.83v34.5h-9.32c-6.3 0-6.91.66-7.95 2.828M3833.28 940.582l-27.96-46.953c-2.51-4.07-4.79-8.141-6.66-11.641a354.376 354.376 0 0 1-6.52 11.582l-28.25 47.02c-8.81 14.75-16.1 17.129-30.17 17.129h-18.04v-34.5h11.18c3.53 0 3.98 0 6.35-3.84l46.4-74.391v-85.566h38.21V845l46.14 74.398c2.29 3.711 2.97 3.821 6.62 3.821h10.9v34.5h-18.04c-13.79 0-21.42-2.481-30.16-17.137M4158.16 923.219h28.72c18.58 0 29.25-10.848 29.25-29.77 0-19.14-11.04-30.578-29.52-30.578h-28.45zm32.68 34.5h-88.06v-34.5h17.18V759.422h38.2v68.949h32.68c37.85 0 64.28 26.758 64.28 65.078 0 37.84-26.43 64.27-64.28 64.27M4448.2 793.922l-54.34-.082v48.269h65.25v34.512h-65.25v46.609l47.13.071v-17.789h35.83v29.41c0 15.129-7.67 22.797-22.8 22.797h-115.54v-34.5h17.17v-141c0-15.129 7.67-22.797 22.8-22.797h82.96c15.13 0 22.8 7.668 22.8 22.797v29.402h-36.09l.08-17.699M4710.06 957.719h-128.4c-15.24 0-21.74-6.508-21.74-21.739v-30.468h35.3l-.08 17.707h31.62V759.422h38.2V923.23l31.54.071v-17.789h35.3v30.468c0 15.231-6.5 21.739-21.74 21.739M5097.17 957.719h-128.4c-15.24 0-21.74-6.508-21.74-21.739v-30.468h35.3l-.08 17.707h31.62V759.422h38.2V923.23l31.54.071v-17.789h35.3v30.468c0 15.231-6.5 21.739-21.74 21.739M5255.8 923.219h28.98c16.47 0 25.54-9.641 25.54-27.129 0-17.75-9.5-27.93-26.08-27.93h-28.44zm89.73-126.469-22.5 44.73c-.78 1.5-1.64 2.821-2.52 3.981 13.84 7.16 28.81 23.898 28.81 51.68 0 36.238-24.77 60.578-61.64 60.578h-87.26v-34.5h17.17V759.422h38.21v74.226h18.41c8.71 0 9.83-.589 13.23-6.789l25.35-50.187c7.44-14.863 15.28-17.25 31.17-17.25h18.83v34.5h-9.32c-6.3 0-6.91.66-7.94 2.828M5548.83 847.02h-39.01l17.54 48.96c.65 1.86 1.32 3.942 1.96 6.09.66-2.16 1.33-4.25 1.99-6.121zm59.08-52.829c0 .008-.33.297-.79 1.7l-59.81 161.828h-35.96l-59.87-162.008c-.39-1.172-.68-1.531-.68-1.531-.08-.051-.61-.258-2.44-.258h-9.59v-34.5h20.42c15.61 0 22.03 4.476 27.46 19.187l12.59 34.442h60.45l12.55-34.352c5.07-14.597 11.69-19.277 27.23-19.277h20.69v34.5h-9.86c-1.93 0-2.37.258-2.39.269M5818.79 938.488l-40.94-114.867c-.65-1.769-1.29-3.699-1.91-5.68-.59 1.957-1.19 3.86-1.79 5.618l-40.93 114.851c-4.98 14.621-11.66 19.309-27.5 19.309h-20.69v-34.5h9.59c1.94 0 2.38-.258 2.39-.27 0 0 .33-.301.73-1.519l60.15-162.008h36.2l60.15 162.008c.39 1.179.69 1.539.67 1.539.08.043.61.25 2.45.25h9.59v34.5h-20.69c-15.72 0-22.14-4.489-27.47-19.231M6057.4 793.922l-54.34-.082v48.269h65.25v34.512h-65.25v46.609l47.13.071v-17.789h35.83v29.41c0 15.129-7.67 22.797-22.8 22.797h-115.54v-34.5h17.17v-141c0-15.129 7.67-22.797 22.8-22.797h82.96c15.13 0 22.8 7.668 22.8 22.797v29.402h-36.09l.08-17.699M6283.77 811.621l.08-17.699-51.43-.082v141.082c0 15.129-7.67 22.797-22.81 22.797h-32.57v-34.5l17.11.711.06-.629V782.219c0-15.129 7.67-22.797 22.8-22.797h79.79c15.13 0 22.8 7.668 22.8 22.797v29.402h-35.83" style="fill:#000;fill-opacity:1;fill-rule:nonzero;stroke:none" transform="matrix(.03528 0 0 -.03528 0 94.767)"/></svg>