<svg xmlns="http://www.w3.org/2000/svg" xml:space="preserve" width="300.002" height="300.003" viewBox="0 0 79.375 79.376"><path d="M50.364 54.034c-1.638 1.24-4.254 2.71-8.02 3.43a24.638 24.638 0 0 1-3.108.389 25.962 25.962 0 0 1-3.098-.388c-3.775-.718-6.392-2.19-8.03-3.431-1.622-1.23-2.568-2.43-2.97-3.005 1.96-.177 3.794-1.265 5.137-2.666 1.992-2.074 1.739-4.431 2.864-6.935.603-1.338 1.994-2.19 2.856-3.366.846-1.155 1.691-3.279 1.851-4.75.106-.976-.065-3.055 1.401-3.1.684-.022 1.128.582 1.303 1.178.18.614.15 1.289.22 1.922.16 1.471 1.003 3.595 1.85 4.75.861 1.177 2.254 2.028 2.855 3.366 1.125 2.504.874 4.861 2.864 6.935 1.311 1.367 3.092 2.438 5.003 2.651-.396.568-1.342 1.78-2.978 3.02m.11-31.387a25.567 25.567 0 0 0-1.346-.614 25.517 25.517 0 0 0-4.02-1.308 25.72 25.72 0 0 0-10.63-.235 24.027 24.027 0 0 0-1.228.263 25.379 25.379 0 0 0-4.04 1.336c-.456.196-.905.403-1.346.622-8.435 4.196-14.243 12.907-14.243 22.95l.001.372v.024c.005.253.013.506.026.758l.001.027a25.34 25.34 0 0 0 1.116 6.397 25.63 25.63 0 0 0 6.942 11.081c.288.274.585.539.887.797a22.44 22.44 0 0 0 .425.357 25.59 25.59 0 0 0 4.231 2.82 25.453 25.453 0 0 0 11.986 2.98 25.44 25.44 0 0 0 12.115-3.051 25.534 25.534 0 0 0 4.483-3.07 23.464 23.464 0 0 0 1.353-1.237 25.901 25.901 0 0 0 3.856-4.832 25.439 25.439 0 0 0 3.78-12.283v-.005c.012-.247.02-.494.025-.742v-.023l.001-.37c0-10.094-5.869-18.844-14.375-23.014" style="fill:#95d444;fill-opacity:1;fill-rule:nonzero;stroke:none;stroke-width:.0245748" transform="matrix(1.20242 0 0 1.20242 -7.49 -8.253)"/><path d="M57.187 63.916a25.302 25.302 0 0 0-.563-2.827 25.884 25.884 0 0 0 1.374-2.005 25.48 25.48 0 0 0 2.875-6.568c1.576-.944 2.954-2.4 3.526-3.837a6.41 6.41 0 0 0 .425-1.878 25.44 25.44 0 0 1-3.781 12.283 25.901 25.901 0 0 1-3.856 4.832m7.661-17.885c-.011-.745-.12-1.54-.327-2.383-1.072-4.363-3.827-8.317-6.738-11.752a25.818 25.818 0 0 0-7.309-7.487v-1.762c8.506 4.17 14.375 12.92 14.375 23.014l-.001.37m-1.54-.831c-.006-.06-.016-.12-.025-.18v-.005c.01.062.018.124.025.184m-.03-.227c-.009-.055-.019-.11-.026-.164.01.055.017.11.025.164" style="fill:#68b630;fill-opacity:1;fill-rule:nonzero;stroke:none;stroke-width:.0245748" transform="matrix(1.20242 0 0 1.20242 -7.49 -8.253)"/><path d="M30.456 68.293a25.414 25.414 0 0 0 10.375 2.932 25.453 25.453 0 0 1-13.58-2.932 25.59 25.59 0 0 1-4.232-2.819 22.44 22.44 0 0 1-.425-.357 22.3 22.3 0 0 1-.887-.797 25.63 25.63 0 0 1-6.942-11.081 25.339 25.339 0 0 1-1.116-6.397l-.001-.027a23.882 23.882 0 0 1-.026-.758v-.024l-.001-.372c0-10.043 5.808-18.754 14.243-22.95a25.379 25.379 0 0 1 5.385-1.959 24.027 24.027 0 0 1 1.228-.262 25.609 25.609 0 0 1 6.366-.395 25.36 25.36 0 0 0-3.16.395 24.005 24.005 0 0 0-1.228.263 25.373 25.373 0 0 0-4.039 1.336 25.81 25.81 0 0 0-1.346.622c-8.435 4.196-14.244 12.907-14.244 22.95l.002.372v.024c.005.253.013.506.025.758l.002.027a25.33 25.33 0 0 0 1.116 6.397 25.629 25.629 0 0 0 6.481 10.637 23.526 23.526 0 0 0 .46.444c.288.274.585.539.888.797a22.915 22.915 0 0 0 .425.357 25.591 25.591 0 0 0 4.23 2.82" style="fill:#f0f59f;fill-opacity:1;fill-rule:nonzero;stroke:none;stroke-width:.0245748" transform="matrix(1.20242 0 0 1.20242 -7.49 -8.253)"/><path d="M53.342 51.014c-.396.568-1.342 1.78-2.978 3.02-1.638 1.24-4.254 2.71-8.02 3.43a24.638 24.638 0 0 1-3.108.389 25.962 25.962 0 0 1-3.098-.388c-3.775-.718-6.392-2.19-8.03-3.431-1.622-1.23-2.568-2.43-2.97-3.005 1.96-.177 3.794-1.265 5.137-2.666 1.992-2.074 1.739-4.431 2.864-6.935.603-1.338 1.994-2.19 2.856-3.366.846-1.155 1.691-3.279 1.851-4.75.106-.976-.065-3.055 1.401-3.1.684-.022 1.128.582 1.303 1.178.18.614.15 1.289.22 1.922.16 1.471 1.003 3.595 1.85 4.75.861 1.177 2.254 2.028 2.855 3.366 1.125 2.504.874 4.861 2.864 6.935 1.311 1.367 3.092 2.438 5.003 2.651" style="fill:#fff;fill-opacity:1;fill-rule:nonzero;stroke:none;stroke-width:.0245748" transform="matrix(1.20242 0 0 1.20242 -7.49 -8.253)"/><path d="M55.834 65.152a25.534 25.534 0 0 1-4.483 3.07 25.438 25.438 0 0 1-12.115 3.053 25.453 25.453 0 0 1-11.986-2.982 25.59 25.59 0 0 1-4.23-2.819 22.44 22.44 0 0 1-.426-.357 8.84 8.84 0 0 1 .016-.199c.158-1.676.565-3.494 1.265-5.66l.087-.269c.153-.477.309-.958.455-1.442a27.17 27.17 0 0 0 3.547 2.43 24.713 24.713 0 0 0 6.789 2.614c.742.167 1.49.301 2.244.405.729.1 1.492.217 2.244.215.77-.001 1.54-.117 2.303-.224a26.223 26.223 0 0 0 4.03-.887 24.602 24.602 0 0 0 6.162-2.872 27.74 27.74 0 0 0 2.282-1.654c.143.475.295.946.446 1.414l.088.27c.703 2.184 1.112 4.01 1.266 5.692.006.067.013.135.016.202" style="fill:#f4a237;fill-opacity:1;fill-rule:nonzero;stroke:none;stroke-width:.0245748" transform="matrix(1.20242 0 0 1.20242 -7.49 -8.253)"/><path d="M53.598 56.01c-1.313 1.091-2.712 2.076-4.212 2.891a23.562 23.562 0 0 1-7.121 2.473 4.22 4.22 0 0 0-.585.156c-.582.194-1.164.468-1.753.508-.749.05-1.497-.356-2.24-.444-.31-.037-.62-.08-.929-.128v-.002c-.136-.02-.272-.043-.409-.066a23.976 23.976 0 0 1-2.82-.654 23.347 23.347 0 0 1-6.237-2.918 27.512 27.512 0 0 1-2.457-1.845c.192-.848.319-1.71.327-2.588 1.864 1.98 5.557 4.834 11.864 5.722a28.97 28.97 0 0 0 1.992.206 1.252 1.252 0 1 0 .643 2.407h.001a1.253 1.253 0 0 0-.223-2.409c.028 0 .053-.001.079-.003.123-.01.244-.017.364-.027a28.214 28.214 0 0 0 1.558-.173c6.262-.88 9.95-3.7 11.826-5.679.013.874.141 1.73.332 2.573" style="fill:#82c3e2;fill-opacity:1;fill-rule:nonzero;stroke:none;stroke-width:.0245748" transform="matrix(1.20242 0 0 1.20242 -7.49 -8.253)"/><path d="M41.7 61.475c.086-.227.141-.47.16-.723.08-.021.162-.04.243-.054a22.29 22.29 0 0 0 6.741-2.34c1.42-.773 2.746-1.705 3.988-2.738-.112-.495-.2-.993-.255-1.5a15.57 15.57 0 0 0 .69-.683c.012.874.14 1.73.331 2.573-1.313 1.091-2.712 2.076-4.212 2.891a23.562 23.562 0 0 1-7.121 2.473l-.564.101m-4.943-.01a23.347 23.347 0 0 1-9.466-3.638 27.512 27.512 0 0 1-2.457-1.846c.192-.848.319-1.71.327-2.588a15.737 15.737 0 0 0 .694.692 12.7 12.7 0 0 1-.255 1.508c.744.622 1.518 1.21 2.326 1.746a22.104 22.104 0 0 0 8.675 3.398c.018.254.072.497.156.727" style="fill:#5398cd;fill-opacity:1;fill-rule:nonzero;stroke:none;stroke-width:.0245748" transform="matrix(1.20242 0 0 1.20242 -7.49 -8.253)"/><path d="M52.832 55.62c-1.242 1.033-2.568 1.965-3.988 2.738a22.29 22.29 0 0 1-6.74 2.34 3.934 3.934 0 0 0-.555.147c-.432.145-.861.334-1.294.428a1.24 1.24 0 0 0 .146-1.163 1.253 1.253 0 0 0-.962-.79c.028 0 .053-.002.079-.004.123-.01.244-.017.364-.027l.33-.029c.42-.04.829-.088 1.228-.144 5.57-.782 9.103-3.101 11.137-4.996.055.507.143 1.005.255 1.5" style="fill:#82c3e2;fill-opacity:1;fill-rule:nonzero;stroke:none;stroke-width:.0245748" transform="matrix(1.20242 0 0 1.20242 -7.49 -8.253)"/><path d="M63.372 46.17c0 .08-.002.16-.005.24l-.002.05a3.906 3.906 0 0 1-.016.243c-.005.07-.013.14-.02.208l-.01.079-.002.008c-.01.07-.019.14-.032.21a4.897 4.897 0 0 1-.173.686l-.01.032c-.024.07-.05.14-.077.207-.54 1.357-2.306 3.134-4.325 3.76-1.174.363-2.191.262-3.03-.299a2.097 2.097 0 0 1-.328-.277c-.026-.027-.053-.054-.077-.083a1.741 1.741 0 0 1-.074-.084 3.88 3.88 0 0 1-.423-.645 5.622 5.622 0 0 1-.247-.52 11.004 11.004 0 0 1-.524-1.631c-.017-.074-.037-.148-.053-.223-.075-.324-.142-.66-.205-1.008l-.043-.255a21.65 21.65 0 0 1-.082-.529l-.038-.274c-.013-.091-.024-.183-.036-.274l-.03-.255-.005-.034-.029-.264a34.103 34.103 0 0 1-.105-1.169 45.653 45.653 0 0 1-.1-1.894l-.011-.417-.008-.472a43.082 43.082 0 0 1 .069-3.044 53.44 53.44 0 0 1 .17-2.151c.064-.631.136-1.217.22-1.768.047-.308.097-.604.152-.893a.741.741 0 0 0-.592-.864.742.742 0 0 0-.862.592c-.021.112-.042.224-.061.34-.167.958-.297 2-.398 3.193a48.286 48.286 0 0 0-.128 6.416 37.28 37.28 0 0 0 .194 2.507 26.06 26.06 0 0 0 .333 2.17c.017.092.036.182.055.272a15.093 15.093 0 0 0 .518 1.87c.033.098.069.194.106.287a7.264 7.264 0 0 0 .214.513c.029.064.058.126.09.189a1.1 1.1 0 0 0 .05.104l-.04-.005c-1.91-.213-3.692-1.284-5.003-2.65-1.99-2.075-1.738-4.432-2.864-6.936-.6-1.338-1.994-2.19-2.854-3.366-.848-1.155-1.691-3.279-1.851-4.75-.07-.633-.04-1.308-.22-1.922-.175-.596-.619-1.2-1.303-1.178-1.466.045-1.295 2.124-1.4 3.1-.161 1.471-1.006 3.595-1.852 4.75-.862 1.177-2.253 2.028-2.856 3.366-1.125 2.504-.872 4.861-2.864 6.935-1.343 1.401-3.177 2.49-5.137 2.666l-.056.004a6.43 6.43 0 0 0 .18-.383c.028-.06.054-.121.08-.182a8.55 8.55 0 0 0 .15-.387c.024-.064.048-.128.07-.194a7.84 7.84 0 0 0 .099-.295 6.52 6.52 0 0 0 .078-.253c.02-.06.037-.123.055-.186a3.052 3.052 0 0 0 .048-.171c.057-.209.11-.42.16-.635a24.501 24.501 0 0 0 .11-.516 19.9 19.9 0 0 0 .141-.768c.098-.583.175-1.176.234-1.767.023-.214.044-.425.061-.637a43.373 43.373 0 0 0 .148-3.218 49.13 49.13 0 0 0-.07-3.289 61.488 61.488 0 0 0-.092-1.29 35.832 35.832 0 0 0-.418-3.398l-.055-.306a.74.74 0 0 0-.862-.592.742.742 0 0 0-.591.864c.05.274.099.556.144.846.106.69.195 1.429.269 2.244.05.539.091 1.11.128 1.722a43.278 43.278 0 0 1 .061 3.516l-.011.417-.008.232-.007.188c-.008.21-.019.42-.03.631a34.996 34.996 0 0 1-.088 1.265 42.64 42.64 0 0 1-.06.625l-.019.183-.025.234c-.021.178-.044.354-.068.53-.024.183-.05.364-.077.542-.025.155-.05.31-.077.462l-.057.318a13.749 13.749 0 0 1-.085.422 17.179 17.179 0 0 1-.183.774l-.005.016c-.059.223-.121.438-.187.643l-.008.022c-.023.07-.045.137-.068.202l-.07.198a8.95 8.95 0 0 1-.063.163c-.282.71-.621 1.274-1.025 1.624l-.058.048a1.775 1.775 0 0 1-.132.097c-.836.561-1.855.662-3.027.298-2.021-.625-3.787-2.402-4.328-3.76-.44-1.105-.46-2.495-.057-4.133 1.221-4.978 4.869-9.49 8.278-13.248 1.043-1.151 2.02-1.749 2.814-1.725a1.8 1.8 0 0 1 .101.007l.026.003a1.368 1.368 0 0 1 .625.234c.202.144.38.335.545.517.176.194.325.412.444.646.072.141.13.274.261.374a.729.729 0 0 0 1.166-.584.707.707 0 0 0-.034-.208c-.05-.162-.144-.313-.226-.454a3.546 3.546 0 0 0-.132-.211c-.04-.063-.099-.125-.133-.193l-.006-.008a1.557 1.557 0 0 1 .167-.075c.088-.035.19-.072.307-.109a17.28 17.28 0 0 1 .789-.202l.11-.025.034-.009a1.27 1.27 0 0 0 .093-.02l.164-.032a15.167 15.167 0 0 1 .378-.076c.058-.01.115-.022.173-.033.138-.025.27-.05.412-.072l.17-.033.115-.017c.064-.011.13-.023.197-.032.11-.02.221-.037.332-.055l.043-.008.282-.043.023-.003c.159-.021.32-.047.48-.064a35.904 35.904 0 0 1 1.874-.21l.037-.004c.202-.017.407-.036.614-.051.176-.014.356-.024.545-.035.067-.003.133-.011.205-.011a6.79 6.79 0 0 1 .249-.015l.213-.011c.057-.003.115-.006.173-.006.158-.008.317-.015.484-.018h.082c.195-.011.386-.015.593-.015l.028-.004h.007c.213-.003.43-.003.646-.003h.072c.21 0 .422 0 .635.003.017 0 .032 0 .057.004.202.004.4.007.603.015.17.003.34.007.51.014l.245.01c.154.008.306.015.457.026l.126.008c.141.01.282.017.427.028a30.944 30.944 0 0 1 1.443.125c.191.02.379.04.57.063l.093.01.09.014c.166.02.33.04.509.066.181.02.36.046.534.075l.158.026c.145.017.286.043.427.064.545.091 1.09.187 1.615.296l.034.008c.072.015.147.03.22.047l.025.003c.043.011.087.018.13.029l.313.067c.34.08.597.16.79.236.046.018.09.038.133.062-.034.068-.093.13-.135.193-.045.069-.088.14-.13.211-.081.141-.176.292-.226.454a.705.705 0 0 0-.033.208.729.729 0 0 0 1.165.584c.13-.1.187-.233.261-.374.096-.189.212-.367.345-.532.227-.279.5-.58.828-.737.111-.053.23-.07.342-.112l.004-.002c.07-.013.141-.022.218-.024.794-.02 1.772.572 2.816 1.725 3.408 3.758 7.056 8.27 8.277 13.248a12.915 12.915 0 0 1 .169.81c.007.054.017.108.025.163l.005.041a6.935 6.935 0 0 1 .083.872c.004.096.007.191.007.286" style="fill:#f4a237;fill-opacity:1;fill-rule:nonzero;stroke:none;stroke-width:.0245748" transform="matrix(1.20242 0 0 1.20242 -7.49 -8.253)"/><path d="m24.122 49.537.016-.044-.016.044m.043-.126a19.329 19.329 0 0 0 .05-.149 10.586 10.586 0 0 1-.05.15" style="fill:#909723;fill-opacity:1;fill-rule:nonzero;stroke:none;stroke-width:.0245748" transform="matrix(1.20242 0 0 1.20242 -7.49 -8.253)"/><path d="M21.078 52.106a4.4 4.4 0 0 1-1.306-.214c-.912-.281-1.771-.798-2.49-1.404-.875-.738-1.54-1.61-1.837-2.355-.231-.58-.346-1.236-.346-1.965 0-.664.096-1.388.288-2.17 1.221-4.977 4.869-9.489 8.278-13.247 1.023-1.129 1.982-1.726 2.768-1.726a1.378 1.378 0 0 1 .148.008l.025.003c.035.004.067.009.1.016a1.541 1.541 0 0 1 .188.05l.04.014c-.406.26-.836.638-1.28 1.127-3.058 3.37-6.33 7.417-7.425 11.884-.363 1.468-.345 2.715.05 3.707.485 1.218 2.07 2.813 3.883 3.372.412.128.804.192 1.173.192a2.8 2.8 0 0 0 .88-.136l-.05.15-.027.08-.016.045a7.893 7.893 0 0 1-.242.605c-.254.562-.55 1.011-.891 1.307l-.058.048a1.775 1.775 0 0 1-.131.097 3.027 3.027 0 0 1-1.722.512" style="fill:#ee6e18;fill-opacity:1;fill-rule:nonzero;stroke:none;stroke-width:.0245748" transform="matrix(1.20242 0 0 1.20242 -7.49 -8.253)"/><path d="M63.283 45.02v-.006.006" style="fill:#678329;fill-opacity:1;fill-rule:nonzero;stroke:none;stroke-width:.0245748" transform="matrix(1.20242 0 0 1.20242 -7.49 -8.253)"/><path d="M57.392 52.106a3.03 3.03 0 0 1-1.721-.512 2.097 2.097 0 0 1-.329-.277c-.026-.027-.053-.054-.077-.083a1.741 1.741 0 0 1-.074-.084 3.88 3.88 0 0 1-.423-.645 5.622 5.622 0 0 1-.247-.52 8.94 8.94 0 0 1-.265-.717c.276.09.57.136.879.136.369 0 .76-.065 1.173-.193 1.813-.559 3.398-2.154 3.882-3.372.396-.992.413-2.24.051-3.707-1.095-4.467-4.367-8.514-7.426-11.885-.443-.488-.872-.866-1.277-1.126.07-.022.142-.038.211-.063a1.388 1.388 0 0 1 .287-.028c.787 0 1.745.597 2.769 1.726 3.409 3.758 7.056 8.27 8.278 13.248.085.347.151.683.199 1.008v.008c.087.595.11 1.151.069 1.667l-.002.016-.001.022a5.548 5.548 0 0 1-.011.112l-.008.074-.008.064-.003.016v.007c-.006.033-.01.067-.015.1a6.45 6.45 0 0 1-.018.108v.002a5.04 5.04 0 0 1-.06.292c-.032.134-.07.265-.113.394l-.01.032c-.024.07-.05.14-.077.206-.54 1.358-2.306 3.135-4.326 3.76-.46.143-.896.214-1.307.214" style="fill:#ee6e18;fill-opacity:1;fill-rule:nonzero;stroke:none;stroke-width:.0245748" transform="matrix(1.20242 0 0 1.20242 -7.49 -8.253)"/><path d="M49.386 58.901a23.562 23.562 0 0 1-7.121 2.473l-.564.101a16.33 16.33 0 0 1-1.774.242c-.089.005-.177.01-.265.011h-.001a1.225 1.225 0 0 1-.925-.027c-.351-.025-.7-.065-1.049-.107-.31-.037-.62-.08-.929-.128a18.126 18.126 0 0 1-.409-.068 24.595 24.595 0 0 1-1.218-.238 23.347 23.347 0 0 1-7.84-3.334 27.512 27.512 0 0 1-2.456-1.845c.192-.848.319-1.71.327-2.588 1.864 1.979 5.557 4.834 11.864 5.722a28.97 28.97 0 0 0 1.992.206h.003a1.159 1.159 0 0 1 .413-.001h.005c.028 0 .053-.002.079-.004.123-.01.244-.017.364-.027a28.214 28.214 0 0 0 1.558-.173c6.262-.88 9.95-3.7 11.826-5.679.013.874.141 1.73.332 2.573-1.313 1.091-2.712 2.076-4.212 2.891m7.8 5.015a32.62 32.62 0 0 1-.019-.144c-.214-1.5-.612-3.114-1.208-4.968l-.086-.27a44.24 44.24 0 0 1-.669-2.2 15.963 15.963 0 0 1-.131-.53c-.237-1.01-.379-2.027-.31-3.04v-.001a7.198 7.198 0 0 1 .122-.92.723.723 0 0 0-.043-.43l.006-.011.016-.035a.738.738 0 0 0-1.304-.69c-.004.005-.068.114-.198.303v.002l-.02.032c-.396.568-1.342 1.78-2.978 3.02-1.638 1.24-4.254 2.71-8.02 3.43-.475.09-.965.168-1.475.234a26.14 26.14 0 0 1-1.633.155 25.961 25.961 0 0 1-3.098-.388c-3.775-.718-6.392-2.19-8.03-3.431-1.622-1.23-2.568-2.43-2.97-3.005l-.03-.047v-.002a4.345 4.345 0 0 1-.198-.303.738.738 0 0 0-1.303.691.737.737 0 0 0-.065.475c.064.316.104.633.123.95.064.996-.074 1.994-.304 2.986-.04.175-.085.35-.13.524-.197.75-.44 1.496-.677 2.231l-.086.27c-.592 1.836-.986 3.44-1.202 4.931-.007.047-.015.095-.02.141a18.42 18.42 0 0 0-.173 1.896c.473.406.957.795 1.457 1.169a.687.687 0 0 0 .012-.141 16.164 16.164 0 0 1 .052-1.683 8.84 8.84 0 0 1 .016-.199c.158-1.677.565-3.494 1.265-5.66l.087-.269c.153-.477.309-.958.455-1.442a27.17 27.17 0 0 0 3.547 2.43 24.713 24.713 0 0 0 6.789 2.614c.742.167 1.49.301 2.244.405.729.1 1.492.217 2.244.215.77-.001 1.54-.117 2.303-.224a26.223 26.223 0 0 0 4.03-.887 24.602 24.602 0 0 0 6.162-2.872 27.74 27.74 0 0 0 2.282-1.654c.143.475.295.946.446 1.414l.088.27c.703 2.184 1.112 4.01 1.266 5.692.006.067.013.135.016.202.046.561.06 1.106.051 1.646a.676.676 0 0 0 .018.172 27.34 27.34 0 0 0 1.452-1.16 19.8 19.8 0 0 0-.168-1.894M44.297 46.14a.467.467 0 1 0 .46.814.467.467 0 0 0-.46-.814m2.112-.059a.469.469 0 1 0-.462-.816.47.47 0 0 0 .462.816m-14.48 0c.226.125.51.045.64-.177a.471.471 0 0 0-.178-.64.469.469 0 1 0-.462.816m1.653.873a.468.468 0 1 0 .463-.814.468.468 0 0 0-.463.814m.14-2.008a.47.47 0 0 0 .586-.289l.003-.01a.465.465 0 0 0-.148-.502.468.468 0 1 0-.442.802m11.198-.587a.466.466 0 0 0-.587-.303.472.472 0 0 0-.305.59.47.47 0 0 0 .892-.288" style="fill:#271814;fill-opacity:1;fill-rule:nonzero;stroke:none;stroke-width:.0245748" transform="matrix(1.20242 0 0 1.20242 -7.49 -8.253)"/><path d="M51.92 69.456a27.747 27.747 0 0 1-12.684 3.051 27.743 27.743 0 0 1-12.534-2.975 8.485 8.485 0 0 1 .247-1.724c.563-2.202 2.172-4.004 5.944-3.945 1.407.021 2.72.583 4.075.873 1.432.305 2.843.343 4.287.093.587-.102 1.155-.268 1.722-.434.871-.254 1.739-.509 2.66-.53 3.798-.09 5.434 1.684 6.02 3.87.149.554.231 1.136.262 1.721" style="fill:#fcd98e;fill-opacity:1;fill-rule:nonzero;stroke:none;stroke-width:.0245748" transform="matrix(1.20242 0 0 1.20242 -7.49 -8.253)"/><path d="M53.712 34.323a34.5 34.5 0 0 0-.221 1.768l-.11.436-.19-.11a.938.938 0 0 0-1.4.682 14.43 14.43 0 0 1-.313 1.638 4.478 4.478 0 0 1-1.005 1.895c-1.4 1.53-3.238 1.433-3.238 1.433h-2.704c-1.586 0-2.498-1.204-2.94-2.583-.004-.01-.07-.306-.259-.666a2.158 2.158 0 0 0-.293-.454 2.512 2.512 0 0 0-1.843-.87 2.512 2.512 0 0 0-1.845.87 2.14 2.14 0 0 0-.292.454c-.19.36-.256.657-.26.666-.442 1.379-1.354 2.583-2.939 2.583h-2.705s-1.837.097-3.236-1.433a4.5 4.5 0 0 1-1.007-1.895A14.821 14.821 0 0 1 26.6 37.1a.88.88 0 0 0-.066-.237.938.938 0 0 0-1.335-.446l-.178.104a36.164 36.164 0 0 0-.27-2.243l.748-.477a5.12 5.12 0 0 1 .617-.336 5.092 5.092 0 0 1 2.135-.468h.165c.86.003 1.723.003 2.585.005l3.499.003c.84 0 1.692-.06 2.527.096.334.061.65.186.967.311a3.47 3.47 0 0 0 1.202.24 3.469 3.469 0 0 0 1.2-.24c.318-.125.635-.25.968-.31.834-.156 1.686-.097 2.528-.097 1.165-.002 2.333-.003 3.499-.003.86-.002 1.724-.002 2.585-.005h.165a5.084 5.084 0 0 1 2.752.804l.819.523" style="fill:#271814;fill-opacity:1;fill-rule:nonzero;stroke:none;stroke-width:.0245748" transform="matrix(1.20242 0 0 1.20242 -7.49 -8.253)"/><path d="M28.789 39.838c.261.287.544.493.818.645l4.288-6.303-1.783-.001-3.67 5.195c.103.168.219.324.347.464m18.604-5.66h-.143l-4.123 5.86c.343.538.785.82 1.323.846l4.585-6.708-1.642.002m-.93 6.71 4.507-6.626a3.903 3.903 0 0 0-.24-.043l-.08-.01a4.366 4.366 0 0 0-.18-.02l-.077-.006a4.07 4.07 0 0 0-.252-.009h-.145l-4.635 6.714h1.102m-15.139 0 4.568-6.714a21.892 21.892 0 0 0-.83.002c-.134.002-.1.003-.235.004l-4.535 6.587c.459.131.794.122.8.122l.063-.002h.169" style="fill:#fff;fill-opacity:1;fill-rule:nonzero;stroke:none;stroke-width:.0245748" transform="matrix(1.20242 0 0 1.20242 -7.49 -8.253)"/><path d="m45.853 17.829-1.204 1.478-1.004-1.885.741-1.639h-.002a.479.479 0 0 0-.139-.577.791.791 0 0 1-.303-.623.797.797 0 1 1 1.245.658.48.48 0 0 0-.176.589h-.001l.843 1.999" style="fill:#fbc619;fill-opacity:1;fill-rule:nonzero;stroke:none;stroke-width:.0245748" transform="matrix(1.20242 0 0 1.20242 -7.49 -8.253)"/><path d="M51.381 14.753c0 .872-.71 1.58-1.58 1.58a.578.578 0 0 0-.579.58v10.844c-.127-.03-.254-.06-.384-.088a43.734 43.734 0 0 0-9.668-1.06h-.002c-1.651 0-3.29.089-4.905.264a42.535 42.535 0 0 0-4.762.796 22.072 22.072 0 0 0-.385.088V16.912a.577.577 0 0 0-.578-.579 1.581 1.581 0 1 1 1.273-.644.582.582 0 0 0 .02.708h-.002l3.512 4.317a.579.579 0 0 0 .45.214l.055-.002a.58.58 0 0 0 .456-.305l3.8-7.136-.003-.002a.578.578 0 0 0-.195-.756 2.508 2.508 0 0 1 1.264-4.61 2.509 2.509 0 0 1 2.412 2.503c0 .854-.428 1.642-1.148 2.107a.579.579 0 0 0-.193.756l-.002.002 3.8 7.136a.58.58 0 0 0 .455.305l.056.002a.575.575 0 0 0 .448-.214l3.512-4.317a.587.587 0 0 0 .017-.708 1.581 1.581 0 1 1 2.856-.936" style="fill:#fbc619;fill-opacity:1;fill-rule:nonzero;stroke:none;stroke-width:.0245748" transform="matrix(1.20242 0 0 1.20242 -7.49 -8.253)"/><path d="M51.381 14.753c0 .872-.71 1.58-1.58 1.58a.578.578 0 0 0-.579.58v10.844c-.127-.03-.254-.06-.384-.088a43.734 43.734 0 0 0-9.668-1.06h-.002c-1.651 0-3.29.089-4.905.264a42.535 42.535 0 0 0-4.762.796 22.072 22.072 0 0 0-.385.088V16.912a.577.577 0 0 0-.578-.579 1.581 1.581 0 1 1 1.273-.644.582.582 0 0 0 .02.708h-.002l3.512 4.317a.579.579 0 0 0 .45.214l.055-.002a.58.58 0 0 0 .456-.305l3.8-7.136-.003-.002a.578.578 0 0 0-.195-.756 2.508 2.508 0 0 1 1.264-4.61 2.509 2.509 0 0 1 2.412 2.503c0 .854-.428 1.642-1.148 2.107a.579.579 0 0 0-.193.756l-.002.002 3.8 7.136a.58.58 0 0 0 .455.305l.056.002a.575.575 0 0 0 .448-.214l3.512-4.317a.587.587 0 0 0 .017-.708 1.581 1.581 0 1 1 2.856-.936" style="fill:#fbc619;fill-opacity:1;fill-rule:nonzero;stroke:none;stroke-width:.0245748" transform="matrix(1.20242 0 0 1.20242 -7.49 -8.253)"/><path d="m34.693 17.422-1.003 1.885-1.204-1.478.841-2a.482.482 0 0 0-.175-.588.797.797 0 1 1 .94-.035.484.484 0 0 0-.14.577l.741 1.639" style="fill:#fbc619;fill-opacity:1;fill-rule:nonzero;stroke:none;stroke-width:.0245748" transform="matrix(1.20242 0 0 1.20242 -7.49 -8.253)"/><path d="m44.773 19.009-.198-.04-.826-1.552.78-1.724h-.019a.575.575 0 0 0-.205-.56.696.696 0 0 1-.27-.553c0-.384.317-.698.706-.698a.704.704 0 0 1 .398 1.283.567.567 0 0 0-.213.7l.819 1.948-.972 1.196m-11.188.024-.991-1.22.819-1.947a.575.575 0 0 0-.21-.7.704.704 0 0 1 .394-1.284.701.701 0 0 1 .436 1.251.577.577 0 0 0-.165.69l.721 1.594L33.748 19l-.163.034" style="fill:#f57b14;fill-opacity:1;fill-rule:nonzero;stroke:none;stroke-width:.0245748" transform="matrix(1.20242 0 0 1.20242 -7.49 -8.253)"/><path d="M49.128 27.641a18.758 18.758 0 0 0-.359-.08 36.13 36.13 0 0 0-.95-.204l-.23-.044a35.708 35.708 0 0 0-1.328-.236 46.287 46.287 0 0 0-2.19-.298 45.822 45.822 0 0 0-9.813.003h-.005a44.66 44.66 0 0 0-1.74.23l.009-.004c-.164.024-.324.051-.486.077l-.253.04a42.176 42.176 0 0 0-1.263.234c-.33.068-.659.135-.984.209l-.056.012c-.09.018-.18.039-.27.061v-10.05l1.176 8.499s2.794-.986 8.431-.986c2.755 0 6.19.235 10.311.937v1.6" style="fill:#f8a10f;fill-opacity:1;fill-rule:nonzero;stroke:none;stroke-width:.0245748" transform="matrix(1.20242 0 0 1.20242 -7.49 -8.253)"/><path d="M39.031 12.567a2.502 2.502 0 0 1-1.146-2.108c0-1.113.954-1.897 1.96-2.222l-1.431-.733-1.894 1.29-.012 2.823.844 1.472-1.266 2.4-2.026 4.341-.892-.072-1.086-1.254-1.52-1.689-.733-.418 3.584 5.732a.578.578 0 0 0 .45.214c.193-.019.42-.135.511-.306l4.852-8.714a.578.578 0 0 0-.195-.756m1.207.918 3.54 8.427a.659.659 0 0 0 1.19.101l3.54-5.616-.992.672-.676.868-.987.579-.814 1.254-.865.418-3.936-6.703" style="fill:#fbd96e;fill-opacity:1;fill-rule:nonzero;stroke:none;stroke-width:.0245748" transform="matrix(1.20242 0 0 1.20242 -7.49 -8.253)"/><path d="m33.251 20.753.018.022a.67.67 0 0 0 1.114-.107l.094-.178c-.413.077-.82.165-1.226.263m10.819 6.026a45.823 45.823 0 0 0-9.812.003h-.005c-.584.064-1.164.144-1.74.23l.009-.004c-.164.024-.324.051-.486.077l-.253.04a42.176 42.176 0 0 0-1.263.234c-.33.068-.659.135-.984.209l-.056.012c-.09.018-.18.039-.27.061V16.912a.669.669 0 0 0-.195-.472.66.66 0 0 0-.48-.2 1.488 1.488 0 1 1 1.201-.605.68.68 0 0 0-.072.67h-.032l.614.755 1.89 2.322 1.114 1.37h.001l.018.023a.67.67 0 0 0 1.114-.107l.094-.178.949-1.78 2.76-5.183.04-.086-.003-.003a.667.667 0 0 0-.268-.79 2.404 2.404 0 0 1-1.104-2.028c0-1.3 1.02-2.36 2.313-2.41.051.002.1.007.166.014l.137.017c.068.012.137.026.198.04l.026.009.01.003c.033.006.065.017.094.025l.043-.08h.004l-.018.09.047.014c.028.012.06.023.097.04a.353.353 0 0 1 .084.037 1.163 1.163 0 0 1 .256.13c.018.01.038.021.067.043a2.273 2.273 0 0 1 .433.353c.029.026.051.055.08.087l.051.057.044.058h.003l.043.054.015.026.054.079c.015.022.03.048.043.069l.021.036c.015.025.032.053.052.09l.032.061.029.066.032.075a1.588 1.588 0 0 1 .072.205c.037.112.065.236.086.369l.008.079c.003.048.007.094.015.152v.112c0 .822-.412 1.58-1.104 2.028a.668.668 0 0 0-.257.81l-.006.009.525.988 2.255 4.235.944 1.772.11.206a.68.68 0 0 0 .527.352h.069a.677.677 0 0 0 .519-.248l.038-.047 1.116-1.372 1.865-2.293.491-.603a.664.664 0 0 0 .018-.822 1.483 1.483 0 0 1-.284-.881A1.488 1.488 0 1 1 49.8 16.24a.67.67 0 0 0-.672.671v10.73a18.758 18.758 0 0 0-.359-.08 36.13 36.13 0 0 0-.95-.205l-.23-.044a35.708 35.708 0 0 0-1.328-.236 46.287 46.287 0 0 0-2.19-.298M33.202 15.165a.704.704 0 0 1 .394-1.283.701.701 0 0 1 .436 1.251.577.577 0 0 0-.165.69l.721 1.594-.84 1.583-.075.143-.088-.11-.991-1.219.819-1.947a.575.575 0 0 0-.21-.7m11.307.527a.575.575 0 0 0-.205-.56.696.696 0 0 1-.27-.553c0-.384.317-.698.706-.698a.704.704 0 0 1 .398 1.283.567.567 0 0 0-.213.7l.819 1.948-.972 1.196-.107.133-.091-.173-.826-1.552.78-1.724h-.019m20.01 27.955c-1.3-5.3-5.086-9.996-8.619-13.891-1.263-1.391-2.497-2.128-3.672-2.202l-.003-.002-.032-.011a3.414 3.414 0 0 0-.34-.003c-.022.001-.043.001-.065.004l-.103.025a2.81 2.81 0 0 0-1.212.435v-10.5c1.52-.376 2.522-1.972 2.033-3.581a2.838 2.838 0 0 0-2.355-1.978 2.833 2.833 0 0 0-2.907 4.026l-.678.83-.427-1.006a1.85 1.85 0 0 0 .335-1.875 1.851 1.851 0 0 0-1.508-1.175 1.857 1.857 0 0 0-2.083 1.836c0 .404.133.802.378 1.122l-.199.435-1.457-2.743a3.761 3.761 0 0 0 1.226-2.774c0-2.018-1.64-3.702-3.665-3.757a3.75 3.75 0 0 0-2.59 1.133 3.754 3.754 0 0 0 .155 5.398l-1.461 2.743-.194-.435c.245-.32.378-.71.378-1.122 0-1.09-.949-1.961-2.068-1.838a1.851 1.851 0 0 0-1.194 3.052l-.426 1.006-.673-.83a2.78 2.78 0 0 0 .277-1.164c.024-1.397-1.002-2.632-2.382-2.848a2.832 2.832 0 0 0-3.282 2.796c0 1.296.902 2.439 2.157 2.75v10.42a2.78 2.78 0 0 0-1.072-.355 2.071 2.071 0 0 0-.107-.025c-.023-.004-.044-.004-.066-.005a3.412 3.412 0 0 0-.34.003l-.032.011h-.013c-1.173.076-2.404.813-3.665 2.204-3.533 3.895-7.318 8.59-8.618 13.89-.207.844-.318 1.64-.329 2.386v.029a7.77 7.77 0 0 0 .026.753l.001.027c.056.659.198 1.273.422 1.837.776 1.949 3.039 3.936 5.263 4.627a5.88 5.88 0 0 0 1.743.277 4.5 4.5 0 0 0 2.546-.76c.592-.397 1.071-1.02 1.459-1.79a6.43 6.43 0 0 0 .18-.383l.08-.182a8.55 8.55 0 0 0 .15-.387c.024-.064.048-.128.07-.194.034-.097.068-.195.098-.295a6.52 6.52 0 0 0 .079-.253c.02-.062.038-.123.055-.186l.048-.171a15.237 15.237 0 0 0 .27-1.15c.01-.047.02-.094.028-.14a27.085 27.085 0 0 0 .348-2.396c.022-.214.043-.425.06-.637a43.373 43.373 0 0 0 .148-3.218 49.13 49.13 0 0 0-.07-3.289 61.488 61.488 0 0 0-.092-1.29 35.832 35.832 0 0 0-.418-3.398l-.055-.306a.74.74 0 0 0-.862-.592.742.742 0 0 0-.592.864c.052.274.1.557.145.846.105.69.195 1.429.269 2.244.05.539.091 1.11.128 1.722a43.278 43.278 0 0 1 .061 3.516l-.011.417-.008.232-.007.188a35.07 35.07 0 0 1-.119 1.896c-.017.208-.038.418-.059.625l-.019.183-.025.234a24.236 24.236 0 0 1-.068.53c-.024.183-.051.364-.077.542-.025.155-.05.31-.077.462l-.057.318a7.891 7.891 0 0 1-.05.25 17.179 17.179 0 0 1-.218.946l-.005.016c-.057.223-.12.438-.187.643l-.008.022c-.021.07-.044.137-.068.202a5.59 5.59 0 0 1-.07.198l-.063.163c-.282.71-.621 1.274-1.025 1.624l-.058.048a1.775 1.775 0 0 1-.132.097c-.836.561-1.855.662-3.027.298-2.021-.625-3.787-2.402-4.327-3.76-.441-1.105-.46-2.495-.058-4.133 1.221-4.978 4.869-9.49 8.278-13.248 1.043-1.151 2.02-1.749 2.815-1.725a1.8 1.8 0 0 1 .1.007l.026.003a1.368 1.368 0 0 1 .625.234c.202.144.38.335.545.517.176.194.325.412.444.646.072.141.13.274.261.374a.729.729 0 0 0 1.166-.584.707.707 0 0 0-.034-.208c-.05-.162-.144-.313-.226-.454a3.546 3.546 0 0 0-.131-.211c-.04-.063-.1-.125-.134-.193l-.006-.008a1.557 1.557 0 0 1 .167-.075c.088-.035.19-.072.307-.109a17.28 17.28 0 0 1 .789-.202l.11-.025.034-.009a1.27 1.27 0 0 0 .093-.02l.164-.032a15.167 15.167 0 0 1 .378-.076c.058-.01.115-.022.173-.033.138-.025.27-.05.412-.072l.17-.033.115-.017c.064-.011.13-.023.197-.032.11-.02.221-.037.332-.055l.043-.008.282-.043.023-.003c.159-.021.32-.047.48-.064a35.904 35.904 0 0 1 1.874-.21l.037-.004c.202-.017.407-.036.614-.051.176-.014.356-.024.545-.035.067-.003.133-.011.205-.011.084-.007.165-.011.249-.015l.213-.011c.057-.003.115-.006.173-.006.158-.008.317-.015.484-.018h.082c.195-.011.386-.015.593-.015l.028-.004h.007c.213-.003.43-.003.646-.003h.072c.21 0 .422 0 .635.003.017 0 .032 0 .057.004.202.004.4.007.603.015.17.003.34.007.51.014l.245.01c.154.008.306.015.457.026l.126.008c.141.01.282.017.427.028a30.944 30.944 0 0 1 1.443.125c.191.02.379.04.57.063l.093.01.09.014c.166.02.33.04.51.066.18.02.36.046.533.075l.158.026c.145.017.286.043.427.064.545.091 1.09.187 1.615.296l.034.008c.072.015.147.03.22.047l.025.003c.043.011.087.018.13.029l.313.067c.34.08.597.16.79.236.046.018.09.038.133.062-.034.068-.093.13-.135.193-.045.069-.088.14-.13.211-.081.141-.176.292-.226.454a.705.705 0 0 0-.033.208.729.729 0 0 0 1.165.584c.13-.1.188-.233.261-.374.096-.189.212-.367.345-.532.227-.279.5-.58.828-.737.111-.053.23-.07.342-.112l.004-.002c.07-.013.142-.022.218-.024.794-.02 1.772.572 2.816 1.725 3.408 3.758 7.056 8.27 8.277 13.248a12.915 12.915 0 0 1 .169.81c.01.054.017.108.025.163l.005.041a6.935 6.935 0 0 1 .083.872 5.892 5.892 0 0 1 .002.524l-.002.052a3.906 3.906 0 0 1-.016.242c-.005.07-.013.14-.02.208l-.01.079-.002.008c-.01.07-.019.14-.032.21a4.896 4.896 0 0 1-.173.686l-.01.032c-.024.07-.05.14-.077.207-.54 1.357-2.306 3.134-4.325 3.76-1.174.363-2.191.262-3.03-.299a2.097 2.097 0 0 1-.328-.277c-.026-.027-.053-.054-.077-.083a1.741 1.741 0 0 1-.074-.084 3.88 3.88 0 0 1-.423-.645 5.627 5.627 0 0 1-.247-.52 11.004 11.004 0 0 1-.577-1.854c-.075-.324-.142-.66-.205-1.008l-.043-.255a21.65 21.65 0 0 1-.082-.529l-.038-.274c-.013-.091-.024-.183-.036-.274a10.52 10.52 0 0 1-.03-.255l-.005-.034-.029-.264a34.103 34.103 0 0 1-.123-1.412 45.653 45.653 0 0 1-.082-1.65l-.011-.418-.008-.472a43.082 43.082 0 0 1 .069-3.044c.048-.777.102-1.49.17-2.151.064-.631.136-1.217.22-1.768.047-.308.097-.604.151-.893a.741.741 0 0 0-.591-.864.742.742 0 0 0-.862.592c-.021.112-.042.224-.061.34-.167.958-.297 2-.398 3.193a48.286 48.286 0 0 0-.128 6.416 37.291 37.291 0 0 0 .162 2.21 26.06 26.06 0 0 0 .42 2.74 15.123 15.123 0 0 0 .465 1.717c.016.05.035.1.053.152.033.098.069.192.106.287a7.263 7.263 0 0 0 .214.513c.029.064.058.126.09.189a1.1 1.1 0 0 0 .05.104c.388.776.87 1.404 1.465 1.803a4.5 4.5 0 0 0 2.546.761c.56 0 1.143-.091 1.744-.277 2.225-.69 4.486-2.678 5.262-4.627a6.41 6.41 0 0 0 .425-1.878v-.005a7.04 7.04 0 0 0 .024-.738v-.027c-.011-.745-.12-1.54-.327-2.383" style="fill:#271814;fill-opacity:1;fill-rule:nonzero;stroke:none;stroke-width:.0245748" transform="matrix(1.20242 0 0 1.20242 -7.49 -8.253)"/><path d="m45.108 20.725 1.116-1.372a26.964 26.964 0 0 0-1.45-.344l-.2-.04a25.919 25.919 0 0 0-1.673-.28l.944 1.773c.425.077.846.166 1.263.263M60.5 28.691l-.001-.005a27.409 27.409 0 0 0-10.024-7.813c-.442-.2-.89-.391-1.346-.57v1.73c.455.193.904.396 1.346.614 8.506 4.17 14.375 12.92 14.375 23.014l-.001.37v.027c-.005.247-.013.492-.024.738v.005a25.44 25.44 0 0 1-3.781 12.283 25.901 25.901 0 0 1-4.316 5.273c-.29.273-.589.537-.893.795a25.534 25.534 0 0 1-4.483 3.07 25.438 25.438 0 0 1-12.115 3.053 25.453 25.453 0 0 1-11.986-2.982 25.589 25.589 0 0 1-4.23-2.819 22.44 22.44 0 0 1-.426-.357 22.3 22.3 0 0 1-.887-.797 25.63 25.63 0 0 1-6.942-11.081 25.339 25.339 0 0 1-1.116-6.397l-.001-.027a23.58 23.58 0 0 1-.026-.753v-.03l-.001-.371c0-10.043 5.808-18.754 14.243-22.95.441-.22.89-.426 1.347-.622v-1.732c-.455.18-.904.373-1.347.578-9.345 4.313-15.846 13.774-15.846 24.726 0 3.12.527 6.116 1.497 8.908a27.318 27.318 0 0 0 9.426 12.878 27.192 27.192 0 0 0 4.07 2.528 27.064 27.064 0 0 0 12.225 2.902 27.066 27.066 0 0 0 16.258-5.4 27.536 27.536 0 0 0 1.415-1.134 27.48 27.48 0 0 0 4.722-5.232 27.106 27.106 0 0 0 4.821-15.45 27.082 27.082 0 0 0-5.952-16.97m-26.752-9.692-.163.034c-.488.104-.972.22-1.45.35l1.115 1.37h.001c.406-.098.813-.186 1.226-.263l.95-1.78c-.565.077-1.126.175-1.679.29" style="fill:#271814;fill-opacity:1;fill-rule:nonzero;stroke:none;stroke-width:.0245748" transform="matrix(1.20242 0 0 1.20242 -7.49 -8.253)"/><path d="M39.021 59.321a1.159 1.159 0 0 1 .413-.001h.005a1.253 1.253 0 0 1 .223 2.408h-.001a1.225 1.225 0 0 1-.925-.027 1.252 1.252 0 0 1 .282-2.38h.003m2.419-.205a2.607 2.607 0 0 0-1.177-.987 2.604 2.604 0 0 0-2.055-.003 2.65 2.65 0 0 0-1.182.989c-.273.415-.43.908-.43 1.439 0 .32.058.625.162.91v.002a2.643 2.643 0 0 0 2.475 1.723 2.64 2.64 0 0 0 2.447-1.66l.02-.054a2.627 2.627 0 0 0 .168-.921c0-.53-.157-1.024-.428-1.438" style="fill:#271814;fill-opacity:1;fill-rule:nonzero;stroke:none;stroke-width:.0245748" transform="matrix(1.20242 0 0 1.20242 -7.49 -8.253)"/><path d="M40.483 60.554c0 .538-.343 1-.82 1.174h-.002a1.225 1.225 0 0 1-.925-.027 1.252 1.252 0 0 1 .282-2.38h.003c.075.005.15-.154.226-.155.032-.001.063.038.095.077.031.04.063.078.094.077h.003a1.253 1.253 0 0 1 1.044 1.234" style="fill:#82c3e2;fill-opacity:1;fill-rule:nonzero;stroke:none;stroke-width:.0245748" transform="matrix(1.20242 0 0 1.20242 -7.49 -8.253)"/><path d="M39.233 61.805a1.252 1.252 0 0 1-.215-2.484h.006a1.138 1.138 0 0 1 .41-.002h.005a1.253 1.253 0 0 1 .223 2.41h-.001c-.133.05-.278.076-.428.076" style="fill:#5398cd;fill-opacity:1;fill-rule:nonzero;stroke:none;stroke-width:.0245748" transform="matrix(1.20242 0 0 1.20242 -7.49 -8.253)"/><path d="m42.517 68.305-.106-.108c-.739-.743-1.415-.743-2.199-.743h-.83c-.116 0-.231.003-.345.006-.2.005-.39.008-.575-.003-.672-.039-1.384-.03-2.057.55a7.285 7.285 0 0 0-.296.274c-.18.17-.35.331-.526.43-.243.132-.524.073-.667-.142a.783.783 0 0 1 .169-1.024c.373-.292 1.25-.973.56-1.978-.124-.183-.282-.325-.418-.452-.122-.112-.26-.237-.283-.317-.097-.33.086-.596.288-.734.091-.063.415-.247.731-.002.146.114.287.277.436.45.258.304.553.645.987.85.459.218.93.197 1.347.18.136-.005.264-.012.381-.007.3.01.6.008.89.006h.267c.58 0 1.061-.188 1.386-.546l.185-.205c.622-.702.915-.922 1.324-.755a.714.714 0 0 1 .423.444c.037.117.054.3-.074.497a1.87 1.87 0 0 1-.243.23c-.31.267-.952.818-.592 1.598.152.332.415.557.625.738.116.1.226.192.289.279.168.23.088.618-.092.836-.187.226-.352.15-.43.11-.188-.087-.366-.27-.555-.462m2.006-1.164a1.696 1.696 0 0 0-.093-.117c-.12-.14-.255-.253-.375-.357-.131-.112-.255-.22-.314-.318.055-.073.193-.192.28-.267.12-.103.243-.209.349-.33a1.715 1.715 0 0 0 .32-1.616 1.866 1.866 0 0 0-1.087-1.167c-.485-.199-.908-.174-1.275-.035-.573.216-1.013.713-1.348 1.091l-.174.193c-.128.14-.363.171-.536.171h-.271c-.28.002-.57.003-.848-.006a6.29 6.29 0 0 0-.467.008c-.31.013-.605.026-.806-.07-.213-.1-.404-.323-.606-.558-.179-.209-.365-.427-.604-.611-.607-.473-1.426-.489-2.083-.04-.677.46-.968 1.248-.747 2.01.114.388.39.64.61.843.101.093.196.18.247.253.03.042.042.07.047.085-.05.088-.268.258-.364.332a1.922 1.922 0 0 0-.42 2.574c.476.715 1.414.933 2.181.511.308-.17.55-.402.765-.606.083-.08.165-.158.253-.234.324-.279.63-.309 1.237-.272.233.014.454.008.67.003.105-.002.21-.005.318-.005h.83c.694 0 .98 0 1.382.404l.099.1c.239.246.511.524.886.7.061.029.124.054.186.074.159.054.317.08.475.08.43 0 .841-.197 1.15-.572a1.97 1.97 0 0 0 .446-1.247c0-.363-.103-.718-.313-1.004" style="fill:#271814;fill-opacity:1;fill-rule:nonzero;stroke:none;stroke-width:.0245748" transform="matrix(1.20242 0 0 1.20242 -7.49 -8.253)"/><path d="M41.92 56.218c-.309.65-.643 1.069-.873 1.308-.48.498-.928.897-1.415.943l-.106-.035c-.057.003-.122.12-.179.117l-.075-.007-.054.007c-.558.045-1.233-.454-1.786-1.025a4.764 4.764 0 0 1-.77-1.095c-.566-1.08-1.096-2.894-.85-5.776h-.005l.034-.44a9.29 9.29 0 0 0 3.004-.941.69.69 0 0 1 .323-.08c.114 0 .223.025.325.08a9.29 9.29 0 0 0 3.145.96l.034.466c.218 2.671-.233 4.423-.751 5.518" style="fill:#f57997;fill-opacity:1;fill-rule:nonzero;stroke:none;stroke-width:.0245748" transform="matrix(1.20242 0 0 1.20242 -7.49 -8.253)"/><path d="M42.724 52.31c-.96-.156-2.04-.474-3.19-1.052a.814.814 0 0 0-.755 0 10.898 10.898 0 0 1-3.026 1.023 15.5 15.5 0 0 1 .059-1.626h-.005l.034-.44a9.29 9.29 0 0 0 3.004-.941.69.69 0 0 1 .323-.08c.114 0 .223.025.325.08a9.29 9.29 0 0 0 3.145.96l.034.466c.047.58.063 1.117.052 1.61" style="fill:#f14d64;fill-opacity:1;fill-rule:nonzero;stroke:none;stroke-width:.0245748" transform="matrix(1.20242 0 0 1.20242 -7.49 -8.253)"/><path d="M42.724 52.312a15.226 15.226 0 0 1-.047.912 7.805 7.805 0 0 1-.04.367c-.008.082-.02.16-.03.24-.024.164-.05.324-.082.478a2.05 2.05 0 0 1-.03.15 6.33 6.33 0 0 1-.09.393l-.01.038a5.568 5.568 0 0 1-.098.35l-.053.162a1.653 1.653 0 0 1-.054.16 2.474 2.474 0 0 1-.047.129 7.71 7.71 0 0 1-.223.527c-.309.65-.644 1.07-.873 1.308a3.63 3.63 0 0 1-.178.172 2.98 2.98 0 0 1-.606.43 2.029 2.029 0 0 1-.657.22l-.01.004c-.19.041-.47.025-.62.01l-.051-.004-.029-.005-.022-.001h-.002a2.026 2.026 0 0 1-.664-.226 2.992 2.992 0 0 1-.597-.428 4.49 4.49 0 0 1-.18-.172 4.81 4.81 0 0 1-.768-1.094l-.084-.169a6.806 6.806 0 0 1-.262-.612l-.073-.21a6.307 6.307 0 0 1-.129-.422 15.9 15.9 0 0 1-.053-.197 9.583 9.583 0 0 1-.234-1.33 8.482 8.482 0 0 1-.046-.511 6.182 6.182 0 0 1-.015-.252 9.891 9.891 0 0 1-.014-.447 15.805 15.805 0 0 1 .06-1.627h-.007l.035-.439v-.001l.162-.023c.11-.016.221-.035.335-.056l.018-.003c.105-.02.215-.044.325-.07.064-.014.13-.031.197-.047.068-.018.133-.034.202-.055a5.54 5.54 0 0 0 .188-.053l.189-.059.192-.066.196-.07c.072-.028.144-.056.216-.087a9.425 9.425 0 0 0 .668-.296c.03.165.061.362.097.585.118.703.245 1.649.338 2.598.043.476.075.95.093 1.397.017.448.019.864.019 1.225-.008.18-.02.343-.023.49.002.15-.02.274-.027.38-.02.21-.027.335-.027.335l.078.023s.052-.113.129-.315c.037-.102.094-.224.134-.368.047-.144.089-.31.141-.489l.13-.588c.037-.212.066-.433.101-.665.023-.231.045-.47.07-.714l.03-.738c.013-.496.006-.99-.02-1.454a28.832 28.832 0 0 0-.097-1.262 11.047 11.047 0 0 0-.04-.325 9.006 9.006 0 0 0 .75.308l.033.011c.05.02.098.035.146.051.088.03.176.06.266.085l.007.005.26.074.172.045a6.427 6.427 0 0 0 .32.074c.038.01.071.017.108.023l.153.03c.072.014.144.025.214.036.039.007.079.011.117.018l.236.03.035.465a14.171 14.171 0 0 1 .034.53l.008.16c.014.321.018.63.01.922m1.607-4.026a2.91 2.91 0 0 1-.258.024c-.03.005-.064.005-.093.005a3.03 3.03 0 0 1-.239.011h-.065a4.89 4.89 0 0 1-.244-.008 3.72 3.72 0 0 1-.27-.02 5.309 5.309 0 0 1-.498-.07l-.1-.02c-.057-.013-.108-.024-.158-.042a3.806 3.806 0 0 1-1.083-.433 2.888 2.888 0 0 1-.723-.612.292.292 0 0 1-.06-.07l-.01-.013v-.005l-.006-.008c-.128-.249.023-.548.295-.617a5.693 5.693 0 0 0 1.587-.667c.51-.317.88-.824.995-1.414.186-.961-.139-1.795-.564-2.43a3.229 3.229 0 0 0-2.045-1.355 2.36 2.36 0 0 0-.486-.052h-2.23a2.18 2.18 0 0 0-.457.049h-.003a3.225 3.225 0 0 0-2.063 1.359c-.423.634-.749 1.468-.563 2.43.116.59.484 1.096.996 1.413.373.23.895.489 1.545.656.27.07.416.367.291.617l-.013.024-.01.012a.345.345 0 0 1-.058.071 2.859 2.859 0 0 1-.728.612c-.329.202-.699.34-1.079.433-.051.018-.104.029-.158.042-.036.006-.066.014-.103.02a5.094 5.094 0 0 1-.494.07c-.09.01-.18.017-.272.02-.083.004-.16.008-.242.008h-.067c-.077 0-.16-.004-.238-.01-.029 0-.064 0-.093-.006a2.739 2.739 0 0 1-.26-.024c-.918-.097-2.014-.41-3.317-1.072.027.085.987 2.75 4.138 3.07h.036v.001c-.25 2.529.043 4.356.51 5.646a6.82 6.82 0 0 0 .764 1.534c.17.257.341.467.5.638a4.254 4.254 0 0 0 .695.623c.117.084.238.16.36.227.298.163.607.278.915.336.133.012.267.021.405.03l.005.002h.003a1.159 1.159 0 0 1 .414-.001h.004c.028 0 .053-.002.08-.004.122-.01.243-.017.363-.027.303-.059.606-.173.902-.336a3.48 3.48 0 0 0 .353-.22 4.444 4.444 0 0 0 .878-.825 6.936 6.936 0 0 0 .329-.444 7.282 7.282 0 0 0 .883-1.898c.394-1.266.617-2.986.386-5.294 1.532-.181 2.536-.925 3.157-1.633.622-.71.864-1.383.879-1.425-1.302.662-2.401.975-3.318 1.072" style="fill:#271814;fill-opacity:1;fill-rule:nonzero;stroke:none;stroke-width:.0245748" transform="matrix(1.20242 0 0 1.20242 -7.49 -8.253)"/><path d="m40.132 45.542-.078-.001-.094-.006-.006-.043.085-.038c.055-.025.134-.062.232-.112.096-.052.213-.113.338-.195.124-.082.262-.175.396-.293.268-.228.546-.54.658-.901a1.096 1.096 0 0 0 .048-.402c0-.017-.007-.059-.01-.087l-.002-.014v-.002l-.001-.005-.002-.009-.007-.038c-.04-.2-.126-.4-.245-.58a2.18 2.18 0 0 0-.446-.485 3.058 3.058 0 0 0-.563-.354 4.719 4.719 0 0 0-1.173-.374 6.07 6.07 0 0 0-.501-.081 8.05 8.05 0 0 0-.394-.043l-.35-.03-.003-.044s.123-.035.345-.077c.223-.042.542-.086.936-.089.39.004.86.047 1.344.22.242.086.485.208.716.366.229.161.445.362.617.606.175.241.302.526.365.825l.011.056.008.041.002.024c.004.035.008.056.01.102a1.597 1.597 0 0 1-.103.699c-.107.28-.277.502-.455.677a2.44 2.44 0 0 1-.555.398c-.186.092-.36.161-.518.203a2.334 2.334 0 0 1-.605.086M41.7 43.45" style="fill:#442619;fill-opacity:1;fill-rule:nonzero;stroke:none;stroke-width:.0245748" transform="matrix(1.20242 0 0 1.20242 -7.49 -8.253)"/><path d="M40.036 60.554a.803.803 0 1 1-1.606 0 .803.803 0 0 1 1.606 0" style="fill:#271814;fill-opacity:1;fill-rule:nonzero;stroke:none;stroke-width:.0245748" transform="matrix(1.20242 0 0 1.20242 -7.49 -8.253)"/><path d="M39.72 65.731h-.961v-5.178h.962v5.178" style="fill:#271814;fill-opacity:1;fill-rule:nonzero;stroke:none;stroke-width:.0245748" transform="matrix(1.20242 0 0 1.20242 -7.49 -8.253)"/><path d="M43.502 68.657c-.187.226-.352.15-.43.111-.188-.088-.366-.27-.555-.463l-.106-.108c-.739-.743-1.415-.743-2.199-.743h-.83c-.116 0-.231.003-.345.006-.2.005-.39.008-.575-.003-.672-.039-1.384-.03-2.057.55a7.285 7.285 0 0 0-.296.274c-.18.17-.35.331-.526.43-.243.132-.524.073-.667-.142a.783.783 0 0 1 .169-1.024c.373-.292 1.25-.973.56-1.978-.124-.183-.282-.325-.418-.452-.122-.112-.26-.237-.283-.317-.097-.33.086-.596.288-.734.091-.063.415-.247.731-.002.146.114.287.277.436.45.258.304.553.645.987.85.459.218.93.197 1.347.18.136-.005.264-.012.381-.007.3.01.6.008.89.006h.267c.58 0 1.061-.188 1.386-.546l.185-.205c.622-.702.915-.922 1.324-.755a.714.714 0 0 1 .423.444c.037.117.054.3-.074.497a1.87 1.87 0 0 1-.243.23c-.31.267-.952.818-.592 1.598.152.332.415.557.625.738.116.1.226.192.289.279.168.23.088.618-.092.836" style="fill:#fff;fill-opacity:1;fill-rule:nonzero;stroke:none;stroke-width:.0245748" transform="matrix(1.20242 0 0 1.20242 -7.49 -8.253)"/><path d="M43.231 68.812a.359.359 0 0 1-.16-.044c-.187-.088-.365-.27-.554-.463l-.106-.108c-.739-.743-1.415-.743-2.199-.743h-.83c-.116 0-.231.003-.345.006-.1.003-.197.004-.293.004-.096 0-.19-.002-.282-.007a6.933 6.933 0 0 0-.4-.013c-.55 0-1.115.096-1.657.563a7.285 7.285 0 0 0-.296.274c-.18.17-.35.331-.526.43a.559.559 0 0 1-.268.07c.089 0 .18-.023.268-.07.176-.099.346-.26.526-.43.093-.09.19-.183.296-.274.542-.467 1.107-.563 1.657-.563.135 0 .268.005.4.013.093.005.186.007.282.007.095 0 .193-.002.293-.004.114-.003.23-.006.345-.006h.83c.784 0 1.46 0 2.199.743l.106.108c.189.192.367.375.554.463a.359.359 0 0 0 .16.044c.078 0 .171-.034.271-.155-.1.12-.193.155-.27.155" style="fill:#adaaa7;fill-opacity:1;fill-rule:nonzero;stroke:none;stroke-width:.0245748" transform="matrix(1.20242 0 0 1.20242 -7.49 -8.253)"/><path d="M43.231 68.812a.359.359 0 0 1-.16-.044c-.187-.088-.365-.27-.554-.463l-.106-.108c-.739-.743-1.415-.743-2.199-.743h-.83c-.116 0-.231.003-.345.006-.1.003-.197.004-.293.004-.096 0-.19-.002-.282-.007a6.933 6.933 0 0 0-.4-.013c-.55 0-1.115.096-1.657.563a7.285 7.285 0 0 0-.296.274c-.18.17-.35.331-.526.43a.559.559 0 0 1-.268.07.472.472 0 0 1-.399-.212.723.723 0 0 1-.115-.317.784.784 0 0 1 .005-.212.557.557 0 0 0 .123.014.62.62 0 0 0 .297-.078c.194-.106.38-.284.577-.471.102-.098.21-.2.325-.3.594-.513 1.216-.618 1.82-.618.146 0 .292.006.437.014.098.006.196.008.296.008.11 0 .221-.003.337-.005.125-.003.252-.006.378-.006h.91c.861 0 1.603 0 2.414.816l.117.118c.207.21.403.412.61.508.04.02.1.048.175.048a.28.28 0 0 0 .061-.006.84.84 0 0 1-.18.575c-.1.12-.194.155-.272.155" style="fill:#dbdddc;fill-opacity:1;fill-rule:nonzero;stroke:none;stroke-width:.0245748" transform="matrix(1.20242 0 0 1.20242 -7.49 -8.253)"/></svg>