<svg xmlns="http://www.w3.org/2000/svg" width="109.738" height="22.152" preserveAspectRatio="xMidYMid" version="1.0" viewBox="0 0 82.303 16.614"><path d="M24153.179 14523.156c-69-34-115-121.999-211-397.999-34-99-75-209-92-243-45-96-43-95-393-93-303 2-370-5-431-45-55-36-68-103-33-169 32-60 90-116 244-233 299-226 319-248 306-332-4-25-45-155-91-289-60-178-84-263-88-311-8-122 30-180 119-180 71 0 145 32 266 115 279 192 348 236 385 247s45 10 92-15c48-25 85-52 331-239 203-154 333-180 386-76 38 74 23 176-70 471-50 161-75 271-67 301 9 38 79 97 265 226 206 143 274 199 307 255 53 91 16 179-89 210-64 19-256 34-443 35-78 0-166 4-195 10-76 14-99 44-148 199-22 69-61 192-86 272-55 176-97 247.999-158 277.999-52 25-62 25-106 4zM26757.179 14531.156c-30-13-70-53-97-96.999-34-55-62-124-130-319-32-93-72-198-88-233-44-95-40-94-420-96-343-1-361-4-420-59-43-41-48-85-16-151 31-64 86-117 257-246 196-148 257-199 280-237 20-32 21-39 9-96-6-34-41-143-76-241-105-292-123-388-88-462 24-49 64-68 136-61 74 7 142 44 358 195 177 124 259 172 294 172 36 0 113-50 306-196 214-162 289-204 365-204 85 0 125 50 125 158 0 71-16 136-91 386-35 116-60 221-62 253-2 55-2 55 54 107 30 28 122 97 205 153 194 134 258 184 294 235 42 58 52 101 34 147-34 86-123 109-464 118-290 7-335 15-366 61-26 39-59 130-114 317-70 238-117 340.999-174 377.999-30 20-85 29-111 18z" style="fill:#fd0;fill-opacity:1" transform="matrix(.00632 0 0 -.00632 -144.394 92.76)"/><path d="M29346.179 14526.156c-76-34-127-127.999-224-410.999-61-180-98-265-127-297-23-26-79-30-401-32-263-1-302-3-337-19-131-59-134-162-7-285 32-32 118-102 192-158 269-201 297-232 286-308-4-23-45-153-91-291-95-280-108-348-81-420 21-55 55-75 124-75s166 52 372 196c162 114 264 174 295 174 27 0 107-46 195-112 47-35 131-99 187-142 140-106 219-146 287-146 61 0 96 21 116 70 21 51 7 188-34 325-93 308-106 359-106 410s2 55 53 101c30 27 130 101 222 164 193 131 295 224 313 285 27 95-32 160-169 185-30 6-174 14-319 19-316 10-328 13-365 93-13 29-54 152-90 273-37 123-82 249-102 288-55 103.999-121 143.999-189 112.999zM31937.179 14526.156c-76-33-122-115.999-219-396.999-99-287-118-323-182-335-18-3-172-7-341-8-307-1-308-1-357-26-87-44-110-103-71-184 28-59 101-126 302-278 206-157 253-203 253-249 0-47-24-131-94-326-106-295-117-394-51-460 29-29 39-33 87-33 84 0 167 45 448 245 130 92 204 128 245 121 37-7 111-57 325-220 178-135 255-176 327-176 54 0 86 17 107 58 38 77 27 159-61 447-37 121-66 239-70 278l-6 68 49 47c27 26 128 101 224 167 249 171 330 254 330 336 0 64-72 119-181 139-30 6-174 14-319 19-316 10-325 12-363 93-14 30-48 131-76 224-99 338-137 416.999-218 449.999-39 17-50 17-88 0zM34527.179 14526.156c-74-32-119-113.999-220-405.999-96-276-117-314-183-326-18-4-172-7-340-8-276-1-311-3-350-20-87-38-115-112-73-194 28-54 135-152 312-285 86-64 176-138 199-163 42-46 43-47 37-104-4-32-38-147-76-256-85-246-87-254-101-333-22-127 24-201 125-201 72 0 170 51 375 194 169 119 265 176 297 176 30 0 104-42 196-112 256-194 302-227 354-253 35-18 77-30 113-33 49-4 60-1 87 22 21 18 35 42 43 75 19 79 3 154-104 506-21 66-40 148-43 183l-6 63 49 47c28 26 127 100 222 165 302 207 372 296 312 394-44 74-123 90-481 102-318 10-323 11-361 97-15 33-54 151-88 263-88 291-130 374.999-207 406.999-39 17-50 17-88 0z" style="fill:#e6e6e6;fill-opacity:1" transform="matrix(.00632 0 0 -.00632 -144.394 92.76)"/></svg>