<svg xmlns="http://www.w3.org/2000/svg" width="16" height="16" viewBox="0 0 12 12"><path d="m352.084 299.561-38.71 36.887-18.443-19.052c-2.432-2.431-6.283-2.431-8.512-.202-2.432 2.431-2.432 6.283-.203 8.512l22.7 23.308c1.216 1.216 2.837 1.824 4.256 1.824s3.04-.608 4.256-1.62l43.168-40.94c2.431-2.23 2.635-6.082.202-8.513a6.308 6.308 0 0 0-8.714-.204z" style="stroke-width:.354677;fill:#75af32;fill-opacity:1" transform="translate(-19.868 -19.963) scale(.08001)"/><path d="M323.305 249.502c-41.345 0-74.99 33.643-74.99 74.99 0 41.344 33.644 74.989 74.99 74.989 41.345 0 74.99-33.643 74.99-74.99 0-41.344-33.645-74.989-74.99-74.989zm0 137.817c-34.657 0-62.827-28.172-62.827-62.827 0-34.656 28.172-62.828 62.827-62.828 34.656 0 62.828 28.172 62.828 62.828 0 34.655-28.172 62.827-62.828 62.827z" style="stroke-width:.354677;fill:#75af32;fill-opacity:1" transform="translate(-19.868 -19.963) scale(.08001)"/></svg>